%TF.GenerationSoftware,KiCad,Pcbnew,(5.1.10)-1*%
%TF.CreationDate,2021-12-21T20:20:17-05:00*%
%TF.ProjectId,SlimeVRMotherBoard,536c696d-6556-4524-9d6f-74686572426f,rev?*%
%TF.SameCoordinates,Original*%
%TF.FileFunction,Copper,L2,Bot*%
%TF.FilePolarity,Positive*%
%FSLAX46Y46*%
G04 Gerber Fmt 4.6, Leading zero omitted, Abs format (unit mm)*
G04 Created by KiCad (PCBNEW (5.1.10)-1) date 2021-12-21 20:20:17*
%MOMM*%
%LPD*%
G01*
G04 APERTURE LIST*
%TA.AperFunction,ComponentPad*%
%ADD10C,2.000000*%
%TD*%
%TA.AperFunction,ComponentPad*%
%ADD11C,2.500000*%
%TD*%
%TA.AperFunction,ComponentPad*%
%ADD12C,1.800000*%
%TD*%
%TA.AperFunction,Conductor*%
%ADD13C,0.254000*%
%TD*%
%TA.AperFunction,Conductor*%
%ADD14C,0.100000*%
%TD*%
G04 APERTURE END LIST*
D10*
%TO.P,BT1,1*%
%TO.N,Net-(BT1-Pad1)*%
X173000000Y-116000000D03*
%TO.P,BT1,2*%
%TO.N,Net-(BT1-Pad2)*%
X169000000Y-116000000D03*
%TD*%
D11*
%TO.P,S1,2*%
%TO.N,Net-(S1-Pad2)*%
X184000000Y-142000000D03*
%TO.P,S1,1*%
%TO.N,Net-(S1-Pad1)*%
X184000000Y-146800000D03*
%TO.P,S1,3*%
%TO.N,Net-(S1-Pad3)*%
X184000000Y-137200000D03*
%TD*%
D10*
%TO.P,U1,4*%
%TO.N,Net-(U1-Pad4)*%
X177500000Y-122000000D03*
%TO.P,U1,3*%
%TO.N,Net-(BT1-Pad1)*%
X174500000Y-122000000D03*
%TO.P,U1,5*%
%TO.N,Net-(U1-Pad5)*%
X164500000Y-145000000D03*
%TO.P,U1,6*%
%TO.N,Net-(U1-Pad6)*%
X177500000Y-145000000D03*
%TO.P,U1,1*%
%TO.N,Net-(S1-Pad3)*%
X164500000Y-122000000D03*
%TO.P,U1,2*%
%TO.N,Net-(BT1-Pad2)*%
X167500000Y-122000000D03*
%TD*%
D12*
%TO.P,U2,8*%
%TO.N,Net-(U2-Pad8)*%
X136570000Y-138890000D03*
%TO.P,U2,9*%
%TO.N,Net-(S1-Pad2)*%
X159430000Y-138890000D03*
%TO.P,U2,7*%
%TO.N,Net-(U2-Pad7)*%
X136570000Y-136350000D03*
%TO.P,U2,10*%
%TO.N,Net-(U1-Pad4)*%
X159430000Y-136350000D03*
%TO.P,U2,6*%
%TO.N,Net-(U2-Pad6)*%
X136570000Y-133810000D03*
%TO.P,U2,11*%
%TO.N,Net-(U2-Pad11)*%
X159430000Y-133810000D03*
%TO.P,U2,5*%
%TO.N,Net-(U2-Pad5)*%
X136570000Y-131270000D03*
%TO.P,U2,12*%
%TO.N,Net-(U2-Pad12)*%
X159430000Y-131270000D03*
%TO.P,U2,4*%
%TO.N,Net-(U2-Pad4)*%
X136570000Y-128730000D03*
%TO.P,U2,13*%
%TO.N,Net-(U2-Pad13)*%
X159430000Y-128730000D03*
%TO.P,U2,3*%
%TO.N,Net-(U2-Pad3)*%
X136570000Y-126190000D03*
%TO.P,U2,14*%
%TO.N,Net-(U2-Pad14)*%
X159430000Y-126190000D03*
%TO.P,U2,2*%
%TO.N,Net-(U2-Pad2)*%
X136570000Y-123650000D03*
%TO.P,U2,15*%
%TO.N,Net-(U2-Pad15)*%
X159430000Y-123650000D03*
%TO.P,U2,1*%
%TO.N,Net-(U2-Pad1)*%
X136570000Y-121110000D03*
%TO.P,U2,16*%
%TO.N,Net-(U2-Pad16)*%
X159430000Y-121110000D03*
%TD*%
D10*
%TO.P,U3,3*%
%TO.N,Net-(U2-Pad14)*%
X150500000Y-110000000D03*
%TO.P,U3,2*%
%TO.N,Net-(U1-Pad4)*%
X153500000Y-110000000D03*
%TO.P,U3,1*%
%TO.N,Net-(U2-Pad8)*%
X156500000Y-110000000D03*
%TO.P,U3,4*%
%TO.N,Net-(U2-Pad13)*%
X147500000Y-110000000D03*
%TO.P,U3,5*%
%TO.N,Net-(U1-Pad4)*%
X144500000Y-110000000D03*
%TO.P,U3,6*%
%TO.N,Net-(U2-Pad4)*%
X141500000Y-110000000D03*
%TD*%
%TO.P,U4,6*%
%TO.N,Net-(U2-Pad5)*%
X141500000Y-102000000D03*
%TO.P,U4,5*%
%TO.N,Net-(U4-Pad5)*%
X144500000Y-102000000D03*
%TO.P,U4,4*%
%TO.N,Net-(U2-Pad13)*%
X147500000Y-102000000D03*
%TO.P,U4,1*%
%TO.N,Net-(U2-Pad8)*%
X156500000Y-102000000D03*
%TO.P,U4,2*%
%TO.N,Net-(U1-Pad4)*%
X153500000Y-102000000D03*
%TO.P,U4,3*%
%TO.N,Net-(U2-Pad14)*%
X150500000Y-102000000D03*
%TD*%
D13*
%TO.N,Net-(U1-Pad4)*%
X187340001Y-148340000D02*
X185088138Y-148340000D01*
X185201618Y-148264175D01*
X185464175Y-148001618D01*
X185670466Y-147692882D01*
X185812561Y-147349834D01*
X185885000Y-146985656D01*
X185885000Y-146614344D01*
X185812561Y-146250166D01*
X185670466Y-145907118D01*
X185464175Y-145598382D01*
X185201618Y-145335825D01*
X184892882Y-145129534D01*
X184549834Y-144987439D01*
X184185656Y-144915000D01*
X183814344Y-144915000D01*
X183450166Y-144987439D01*
X183107118Y-145129534D01*
X182798382Y-145335825D01*
X182535825Y-145598382D01*
X182329534Y-145907118D01*
X182187439Y-146250166D01*
X182115000Y-146614344D01*
X182115000Y-146985656D01*
X182187439Y-147349834D01*
X182329534Y-147692882D01*
X182535825Y-148001618D01*
X182798382Y-148264175D01*
X182911862Y-148340000D01*
X134660000Y-148340000D01*
X134660000Y-144838967D01*
X162865000Y-144838967D01*
X162865000Y-145161033D01*
X162927832Y-145476912D01*
X163051082Y-145774463D01*
X163230013Y-146042252D01*
X163457748Y-146269987D01*
X163725537Y-146448918D01*
X164023088Y-146572168D01*
X164338967Y-146635000D01*
X164661033Y-146635000D01*
X164976912Y-146572168D01*
X165274463Y-146448918D01*
X165542252Y-146269987D01*
X165769987Y-146042252D01*
X165948918Y-145774463D01*
X166072168Y-145476912D01*
X166135000Y-145161033D01*
X166135000Y-144838967D01*
X175865000Y-144838967D01*
X175865000Y-145161033D01*
X175927832Y-145476912D01*
X176051082Y-145774463D01*
X176230013Y-146042252D01*
X176457748Y-146269987D01*
X176725537Y-146448918D01*
X177023088Y-146572168D01*
X177338967Y-146635000D01*
X177661033Y-146635000D01*
X177976912Y-146572168D01*
X178274463Y-146448918D01*
X178542252Y-146269987D01*
X178769987Y-146042252D01*
X178948918Y-145774463D01*
X179072168Y-145476912D01*
X179135000Y-145161033D01*
X179135000Y-144838967D01*
X179072168Y-144523088D01*
X178948918Y-144225537D01*
X178769987Y-143957748D01*
X178542252Y-143730013D01*
X178274463Y-143551082D01*
X177976912Y-143427832D01*
X177661033Y-143365000D01*
X177338967Y-143365000D01*
X177023088Y-143427832D01*
X176725537Y-143551082D01*
X176457748Y-143730013D01*
X176230013Y-143957748D01*
X176051082Y-144225537D01*
X175927832Y-144523088D01*
X175865000Y-144838967D01*
X166135000Y-144838967D01*
X166072168Y-144523088D01*
X165948918Y-144225537D01*
X165769987Y-143957748D01*
X165542252Y-143730013D01*
X165274463Y-143551082D01*
X164976912Y-143427832D01*
X164661033Y-143365000D01*
X164338967Y-143365000D01*
X164023088Y-143427832D01*
X163725537Y-143551082D01*
X163457748Y-143730013D01*
X163230013Y-143957748D01*
X163051082Y-144225537D01*
X162927832Y-144523088D01*
X162865000Y-144838967D01*
X134660000Y-144838967D01*
X134660000Y-141814344D01*
X182115000Y-141814344D01*
X182115000Y-142185656D01*
X182187439Y-142549834D01*
X182329534Y-142892882D01*
X182535825Y-143201618D01*
X182798382Y-143464175D01*
X183107118Y-143670466D01*
X183450166Y-143812561D01*
X183814344Y-143885000D01*
X184185656Y-143885000D01*
X184549834Y-143812561D01*
X184892882Y-143670466D01*
X185201618Y-143464175D01*
X185464175Y-143201618D01*
X185670466Y-142892882D01*
X185812561Y-142549834D01*
X185885000Y-142185656D01*
X185885000Y-141814344D01*
X185812561Y-141450166D01*
X185670466Y-141107118D01*
X185464175Y-140798382D01*
X185201618Y-140535825D01*
X184892882Y-140329534D01*
X184549834Y-140187439D01*
X184185656Y-140115000D01*
X183814344Y-140115000D01*
X183450166Y-140187439D01*
X183107118Y-140329534D01*
X182798382Y-140535825D01*
X182535825Y-140798382D01*
X182329534Y-141107118D01*
X182187439Y-141450166D01*
X182115000Y-141814344D01*
X134660000Y-141814344D01*
X134660000Y-120958816D01*
X135035000Y-120958816D01*
X135035000Y-121261184D01*
X135093989Y-121557743D01*
X135209701Y-121837095D01*
X135377688Y-122088505D01*
X135591495Y-122302312D01*
X135707763Y-122380000D01*
X135591495Y-122457688D01*
X135377688Y-122671495D01*
X135209701Y-122922905D01*
X135093989Y-123202257D01*
X135035000Y-123498816D01*
X135035000Y-123801184D01*
X135093989Y-124097743D01*
X135209701Y-124377095D01*
X135377688Y-124628505D01*
X135591495Y-124842312D01*
X135707763Y-124920000D01*
X135591495Y-124997688D01*
X135377688Y-125211495D01*
X135209701Y-125462905D01*
X135093989Y-125742257D01*
X135035000Y-126038816D01*
X135035000Y-126341184D01*
X135093989Y-126637743D01*
X135209701Y-126917095D01*
X135377688Y-127168505D01*
X135591495Y-127382312D01*
X135707763Y-127460000D01*
X135591495Y-127537688D01*
X135377688Y-127751495D01*
X135209701Y-128002905D01*
X135093989Y-128282257D01*
X135035000Y-128578816D01*
X135035000Y-128881184D01*
X135093989Y-129177743D01*
X135209701Y-129457095D01*
X135377688Y-129708505D01*
X135591495Y-129922312D01*
X135707763Y-130000000D01*
X135591495Y-130077688D01*
X135377688Y-130291495D01*
X135209701Y-130542905D01*
X135093989Y-130822257D01*
X135035000Y-131118816D01*
X135035000Y-131421184D01*
X135093989Y-131717743D01*
X135209701Y-131997095D01*
X135377688Y-132248505D01*
X135591495Y-132462312D01*
X135707763Y-132540000D01*
X135591495Y-132617688D01*
X135377688Y-132831495D01*
X135209701Y-133082905D01*
X135093989Y-133362257D01*
X135035000Y-133658816D01*
X135035000Y-133961184D01*
X135093989Y-134257743D01*
X135209701Y-134537095D01*
X135377688Y-134788505D01*
X135591495Y-135002312D01*
X135707763Y-135080000D01*
X135591495Y-135157688D01*
X135377688Y-135371495D01*
X135209701Y-135622905D01*
X135093989Y-135902257D01*
X135035000Y-136198816D01*
X135035000Y-136501184D01*
X135093989Y-136797743D01*
X135209701Y-137077095D01*
X135377688Y-137328505D01*
X135591495Y-137542312D01*
X135707763Y-137620000D01*
X135591495Y-137697688D01*
X135377688Y-137911495D01*
X135209701Y-138162905D01*
X135093989Y-138442257D01*
X135035000Y-138738816D01*
X135035000Y-139041184D01*
X135093989Y-139337743D01*
X135209701Y-139617095D01*
X135377688Y-139868505D01*
X135591495Y-140082312D01*
X135842905Y-140250299D01*
X136122257Y-140366011D01*
X136418816Y-140425000D01*
X136721184Y-140425000D01*
X137017743Y-140366011D01*
X137297095Y-140250299D01*
X137548505Y-140082312D01*
X137762312Y-139868505D01*
X137930299Y-139617095D01*
X138046011Y-139337743D01*
X138105000Y-139041184D01*
X138105000Y-138738816D01*
X157895000Y-138738816D01*
X157895000Y-139041184D01*
X157953989Y-139337743D01*
X158069701Y-139617095D01*
X158237688Y-139868505D01*
X158451495Y-140082312D01*
X158702905Y-140250299D01*
X158982257Y-140366011D01*
X159278816Y-140425000D01*
X159581184Y-140425000D01*
X159877743Y-140366011D01*
X160157095Y-140250299D01*
X160408505Y-140082312D01*
X160622312Y-139868505D01*
X160790299Y-139617095D01*
X160906011Y-139337743D01*
X160965000Y-139041184D01*
X160965000Y-138738816D01*
X160906011Y-138442257D01*
X160790299Y-138162905D01*
X160622312Y-137911495D01*
X160408505Y-137697688D01*
X160254895Y-137595049D01*
X160314475Y-137414080D01*
X159430000Y-136529605D01*
X158545525Y-137414080D01*
X158605105Y-137595049D01*
X158451495Y-137697688D01*
X158237688Y-137911495D01*
X158069701Y-138162905D01*
X157953989Y-138442257D01*
X157895000Y-138738816D01*
X138105000Y-138738816D01*
X138046011Y-138442257D01*
X137930299Y-138162905D01*
X137762312Y-137911495D01*
X137548505Y-137697688D01*
X137432237Y-137620000D01*
X137548505Y-137542312D01*
X137762312Y-137328505D01*
X137930299Y-137077095D01*
X138046011Y-136797743D01*
X138105000Y-136501184D01*
X138105000Y-136416553D01*
X157889009Y-136416553D01*
X157931603Y-136715907D01*
X158031778Y-137001199D01*
X158111739Y-137150792D01*
X158365920Y-137234475D01*
X159250395Y-136350000D01*
X159609605Y-136350000D01*
X160494080Y-137234475D01*
X160748261Y-137150792D01*
X160813788Y-137014344D01*
X182115000Y-137014344D01*
X182115000Y-137385656D01*
X182187439Y-137749834D01*
X182329534Y-138092882D01*
X182535825Y-138401618D01*
X182798382Y-138664175D01*
X183107118Y-138870466D01*
X183450166Y-139012561D01*
X183814344Y-139085000D01*
X184185656Y-139085000D01*
X184549834Y-139012561D01*
X184892882Y-138870466D01*
X185201618Y-138664175D01*
X185464175Y-138401618D01*
X185670466Y-138092882D01*
X185812561Y-137749834D01*
X185885000Y-137385656D01*
X185885000Y-137014344D01*
X185812561Y-136650166D01*
X185670466Y-136307118D01*
X185464175Y-135998382D01*
X185201618Y-135735825D01*
X184892882Y-135529534D01*
X184549834Y-135387439D01*
X184185656Y-135315000D01*
X183814344Y-135315000D01*
X183450166Y-135387439D01*
X183107118Y-135529534D01*
X182798382Y-135735825D01*
X182535825Y-135998382D01*
X182329534Y-136307118D01*
X182187439Y-136650166D01*
X182115000Y-137014344D01*
X160813788Y-137014344D01*
X160879158Y-136878225D01*
X160954365Y-136585358D01*
X160970991Y-136283447D01*
X160928397Y-135984093D01*
X160828222Y-135698801D01*
X160748261Y-135549208D01*
X160494080Y-135465525D01*
X159609605Y-136350000D01*
X159250395Y-136350000D01*
X158365920Y-135465525D01*
X158111739Y-135549208D01*
X157980842Y-135821775D01*
X157905635Y-136114642D01*
X157889009Y-136416553D01*
X138105000Y-136416553D01*
X138105000Y-136198816D01*
X138046011Y-135902257D01*
X137930299Y-135622905D01*
X137762312Y-135371495D01*
X137548505Y-135157688D01*
X137432237Y-135080000D01*
X137548505Y-135002312D01*
X137762312Y-134788505D01*
X137930299Y-134537095D01*
X138046011Y-134257743D01*
X138105000Y-133961184D01*
X138105000Y-133658816D01*
X138046011Y-133362257D01*
X137930299Y-133082905D01*
X137762312Y-132831495D01*
X137548505Y-132617688D01*
X137432237Y-132540000D01*
X137548505Y-132462312D01*
X137762312Y-132248505D01*
X137930299Y-131997095D01*
X138046011Y-131717743D01*
X138105000Y-131421184D01*
X138105000Y-131118816D01*
X138046011Y-130822257D01*
X137930299Y-130542905D01*
X137762312Y-130291495D01*
X137548505Y-130077688D01*
X137432237Y-130000000D01*
X137548505Y-129922312D01*
X137762312Y-129708505D01*
X137930299Y-129457095D01*
X138046011Y-129177743D01*
X138105000Y-128881184D01*
X138105000Y-128578816D01*
X138046011Y-128282257D01*
X137930299Y-128002905D01*
X137762312Y-127751495D01*
X137548505Y-127537688D01*
X137432237Y-127460000D01*
X137548505Y-127382312D01*
X137762312Y-127168505D01*
X137930299Y-126917095D01*
X138046011Y-126637743D01*
X138105000Y-126341184D01*
X138105000Y-126038816D01*
X138046011Y-125742257D01*
X137930299Y-125462905D01*
X137762312Y-125211495D01*
X137548505Y-124997688D01*
X137432237Y-124920000D01*
X137548505Y-124842312D01*
X137762312Y-124628505D01*
X137930299Y-124377095D01*
X138046011Y-124097743D01*
X138105000Y-123801184D01*
X138105000Y-123498816D01*
X138046011Y-123202257D01*
X137930299Y-122922905D01*
X137762312Y-122671495D01*
X137548505Y-122457688D01*
X137432237Y-122380000D01*
X137548505Y-122302312D01*
X137762312Y-122088505D01*
X137930299Y-121837095D01*
X138046011Y-121557743D01*
X138105000Y-121261184D01*
X138105000Y-120958816D01*
X157895000Y-120958816D01*
X157895000Y-121261184D01*
X157953989Y-121557743D01*
X158069701Y-121837095D01*
X158237688Y-122088505D01*
X158451495Y-122302312D01*
X158567763Y-122380000D01*
X158451495Y-122457688D01*
X158237688Y-122671495D01*
X158069701Y-122922905D01*
X157953989Y-123202257D01*
X157895000Y-123498816D01*
X157895000Y-123801184D01*
X157953989Y-124097743D01*
X158069701Y-124377095D01*
X158237688Y-124628505D01*
X158451495Y-124842312D01*
X158567763Y-124920000D01*
X158451495Y-124997688D01*
X158237688Y-125211495D01*
X158069701Y-125462905D01*
X157953989Y-125742257D01*
X157895000Y-126038816D01*
X157895000Y-126341184D01*
X157953989Y-126637743D01*
X158069701Y-126917095D01*
X158237688Y-127168505D01*
X158451495Y-127382312D01*
X158567763Y-127460000D01*
X158451495Y-127537688D01*
X158237688Y-127751495D01*
X158069701Y-128002905D01*
X157953989Y-128282257D01*
X157895000Y-128578816D01*
X157895000Y-128881184D01*
X157953989Y-129177743D01*
X158069701Y-129457095D01*
X158237688Y-129708505D01*
X158451495Y-129922312D01*
X158567763Y-130000000D01*
X158451495Y-130077688D01*
X158237688Y-130291495D01*
X158069701Y-130542905D01*
X157953989Y-130822257D01*
X157895000Y-131118816D01*
X157895000Y-131421184D01*
X157953989Y-131717743D01*
X158069701Y-131997095D01*
X158237688Y-132248505D01*
X158451495Y-132462312D01*
X158567763Y-132540000D01*
X158451495Y-132617688D01*
X158237688Y-132831495D01*
X158069701Y-133082905D01*
X157953989Y-133362257D01*
X157895000Y-133658816D01*
X157895000Y-133961184D01*
X157953989Y-134257743D01*
X158069701Y-134537095D01*
X158237688Y-134788505D01*
X158451495Y-135002312D01*
X158605105Y-135104951D01*
X158545525Y-135285920D01*
X159430000Y-136170395D01*
X160314475Y-135285920D01*
X160254895Y-135104951D01*
X160408505Y-135002312D01*
X160622312Y-134788505D01*
X160790299Y-134537095D01*
X160906011Y-134257743D01*
X160965000Y-133961184D01*
X160965000Y-133658816D01*
X160906011Y-133362257D01*
X160790299Y-133082905D01*
X160622312Y-132831495D01*
X160408505Y-132617688D01*
X160292237Y-132540000D01*
X160408505Y-132462312D01*
X160622312Y-132248505D01*
X160790299Y-131997095D01*
X160902785Y-131725529D01*
X183228571Y-131725529D01*
X183228571Y-132074471D01*
X183296646Y-132416707D01*
X183430180Y-132739086D01*
X183624041Y-133029220D01*
X183870780Y-133275959D01*
X184160914Y-133469820D01*
X184483293Y-133603354D01*
X184825529Y-133671429D01*
X185174471Y-133671429D01*
X185516707Y-133603354D01*
X185839086Y-133469820D01*
X186129220Y-133275959D01*
X186375959Y-133029220D01*
X186569820Y-132739086D01*
X186703354Y-132416707D01*
X186771429Y-132074471D01*
X186771429Y-131725529D01*
X186703354Y-131383293D01*
X186569820Y-131060914D01*
X186375959Y-130770780D01*
X186129220Y-130524041D01*
X185839086Y-130330180D01*
X185516707Y-130196646D01*
X185174471Y-130128571D01*
X184825529Y-130128571D01*
X184483293Y-130196646D01*
X184160914Y-130330180D01*
X183870780Y-130524041D01*
X183624041Y-130770780D01*
X183430180Y-131060914D01*
X183296646Y-131383293D01*
X183228571Y-131725529D01*
X160902785Y-131725529D01*
X160906011Y-131717743D01*
X160965000Y-131421184D01*
X160965000Y-131118816D01*
X160906011Y-130822257D01*
X160790299Y-130542905D01*
X160622312Y-130291495D01*
X160408505Y-130077688D01*
X160292237Y-130000000D01*
X160408505Y-129922312D01*
X160622312Y-129708505D01*
X160790299Y-129457095D01*
X160906011Y-129177743D01*
X160965000Y-128881184D01*
X160965000Y-128578816D01*
X160906011Y-128282257D01*
X160790299Y-128002905D01*
X160622312Y-127751495D01*
X160408505Y-127537688D01*
X160292237Y-127460000D01*
X160408505Y-127382312D01*
X160622312Y-127168505D01*
X160790299Y-126917095D01*
X160906011Y-126637743D01*
X160965000Y-126341184D01*
X160965000Y-126038816D01*
X160906011Y-125742257D01*
X160790299Y-125462905D01*
X160622312Y-125211495D01*
X160408505Y-124997688D01*
X160292237Y-124920000D01*
X160408505Y-124842312D01*
X160622312Y-124628505D01*
X160790299Y-124377095D01*
X160906011Y-124097743D01*
X160965000Y-123801184D01*
X160965000Y-123498816D01*
X160906011Y-123202257D01*
X160790299Y-122922905D01*
X160622312Y-122671495D01*
X160408505Y-122457688D01*
X160292237Y-122380000D01*
X160408505Y-122302312D01*
X160622312Y-122088505D01*
X160789048Y-121838967D01*
X162865000Y-121838967D01*
X162865000Y-122161033D01*
X162927832Y-122476912D01*
X163051082Y-122774463D01*
X163230013Y-123042252D01*
X163457748Y-123269987D01*
X163725537Y-123448918D01*
X164023088Y-123572168D01*
X164338967Y-123635000D01*
X164661033Y-123635000D01*
X164976912Y-123572168D01*
X165274463Y-123448918D01*
X165542252Y-123269987D01*
X165769987Y-123042252D01*
X165948918Y-122774463D01*
X166000000Y-122651140D01*
X166051082Y-122774463D01*
X166230013Y-123042252D01*
X166457748Y-123269987D01*
X166725537Y-123448918D01*
X167023088Y-123572168D01*
X167338967Y-123635000D01*
X167661033Y-123635000D01*
X167976912Y-123572168D01*
X168274463Y-123448918D01*
X168542252Y-123269987D01*
X168769987Y-123042252D01*
X168948918Y-122774463D01*
X169072168Y-122476912D01*
X169135000Y-122161033D01*
X169135000Y-121838967D01*
X172865000Y-121838967D01*
X172865000Y-122161033D01*
X172927832Y-122476912D01*
X173051082Y-122774463D01*
X173230013Y-123042252D01*
X173457748Y-123269987D01*
X173725537Y-123448918D01*
X174023088Y-123572168D01*
X174338967Y-123635000D01*
X174661033Y-123635000D01*
X174976912Y-123572168D01*
X175274463Y-123448918D01*
X175542252Y-123269987D01*
X175676826Y-123135413D01*
X176544192Y-123135413D01*
X176639956Y-123399814D01*
X176929571Y-123540704D01*
X177241108Y-123622384D01*
X177562595Y-123641718D01*
X177881675Y-123597961D01*
X178186088Y-123492795D01*
X178360044Y-123399814D01*
X178455808Y-123135413D01*
X177500000Y-122179605D01*
X176544192Y-123135413D01*
X175676826Y-123135413D01*
X175769987Y-123042252D01*
X175948918Y-122774463D01*
X175997346Y-122657549D01*
X176007205Y-122686088D01*
X176100186Y-122860044D01*
X176364587Y-122955808D01*
X177320395Y-122000000D01*
X177679605Y-122000000D01*
X178635413Y-122955808D01*
X178899814Y-122860044D01*
X179040704Y-122570429D01*
X179122384Y-122258892D01*
X179141718Y-121937405D01*
X179097961Y-121618325D01*
X178992795Y-121313912D01*
X178899814Y-121139956D01*
X178635413Y-121044192D01*
X177679605Y-122000000D01*
X177320395Y-122000000D01*
X176364587Y-121044192D01*
X176100186Y-121139956D01*
X175999338Y-121347261D01*
X175948918Y-121225537D01*
X175769987Y-120957748D01*
X175676826Y-120864587D01*
X176544192Y-120864587D01*
X177500000Y-121820395D01*
X178455808Y-120864587D01*
X178360044Y-120600186D01*
X178070429Y-120459296D01*
X177758892Y-120377616D01*
X177437405Y-120358282D01*
X177118325Y-120402039D01*
X176813912Y-120507205D01*
X176639956Y-120600186D01*
X176544192Y-120864587D01*
X175676826Y-120864587D01*
X175542252Y-120730013D01*
X175274463Y-120551082D01*
X174976912Y-120427832D01*
X174661033Y-120365000D01*
X174338967Y-120365000D01*
X174023088Y-120427832D01*
X173725537Y-120551082D01*
X173457748Y-120730013D01*
X173230013Y-120957748D01*
X173051082Y-121225537D01*
X172927832Y-121523088D01*
X172865000Y-121838967D01*
X169135000Y-121838967D01*
X169072168Y-121523088D01*
X168948918Y-121225537D01*
X168769987Y-120957748D01*
X168542252Y-120730013D01*
X168274463Y-120551082D01*
X167976912Y-120427832D01*
X167661033Y-120365000D01*
X167338967Y-120365000D01*
X167023088Y-120427832D01*
X166725537Y-120551082D01*
X166457748Y-120730013D01*
X166230013Y-120957748D01*
X166051082Y-121225537D01*
X166000000Y-121348860D01*
X165948918Y-121225537D01*
X165769987Y-120957748D01*
X165542252Y-120730013D01*
X165274463Y-120551082D01*
X164976912Y-120427832D01*
X164661033Y-120365000D01*
X164338967Y-120365000D01*
X164023088Y-120427832D01*
X163725537Y-120551082D01*
X163457748Y-120730013D01*
X163230013Y-120957748D01*
X163051082Y-121225537D01*
X162927832Y-121523088D01*
X162865000Y-121838967D01*
X160789048Y-121838967D01*
X160790299Y-121837095D01*
X160906011Y-121557743D01*
X160965000Y-121261184D01*
X160965000Y-120958816D01*
X160906011Y-120662257D01*
X160790299Y-120382905D01*
X160622312Y-120131495D01*
X160408505Y-119917688D01*
X160157095Y-119749701D01*
X159877743Y-119633989D01*
X159581184Y-119575000D01*
X159278816Y-119575000D01*
X158982257Y-119633989D01*
X158702905Y-119749701D01*
X158451495Y-119917688D01*
X158237688Y-120131495D01*
X158069701Y-120382905D01*
X157953989Y-120662257D01*
X157895000Y-120958816D01*
X138105000Y-120958816D01*
X138046011Y-120662257D01*
X137930299Y-120382905D01*
X137762312Y-120131495D01*
X137548505Y-119917688D01*
X137297095Y-119749701D01*
X137017743Y-119633989D01*
X136721184Y-119575000D01*
X136418816Y-119575000D01*
X136122257Y-119633989D01*
X135842905Y-119749701D01*
X135591495Y-119917688D01*
X135377688Y-120131495D01*
X135209701Y-120382905D01*
X135093989Y-120662257D01*
X135035000Y-120958816D01*
X134660000Y-120958816D01*
X134660000Y-115838967D01*
X167365000Y-115838967D01*
X167365000Y-116161033D01*
X167427832Y-116476912D01*
X167551082Y-116774463D01*
X167730013Y-117042252D01*
X167957748Y-117269987D01*
X168225537Y-117448918D01*
X168523088Y-117572168D01*
X168838967Y-117635000D01*
X169161033Y-117635000D01*
X169476912Y-117572168D01*
X169774463Y-117448918D01*
X170042252Y-117269987D01*
X170269987Y-117042252D01*
X170448918Y-116774463D01*
X170572168Y-116476912D01*
X170635000Y-116161033D01*
X170635000Y-115838967D01*
X171365000Y-115838967D01*
X171365000Y-116161033D01*
X171427832Y-116476912D01*
X171551082Y-116774463D01*
X171730013Y-117042252D01*
X171957748Y-117269987D01*
X172225537Y-117448918D01*
X172523088Y-117572168D01*
X172838967Y-117635000D01*
X173161033Y-117635000D01*
X173476912Y-117572168D01*
X173774463Y-117448918D01*
X174042252Y-117269987D01*
X174269987Y-117042252D01*
X174448918Y-116774463D01*
X174572168Y-116476912D01*
X174635000Y-116161033D01*
X174635000Y-115838967D01*
X174572168Y-115523088D01*
X174448918Y-115225537D01*
X174269987Y-114957748D01*
X174042252Y-114730013D01*
X173774463Y-114551082D01*
X173476912Y-114427832D01*
X173161033Y-114365000D01*
X172838967Y-114365000D01*
X172523088Y-114427832D01*
X172225537Y-114551082D01*
X171957748Y-114730013D01*
X171730013Y-114957748D01*
X171551082Y-115225537D01*
X171427832Y-115523088D01*
X171365000Y-115838967D01*
X170635000Y-115838967D01*
X170572168Y-115523088D01*
X170448918Y-115225537D01*
X170269987Y-114957748D01*
X170042252Y-114730013D01*
X169774463Y-114551082D01*
X169476912Y-114427832D01*
X169161033Y-114365000D01*
X168838967Y-114365000D01*
X168523088Y-114427832D01*
X168225537Y-114551082D01*
X167957748Y-114730013D01*
X167730013Y-114957748D01*
X167551082Y-115225537D01*
X167427832Y-115523088D01*
X167365000Y-115838967D01*
X134660000Y-115838967D01*
X134660000Y-109838967D01*
X139865000Y-109838967D01*
X139865000Y-110161033D01*
X139927832Y-110476912D01*
X140051082Y-110774463D01*
X140230013Y-111042252D01*
X140457748Y-111269987D01*
X140725537Y-111448918D01*
X141023088Y-111572168D01*
X141338967Y-111635000D01*
X141661033Y-111635000D01*
X141976912Y-111572168D01*
X142274463Y-111448918D01*
X142542252Y-111269987D01*
X142676826Y-111135413D01*
X143544192Y-111135413D01*
X143639956Y-111399814D01*
X143929571Y-111540704D01*
X144241108Y-111622384D01*
X144562595Y-111641718D01*
X144881675Y-111597961D01*
X145186088Y-111492795D01*
X145360044Y-111399814D01*
X145455808Y-111135413D01*
X144500000Y-110179605D01*
X143544192Y-111135413D01*
X142676826Y-111135413D01*
X142769987Y-111042252D01*
X142948918Y-110774463D01*
X142997346Y-110657549D01*
X143007205Y-110686088D01*
X143100186Y-110860044D01*
X143364587Y-110955808D01*
X144320395Y-110000000D01*
X144679605Y-110000000D01*
X145635413Y-110955808D01*
X145899814Y-110860044D01*
X146000662Y-110652739D01*
X146051082Y-110774463D01*
X146230013Y-111042252D01*
X146457748Y-111269987D01*
X146725537Y-111448918D01*
X147023088Y-111572168D01*
X147338967Y-111635000D01*
X147661033Y-111635000D01*
X147976912Y-111572168D01*
X148274463Y-111448918D01*
X148542252Y-111269987D01*
X148769987Y-111042252D01*
X148948918Y-110774463D01*
X149000000Y-110651140D01*
X149051082Y-110774463D01*
X149230013Y-111042252D01*
X149457748Y-111269987D01*
X149725537Y-111448918D01*
X150023088Y-111572168D01*
X150338967Y-111635000D01*
X150661033Y-111635000D01*
X150976912Y-111572168D01*
X151274463Y-111448918D01*
X151542252Y-111269987D01*
X151676826Y-111135413D01*
X152544192Y-111135413D01*
X152639956Y-111399814D01*
X152929571Y-111540704D01*
X153241108Y-111622384D01*
X153562595Y-111641718D01*
X153881675Y-111597961D01*
X154186088Y-111492795D01*
X154360044Y-111399814D01*
X154455808Y-111135413D01*
X153500000Y-110179605D01*
X152544192Y-111135413D01*
X151676826Y-111135413D01*
X151769987Y-111042252D01*
X151948918Y-110774463D01*
X151997346Y-110657549D01*
X152007205Y-110686088D01*
X152100186Y-110860044D01*
X152364587Y-110955808D01*
X153320395Y-110000000D01*
X153679605Y-110000000D01*
X154635413Y-110955808D01*
X154899814Y-110860044D01*
X155000662Y-110652739D01*
X155051082Y-110774463D01*
X155230013Y-111042252D01*
X155457748Y-111269987D01*
X155725537Y-111448918D01*
X156023088Y-111572168D01*
X156338967Y-111635000D01*
X156661033Y-111635000D01*
X156976912Y-111572168D01*
X157274463Y-111448918D01*
X157542252Y-111269987D01*
X157769987Y-111042252D01*
X157948918Y-110774463D01*
X158072168Y-110476912D01*
X158135000Y-110161033D01*
X158135000Y-109838967D01*
X158072168Y-109523088D01*
X157948918Y-109225537D01*
X157769987Y-108957748D01*
X157542252Y-108730013D01*
X157274463Y-108551082D01*
X156976912Y-108427832D01*
X156661033Y-108365000D01*
X156338967Y-108365000D01*
X156023088Y-108427832D01*
X155725537Y-108551082D01*
X155457748Y-108730013D01*
X155230013Y-108957748D01*
X155051082Y-109225537D01*
X155002654Y-109342451D01*
X154992795Y-109313912D01*
X154899814Y-109139956D01*
X154635413Y-109044192D01*
X153679605Y-110000000D01*
X153320395Y-110000000D01*
X152364587Y-109044192D01*
X152100186Y-109139956D01*
X151999338Y-109347261D01*
X151948918Y-109225537D01*
X151769987Y-108957748D01*
X151676826Y-108864587D01*
X152544192Y-108864587D01*
X153500000Y-109820395D01*
X154455808Y-108864587D01*
X154360044Y-108600186D01*
X154070429Y-108459296D01*
X153758892Y-108377616D01*
X153437405Y-108358282D01*
X153118325Y-108402039D01*
X152813912Y-108507205D01*
X152639956Y-108600186D01*
X152544192Y-108864587D01*
X151676826Y-108864587D01*
X151542252Y-108730013D01*
X151274463Y-108551082D01*
X150976912Y-108427832D01*
X150661033Y-108365000D01*
X150338967Y-108365000D01*
X150023088Y-108427832D01*
X149725537Y-108551082D01*
X149457748Y-108730013D01*
X149230013Y-108957748D01*
X149051082Y-109225537D01*
X149000000Y-109348860D01*
X148948918Y-109225537D01*
X148769987Y-108957748D01*
X148542252Y-108730013D01*
X148274463Y-108551082D01*
X147976912Y-108427832D01*
X147661033Y-108365000D01*
X147338967Y-108365000D01*
X147023088Y-108427832D01*
X146725537Y-108551082D01*
X146457748Y-108730013D01*
X146230013Y-108957748D01*
X146051082Y-109225537D01*
X146002654Y-109342451D01*
X145992795Y-109313912D01*
X145899814Y-109139956D01*
X145635413Y-109044192D01*
X144679605Y-110000000D01*
X144320395Y-110000000D01*
X143364587Y-109044192D01*
X143100186Y-109139956D01*
X142999338Y-109347261D01*
X142948918Y-109225537D01*
X142769987Y-108957748D01*
X142676826Y-108864587D01*
X143544192Y-108864587D01*
X144500000Y-109820395D01*
X145455808Y-108864587D01*
X145360044Y-108600186D01*
X145070429Y-108459296D01*
X144758892Y-108377616D01*
X144437405Y-108358282D01*
X144118325Y-108402039D01*
X143813912Y-108507205D01*
X143639956Y-108600186D01*
X143544192Y-108864587D01*
X142676826Y-108864587D01*
X142542252Y-108730013D01*
X142274463Y-108551082D01*
X141976912Y-108427832D01*
X141661033Y-108365000D01*
X141338967Y-108365000D01*
X141023088Y-108427832D01*
X140725537Y-108551082D01*
X140457748Y-108730013D01*
X140230013Y-108957748D01*
X140051082Y-109225537D01*
X139927832Y-109523088D01*
X139865000Y-109838967D01*
X134660000Y-109838967D01*
X134660000Y-101838967D01*
X139865000Y-101838967D01*
X139865000Y-102161033D01*
X139927832Y-102476912D01*
X140051082Y-102774463D01*
X140230013Y-103042252D01*
X140457748Y-103269987D01*
X140725537Y-103448918D01*
X141023088Y-103572168D01*
X141338967Y-103635000D01*
X141661033Y-103635000D01*
X141976912Y-103572168D01*
X142274463Y-103448918D01*
X142542252Y-103269987D01*
X142769987Y-103042252D01*
X142948918Y-102774463D01*
X143000000Y-102651140D01*
X143051082Y-102774463D01*
X143230013Y-103042252D01*
X143457748Y-103269987D01*
X143725537Y-103448918D01*
X144023088Y-103572168D01*
X144338967Y-103635000D01*
X144661033Y-103635000D01*
X144976912Y-103572168D01*
X145274463Y-103448918D01*
X145542252Y-103269987D01*
X145769987Y-103042252D01*
X145948918Y-102774463D01*
X146000000Y-102651140D01*
X146051082Y-102774463D01*
X146230013Y-103042252D01*
X146457748Y-103269987D01*
X146725537Y-103448918D01*
X147023088Y-103572168D01*
X147338967Y-103635000D01*
X147661033Y-103635000D01*
X147976912Y-103572168D01*
X148274463Y-103448918D01*
X148542252Y-103269987D01*
X148769987Y-103042252D01*
X148948918Y-102774463D01*
X149000000Y-102651140D01*
X149051082Y-102774463D01*
X149230013Y-103042252D01*
X149457748Y-103269987D01*
X149725537Y-103448918D01*
X150023088Y-103572168D01*
X150338967Y-103635000D01*
X150661033Y-103635000D01*
X150976912Y-103572168D01*
X151274463Y-103448918D01*
X151542252Y-103269987D01*
X151676826Y-103135413D01*
X152544192Y-103135413D01*
X152639956Y-103399814D01*
X152929571Y-103540704D01*
X153241108Y-103622384D01*
X153562595Y-103641718D01*
X153881675Y-103597961D01*
X154186088Y-103492795D01*
X154360044Y-103399814D01*
X154455808Y-103135413D01*
X153500000Y-102179605D01*
X152544192Y-103135413D01*
X151676826Y-103135413D01*
X151769987Y-103042252D01*
X151948918Y-102774463D01*
X151997346Y-102657549D01*
X152007205Y-102686088D01*
X152100186Y-102860044D01*
X152364587Y-102955808D01*
X153320395Y-102000000D01*
X153679605Y-102000000D01*
X154635413Y-102955808D01*
X154899814Y-102860044D01*
X155000662Y-102652739D01*
X155051082Y-102774463D01*
X155230013Y-103042252D01*
X155457748Y-103269987D01*
X155725537Y-103448918D01*
X156023088Y-103572168D01*
X156338967Y-103635000D01*
X156661033Y-103635000D01*
X156976912Y-103572168D01*
X157274463Y-103448918D01*
X157542252Y-103269987D01*
X157769987Y-103042252D01*
X157948918Y-102774463D01*
X158072168Y-102476912D01*
X158135000Y-102161033D01*
X158135000Y-101838967D01*
X158072168Y-101523088D01*
X157948918Y-101225537D01*
X157769987Y-100957748D01*
X157542252Y-100730013D01*
X157274463Y-100551082D01*
X156976912Y-100427832D01*
X156661033Y-100365000D01*
X156338967Y-100365000D01*
X156023088Y-100427832D01*
X155725537Y-100551082D01*
X155457748Y-100730013D01*
X155230013Y-100957748D01*
X155051082Y-101225537D01*
X155002654Y-101342451D01*
X154992795Y-101313912D01*
X154899814Y-101139956D01*
X154635413Y-101044192D01*
X153679605Y-102000000D01*
X153320395Y-102000000D01*
X152364587Y-101044192D01*
X152100186Y-101139956D01*
X151999338Y-101347261D01*
X151948918Y-101225537D01*
X151769987Y-100957748D01*
X151676826Y-100864587D01*
X152544192Y-100864587D01*
X153500000Y-101820395D01*
X154455808Y-100864587D01*
X154360044Y-100600186D01*
X154070429Y-100459296D01*
X153758892Y-100377616D01*
X153437405Y-100358282D01*
X153118325Y-100402039D01*
X152813912Y-100507205D01*
X152639956Y-100600186D01*
X152544192Y-100864587D01*
X151676826Y-100864587D01*
X151542252Y-100730013D01*
X151274463Y-100551082D01*
X150976912Y-100427832D01*
X150661033Y-100365000D01*
X150338967Y-100365000D01*
X150023088Y-100427832D01*
X149725537Y-100551082D01*
X149457748Y-100730013D01*
X149230013Y-100957748D01*
X149051082Y-101225537D01*
X149000000Y-101348860D01*
X148948918Y-101225537D01*
X148769987Y-100957748D01*
X148542252Y-100730013D01*
X148274463Y-100551082D01*
X147976912Y-100427832D01*
X147661033Y-100365000D01*
X147338967Y-100365000D01*
X147023088Y-100427832D01*
X146725537Y-100551082D01*
X146457748Y-100730013D01*
X146230013Y-100957748D01*
X146051082Y-101225537D01*
X146000000Y-101348860D01*
X145948918Y-101225537D01*
X145769987Y-100957748D01*
X145542252Y-100730013D01*
X145274463Y-100551082D01*
X144976912Y-100427832D01*
X144661033Y-100365000D01*
X144338967Y-100365000D01*
X144023088Y-100427832D01*
X143725537Y-100551082D01*
X143457748Y-100730013D01*
X143230013Y-100957748D01*
X143051082Y-101225537D01*
X143000000Y-101348860D01*
X142948918Y-101225537D01*
X142769987Y-100957748D01*
X142542252Y-100730013D01*
X142274463Y-100551082D01*
X141976912Y-100427832D01*
X141661033Y-100365000D01*
X141338967Y-100365000D01*
X141023088Y-100427832D01*
X140725537Y-100551082D01*
X140457748Y-100730013D01*
X140230013Y-100957748D01*
X140051082Y-101225537D01*
X139927832Y-101523088D01*
X139865000Y-101838967D01*
X134660000Y-101838967D01*
X134660000Y-97825529D01*
X135228571Y-97825529D01*
X135228571Y-98174471D01*
X135296646Y-98516707D01*
X135430180Y-98839086D01*
X135624041Y-99129220D01*
X135870780Y-99375959D01*
X136160914Y-99569820D01*
X136483293Y-99703354D01*
X136825529Y-99771429D01*
X137174471Y-99771429D01*
X137516707Y-99703354D01*
X137839086Y-99569820D01*
X138129220Y-99375959D01*
X138375959Y-99129220D01*
X138569820Y-98839086D01*
X138703354Y-98516707D01*
X138771429Y-98174471D01*
X138771429Y-97825529D01*
X183228571Y-97825529D01*
X183228571Y-98174471D01*
X183296646Y-98516707D01*
X183430180Y-98839086D01*
X183624041Y-99129220D01*
X183870780Y-99375959D01*
X184160914Y-99569820D01*
X184483293Y-99703354D01*
X184825529Y-99771429D01*
X185174471Y-99771429D01*
X185516707Y-99703354D01*
X185839086Y-99569820D01*
X186129220Y-99375959D01*
X186375959Y-99129220D01*
X186569820Y-98839086D01*
X186703354Y-98516707D01*
X186771429Y-98174471D01*
X186771429Y-97825529D01*
X186703354Y-97483293D01*
X186569820Y-97160914D01*
X186375959Y-96870780D01*
X186129220Y-96624041D01*
X185839086Y-96430180D01*
X185516707Y-96296646D01*
X185174471Y-96228571D01*
X184825529Y-96228571D01*
X184483293Y-96296646D01*
X184160914Y-96430180D01*
X183870780Y-96624041D01*
X183624041Y-96870780D01*
X183430180Y-97160914D01*
X183296646Y-97483293D01*
X183228571Y-97825529D01*
X138771429Y-97825529D01*
X138703354Y-97483293D01*
X138569820Y-97160914D01*
X138375959Y-96870780D01*
X138129220Y-96624041D01*
X137839086Y-96430180D01*
X137516707Y-96296646D01*
X137174471Y-96228571D01*
X136825529Y-96228571D01*
X136483293Y-96296646D01*
X136160914Y-96430180D01*
X135870780Y-96624041D01*
X135624041Y-96870780D01*
X135430180Y-97160914D01*
X135296646Y-97483293D01*
X135228571Y-97825529D01*
X134660000Y-97825529D01*
X134660000Y-95660000D01*
X187340000Y-95660000D01*
X187340001Y-148340000D01*
%TA.AperFunction,Conductor*%
D14*
G36*
X187340001Y-148340000D02*
G01*
X185088138Y-148340000D01*
X185201618Y-148264175D01*
X185464175Y-148001618D01*
X185670466Y-147692882D01*
X185812561Y-147349834D01*
X185885000Y-146985656D01*
X185885000Y-146614344D01*
X185812561Y-146250166D01*
X185670466Y-145907118D01*
X185464175Y-145598382D01*
X185201618Y-145335825D01*
X184892882Y-145129534D01*
X184549834Y-144987439D01*
X184185656Y-144915000D01*
X183814344Y-144915000D01*
X183450166Y-144987439D01*
X183107118Y-145129534D01*
X182798382Y-145335825D01*
X182535825Y-145598382D01*
X182329534Y-145907118D01*
X182187439Y-146250166D01*
X182115000Y-146614344D01*
X182115000Y-146985656D01*
X182187439Y-147349834D01*
X182329534Y-147692882D01*
X182535825Y-148001618D01*
X182798382Y-148264175D01*
X182911862Y-148340000D01*
X134660000Y-148340000D01*
X134660000Y-144838967D01*
X162865000Y-144838967D01*
X162865000Y-145161033D01*
X162927832Y-145476912D01*
X163051082Y-145774463D01*
X163230013Y-146042252D01*
X163457748Y-146269987D01*
X163725537Y-146448918D01*
X164023088Y-146572168D01*
X164338967Y-146635000D01*
X164661033Y-146635000D01*
X164976912Y-146572168D01*
X165274463Y-146448918D01*
X165542252Y-146269987D01*
X165769987Y-146042252D01*
X165948918Y-145774463D01*
X166072168Y-145476912D01*
X166135000Y-145161033D01*
X166135000Y-144838967D01*
X175865000Y-144838967D01*
X175865000Y-145161033D01*
X175927832Y-145476912D01*
X176051082Y-145774463D01*
X176230013Y-146042252D01*
X176457748Y-146269987D01*
X176725537Y-146448918D01*
X177023088Y-146572168D01*
X177338967Y-146635000D01*
X177661033Y-146635000D01*
X177976912Y-146572168D01*
X178274463Y-146448918D01*
X178542252Y-146269987D01*
X178769987Y-146042252D01*
X178948918Y-145774463D01*
X179072168Y-145476912D01*
X179135000Y-145161033D01*
X179135000Y-144838967D01*
X179072168Y-144523088D01*
X178948918Y-144225537D01*
X178769987Y-143957748D01*
X178542252Y-143730013D01*
X178274463Y-143551082D01*
X177976912Y-143427832D01*
X177661033Y-143365000D01*
X177338967Y-143365000D01*
X177023088Y-143427832D01*
X176725537Y-143551082D01*
X176457748Y-143730013D01*
X176230013Y-143957748D01*
X176051082Y-144225537D01*
X175927832Y-144523088D01*
X175865000Y-144838967D01*
X166135000Y-144838967D01*
X166072168Y-144523088D01*
X165948918Y-144225537D01*
X165769987Y-143957748D01*
X165542252Y-143730013D01*
X165274463Y-143551082D01*
X164976912Y-143427832D01*
X164661033Y-143365000D01*
X164338967Y-143365000D01*
X164023088Y-143427832D01*
X163725537Y-143551082D01*
X163457748Y-143730013D01*
X163230013Y-143957748D01*
X163051082Y-144225537D01*
X162927832Y-144523088D01*
X162865000Y-144838967D01*
X134660000Y-144838967D01*
X134660000Y-141814344D01*
X182115000Y-141814344D01*
X182115000Y-142185656D01*
X182187439Y-142549834D01*
X182329534Y-142892882D01*
X182535825Y-143201618D01*
X182798382Y-143464175D01*
X183107118Y-143670466D01*
X183450166Y-143812561D01*
X183814344Y-143885000D01*
X184185656Y-143885000D01*
X184549834Y-143812561D01*
X184892882Y-143670466D01*
X185201618Y-143464175D01*
X185464175Y-143201618D01*
X185670466Y-142892882D01*
X185812561Y-142549834D01*
X185885000Y-142185656D01*
X185885000Y-141814344D01*
X185812561Y-141450166D01*
X185670466Y-141107118D01*
X185464175Y-140798382D01*
X185201618Y-140535825D01*
X184892882Y-140329534D01*
X184549834Y-140187439D01*
X184185656Y-140115000D01*
X183814344Y-140115000D01*
X183450166Y-140187439D01*
X183107118Y-140329534D01*
X182798382Y-140535825D01*
X182535825Y-140798382D01*
X182329534Y-141107118D01*
X182187439Y-141450166D01*
X182115000Y-141814344D01*
X134660000Y-141814344D01*
X134660000Y-120958816D01*
X135035000Y-120958816D01*
X135035000Y-121261184D01*
X135093989Y-121557743D01*
X135209701Y-121837095D01*
X135377688Y-122088505D01*
X135591495Y-122302312D01*
X135707763Y-122380000D01*
X135591495Y-122457688D01*
X135377688Y-122671495D01*
X135209701Y-122922905D01*
X135093989Y-123202257D01*
X135035000Y-123498816D01*
X135035000Y-123801184D01*
X135093989Y-124097743D01*
X135209701Y-124377095D01*
X135377688Y-124628505D01*
X135591495Y-124842312D01*
X135707763Y-124920000D01*
X135591495Y-124997688D01*
X135377688Y-125211495D01*
X135209701Y-125462905D01*
X135093989Y-125742257D01*
X135035000Y-126038816D01*
X135035000Y-126341184D01*
X135093989Y-126637743D01*
X135209701Y-126917095D01*
X135377688Y-127168505D01*
X135591495Y-127382312D01*
X135707763Y-127460000D01*
X135591495Y-127537688D01*
X135377688Y-127751495D01*
X135209701Y-128002905D01*
X135093989Y-128282257D01*
X135035000Y-128578816D01*
X135035000Y-128881184D01*
X135093989Y-129177743D01*
X135209701Y-129457095D01*
X135377688Y-129708505D01*
X135591495Y-129922312D01*
X135707763Y-130000000D01*
X135591495Y-130077688D01*
X135377688Y-130291495D01*
X135209701Y-130542905D01*
X135093989Y-130822257D01*
X135035000Y-131118816D01*
X135035000Y-131421184D01*
X135093989Y-131717743D01*
X135209701Y-131997095D01*
X135377688Y-132248505D01*
X135591495Y-132462312D01*
X135707763Y-132540000D01*
X135591495Y-132617688D01*
X135377688Y-132831495D01*
X135209701Y-133082905D01*
X135093989Y-133362257D01*
X135035000Y-133658816D01*
X135035000Y-133961184D01*
X135093989Y-134257743D01*
X135209701Y-134537095D01*
X135377688Y-134788505D01*
X135591495Y-135002312D01*
X135707763Y-135080000D01*
X135591495Y-135157688D01*
X135377688Y-135371495D01*
X135209701Y-135622905D01*
X135093989Y-135902257D01*
X135035000Y-136198816D01*
X135035000Y-136501184D01*
X135093989Y-136797743D01*
X135209701Y-137077095D01*
X135377688Y-137328505D01*
X135591495Y-137542312D01*
X135707763Y-137620000D01*
X135591495Y-137697688D01*
X135377688Y-137911495D01*
X135209701Y-138162905D01*
X135093989Y-138442257D01*
X135035000Y-138738816D01*
X135035000Y-139041184D01*
X135093989Y-139337743D01*
X135209701Y-139617095D01*
X135377688Y-139868505D01*
X135591495Y-140082312D01*
X135842905Y-140250299D01*
X136122257Y-140366011D01*
X136418816Y-140425000D01*
X136721184Y-140425000D01*
X137017743Y-140366011D01*
X137297095Y-140250299D01*
X137548505Y-140082312D01*
X137762312Y-139868505D01*
X137930299Y-139617095D01*
X138046011Y-139337743D01*
X138105000Y-139041184D01*
X138105000Y-138738816D01*
X157895000Y-138738816D01*
X157895000Y-139041184D01*
X157953989Y-139337743D01*
X158069701Y-139617095D01*
X158237688Y-139868505D01*
X158451495Y-140082312D01*
X158702905Y-140250299D01*
X158982257Y-140366011D01*
X159278816Y-140425000D01*
X159581184Y-140425000D01*
X159877743Y-140366011D01*
X160157095Y-140250299D01*
X160408505Y-140082312D01*
X160622312Y-139868505D01*
X160790299Y-139617095D01*
X160906011Y-139337743D01*
X160965000Y-139041184D01*
X160965000Y-138738816D01*
X160906011Y-138442257D01*
X160790299Y-138162905D01*
X160622312Y-137911495D01*
X160408505Y-137697688D01*
X160254895Y-137595049D01*
X160314475Y-137414080D01*
X159430000Y-136529605D01*
X158545525Y-137414080D01*
X158605105Y-137595049D01*
X158451495Y-137697688D01*
X158237688Y-137911495D01*
X158069701Y-138162905D01*
X157953989Y-138442257D01*
X157895000Y-138738816D01*
X138105000Y-138738816D01*
X138046011Y-138442257D01*
X137930299Y-138162905D01*
X137762312Y-137911495D01*
X137548505Y-137697688D01*
X137432237Y-137620000D01*
X137548505Y-137542312D01*
X137762312Y-137328505D01*
X137930299Y-137077095D01*
X138046011Y-136797743D01*
X138105000Y-136501184D01*
X138105000Y-136416553D01*
X157889009Y-136416553D01*
X157931603Y-136715907D01*
X158031778Y-137001199D01*
X158111739Y-137150792D01*
X158365920Y-137234475D01*
X159250395Y-136350000D01*
X159609605Y-136350000D01*
X160494080Y-137234475D01*
X160748261Y-137150792D01*
X160813788Y-137014344D01*
X182115000Y-137014344D01*
X182115000Y-137385656D01*
X182187439Y-137749834D01*
X182329534Y-138092882D01*
X182535825Y-138401618D01*
X182798382Y-138664175D01*
X183107118Y-138870466D01*
X183450166Y-139012561D01*
X183814344Y-139085000D01*
X184185656Y-139085000D01*
X184549834Y-139012561D01*
X184892882Y-138870466D01*
X185201618Y-138664175D01*
X185464175Y-138401618D01*
X185670466Y-138092882D01*
X185812561Y-137749834D01*
X185885000Y-137385656D01*
X185885000Y-137014344D01*
X185812561Y-136650166D01*
X185670466Y-136307118D01*
X185464175Y-135998382D01*
X185201618Y-135735825D01*
X184892882Y-135529534D01*
X184549834Y-135387439D01*
X184185656Y-135315000D01*
X183814344Y-135315000D01*
X183450166Y-135387439D01*
X183107118Y-135529534D01*
X182798382Y-135735825D01*
X182535825Y-135998382D01*
X182329534Y-136307118D01*
X182187439Y-136650166D01*
X182115000Y-137014344D01*
X160813788Y-137014344D01*
X160879158Y-136878225D01*
X160954365Y-136585358D01*
X160970991Y-136283447D01*
X160928397Y-135984093D01*
X160828222Y-135698801D01*
X160748261Y-135549208D01*
X160494080Y-135465525D01*
X159609605Y-136350000D01*
X159250395Y-136350000D01*
X158365920Y-135465525D01*
X158111739Y-135549208D01*
X157980842Y-135821775D01*
X157905635Y-136114642D01*
X157889009Y-136416553D01*
X138105000Y-136416553D01*
X138105000Y-136198816D01*
X138046011Y-135902257D01*
X137930299Y-135622905D01*
X137762312Y-135371495D01*
X137548505Y-135157688D01*
X137432237Y-135080000D01*
X137548505Y-135002312D01*
X137762312Y-134788505D01*
X137930299Y-134537095D01*
X138046011Y-134257743D01*
X138105000Y-133961184D01*
X138105000Y-133658816D01*
X138046011Y-133362257D01*
X137930299Y-133082905D01*
X137762312Y-132831495D01*
X137548505Y-132617688D01*
X137432237Y-132540000D01*
X137548505Y-132462312D01*
X137762312Y-132248505D01*
X137930299Y-131997095D01*
X138046011Y-131717743D01*
X138105000Y-131421184D01*
X138105000Y-131118816D01*
X138046011Y-130822257D01*
X137930299Y-130542905D01*
X137762312Y-130291495D01*
X137548505Y-130077688D01*
X137432237Y-130000000D01*
X137548505Y-129922312D01*
X137762312Y-129708505D01*
X137930299Y-129457095D01*
X138046011Y-129177743D01*
X138105000Y-128881184D01*
X138105000Y-128578816D01*
X138046011Y-128282257D01*
X137930299Y-128002905D01*
X137762312Y-127751495D01*
X137548505Y-127537688D01*
X137432237Y-127460000D01*
X137548505Y-127382312D01*
X137762312Y-127168505D01*
X137930299Y-126917095D01*
X138046011Y-126637743D01*
X138105000Y-126341184D01*
X138105000Y-126038816D01*
X138046011Y-125742257D01*
X137930299Y-125462905D01*
X137762312Y-125211495D01*
X137548505Y-124997688D01*
X137432237Y-124920000D01*
X137548505Y-124842312D01*
X137762312Y-124628505D01*
X137930299Y-124377095D01*
X138046011Y-124097743D01*
X138105000Y-123801184D01*
X138105000Y-123498816D01*
X138046011Y-123202257D01*
X137930299Y-122922905D01*
X137762312Y-122671495D01*
X137548505Y-122457688D01*
X137432237Y-122380000D01*
X137548505Y-122302312D01*
X137762312Y-122088505D01*
X137930299Y-121837095D01*
X138046011Y-121557743D01*
X138105000Y-121261184D01*
X138105000Y-120958816D01*
X157895000Y-120958816D01*
X157895000Y-121261184D01*
X157953989Y-121557743D01*
X158069701Y-121837095D01*
X158237688Y-122088505D01*
X158451495Y-122302312D01*
X158567763Y-122380000D01*
X158451495Y-122457688D01*
X158237688Y-122671495D01*
X158069701Y-122922905D01*
X157953989Y-123202257D01*
X157895000Y-123498816D01*
X157895000Y-123801184D01*
X157953989Y-124097743D01*
X158069701Y-124377095D01*
X158237688Y-124628505D01*
X158451495Y-124842312D01*
X158567763Y-124920000D01*
X158451495Y-124997688D01*
X158237688Y-125211495D01*
X158069701Y-125462905D01*
X157953989Y-125742257D01*
X157895000Y-126038816D01*
X157895000Y-126341184D01*
X157953989Y-126637743D01*
X158069701Y-126917095D01*
X158237688Y-127168505D01*
X158451495Y-127382312D01*
X158567763Y-127460000D01*
X158451495Y-127537688D01*
X158237688Y-127751495D01*
X158069701Y-128002905D01*
X157953989Y-128282257D01*
X157895000Y-128578816D01*
X157895000Y-128881184D01*
X157953989Y-129177743D01*
X158069701Y-129457095D01*
X158237688Y-129708505D01*
X158451495Y-129922312D01*
X158567763Y-130000000D01*
X158451495Y-130077688D01*
X158237688Y-130291495D01*
X158069701Y-130542905D01*
X157953989Y-130822257D01*
X157895000Y-131118816D01*
X157895000Y-131421184D01*
X157953989Y-131717743D01*
X158069701Y-131997095D01*
X158237688Y-132248505D01*
X158451495Y-132462312D01*
X158567763Y-132540000D01*
X158451495Y-132617688D01*
X158237688Y-132831495D01*
X158069701Y-133082905D01*
X157953989Y-133362257D01*
X157895000Y-133658816D01*
X157895000Y-133961184D01*
X157953989Y-134257743D01*
X158069701Y-134537095D01*
X158237688Y-134788505D01*
X158451495Y-135002312D01*
X158605105Y-135104951D01*
X158545525Y-135285920D01*
X159430000Y-136170395D01*
X160314475Y-135285920D01*
X160254895Y-135104951D01*
X160408505Y-135002312D01*
X160622312Y-134788505D01*
X160790299Y-134537095D01*
X160906011Y-134257743D01*
X160965000Y-133961184D01*
X160965000Y-133658816D01*
X160906011Y-133362257D01*
X160790299Y-133082905D01*
X160622312Y-132831495D01*
X160408505Y-132617688D01*
X160292237Y-132540000D01*
X160408505Y-132462312D01*
X160622312Y-132248505D01*
X160790299Y-131997095D01*
X160902785Y-131725529D01*
X183228571Y-131725529D01*
X183228571Y-132074471D01*
X183296646Y-132416707D01*
X183430180Y-132739086D01*
X183624041Y-133029220D01*
X183870780Y-133275959D01*
X184160914Y-133469820D01*
X184483293Y-133603354D01*
X184825529Y-133671429D01*
X185174471Y-133671429D01*
X185516707Y-133603354D01*
X185839086Y-133469820D01*
X186129220Y-133275959D01*
X186375959Y-133029220D01*
X186569820Y-132739086D01*
X186703354Y-132416707D01*
X186771429Y-132074471D01*
X186771429Y-131725529D01*
X186703354Y-131383293D01*
X186569820Y-131060914D01*
X186375959Y-130770780D01*
X186129220Y-130524041D01*
X185839086Y-130330180D01*
X185516707Y-130196646D01*
X185174471Y-130128571D01*
X184825529Y-130128571D01*
X184483293Y-130196646D01*
X184160914Y-130330180D01*
X183870780Y-130524041D01*
X183624041Y-130770780D01*
X183430180Y-131060914D01*
X183296646Y-131383293D01*
X183228571Y-131725529D01*
X160902785Y-131725529D01*
X160906011Y-131717743D01*
X160965000Y-131421184D01*
X160965000Y-131118816D01*
X160906011Y-130822257D01*
X160790299Y-130542905D01*
X160622312Y-130291495D01*
X160408505Y-130077688D01*
X160292237Y-130000000D01*
X160408505Y-129922312D01*
X160622312Y-129708505D01*
X160790299Y-129457095D01*
X160906011Y-129177743D01*
X160965000Y-128881184D01*
X160965000Y-128578816D01*
X160906011Y-128282257D01*
X160790299Y-128002905D01*
X160622312Y-127751495D01*
X160408505Y-127537688D01*
X160292237Y-127460000D01*
X160408505Y-127382312D01*
X160622312Y-127168505D01*
X160790299Y-126917095D01*
X160906011Y-126637743D01*
X160965000Y-126341184D01*
X160965000Y-126038816D01*
X160906011Y-125742257D01*
X160790299Y-125462905D01*
X160622312Y-125211495D01*
X160408505Y-124997688D01*
X160292237Y-124920000D01*
X160408505Y-124842312D01*
X160622312Y-124628505D01*
X160790299Y-124377095D01*
X160906011Y-124097743D01*
X160965000Y-123801184D01*
X160965000Y-123498816D01*
X160906011Y-123202257D01*
X160790299Y-122922905D01*
X160622312Y-122671495D01*
X160408505Y-122457688D01*
X160292237Y-122380000D01*
X160408505Y-122302312D01*
X160622312Y-122088505D01*
X160789048Y-121838967D01*
X162865000Y-121838967D01*
X162865000Y-122161033D01*
X162927832Y-122476912D01*
X163051082Y-122774463D01*
X163230013Y-123042252D01*
X163457748Y-123269987D01*
X163725537Y-123448918D01*
X164023088Y-123572168D01*
X164338967Y-123635000D01*
X164661033Y-123635000D01*
X164976912Y-123572168D01*
X165274463Y-123448918D01*
X165542252Y-123269987D01*
X165769987Y-123042252D01*
X165948918Y-122774463D01*
X166000000Y-122651140D01*
X166051082Y-122774463D01*
X166230013Y-123042252D01*
X166457748Y-123269987D01*
X166725537Y-123448918D01*
X167023088Y-123572168D01*
X167338967Y-123635000D01*
X167661033Y-123635000D01*
X167976912Y-123572168D01*
X168274463Y-123448918D01*
X168542252Y-123269987D01*
X168769987Y-123042252D01*
X168948918Y-122774463D01*
X169072168Y-122476912D01*
X169135000Y-122161033D01*
X169135000Y-121838967D01*
X172865000Y-121838967D01*
X172865000Y-122161033D01*
X172927832Y-122476912D01*
X173051082Y-122774463D01*
X173230013Y-123042252D01*
X173457748Y-123269987D01*
X173725537Y-123448918D01*
X174023088Y-123572168D01*
X174338967Y-123635000D01*
X174661033Y-123635000D01*
X174976912Y-123572168D01*
X175274463Y-123448918D01*
X175542252Y-123269987D01*
X175676826Y-123135413D01*
X176544192Y-123135413D01*
X176639956Y-123399814D01*
X176929571Y-123540704D01*
X177241108Y-123622384D01*
X177562595Y-123641718D01*
X177881675Y-123597961D01*
X178186088Y-123492795D01*
X178360044Y-123399814D01*
X178455808Y-123135413D01*
X177500000Y-122179605D01*
X176544192Y-123135413D01*
X175676826Y-123135413D01*
X175769987Y-123042252D01*
X175948918Y-122774463D01*
X175997346Y-122657549D01*
X176007205Y-122686088D01*
X176100186Y-122860044D01*
X176364587Y-122955808D01*
X177320395Y-122000000D01*
X177679605Y-122000000D01*
X178635413Y-122955808D01*
X178899814Y-122860044D01*
X179040704Y-122570429D01*
X179122384Y-122258892D01*
X179141718Y-121937405D01*
X179097961Y-121618325D01*
X178992795Y-121313912D01*
X178899814Y-121139956D01*
X178635413Y-121044192D01*
X177679605Y-122000000D01*
X177320395Y-122000000D01*
X176364587Y-121044192D01*
X176100186Y-121139956D01*
X175999338Y-121347261D01*
X175948918Y-121225537D01*
X175769987Y-120957748D01*
X175676826Y-120864587D01*
X176544192Y-120864587D01*
X177500000Y-121820395D01*
X178455808Y-120864587D01*
X178360044Y-120600186D01*
X178070429Y-120459296D01*
X177758892Y-120377616D01*
X177437405Y-120358282D01*
X177118325Y-120402039D01*
X176813912Y-120507205D01*
X176639956Y-120600186D01*
X176544192Y-120864587D01*
X175676826Y-120864587D01*
X175542252Y-120730013D01*
X175274463Y-120551082D01*
X174976912Y-120427832D01*
X174661033Y-120365000D01*
X174338967Y-120365000D01*
X174023088Y-120427832D01*
X173725537Y-120551082D01*
X173457748Y-120730013D01*
X173230013Y-120957748D01*
X173051082Y-121225537D01*
X172927832Y-121523088D01*
X172865000Y-121838967D01*
X169135000Y-121838967D01*
X169072168Y-121523088D01*
X168948918Y-121225537D01*
X168769987Y-120957748D01*
X168542252Y-120730013D01*
X168274463Y-120551082D01*
X167976912Y-120427832D01*
X167661033Y-120365000D01*
X167338967Y-120365000D01*
X167023088Y-120427832D01*
X166725537Y-120551082D01*
X166457748Y-120730013D01*
X166230013Y-120957748D01*
X166051082Y-121225537D01*
X166000000Y-121348860D01*
X165948918Y-121225537D01*
X165769987Y-120957748D01*
X165542252Y-120730013D01*
X165274463Y-120551082D01*
X164976912Y-120427832D01*
X164661033Y-120365000D01*
X164338967Y-120365000D01*
X164023088Y-120427832D01*
X163725537Y-120551082D01*
X163457748Y-120730013D01*
X163230013Y-120957748D01*
X163051082Y-121225537D01*
X162927832Y-121523088D01*
X162865000Y-121838967D01*
X160789048Y-121838967D01*
X160790299Y-121837095D01*
X160906011Y-121557743D01*
X160965000Y-121261184D01*
X160965000Y-120958816D01*
X160906011Y-120662257D01*
X160790299Y-120382905D01*
X160622312Y-120131495D01*
X160408505Y-119917688D01*
X160157095Y-119749701D01*
X159877743Y-119633989D01*
X159581184Y-119575000D01*
X159278816Y-119575000D01*
X158982257Y-119633989D01*
X158702905Y-119749701D01*
X158451495Y-119917688D01*
X158237688Y-120131495D01*
X158069701Y-120382905D01*
X157953989Y-120662257D01*
X157895000Y-120958816D01*
X138105000Y-120958816D01*
X138046011Y-120662257D01*
X137930299Y-120382905D01*
X137762312Y-120131495D01*
X137548505Y-119917688D01*
X137297095Y-119749701D01*
X137017743Y-119633989D01*
X136721184Y-119575000D01*
X136418816Y-119575000D01*
X136122257Y-119633989D01*
X135842905Y-119749701D01*
X135591495Y-119917688D01*
X135377688Y-120131495D01*
X135209701Y-120382905D01*
X135093989Y-120662257D01*
X135035000Y-120958816D01*
X134660000Y-120958816D01*
X134660000Y-115838967D01*
X167365000Y-115838967D01*
X167365000Y-116161033D01*
X167427832Y-116476912D01*
X167551082Y-116774463D01*
X167730013Y-117042252D01*
X167957748Y-117269987D01*
X168225537Y-117448918D01*
X168523088Y-117572168D01*
X168838967Y-117635000D01*
X169161033Y-117635000D01*
X169476912Y-117572168D01*
X169774463Y-117448918D01*
X170042252Y-117269987D01*
X170269987Y-117042252D01*
X170448918Y-116774463D01*
X170572168Y-116476912D01*
X170635000Y-116161033D01*
X170635000Y-115838967D01*
X171365000Y-115838967D01*
X171365000Y-116161033D01*
X171427832Y-116476912D01*
X171551082Y-116774463D01*
X171730013Y-117042252D01*
X171957748Y-117269987D01*
X172225537Y-117448918D01*
X172523088Y-117572168D01*
X172838967Y-117635000D01*
X173161033Y-117635000D01*
X173476912Y-117572168D01*
X173774463Y-117448918D01*
X174042252Y-117269987D01*
X174269987Y-117042252D01*
X174448918Y-116774463D01*
X174572168Y-116476912D01*
X174635000Y-116161033D01*
X174635000Y-115838967D01*
X174572168Y-115523088D01*
X174448918Y-115225537D01*
X174269987Y-114957748D01*
X174042252Y-114730013D01*
X173774463Y-114551082D01*
X173476912Y-114427832D01*
X173161033Y-114365000D01*
X172838967Y-114365000D01*
X172523088Y-114427832D01*
X172225537Y-114551082D01*
X171957748Y-114730013D01*
X171730013Y-114957748D01*
X171551082Y-115225537D01*
X171427832Y-115523088D01*
X171365000Y-115838967D01*
X170635000Y-115838967D01*
X170572168Y-115523088D01*
X170448918Y-115225537D01*
X170269987Y-114957748D01*
X170042252Y-114730013D01*
X169774463Y-114551082D01*
X169476912Y-114427832D01*
X169161033Y-114365000D01*
X168838967Y-114365000D01*
X168523088Y-114427832D01*
X168225537Y-114551082D01*
X167957748Y-114730013D01*
X167730013Y-114957748D01*
X167551082Y-115225537D01*
X167427832Y-115523088D01*
X167365000Y-115838967D01*
X134660000Y-115838967D01*
X134660000Y-109838967D01*
X139865000Y-109838967D01*
X139865000Y-110161033D01*
X139927832Y-110476912D01*
X140051082Y-110774463D01*
X140230013Y-111042252D01*
X140457748Y-111269987D01*
X140725537Y-111448918D01*
X141023088Y-111572168D01*
X141338967Y-111635000D01*
X141661033Y-111635000D01*
X141976912Y-111572168D01*
X142274463Y-111448918D01*
X142542252Y-111269987D01*
X142676826Y-111135413D01*
X143544192Y-111135413D01*
X143639956Y-111399814D01*
X143929571Y-111540704D01*
X144241108Y-111622384D01*
X144562595Y-111641718D01*
X144881675Y-111597961D01*
X145186088Y-111492795D01*
X145360044Y-111399814D01*
X145455808Y-111135413D01*
X144500000Y-110179605D01*
X143544192Y-111135413D01*
X142676826Y-111135413D01*
X142769987Y-111042252D01*
X142948918Y-110774463D01*
X142997346Y-110657549D01*
X143007205Y-110686088D01*
X143100186Y-110860044D01*
X143364587Y-110955808D01*
X144320395Y-110000000D01*
X144679605Y-110000000D01*
X145635413Y-110955808D01*
X145899814Y-110860044D01*
X146000662Y-110652739D01*
X146051082Y-110774463D01*
X146230013Y-111042252D01*
X146457748Y-111269987D01*
X146725537Y-111448918D01*
X147023088Y-111572168D01*
X147338967Y-111635000D01*
X147661033Y-111635000D01*
X147976912Y-111572168D01*
X148274463Y-111448918D01*
X148542252Y-111269987D01*
X148769987Y-111042252D01*
X148948918Y-110774463D01*
X149000000Y-110651140D01*
X149051082Y-110774463D01*
X149230013Y-111042252D01*
X149457748Y-111269987D01*
X149725537Y-111448918D01*
X150023088Y-111572168D01*
X150338967Y-111635000D01*
X150661033Y-111635000D01*
X150976912Y-111572168D01*
X151274463Y-111448918D01*
X151542252Y-111269987D01*
X151676826Y-111135413D01*
X152544192Y-111135413D01*
X152639956Y-111399814D01*
X152929571Y-111540704D01*
X153241108Y-111622384D01*
X153562595Y-111641718D01*
X153881675Y-111597961D01*
X154186088Y-111492795D01*
X154360044Y-111399814D01*
X154455808Y-111135413D01*
X153500000Y-110179605D01*
X152544192Y-111135413D01*
X151676826Y-111135413D01*
X151769987Y-111042252D01*
X151948918Y-110774463D01*
X151997346Y-110657549D01*
X152007205Y-110686088D01*
X152100186Y-110860044D01*
X152364587Y-110955808D01*
X153320395Y-110000000D01*
X153679605Y-110000000D01*
X154635413Y-110955808D01*
X154899814Y-110860044D01*
X155000662Y-110652739D01*
X155051082Y-110774463D01*
X155230013Y-111042252D01*
X155457748Y-111269987D01*
X155725537Y-111448918D01*
X156023088Y-111572168D01*
X156338967Y-111635000D01*
X156661033Y-111635000D01*
X156976912Y-111572168D01*
X157274463Y-111448918D01*
X157542252Y-111269987D01*
X157769987Y-111042252D01*
X157948918Y-110774463D01*
X158072168Y-110476912D01*
X158135000Y-110161033D01*
X158135000Y-109838967D01*
X158072168Y-109523088D01*
X157948918Y-109225537D01*
X157769987Y-108957748D01*
X157542252Y-108730013D01*
X157274463Y-108551082D01*
X156976912Y-108427832D01*
X156661033Y-108365000D01*
X156338967Y-108365000D01*
X156023088Y-108427832D01*
X155725537Y-108551082D01*
X155457748Y-108730013D01*
X155230013Y-108957748D01*
X155051082Y-109225537D01*
X155002654Y-109342451D01*
X154992795Y-109313912D01*
X154899814Y-109139956D01*
X154635413Y-109044192D01*
X153679605Y-110000000D01*
X153320395Y-110000000D01*
X152364587Y-109044192D01*
X152100186Y-109139956D01*
X151999338Y-109347261D01*
X151948918Y-109225537D01*
X151769987Y-108957748D01*
X151676826Y-108864587D01*
X152544192Y-108864587D01*
X153500000Y-109820395D01*
X154455808Y-108864587D01*
X154360044Y-108600186D01*
X154070429Y-108459296D01*
X153758892Y-108377616D01*
X153437405Y-108358282D01*
X153118325Y-108402039D01*
X152813912Y-108507205D01*
X152639956Y-108600186D01*
X152544192Y-108864587D01*
X151676826Y-108864587D01*
X151542252Y-108730013D01*
X151274463Y-108551082D01*
X150976912Y-108427832D01*
X150661033Y-108365000D01*
X150338967Y-108365000D01*
X150023088Y-108427832D01*
X149725537Y-108551082D01*
X149457748Y-108730013D01*
X149230013Y-108957748D01*
X149051082Y-109225537D01*
X149000000Y-109348860D01*
X148948918Y-109225537D01*
X148769987Y-108957748D01*
X148542252Y-108730013D01*
X148274463Y-108551082D01*
X147976912Y-108427832D01*
X147661033Y-108365000D01*
X147338967Y-108365000D01*
X147023088Y-108427832D01*
X146725537Y-108551082D01*
X146457748Y-108730013D01*
X146230013Y-108957748D01*
X146051082Y-109225537D01*
X146002654Y-109342451D01*
X145992795Y-109313912D01*
X145899814Y-109139956D01*
X145635413Y-109044192D01*
X144679605Y-110000000D01*
X144320395Y-110000000D01*
X143364587Y-109044192D01*
X143100186Y-109139956D01*
X142999338Y-109347261D01*
X142948918Y-109225537D01*
X142769987Y-108957748D01*
X142676826Y-108864587D01*
X143544192Y-108864587D01*
X144500000Y-109820395D01*
X145455808Y-108864587D01*
X145360044Y-108600186D01*
X145070429Y-108459296D01*
X144758892Y-108377616D01*
X144437405Y-108358282D01*
X144118325Y-108402039D01*
X143813912Y-108507205D01*
X143639956Y-108600186D01*
X143544192Y-108864587D01*
X142676826Y-108864587D01*
X142542252Y-108730013D01*
X142274463Y-108551082D01*
X141976912Y-108427832D01*
X141661033Y-108365000D01*
X141338967Y-108365000D01*
X141023088Y-108427832D01*
X140725537Y-108551082D01*
X140457748Y-108730013D01*
X140230013Y-108957748D01*
X140051082Y-109225537D01*
X139927832Y-109523088D01*
X139865000Y-109838967D01*
X134660000Y-109838967D01*
X134660000Y-101838967D01*
X139865000Y-101838967D01*
X139865000Y-102161033D01*
X139927832Y-102476912D01*
X140051082Y-102774463D01*
X140230013Y-103042252D01*
X140457748Y-103269987D01*
X140725537Y-103448918D01*
X141023088Y-103572168D01*
X141338967Y-103635000D01*
X141661033Y-103635000D01*
X141976912Y-103572168D01*
X142274463Y-103448918D01*
X142542252Y-103269987D01*
X142769987Y-103042252D01*
X142948918Y-102774463D01*
X143000000Y-102651140D01*
X143051082Y-102774463D01*
X143230013Y-103042252D01*
X143457748Y-103269987D01*
X143725537Y-103448918D01*
X144023088Y-103572168D01*
X144338967Y-103635000D01*
X144661033Y-103635000D01*
X144976912Y-103572168D01*
X145274463Y-103448918D01*
X145542252Y-103269987D01*
X145769987Y-103042252D01*
X145948918Y-102774463D01*
X146000000Y-102651140D01*
X146051082Y-102774463D01*
X146230013Y-103042252D01*
X146457748Y-103269987D01*
X146725537Y-103448918D01*
X147023088Y-103572168D01*
X147338967Y-103635000D01*
X147661033Y-103635000D01*
X147976912Y-103572168D01*
X148274463Y-103448918D01*
X148542252Y-103269987D01*
X148769987Y-103042252D01*
X148948918Y-102774463D01*
X149000000Y-102651140D01*
X149051082Y-102774463D01*
X149230013Y-103042252D01*
X149457748Y-103269987D01*
X149725537Y-103448918D01*
X150023088Y-103572168D01*
X150338967Y-103635000D01*
X150661033Y-103635000D01*
X150976912Y-103572168D01*
X151274463Y-103448918D01*
X151542252Y-103269987D01*
X151676826Y-103135413D01*
X152544192Y-103135413D01*
X152639956Y-103399814D01*
X152929571Y-103540704D01*
X153241108Y-103622384D01*
X153562595Y-103641718D01*
X153881675Y-103597961D01*
X154186088Y-103492795D01*
X154360044Y-103399814D01*
X154455808Y-103135413D01*
X153500000Y-102179605D01*
X152544192Y-103135413D01*
X151676826Y-103135413D01*
X151769987Y-103042252D01*
X151948918Y-102774463D01*
X151997346Y-102657549D01*
X152007205Y-102686088D01*
X152100186Y-102860044D01*
X152364587Y-102955808D01*
X153320395Y-102000000D01*
X153679605Y-102000000D01*
X154635413Y-102955808D01*
X154899814Y-102860044D01*
X155000662Y-102652739D01*
X155051082Y-102774463D01*
X155230013Y-103042252D01*
X155457748Y-103269987D01*
X155725537Y-103448918D01*
X156023088Y-103572168D01*
X156338967Y-103635000D01*
X156661033Y-103635000D01*
X156976912Y-103572168D01*
X157274463Y-103448918D01*
X157542252Y-103269987D01*
X157769987Y-103042252D01*
X157948918Y-102774463D01*
X158072168Y-102476912D01*
X158135000Y-102161033D01*
X158135000Y-101838967D01*
X158072168Y-101523088D01*
X157948918Y-101225537D01*
X157769987Y-100957748D01*
X157542252Y-100730013D01*
X157274463Y-100551082D01*
X156976912Y-100427832D01*
X156661033Y-100365000D01*
X156338967Y-100365000D01*
X156023088Y-100427832D01*
X155725537Y-100551082D01*
X155457748Y-100730013D01*
X155230013Y-100957748D01*
X155051082Y-101225537D01*
X155002654Y-101342451D01*
X154992795Y-101313912D01*
X154899814Y-101139956D01*
X154635413Y-101044192D01*
X153679605Y-102000000D01*
X153320395Y-102000000D01*
X152364587Y-101044192D01*
X152100186Y-101139956D01*
X151999338Y-101347261D01*
X151948918Y-101225537D01*
X151769987Y-100957748D01*
X151676826Y-100864587D01*
X152544192Y-100864587D01*
X153500000Y-101820395D01*
X154455808Y-100864587D01*
X154360044Y-100600186D01*
X154070429Y-100459296D01*
X153758892Y-100377616D01*
X153437405Y-100358282D01*
X153118325Y-100402039D01*
X152813912Y-100507205D01*
X152639956Y-100600186D01*
X152544192Y-100864587D01*
X151676826Y-100864587D01*
X151542252Y-100730013D01*
X151274463Y-100551082D01*
X150976912Y-100427832D01*
X150661033Y-100365000D01*
X150338967Y-100365000D01*
X150023088Y-100427832D01*
X149725537Y-100551082D01*
X149457748Y-100730013D01*
X149230013Y-100957748D01*
X149051082Y-101225537D01*
X149000000Y-101348860D01*
X148948918Y-101225537D01*
X148769987Y-100957748D01*
X148542252Y-100730013D01*
X148274463Y-100551082D01*
X147976912Y-100427832D01*
X147661033Y-100365000D01*
X147338967Y-100365000D01*
X147023088Y-100427832D01*
X146725537Y-100551082D01*
X146457748Y-100730013D01*
X146230013Y-100957748D01*
X146051082Y-101225537D01*
X146000000Y-101348860D01*
X145948918Y-101225537D01*
X145769987Y-100957748D01*
X145542252Y-100730013D01*
X145274463Y-100551082D01*
X144976912Y-100427832D01*
X144661033Y-100365000D01*
X144338967Y-100365000D01*
X144023088Y-100427832D01*
X143725537Y-100551082D01*
X143457748Y-100730013D01*
X143230013Y-100957748D01*
X143051082Y-101225537D01*
X143000000Y-101348860D01*
X142948918Y-101225537D01*
X142769987Y-100957748D01*
X142542252Y-100730013D01*
X142274463Y-100551082D01*
X141976912Y-100427832D01*
X141661033Y-100365000D01*
X141338967Y-100365000D01*
X141023088Y-100427832D01*
X140725537Y-100551082D01*
X140457748Y-100730013D01*
X140230013Y-100957748D01*
X140051082Y-101225537D01*
X139927832Y-101523088D01*
X139865000Y-101838967D01*
X134660000Y-101838967D01*
X134660000Y-97825529D01*
X135228571Y-97825529D01*
X135228571Y-98174471D01*
X135296646Y-98516707D01*
X135430180Y-98839086D01*
X135624041Y-99129220D01*
X135870780Y-99375959D01*
X136160914Y-99569820D01*
X136483293Y-99703354D01*
X136825529Y-99771429D01*
X137174471Y-99771429D01*
X137516707Y-99703354D01*
X137839086Y-99569820D01*
X138129220Y-99375959D01*
X138375959Y-99129220D01*
X138569820Y-98839086D01*
X138703354Y-98516707D01*
X138771429Y-98174471D01*
X138771429Y-97825529D01*
X183228571Y-97825529D01*
X183228571Y-98174471D01*
X183296646Y-98516707D01*
X183430180Y-98839086D01*
X183624041Y-99129220D01*
X183870780Y-99375959D01*
X184160914Y-99569820D01*
X184483293Y-99703354D01*
X184825529Y-99771429D01*
X185174471Y-99771429D01*
X185516707Y-99703354D01*
X185839086Y-99569820D01*
X186129220Y-99375959D01*
X186375959Y-99129220D01*
X186569820Y-98839086D01*
X186703354Y-98516707D01*
X186771429Y-98174471D01*
X186771429Y-97825529D01*
X186703354Y-97483293D01*
X186569820Y-97160914D01*
X186375959Y-96870780D01*
X186129220Y-96624041D01*
X185839086Y-96430180D01*
X185516707Y-96296646D01*
X185174471Y-96228571D01*
X184825529Y-96228571D01*
X184483293Y-96296646D01*
X184160914Y-96430180D01*
X183870780Y-96624041D01*
X183624041Y-96870780D01*
X183430180Y-97160914D01*
X183296646Y-97483293D01*
X183228571Y-97825529D01*
X138771429Y-97825529D01*
X138703354Y-97483293D01*
X138569820Y-97160914D01*
X138375959Y-96870780D01*
X138129220Y-96624041D01*
X137839086Y-96430180D01*
X137516707Y-96296646D01*
X137174471Y-96228571D01*
X136825529Y-96228571D01*
X136483293Y-96296646D01*
X136160914Y-96430180D01*
X135870780Y-96624041D01*
X135624041Y-96870780D01*
X135430180Y-97160914D01*
X135296646Y-97483293D01*
X135228571Y-97825529D01*
X134660000Y-97825529D01*
X134660000Y-95660000D01*
X187340000Y-95660000D01*
X187340001Y-148340000D01*
G37*
%TD.AperFunction*%
%TD*%
M02*
