M48
; DRILL file {KiCad (5.1.10)-1} date 12/21/21 20:21:31
; FORMAT={-:-/ absolute / metric / decimal}
; #@! TF.CreationDate,2021-12-21T20:21:31-05:00
; #@! TF.GenerationSoftware,Kicad,Pcbnew,(5.1.10)-1
; #@! TF.FileFunction,Plated,1,2,PTH
FMAT,2
METRIC
T1C1.016
T2C1.200
T3C1.500
%
G90
G05
T1
X136.57Y-121.11
X136.57Y-123.65
X136.57Y-126.19
X136.57Y-128.73
X136.57Y-131.27
X136.57Y-133.81
X136.57Y-136.35
X136.57Y-138.89
X159.43Y-121.11
X159.43Y-123.65
X159.43Y-126.19
X159.43Y-128.73
X159.43Y-131.27
X159.43Y-133.81
X159.43Y-136.35
X159.43Y-138.89
T2
X141.5Y-102.0
X141.5Y-110.0
X144.5Y-102.0
X144.5Y-110.0
X147.5Y-102.0
X147.5Y-110.0
X150.5Y-102.0
X150.5Y-110.0
X153.5Y-102.0
X153.5Y-110.0
X156.5Y-102.0
X156.5Y-110.0
X164.5Y-122.0
X164.5Y-145.0
X167.5Y-122.0
X169.0Y-116.0
X173.0Y-116.0
X174.5Y-122.0
X177.5Y-122.0
X177.5Y-145.0
T3
X184.0Y-137.2
X184.0Y-142.0
X184.0Y-146.8
T0
M30
