M48
; DRILL file {KiCad (5.1.10)-1} date 01/03/22 01:22:53
; FORMAT={-:-/ absolute / metric / decimal}
; #@! TF.CreationDate,2022-01-03T01:22:53-05:00
; #@! TF.GenerationSoftware,Kicad,Pcbnew,(5.1.10)-1
; #@! TF.FileFunction,Plated,1,2,PTH
FMAT,2
METRIC
T1C0.762
T2C1.016
T3C1.100
T4C1.200
T5C1.900
%
G90
G05
T1
X137.0Y-102.5
X137.0Y-109.5
T2
X136.57Y-121.11
X136.57Y-123.65
X136.57Y-126.19
X136.57Y-128.73
X136.57Y-131.27
X136.57Y-133.81
X136.57Y-136.35
X136.57Y-138.89
X159.43Y-121.11
X159.43Y-123.65
X159.43Y-126.19
X159.43Y-128.73
X159.43Y-131.27
X159.43Y-133.81
X159.43Y-136.35
X159.43Y-138.89
T3
X184.0Y-103.84
X184.0Y-114.0
X184.0Y-117.84
X184.0Y-128.0
T4
X141.5Y-102.0
X141.5Y-110.0
X144.5Y-102.0
X144.5Y-110.0
X147.5Y-102.0
X147.5Y-110.0
X150.5Y-102.0
X150.5Y-110.0
X153.5Y-102.0
X153.5Y-110.0
X156.5Y-102.0
X156.5Y-110.0
X164.0Y-122.5
X164.0Y-145.0
X167.0Y-122.5
X169.0Y-116.0
X173.0Y-116.0
X175.0Y-122.5
X178.0Y-122.5
X178.0Y-145.0
T5
X182.4Y-137.0
X182.4Y-141.0
X182.4Y-145.0
X185.0Y-137.0
X185.0Y-141.0
X185.0Y-145.0
T0
M30
