G04 #@! TF.GenerationSoftware,KiCad,Pcbnew,(5.1.10)-1*
G04 #@! TF.CreationDate,2022-01-03T01:22:49-05:00*
G04 #@! TF.ProjectId,SlimeVRMotherBoard,536c696d-6556-4524-9d6f-74686572426f,V1.1*
G04 #@! TF.SameCoordinates,Original*
G04 #@! TF.FileFunction,Legend,Top*
G04 #@! TF.FilePolarity,Positive*
%FSLAX46Y46*%
G04 Gerber Fmt 4.6, Leading zero omitted, Abs format (unit mm)*
G04 Created by KiCad (PCBNEW (5.1.10)-1) date 2022-01-03 01:22:49*
%MOMM*%
%LPD*%
G01*
G04 APERTURE LIST*
%ADD10C,0.150000*%
%ADD11C,0.120000*%
%ADD12C,0.010000*%
%ADD13C,2.100000*%
%ADD14O,2.300000X2.300000*%
%ADD15C,1.900000*%
%ADD16C,2.300000*%
G04 APERTURE END LIST*
D10*
X178579761Y-113380952D02*
X178627380Y-113238095D01*
X178627380Y-113000000D01*
X178579761Y-112904761D01*
X178532142Y-112857142D01*
X178436904Y-112809523D01*
X178341666Y-112809523D01*
X178246428Y-112857142D01*
X178198809Y-112904761D01*
X178151190Y-113000000D01*
X178103571Y-113190476D01*
X178055952Y-113285714D01*
X178008333Y-113333333D01*
X177913095Y-113380952D01*
X177817857Y-113380952D01*
X177722619Y-113333333D01*
X177675000Y-113285714D01*
X177627380Y-113190476D01*
X177627380Y-112952380D01*
X177675000Y-112809523D01*
X178627380Y-112238095D02*
X178579761Y-112333333D01*
X178532142Y-112380952D01*
X178436904Y-112428571D01*
X178151190Y-112428571D01*
X178055952Y-112380952D01*
X178008333Y-112333333D01*
X177960714Y-112238095D01*
X177960714Y-112095238D01*
X178008333Y-112000000D01*
X178055952Y-111952380D01*
X178151190Y-111904761D01*
X178436904Y-111904761D01*
X178532142Y-111952380D01*
X178579761Y-112000000D01*
X178627380Y-112095238D01*
X178627380Y-112238095D01*
X178627380Y-111333333D02*
X178579761Y-111428571D01*
X178484523Y-111476190D01*
X177627380Y-111476190D01*
X178627380Y-110523809D02*
X177627380Y-110523809D01*
X178579761Y-110523809D02*
X178627380Y-110619047D01*
X178627380Y-110809523D01*
X178579761Y-110904761D01*
X178532142Y-110952380D01*
X178436904Y-111000000D01*
X178151190Y-111000000D01*
X178055952Y-110952380D01*
X178008333Y-110904761D01*
X177960714Y-110809523D01*
X177960714Y-110619047D01*
X178008333Y-110523809D01*
X178579761Y-109666666D02*
X178627380Y-109761904D01*
X178627380Y-109952380D01*
X178579761Y-110047619D01*
X178484523Y-110095238D01*
X178103571Y-110095238D01*
X178008333Y-110047619D01*
X177960714Y-109952380D01*
X177960714Y-109761904D01*
X178008333Y-109666666D01*
X178103571Y-109619047D01*
X178198809Y-109619047D01*
X178294047Y-110095238D01*
X178627380Y-109190476D02*
X177960714Y-109190476D01*
X178151190Y-109190476D02*
X178055952Y-109142857D01*
X178008333Y-109095238D01*
X177960714Y-109000000D01*
X177960714Y-108904761D01*
X179008333Y-107523809D02*
X178960714Y-107571428D01*
X178817857Y-107666666D01*
X178722619Y-107714285D01*
X178579761Y-107761904D01*
X178341666Y-107809523D01*
X178151190Y-107809523D01*
X177913095Y-107761904D01*
X177770238Y-107714285D01*
X177675000Y-107666666D01*
X177532142Y-107571428D01*
X177484523Y-107523809D01*
X177627380Y-106857142D02*
X178341666Y-106857142D01*
X178484523Y-106904761D01*
X178579761Y-107000000D01*
X178627380Y-107142857D01*
X178627380Y-107238095D01*
X178627380Y-106380952D02*
X177627380Y-106380952D01*
X177627380Y-106000000D01*
X177675000Y-105904761D01*
X177722619Y-105857142D01*
X177817857Y-105809523D01*
X177960714Y-105809523D01*
X178055952Y-105857142D01*
X178103571Y-105904761D01*
X178151190Y-106000000D01*
X178151190Y-106380952D01*
X178627380Y-104857142D02*
X178627380Y-105428571D01*
X178627380Y-105142857D02*
X177627380Y-105142857D01*
X177770238Y-105238095D01*
X177865476Y-105333333D01*
X177913095Y-105428571D01*
X179008333Y-104523809D02*
X178960714Y-104476190D01*
X178817857Y-104380952D01*
X178722619Y-104333333D01*
X178579761Y-104285714D01*
X178341666Y-104238095D01*
X178151190Y-104238095D01*
X177913095Y-104285714D01*
X177770238Y-104333333D01*
X177675000Y-104380952D01*
X177532142Y-104476190D01*
X177484523Y-104523809D01*
X178627380Y-103000000D02*
X177960714Y-103000000D01*
X177627380Y-103000000D02*
X177675000Y-103047619D01*
X177722619Y-103000000D01*
X177675000Y-102952380D01*
X177627380Y-103000000D01*
X177722619Y-103000000D01*
X177960714Y-102666666D02*
X177960714Y-102285714D01*
X178627380Y-102523809D02*
X177770238Y-102523809D01*
X177675000Y-102476190D01*
X177627380Y-102380952D01*
X177627380Y-102285714D01*
X179610714Y-113785714D02*
X180277380Y-113785714D01*
X179705952Y-113785714D02*
X179658333Y-113738095D01*
X179610714Y-113642857D01*
X179610714Y-113500000D01*
X179658333Y-113404761D01*
X179753571Y-113357142D01*
X180277380Y-113357142D01*
X180277380Y-112738095D02*
X180229761Y-112833333D01*
X180182142Y-112880952D01*
X180086904Y-112928571D01*
X179801190Y-112928571D01*
X179705952Y-112880952D01*
X179658333Y-112833333D01*
X179610714Y-112738095D01*
X179610714Y-112595238D01*
X179658333Y-112500000D01*
X179705952Y-112452380D01*
X179801190Y-112404761D01*
X180086904Y-112404761D01*
X180182142Y-112452380D01*
X180229761Y-112500000D01*
X180277380Y-112595238D01*
X180277380Y-112738095D01*
X179610714Y-112119047D02*
X179610714Y-111738095D01*
X179277380Y-111976190D02*
X180134523Y-111976190D01*
X180229761Y-111928571D01*
X180277380Y-111833333D01*
X180277380Y-111738095D01*
X179610714Y-110214285D02*
X180277380Y-110214285D01*
X179610714Y-110642857D02*
X180134523Y-110642857D01*
X180229761Y-110595238D01*
X180277380Y-110500000D01*
X180277380Y-110357142D01*
X180229761Y-110261904D01*
X180182142Y-110214285D01*
X180229761Y-109785714D02*
X180277380Y-109690476D01*
X180277380Y-109500000D01*
X180229761Y-109404761D01*
X180134523Y-109357142D01*
X180086904Y-109357142D01*
X179991666Y-109404761D01*
X179944047Y-109500000D01*
X179944047Y-109642857D01*
X179896428Y-109738095D01*
X179801190Y-109785714D01*
X179753571Y-109785714D01*
X179658333Y-109738095D01*
X179610714Y-109642857D01*
X179610714Y-109500000D01*
X179658333Y-109404761D01*
X180277380Y-108928571D02*
X179610714Y-108928571D01*
X179277380Y-108928571D02*
X179325000Y-108976190D01*
X179372619Y-108928571D01*
X179325000Y-108880952D01*
X179277380Y-108928571D01*
X179372619Y-108928571D01*
X179610714Y-108452380D02*
X180277380Y-108452380D01*
X179705952Y-108452380D02*
X179658333Y-108404761D01*
X179610714Y-108309523D01*
X179610714Y-108166666D01*
X179658333Y-108071428D01*
X179753571Y-108023809D01*
X180277380Y-108023809D01*
X179610714Y-107119047D02*
X180420238Y-107119047D01*
X180515476Y-107166666D01*
X180563095Y-107214285D01*
X180610714Y-107309523D01*
X180610714Y-107452380D01*
X180563095Y-107547619D01*
X180229761Y-107119047D02*
X180277380Y-107214285D01*
X180277380Y-107404761D01*
X180229761Y-107500000D01*
X180182142Y-107547619D01*
X180086904Y-107595238D01*
X179801190Y-107595238D01*
X179705952Y-107547619D01*
X179658333Y-107500000D01*
X179610714Y-107404761D01*
X179610714Y-107214285D01*
X179658333Y-107119047D01*
X180277380Y-105880952D02*
X179277380Y-105880952D01*
X179277380Y-105642857D01*
X179325000Y-105500000D01*
X179420238Y-105404761D01*
X179515476Y-105357142D01*
X179705952Y-105309523D01*
X179848809Y-105309523D01*
X180039285Y-105357142D01*
X180134523Y-105404761D01*
X180229761Y-105500000D01*
X180277380Y-105642857D01*
X180277380Y-105880952D01*
X180277380Y-104357142D02*
X180277380Y-104928571D01*
X180277380Y-104642857D02*
X179277380Y-104642857D01*
X179420238Y-104738095D01*
X179515476Y-104833333D01*
X179563095Y-104928571D01*
X180277380Y-103119047D02*
X180277380Y-103166666D01*
X180229761Y-103261904D01*
X180086904Y-103404761D01*
X179801190Y-103642857D01*
X179658333Y-103738095D01*
X179515476Y-103785714D01*
X179420238Y-103785714D01*
X179325000Y-103738095D01*
X179277380Y-103642857D01*
X179277380Y-103595238D01*
X179325000Y-103500000D01*
X179420238Y-103452380D01*
X179467857Y-103452380D01*
X179563095Y-103500000D01*
X179610714Y-103547619D01*
X179801190Y-103833333D01*
X179848809Y-103880952D01*
X179944047Y-103928571D01*
X180086904Y-103928571D01*
X180182142Y-103880952D01*
X180229761Y-103833333D01*
X180277380Y-103738095D01*
X180277380Y-103595238D01*
X180229761Y-103500000D01*
X180182142Y-103452380D01*
X179991666Y-103309523D01*
X179848809Y-103261904D01*
X179753571Y-103261904D01*
X180277380Y-102690476D02*
X179277380Y-102690476D01*
X179277380Y-102452380D01*
X179325000Y-102309523D01*
X179420238Y-102214285D01*
X179515476Y-102166666D01*
X179705952Y-102119047D01*
X179848809Y-102119047D01*
X180039285Y-102166666D01*
X180134523Y-102214285D01*
X180229761Y-102309523D01*
X180277380Y-102452380D01*
X180277380Y-102690476D01*
X179372619Y-101738095D02*
X179325000Y-101690476D01*
X179277380Y-101595238D01*
X179277380Y-101357142D01*
X179325000Y-101261904D01*
X179372619Y-101214285D01*
X179467857Y-101166666D01*
X179563095Y-101166666D01*
X179705952Y-101214285D01*
X180277380Y-101785714D01*
X180277380Y-101166666D01*
X159833333Y-95452380D02*
X160404761Y-95452380D01*
X160119047Y-96452380D02*
X160119047Y-95452380D01*
X160880952Y-96452380D02*
X160785714Y-96404761D01*
X160738095Y-96357142D01*
X160690476Y-96261904D01*
X160690476Y-95976190D01*
X160738095Y-95880952D01*
X160785714Y-95833333D01*
X160880952Y-95785714D01*
X161023809Y-95785714D01*
X161119047Y-95833333D01*
X161166666Y-95880952D01*
X161214285Y-95976190D01*
X161214285Y-96261904D01*
X161166666Y-96357142D01*
X161119047Y-96404761D01*
X161023809Y-96452380D01*
X160880952Y-96452380D01*
X161642857Y-95785714D02*
X161642857Y-96785714D01*
X161642857Y-95833333D02*
X161738095Y-95785714D01*
X161928571Y-95785714D01*
X162023809Y-95833333D01*
X162071428Y-95880952D01*
X162119047Y-95976190D01*
X162119047Y-96261904D01*
X162071428Y-96357142D01*
X162023809Y-96404761D01*
X161928571Y-96452380D01*
X161738095Y-96452380D01*
X161642857Y-96404761D01*
X163261904Y-96404761D02*
X163404761Y-96452380D01*
X163642857Y-96452380D01*
X163738095Y-96404761D01*
X163785714Y-96357142D01*
X163833333Y-96261904D01*
X163833333Y-96166666D01*
X163785714Y-96071428D01*
X163738095Y-96023809D01*
X163642857Y-95976190D01*
X163452380Y-95928571D01*
X163357142Y-95880952D01*
X163309523Y-95833333D01*
X163261904Y-95738095D01*
X163261904Y-95642857D01*
X163309523Y-95547619D01*
X163357142Y-95500000D01*
X163452380Y-95452380D01*
X163690476Y-95452380D01*
X163833333Y-95500000D01*
X164261904Y-96452380D02*
X164261904Y-95785714D01*
X164261904Y-95452380D02*
X164214285Y-95500000D01*
X164261904Y-95547619D01*
X164309523Y-95500000D01*
X164261904Y-95452380D01*
X164261904Y-95547619D01*
X165166666Y-96452380D02*
X165166666Y-95452380D01*
X165166666Y-96404761D02*
X165071428Y-96452380D01*
X164880952Y-96452380D01*
X164785714Y-96404761D01*
X164738095Y-96357142D01*
X164690476Y-96261904D01*
X164690476Y-95976190D01*
X164738095Y-95880952D01*
X164785714Y-95833333D01*
X164880952Y-95785714D01*
X165071428Y-95785714D01*
X165166666Y-95833333D01*
X166023809Y-96404761D02*
X165928571Y-96452380D01*
X165738095Y-96452380D01*
X165642857Y-96404761D01*
X165595238Y-96309523D01*
X165595238Y-95928571D01*
X165642857Y-95833333D01*
X165738095Y-95785714D01*
X165928571Y-95785714D01*
X166023809Y-95833333D01*
X166071428Y-95928571D01*
X166071428Y-96023809D01*
X165595238Y-96119047D01*
X155738095Y-136000000D02*
X155642857Y-135952380D01*
X155500000Y-135952380D01*
X155357142Y-136000000D01*
X155261904Y-136095238D01*
X155214285Y-136190476D01*
X155166666Y-136380952D01*
X155166666Y-136523809D01*
X155214285Y-136714285D01*
X155261904Y-136809523D01*
X155357142Y-136904761D01*
X155500000Y-136952380D01*
X155595238Y-136952380D01*
X155738095Y-136904761D01*
X155785714Y-136857142D01*
X155785714Y-136523809D01*
X155595238Y-136523809D01*
X156214285Y-136952380D02*
X156214285Y-135952380D01*
X156785714Y-136952380D01*
X156785714Y-135952380D01*
X157261904Y-136952380D02*
X157261904Y-135952380D01*
X157500000Y-135952380D01*
X157642857Y-136000000D01*
X157738095Y-136095238D01*
X157785714Y-136190476D01*
X157833333Y-136380952D01*
X157833333Y-136523809D01*
X157785714Y-136714285D01*
X157738095Y-136809523D01*
X157642857Y-136904761D01*
X157500000Y-136952380D01*
X157261904Y-136952380D01*
X156809523Y-138452380D02*
X156333333Y-138452380D01*
X156285714Y-138928571D01*
X156333333Y-138880952D01*
X156428571Y-138833333D01*
X156666666Y-138833333D01*
X156761904Y-138880952D01*
X156809523Y-138928571D01*
X156857142Y-139023809D01*
X156857142Y-139261904D01*
X156809523Y-139357142D01*
X156761904Y-139404761D01*
X156666666Y-139452380D01*
X156428571Y-139452380D01*
X156333333Y-139404761D01*
X156285714Y-139357142D01*
X157142857Y-138452380D02*
X157476190Y-139452380D01*
X157809523Y-138452380D01*
X138261904Y-138452380D02*
X138880952Y-138452380D01*
X138547619Y-138833333D01*
X138690476Y-138833333D01*
X138785714Y-138880952D01*
X138833333Y-138928571D01*
X138880952Y-139023809D01*
X138880952Y-139261904D01*
X138833333Y-139357142D01*
X138785714Y-139404761D01*
X138690476Y-139452380D01*
X138404761Y-139452380D01*
X138309523Y-139404761D01*
X138261904Y-139357142D01*
X139166666Y-138452380D02*
X139500000Y-139452380D01*
X139833333Y-138452380D01*
X140071428Y-138452380D02*
X140690476Y-138452380D01*
X140357142Y-138833333D01*
X140500000Y-138833333D01*
X140595238Y-138880952D01*
X140642857Y-138928571D01*
X140690476Y-139023809D01*
X140690476Y-139261904D01*
X140642857Y-139357142D01*
X140595238Y-139404761D01*
X140500000Y-139452380D01*
X140214285Y-139452380D01*
X140119047Y-139404761D01*
X140071428Y-139357142D01*
X181785714Y-134904761D02*
X181928571Y-134952380D01*
X182166666Y-134952380D01*
X182261904Y-134904761D01*
X182309523Y-134857142D01*
X182357142Y-134761904D01*
X182357142Y-134666666D01*
X182309523Y-134571428D01*
X182261904Y-134523809D01*
X182166666Y-134476190D01*
X181976190Y-134428571D01*
X181880952Y-134380952D01*
X181833333Y-134333333D01*
X181785714Y-134238095D01*
X181785714Y-134142857D01*
X181833333Y-134047619D01*
X181880952Y-134000000D01*
X181976190Y-133952380D01*
X182214285Y-133952380D01*
X182357142Y-134000000D01*
X182690476Y-134285714D02*
X182880952Y-134952380D01*
X183071428Y-134476190D01*
X183261904Y-134952380D01*
X183452380Y-134285714D01*
X183833333Y-134952380D02*
X183833333Y-134285714D01*
X183833333Y-133952380D02*
X183785714Y-134000000D01*
X183833333Y-134047619D01*
X183880952Y-134000000D01*
X183833333Y-133952380D01*
X183833333Y-134047619D01*
X184166666Y-134285714D02*
X184547619Y-134285714D01*
X184309523Y-133952380D02*
X184309523Y-134809523D01*
X184357142Y-134904761D01*
X184452380Y-134952380D01*
X184547619Y-134952380D01*
X185309523Y-134904761D02*
X185214285Y-134952380D01*
X185023809Y-134952380D01*
X184928571Y-134904761D01*
X184880952Y-134857142D01*
X184833333Y-134761904D01*
X184833333Y-134476190D01*
X184880952Y-134380952D01*
X184928571Y-134333333D01*
X185023809Y-134285714D01*
X185214285Y-134285714D01*
X185309523Y-134333333D01*
X185738095Y-134952380D02*
X185738095Y-133952380D01*
X186166666Y-134952380D02*
X186166666Y-134428571D01*
X186119047Y-134333333D01*
X186023809Y-134285714D01*
X185880952Y-134285714D01*
X185785714Y-134333333D01*
X185738095Y-134380952D01*
X165928571Y-118071428D02*
X165976190Y-117928571D01*
X166023809Y-117880952D01*
X166119047Y-117833333D01*
X166261904Y-117833333D01*
X166357142Y-117880952D01*
X166404761Y-117928571D01*
X166452380Y-118023809D01*
X166452380Y-118404761D01*
X165452380Y-118404761D01*
X165452380Y-118071428D01*
X165500000Y-117976190D01*
X165547619Y-117928571D01*
X165642857Y-117880952D01*
X165738095Y-117880952D01*
X165833333Y-117928571D01*
X165880952Y-117976190D01*
X165928571Y-118071428D01*
X165928571Y-118404761D01*
X166452380Y-116976190D02*
X165928571Y-116976190D01*
X165833333Y-117023809D01*
X165785714Y-117119047D01*
X165785714Y-117309523D01*
X165833333Y-117404761D01*
X166404761Y-116976190D02*
X166452380Y-117071428D01*
X166452380Y-117309523D01*
X166404761Y-117404761D01*
X166309523Y-117452380D01*
X166214285Y-117452380D01*
X166119047Y-117404761D01*
X166071428Y-117309523D01*
X166071428Y-117071428D01*
X166023809Y-116976190D01*
X165785714Y-116642857D02*
X165785714Y-116261904D01*
X165452380Y-116500000D02*
X166309523Y-116500000D01*
X166404761Y-116452380D01*
X166452380Y-116357142D01*
X166452380Y-116261904D01*
X165785714Y-116071428D02*
X165785714Y-115690476D01*
X165452380Y-115928571D02*
X166309523Y-115928571D01*
X166404761Y-115880952D01*
X166452380Y-115785714D01*
X166452380Y-115690476D01*
X166404761Y-114976190D02*
X166452380Y-115071428D01*
X166452380Y-115261904D01*
X166404761Y-115357142D01*
X166309523Y-115404761D01*
X165928571Y-115404761D01*
X165833333Y-115357142D01*
X165785714Y-115261904D01*
X165785714Y-115071428D01*
X165833333Y-114976190D01*
X165928571Y-114928571D01*
X166023809Y-114928571D01*
X166119047Y-115404761D01*
X166452380Y-114500000D02*
X165785714Y-114500000D01*
X165976190Y-114500000D02*
X165880952Y-114452380D01*
X165833333Y-114404761D01*
X165785714Y-114309523D01*
X165785714Y-114214285D01*
X165785714Y-113976190D02*
X166452380Y-113738095D01*
X165785714Y-113500000D02*
X166452380Y-113738095D01*
X166690476Y-113833333D01*
X166738095Y-113880952D01*
X166785714Y-113976190D01*
X158404761Y-109452380D02*
X158404761Y-108452380D01*
X158880952Y-109452380D02*
X158880952Y-108452380D01*
X159214285Y-109166666D01*
X159547619Y-108452380D01*
X159547619Y-109452380D01*
X160023809Y-108452380D02*
X160023809Y-109261904D01*
X160071428Y-109357142D01*
X160119047Y-109404761D01*
X160214285Y-109452380D01*
X160404761Y-109452380D01*
X160500000Y-109404761D01*
X160547619Y-109357142D01*
X160595238Y-109261904D01*
X160595238Y-108452380D01*
X158595238Y-101452380D02*
X158595238Y-100452380D01*
X159071428Y-101452380D02*
X159071428Y-100452380D01*
X159404761Y-101166666D01*
X159738095Y-100452380D01*
X159738095Y-101452380D01*
X160214285Y-100452380D02*
X160214285Y-101261904D01*
X160261904Y-101357142D01*
X160309523Y-101404761D01*
X160404761Y-101452380D01*
X160595238Y-101452380D01*
X160690476Y-101404761D01*
X160738095Y-101357142D01*
X160785714Y-101261904D01*
X160785714Y-100452380D01*
X161976190Y-101166666D02*
X162452380Y-101166666D01*
X161880952Y-101452380D02*
X162214285Y-100452380D01*
X162547619Y-101452380D01*
X162880952Y-100452380D02*
X162880952Y-101261904D01*
X162928571Y-101357142D01*
X162976190Y-101404761D01*
X163071428Y-101452380D01*
X163261904Y-101452380D01*
X163357142Y-101404761D01*
X163404761Y-101357142D01*
X163452380Y-101261904D01*
X163452380Y-100452380D01*
X163833333Y-100452380D02*
X164500000Y-101452380D01*
X164500000Y-100452380D02*
X163833333Y-101452380D01*
X165023809Y-133452380D02*
X165595238Y-133452380D01*
X165309523Y-134452380D02*
X165309523Y-133452380D01*
X165928571Y-134452380D02*
X165928571Y-133452380D01*
X166309523Y-133452380D01*
X166404761Y-133500000D01*
X166452380Y-133547619D01*
X166500000Y-133642857D01*
X166500000Y-133785714D01*
X166452380Y-133880952D01*
X166404761Y-133928571D01*
X166309523Y-133976190D01*
X165928571Y-133976190D01*
X167357142Y-133785714D02*
X167357142Y-134452380D01*
X167119047Y-133404761D02*
X166880952Y-134119047D01*
X167500000Y-134119047D01*
X168071428Y-133452380D02*
X168166666Y-133452380D01*
X168261904Y-133500000D01*
X168309523Y-133547619D01*
X168357142Y-133642857D01*
X168404761Y-133833333D01*
X168404761Y-134071428D01*
X168357142Y-134261904D01*
X168309523Y-134357142D01*
X168261904Y-134404761D01*
X168166666Y-134452380D01*
X168071428Y-134452380D01*
X167976190Y-134404761D01*
X167928571Y-134357142D01*
X167880952Y-134261904D01*
X167833333Y-134071428D01*
X167833333Y-133833333D01*
X167880952Y-133642857D01*
X167928571Y-133547619D01*
X167976190Y-133500000D01*
X168071428Y-133452380D01*
X168880952Y-134452380D02*
X169071428Y-134452380D01*
X169166666Y-134404761D01*
X169214285Y-134357142D01*
X169309523Y-134214285D01*
X169357142Y-134023809D01*
X169357142Y-133642857D01*
X169309523Y-133547619D01*
X169261904Y-133500000D01*
X169166666Y-133452380D01*
X168976190Y-133452380D01*
X168880952Y-133500000D01*
X168833333Y-133547619D01*
X168785714Y-133642857D01*
X168785714Y-133880952D01*
X168833333Y-133976190D01*
X168880952Y-134023809D01*
X168976190Y-134071428D01*
X169166666Y-134071428D01*
X169261904Y-134023809D01*
X169309523Y-133976190D01*
X169357142Y-133880952D01*
X170214285Y-133452380D02*
X170023809Y-133452380D01*
X169928571Y-133500000D01*
X169880952Y-133547619D01*
X169785714Y-133690476D01*
X169738095Y-133880952D01*
X169738095Y-134261904D01*
X169785714Y-134357142D01*
X169833333Y-134404761D01*
X169928571Y-134452380D01*
X170119047Y-134452380D01*
X170214285Y-134404761D01*
X170261904Y-134357142D01*
X170309523Y-134261904D01*
X170309523Y-134023809D01*
X170261904Y-133928571D01*
X170214285Y-133880952D01*
X170119047Y-133833333D01*
X169928571Y-133833333D01*
X169833333Y-133880952D01*
X169785714Y-133928571D01*
X169738095Y-134023809D01*
X172071428Y-134357142D02*
X172023809Y-134404761D01*
X171880952Y-134452380D01*
X171785714Y-134452380D01*
X171642857Y-134404761D01*
X171547619Y-134309523D01*
X171500000Y-134214285D01*
X171452380Y-134023809D01*
X171452380Y-133880952D01*
X171500000Y-133690476D01*
X171547619Y-133595238D01*
X171642857Y-133500000D01*
X171785714Y-133452380D01*
X171880952Y-133452380D01*
X172023809Y-133500000D01*
X172071428Y-133547619D01*
X172500000Y-134452380D02*
X172500000Y-133452380D01*
X172928571Y-134452380D02*
X172928571Y-133928571D01*
X172880952Y-133833333D01*
X172785714Y-133785714D01*
X172642857Y-133785714D01*
X172547619Y-133833333D01*
X172500000Y-133880952D01*
X173833333Y-134452380D02*
X173833333Y-133928571D01*
X173785714Y-133833333D01*
X173690476Y-133785714D01*
X173500000Y-133785714D01*
X173404761Y-133833333D01*
X173833333Y-134404761D02*
X173738095Y-134452380D01*
X173500000Y-134452380D01*
X173404761Y-134404761D01*
X173357142Y-134309523D01*
X173357142Y-134214285D01*
X173404761Y-134119047D01*
X173500000Y-134071428D01*
X173738095Y-134071428D01*
X173833333Y-134023809D01*
X174309523Y-134452380D02*
X174309523Y-133785714D01*
X174309523Y-133976190D02*
X174357142Y-133880952D01*
X174404761Y-133833333D01*
X174500000Y-133785714D01*
X174595238Y-133785714D01*
X175357142Y-133785714D02*
X175357142Y-134595238D01*
X175309523Y-134690476D01*
X175261904Y-134738095D01*
X175166666Y-134785714D01*
X175023809Y-134785714D01*
X174928571Y-134738095D01*
X175357142Y-134404761D02*
X175261904Y-134452380D01*
X175071428Y-134452380D01*
X174976190Y-134404761D01*
X174928571Y-134357142D01*
X174880952Y-134261904D01*
X174880952Y-133976190D01*
X174928571Y-133880952D01*
X174976190Y-133833333D01*
X175071428Y-133785714D01*
X175261904Y-133785714D01*
X175357142Y-133833333D01*
X176214285Y-134404761D02*
X176119047Y-134452380D01*
X175928571Y-134452380D01*
X175833333Y-134404761D01*
X175785714Y-134309523D01*
X175785714Y-133928571D01*
X175833333Y-133833333D01*
X175928571Y-133785714D01*
X176119047Y-133785714D01*
X176214285Y-133833333D01*
X176261904Y-133928571D01*
X176261904Y-134023809D01*
X175785714Y-134119047D01*
X176690476Y-134452380D02*
X176690476Y-133785714D01*
X176690476Y-133976190D02*
X176738095Y-133880952D01*
X176785714Y-133833333D01*
X176880952Y-133785714D01*
X176976190Y-133785714D01*
X145380952Y-131452380D02*
X145380952Y-130452380D01*
X145619047Y-130452380D01*
X145761904Y-130500000D01*
X145857142Y-130595238D01*
X145904761Y-130690476D01*
X145952380Y-130880952D01*
X145952380Y-131023809D01*
X145904761Y-131214285D01*
X145857142Y-131309523D01*
X145761904Y-131404761D01*
X145619047Y-131452380D01*
X145380952Y-131452380D01*
X146904761Y-131452380D02*
X146333333Y-131452380D01*
X146619047Y-131452380D02*
X146619047Y-130452380D01*
X146523809Y-130595238D01*
X146428571Y-130690476D01*
X146333333Y-130738095D01*
X148095238Y-131452380D02*
X148095238Y-130452380D01*
X148428571Y-131166666D01*
X148761904Y-130452380D01*
X148761904Y-131452380D01*
X149238095Y-131452380D02*
X149238095Y-130785714D01*
X149238095Y-130452380D02*
X149190476Y-130500000D01*
X149238095Y-130547619D01*
X149285714Y-130500000D01*
X149238095Y-130452380D01*
X149238095Y-130547619D01*
X149714285Y-130785714D02*
X149714285Y-131452380D01*
X149714285Y-130880952D02*
X149761904Y-130833333D01*
X149857142Y-130785714D01*
X150000000Y-130785714D01*
X150095238Y-130833333D01*
X150142857Y-130928571D01*
X150142857Y-131452380D01*
X150619047Y-131452380D02*
X150619047Y-130785714D01*
X150619047Y-130452380D02*
X150571428Y-130500000D01*
X150619047Y-130547619D01*
X150666666Y-130500000D01*
X150619047Y-130452380D01*
X150619047Y-130547619D01*
D11*
X136000000Y-111000000D02*
X136000000Y-101000000D01*
X138000000Y-111000000D02*
X136000000Y-111000000D01*
X138000000Y-101000000D02*
X138000000Y-111000000D01*
X136000000Y-101000000D02*
X138000000Y-101000000D01*
X177600000Y-117000000D02*
X177600000Y-115000000D01*
X180400000Y-117000000D02*
X177600000Y-117000000D01*
X180400000Y-115000000D02*
X180400000Y-117000000D01*
X177600000Y-115000000D02*
X180400000Y-115000000D01*
X182530000Y-111640000D02*
X185470000Y-111640000D01*
X185470000Y-111640000D02*
X185470000Y-106200000D01*
X185470000Y-106200000D02*
X182530000Y-106200000D01*
X182530000Y-106200000D02*
X182530000Y-111640000D01*
X184000000Y-112660000D02*
X184000000Y-111640000D01*
X184000000Y-105180000D02*
X184000000Y-106200000D01*
X182530000Y-110740000D02*
X185470000Y-110740000D01*
X182530000Y-110620000D02*
X185470000Y-110620000D01*
X182530000Y-110860000D02*
X185470000Y-110860000D01*
X182530000Y-125640000D02*
X185470000Y-125640000D01*
X185470000Y-125640000D02*
X185470000Y-120200000D01*
X185470000Y-120200000D02*
X182530000Y-120200000D01*
X182530000Y-120200000D02*
X182530000Y-125640000D01*
X184000000Y-126660000D02*
X184000000Y-125640000D01*
X184000000Y-119180000D02*
X184000000Y-120200000D01*
X182530000Y-124740000D02*
X185470000Y-124740000D01*
X182530000Y-124620000D02*
X185470000Y-124620000D01*
X182530000Y-124860000D02*
X185470000Y-124860000D01*
D12*
G36*
X172476822Y-102510726D02*
G01*
X172566394Y-102593090D01*
X172695204Y-102718782D01*
X172854193Y-102878326D01*
X173034301Y-103062247D01*
X173226471Y-103261070D01*
X173421642Y-103465319D01*
X173610756Y-103665519D01*
X173784753Y-103852194D01*
X173934574Y-104015869D01*
X174051161Y-104147068D01*
X174125452Y-104236317D01*
X174148667Y-104273001D01*
X174119359Y-104315267D01*
X174045348Y-104391296D01*
X173947497Y-104482356D01*
X173846671Y-104569712D01*
X173763735Y-104634631D01*
X173719554Y-104658381D01*
X173719458Y-104658363D01*
X173687350Y-104627991D01*
X173606025Y-104544637D01*
X173484016Y-104417234D01*
X173329856Y-104254713D01*
X173152079Y-104066006D01*
X173072366Y-103981030D01*
X172886192Y-103783883D01*
X172718670Y-103609467D01*
X172578607Y-103466710D01*
X172474809Y-103364537D01*
X172416082Y-103311875D01*
X172407040Y-103306666D01*
X172366815Y-103334093D01*
X172275021Y-103410397D01*
X172141919Y-103526618D01*
X171977770Y-103673792D01*
X171792836Y-103842956D01*
X171789089Y-103846416D01*
X171598047Y-104022514D01*
X171422584Y-104183621D01*
X171274487Y-104318961D01*
X171165548Y-104417759D01*
X171109137Y-104467891D01*
X171013611Y-104549617D01*
X170824306Y-104363827D01*
X170725177Y-104259836D01*
X170656647Y-104175130D01*
X170635000Y-104133064D01*
X170665124Y-104092229D01*
X170749009Y-104004308D01*
X170876926Y-103878226D01*
X171039147Y-103722911D01*
X171225941Y-103547287D01*
X171427580Y-103360281D01*
X171634333Y-103170820D01*
X171836473Y-102987828D01*
X172024269Y-102820233D01*
X172187992Y-102676959D01*
X172317913Y-102566934D01*
X172404303Y-102499083D01*
X172435549Y-102481166D01*
X172476822Y-102510726D01*
G37*
X172476822Y-102510726D02*
X172566394Y-102593090D01*
X172695204Y-102718782D01*
X172854193Y-102878326D01*
X173034301Y-103062247D01*
X173226471Y-103261070D01*
X173421642Y-103465319D01*
X173610756Y-103665519D01*
X173784753Y-103852194D01*
X173934574Y-104015869D01*
X174051161Y-104147068D01*
X174125452Y-104236317D01*
X174148667Y-104273001D01*
X174119359Y-104315267D01*
X174045348Y-104391296D01*
X173947497Y-104482356D01*
X173846671Y-104569712D01*
X173763735Y-104634631D01*
X173719554Y-104658381D01*
X173719458Y-104658363D01*
X173687350Y-104627991D01*
X173606025Y-104544637D01*
X173484016Y-104417234D01*
X173329856Y-104254713D01*
X173152079Y-104066006D01*
X173072366Y-103981030D01*
X172886192Y-103783883D01*
X172718670Y-103609467D01*
X172578607Y-103466710D01*
X172474809Y-103364537D01*
X172416082Y-103311875D01*
X172407040Y-103306666D01*
X172366815Y-103334093D01*
X172275021Y-103410397D01*
X172141919Y-103526618D01*
X171977770Y-103673792D01*
X171792836Y-103842956D01*
X171789089Y-103846416D01*
X171598047Y-104022514D01*
X171422584Y-104183621D01*
X171274487Y-104318961D01*
X171165548Y-104417759D01*
X171109137Y-104467891D01*
X171013611Y-104549617D01*
X170824306Y-104363827D01*
X170725177Y-104259836D01*
X170656647Y-104175130D01*
X170635000Y-104133064D01*
X170665124Y-104092229D01*
X170749009Y-104004308D01*
X170876926Y-103878226D01*
X171039147Y-103722911D01*
X171225941Y-103547287D01*
X171427580Y-103360281D01*
X171634333Y-103170820D01*
X171836473Y-102987828D01*
X172024269Y-102820233D01*
X172187992Y-102676959D01*
X172317913Y-102566934D01*
X172404303Y-102499083D01*
X172435549Y-102481166D01*
X172476822Y-102510726D01*
G36*
X166657609Y-102488947D02*
G01*
X166759687Y-102574555D01*
X166918860Y-102714969D01*
X167133080Y-102908335D01*
X167400297Y-103152800D01*
X167718461Y-103446510D01*
X168085524Y-103787612D01*
X168192802Y-103887643D01*
X168481105Y-104156652D01*
X168305277Y-104366659D01*
X168208782Y-104474852D01*
X168129872Y-104550670D01*
X168088371Y-104576666D01*
X168046678Y-104549108D01*
X167952559Y-104471899D01*
X167815412Y-104353235D01*
X167644633Y-104201313D01*
X167449620Y-104024329D01*
X167348217Y-103931083D01*
X167146775Y-103745362D01*
X166967410Y-103580580D01*
X166819011Y-103444858D01*
X166710469Y-103346313D01*
X166650674Y-103293064D01*
X166641821Y-103285963D01*
X166611900Y-103315391D01*
X166531951Y-103397688D01*
X166410203Y-103524282D01*
X166254885Y-103686603D01*
X166074223Y-103876081D01*
X165961068Y-103995046D01*
X165768406Y-104196612D01*
X165594940Y-104375879D01*
X165449170Y-104524245D01*
X165339596Y-104633106D01*
X165274716Y-104693860D01*
X165260976Y-104703666D01*
X165219959Y-104675719D01*
X165138267Y-104602514D01*
X165035436Y-104501749D01*
X164836555Y-104299831D01*
X165707994Y-103379915D01*
X165928111Y-103148750D01*
X166130140Y-102938871D01*
X166306619Y-102757846D01*
X166450089Y-102613244D01*
X166553090Y-102512635D01*
X166608163Y-102463586D01*
X166614675Y-102460000D01*
X166657609Y-102488947D01*
G37*
X166657609Y-102488947D02*
X166759687Y-102574555D01*
X166918860Y-102714969D01*
X167133080Y-102908335D01*
X167400297Y-103152800D01*
X167718461Y-103446510D01*
X168085524Y-103787612D01*
X168192802Y-103887643D01*
X168481105Y-104156652D01*
X168305277Y-104366659D01*
X168208782Y-104474852D01*
X168129872Y-104550670D01*
X168088371Y-104576666D01*
X168046678Y-104549108D01*
X167952559Y-104471899D01*
X167815412Y-104353235D01*
X167644633Y-104201313D01*
X167449620Y-104024329D01*
X167348217Y-103931083D01*
X167146775Y-103745362D01*
X166967410Y-103580580D01*
X166819011Y-103444858D01*
X166710469Y-103346313D01*
X166650674Y-103293064D01*
X166641821Y-103285963D01*
X166611900Y-103315391D01*
X166531951Y-103397688D01*
X166410203Y-103524282D01*
X166254885Y-103686603D01*
X166074223Y-103876081D01*
X165961068Y-103995046D01*
X165768406Y-104196612D01*
X165594940Y-104375879D01*
X165449170Y-104524245D01*
X165339596Y-104633106D01*
X165274716Y-104693860D01*
X165260976Y-104703666D01*
X165219959Y-104675719D01*
X165138267Y-104602514D01*
X165035436Y-104501749D01*
X164836555Y-104299831D01*
X165707994Y-103379915D01*
X165928111Y-103148750D01*
X166130140Y-102938871D01*
X166306619Y-102757846D01*
X166450089Y-102613244D01*
X166553090Y-102512635D01*
X166608163Y-102463586D01*
X166614675Y-102460000D01*
X166657609Y-102488947D01*
G36*
X173811926Y-101634132D02*
G01*
X174072003Y-101689339D01*
X174308378Y-101768166D01*
X174358854Y-101790617D01*
X174474332Y-101861950D01*
X174622424Y-101976292D01*
X174778690Y-102114099D01*
X174849435Y-102182856D01*
X175027369Y-102375708D01*
X175166684Y-102563766D01*
X175292888Y-102783242D01*
X175343793Y-102884619D01*
X175563145Y-103410262D01*
X175743959Y-104008615D01*
X175885718Y-104676738D01*
X175987904Y-105411694D01*
X176049999Y-106210543D01*
X176071356Y-107017988D01*
X176072055Y-107317257D01*
X176070850Y-107543958D01*
X176066740Y-107710186D01*
X176058725Y-107828035D01*
X176045806Y-107909600D01*
X176026981Y-107966974D01*
X176001251Y-108012253D01*
X175987551Y-108031372D01*
X175825692Y-108195815D01*
X175627688Y-108297950D01*
X175387231Y-108338821D01*
X175098016Y-108319468D01*
X174753733Y-108240935D01*
X174741333Y-108237338D01*
X173913766Y-108020466D01*
X173033685Y-107835777D01*
X172128955Y-107688858D01*
X171778000Y-107643311D01*
X171503687Y-107616849D01*
X171160801Y-107594193D01*
X170765361Y-107575614D01*
X170333386Y-107561381D01*
X169880897Y-107551762D01*
X169423913Y-107547028D01*
X168978453Y-107547447D01*
X168560536Y-107553289D01*
X168186183Y-107564823D01*
X167925667Y-107578538D01*
X167365096Y-107622068D01*
X166792999Y-107678598D01*
X166226390Y-107745825D01*
X165682284Y-107821447D01*
X165177696Y-107903159D01*
X164729640Y-107988661D01*
X164475500Y-108045485D01*
X164316167Y-108079755D01*
X164189745Y-108099430D01*
X164117407Y-108101473D01*
X164109250Y-108098025D01*
X164088211Y-108046877D01*
X164057966Y-107939915D01*
X164023821Y-107800822D01*
X163991080Y-107653282D01*
X163965048Y-107520976D01*
X163951032Y-107427590D01*
X163952156Y-107396715D01*
X164004253Y-107379711D01*
X164123866Y-107350784D01*
X164295212Y-107313163D01*
X164502509Y-107270078D01*
X164729973Y-107224759D01*
X164961821Y-107180436D01*
X165182271Y-107140337D01*
X165322167Y-107116377D01*
X166445032Y-106957144D01*
X167574204Y-106848819D01*
X168699782Y-106791097D01*
X169811865Y-106783675D01*
X170900549Y-106826247D01*
X171955935Y-106918511D01*
X172968120Y-107060161D01*
X173927203Y-107250894D01*
X174508500Y-107398560D01*
X174725942Y-107458482D01*
X174926293Y-107512844D01*
X175089056Y-107556139D01*
X175193734Y-107582864D01*
X175202783Y-107585016D01*
X175346732Y-107618621D01*
X175320349Y-106722060D01*
X175283314Y-105983667D01*
X175217881Y-105304147D01*
X175124876Y-104686895D01*
X175005124Y-104135304D01*
X174859448Y-103652769D01*
X174688675Y-103242684D01*
X174493629Y-102908442D01*
X174349723Y-102728558D01*
X174181671Y-102566948D01*
X174017465Y-102463401D01*
X173823714Y-102400422D01*
X173672864Y-102373900D01*
X173535296Y-102351640D01*
X173435108Y-102330173D01*
X173398739Y-102316850D01*
X173392314Y-102267615D01*
X173394108Y-102155656D01*
X173403595Y-102002464D01*
X173407618Y-101954434D01*
X173437812Y-101613333D01*
X173575795Y-101613333D01*
X173811926Y-101634132D01*
G37*
X173811926Y-101634132D02*
X174072003Y-101689339D01*
X174308378Y-101768166D01*
X174358854Y-101790617D01*
X174474332Y-101861950D01*
X174622424Y-101976292D01*
X174778690Y-102114099D01*
X174849435Y-102182856D01*
X175027369Y-102375708D01*
X175166684Y-102563766D01*
X175292888Y-102783242D01*
X175343793Y-102884619D01*
X175563145Y-103410262D01*
X175743959Y-104008615D01*
X175885718Y-104676738D01*
X175987904Y-105411694D01*
X176049999Y-106210543D01*
X176071356Y-107017988D01*
X176072055Y-107317257D01*
X176070850Y-107543958D01*
X176066740Y-107710186D01*
X176058725Y-107828035D01*
X176045806Y-107909600D01*
X176026981Y-107966974D01*
X176001251Y-108012253D01*
X175987551Y-108031372D01*
X175825692Y-108195815D01*
X175627688Y-108297950D01*
X175387231Y-108338821D01*
X175098016Y-108319468D01*
X174753733Y-108240935D01*
X174741333Y-108237338D01*
X173913766Y-108020466D01*
X173033685Y-107835777D01*
X172128955Y-107688858D01*
X171778000Y-107643311D01*
X171503687Y-107616849D01*
X171160801Y-107594193D01*
X170765361Y-107575614D01*
X170333386Y-107561381D01*
X169880897Y-107551762D01*
X169423913Y-107547028D01*
X168978453Y-107547447D01*
X168560536Y-107553289D01*
X168186183Y-107564823D01*
X167925667Y-107578538D01*
X167365096Y-107622068D01*
X166792999Y-107678598D01*
X166226390Y-107745825D01*
X165682284Y-107821447D01*
X165177696Y-107903159D01*
X164729640Y-107988661D01*
X164475500Y-108045485D01*
X164316167Y-108079755D01*
X164189745Y-108099430D01*
X164117407Y-108101473D01*
X164109250Y-108098025D01*
X164088211Y-108046877D01*
X164057966Y-107939915D01*
X164023821Y-107800822D01*
X163991080Y-107653282D01*
X163965048Y-107520976D01*
X163951032Y-107427590D01*
X163952156Y-107396715D01*
X164004253Y-107379711D01*
X164123866Y-107350784D01*
X164295212Y-107313163D01*
X164502509Y-107270078D01*
X164729973Y-107224759D01*
X164961821Y-107180436D01*
X165182271Y-107140337D01*
X165322167Y-107116377D01*
X166445032Y-106957144D01*
X167574204Y-106848819D01*
X168699782Y-106791097D01*
X169811865Y-106783675D01*
X170900549Y-106826247D01*
X171955935Y-106918511D01*
X172968120Y-107060161D01*
X173927203Y-107250894D01*
X174508500Y-107398560D01*
X174725942Y-107458482D01*
X174926293Y-107512844D01*
X175089056Y-107556139D01*
X175193734Y-107582864D01*
X175202783Y-107585016D01*
X175346732Y-107618621D01*
X175320349Y-106722060D01*
X175283314Y-105983667D01*
X175217881Y-105304147D01*
X175124876Y-104686895D01*
X175005124Y-104135304D01*
X174859448Y-103652769D01*
X174688675Y-103242684D01*
X174493629Y-102908442D01*
X174349723Y-102728558D01*
X174181671Y-102566948D01*
X174017465Y-102463401D01*
X173823714Y-102400422D01*
X173672864Y-102373900D01*
X173535296Y-102351640D01*
X173435108Y-102330173D01*
X173398739Y-102316850D01*
X173392314Y-102267615D01*
X173394108Y-102155656D01*
X173403595Y-102002464D01*
X173407618Y-101954434D01*
X173437812Y-101613333D01*
X173575795Y-101613333D01*
X173811926Y-101634132D01*
D11*
X167000000Y-114000000D02*
X167000000Y-118000000D01*
X167000000Y-118000000D02*
X175000000Y-118000000D01*
X175000000Y-118000000D02*
X175000000Y-114000000D01*
X175000000Y-114000000D02*
X167000000Y-114000000D01*
D10*
X134670000Y-141300000D02*
X134670000Y-141300000D01*
X135830000Y-141300000D02*
X134670000Y-141300000D01*
X136820000Y-148300000D02*
X136820000Y-142300000D01*
X152900000Y-148300000D02*
X161329999Y-148300000D01*
X152900000Y-147300000D02*
X152900000Y-148300000D01*
X144680000Y-147300000D02*
X152900000Y-147300000D01*
X144680000Y-148300000D02*
X144680000Y-147300000D01*
X136820000Y-148300000D02*
X144680000Y-148300000D01*
X134670000Y-115220000D02*
X134670000Y-141300000D01*
X159330000Y-113220000D02*
X136670000Y-113220000D01*
X161330000Y-148300000D02*
X161330000Y-115220000D01*
X136670000Y-113220000D02*
G75*
G03*
X134670000Y-115220000I0J-2000000D01*
G01*
X161330000Y-115220000D02*
G75*
G03*
X159330000Y-113220000I-2000000J0D01*
G01*
X136820000Y-142300000D02*
G75*
G03*
X135820000Y-141300000I-1000000J0D01*
G01*
D11*
X140000000Y-108000000D02*
X140000000Y-112000000D01*
X158000000Y-108000000D02*
X140000000Y-108000000D01*
X158000000Y-112000000D02*
X158000000Y-108000000D01*
X140000000Y-112000000D02*
X158000000Y-112000000D01*
X140000000Y-104000000D02*
X158000000Y-104000000D01*
X158000000Y-104000000D02*
X158000000Y-100000000D01*
X158000000Y-100000000D02*
X140000000Y-100000000D01*
X140000000Y-100000000D02*
X140000000Y-104000000D01*
X179950000Y-148750000D02*
X179950000Y-133250000D01*
X187450000Y-148750000D02*
X179950000Y-148750000D01*
X187450000Y-133250000D02*
X187450000Y-148750000D01*
X179950000Y-133250000D02*
X187450000Y-133250000D01*
X179500000Y-147000000D02*
X162500000Y-147000000D01*
X162500000Y-147000000D02*
X162500000Y-119000000D01*
X162500000Y-119000000D02*
X179500000Y-119000000D01*
X179500000Y-119000000D02*
X179500000Y-147000000D01*
X175500000Y-147000000D02*
X175500000Y-148500000D01*
X175500000Y-148500000D02*
X166500000Y-148500000D01*
X166500000Y-148500000D02*
X166500000Y-147000000D01*
D10*
X136833333Y-100452380D02*
X136500000Y-99976190D01*
X136261904Y-100452380D02*
X136261904Y-99452380D01*
X136642857Y-99452380D01*
X136738095Y-99500000D01*
X136785714Y-99547619D01*
X136833333Y-99642857D01*
X136833333Y-99785714D01*
X136785714Y-99880952D01*
X136738095Y-99928571D01*
X136642857Y-99976190D01*
X136261904Y-99976190D01*
X137785714Y-100452380D02*
X137214285Y-100452380D01*
X137500000Y-100452380D02*
X137500000Y-99452380D01*
X137404761Y-99595238D01*
X137309523Y-99690476D01*
X137214285Y-99738095D01*
X139452380Y-107642857D02*
X139452380Y-108214285D01*
X139452380Y-107928571D02*
X138452380Y-107928571D01*
X138595238Y-108023809D01*
X138690476Y-108119047D01*
X138738095Y-108214285D01*
X138880952Y-107071428D02*
X138833333Y-107166666D01*
X138785714Y-107214285D01*
X138690476Y-107261904D01*
X138642857Y-107261904D01*
X138547619Y-107214285D01*
X138500000Y-107166666D01*
X138452380Y-107071428D01*
X138452380Y-106880952D01*
X138500000Y-106785714D01*
X138547619Y-106738095D01*
X138642857Y-106690476D01*
X138690476Y-106690476D01*
X138785714Y-106738095D01*
X138833333Y-106785714D01*
X138880952Y-106880952D01*
X138880952Y-107071428D01*
X138928571Y-107166666D01*
X138976190Y-107214285D01*
X139071428Y-107261904D01*
X139261904Y-107261904D01*
X139357142Y-107214285D01*
X139404761Y-107166666D01*
X139452380Y-107071428D01*
X139452380Y-106880952D01*
X139404761Y-106785714D01*
X139357142Y-106738095D01*
X139261904Y-106690476D01*
X139071428Y-106690476D01*
X138976190Y-106738095D01*
X138928571Y-106785714D01*
X138880952Y-106880952D01*
X138452380Y-106071428D02*
X138452380Y-105976190D01*
X138500000Y-105880952D01*
X138547619Y-105833333D01*
X138642857Y-105785714D01*
X138833333Y-105738095D01*
X139071428Y-105738095D01*
X139261904Y-105785714D01*
X139357142Y-105833333D01*
X139404761Y-105880952D01*
X139452380Y-105976190D01*
X139452380Y-106071428D01*
X139404761Y-106166666D01*
X139357142Y-106214285D01*
X139261904Y-106261904D01*
X139071428Y-106309523D01*
X138833333Y-106309523D01*
X138642857Y-106261904D01*
X138547619Y-106214285D01*
X138500000Y-106166666D01*
X138452380Y-106071428D01*
X139452380Y-105309523D02*
X138452380Y-105309523D01*
X139071428Y-105214285D02*
X139452380Y-104928571D01*
X138785714Y-104928571D02*
X139166666Y-105309523D01*
X139452380Y-104547619D02*
X139452380Y-104309523D01*
X139261904Y-104309523D01*
X139214285Y-104404761D01*
X139119047Y-104500000D01*
X138976190Y-104547619D01*
X138738095Y-104547619D01*
X138595238Y-104500000D01*
X138500000Y-104404761D01*
X138452380Y-104261904D01*
X138452380Y-104071428D01*
X138500000Y-103928571D01*
X138595238Y-103833333D01*
X138738095Y-103785714D01*
X138976190Y-103785714D01*
X139119047Y-103833333D01*
X139214285Y-103928571D01*
X139261904Y-104023809D01*
X139452380Y-104023809D01*
X139452380Y-103785714D01*
X178166666Y-117452380D02*
X178166666Y-118166666D01*
X178119047Y-118309523D01*
X178023809Y-118404761D01*
X177880952Y-118452380D01*
X177785714Y-118452380D01*
X178642857Y-118452380D02*
X178642857Y-117452380D01*
X179023809Y-117452380D01*
X179119047Y-117500000D01*
X179166666Y-117547619D01*
X179214285Y-117642857D01*
X179214285Y-117785714D01*
X179166666Y-117880952D01*
X179119047Y-117928571D01*
X179023809Y-117976190D01*
X178642857Y-117976190D01*
X180166666Y-118452380D02*
X179595238Y-118452380D01*
X179880952Y-118452380D02*
X179880952Y-117452380D01*
X179785714Y-117595238D01*
X179690476Y-117690476D01*
X179595238Y-117738095D01*
X187452380Y-109658095D02*
X186452380Y-109658095D01*
X186452380Y-109420000D01*
X186500000Y-109277142D01*
X186595238Y-109181904D01*
X186690476Y-109134285D01*
X186880952Y-109086666D01*
X187023809Y-109086666D01*
X187214285Y-109134285D01*
X187309523Y-109181904D01*
X187404761Y-109277142D01*
X187452380Y-109420000D01*
X187452380Y-109658095D01*
X186547619Y-108705714D02*
X186500000Y-108658095D01*
X186452380Y-108562857D01*
X186452380Y-108324761D01*
X186500000Y-108229523D01*
X186547619Y-108181904D01*
X186642857Y-108134285D01*
X186738095Y-108134285D01*
X186880952Y-108181904D01*
X187452380Y-108753333D01*
X187452380Y-108134285D01*
X187452380Y-123658095D02*
X186452380Y-123658095D01*
X186452380Y-123420000D01*
X186500000Y-123277142D01*
X186595238Y-123181904D01*
X186690476Y-123134285D01*
X186880952Y-123086666D01*
X187023809Y-123086666D01*
X187214285Y-123134285D01*
X187309523Y-123181904D01*
X187404761Y-123277142D01*
X187452380Y-123420000D01*
X187452380Y-123658095D01*
X187452380Y-122134285D02*
X187452380Y-122705714D01*
X187452380Y-122420000D02*
X186452380Y-122420000D01*
X186595238Y-122515238D01*
X186690476Y-122610476D01*
X186738095Y-122705714D01*
X175928571Y-116785714D02*
X175976190Y-116642857D01*
X176023809Y-116595238D01*
X176119047Y-116547619D01*
X176261904Y-116547619D01*
X176357142Y-116595238D01*
X176404761Y-116642857D01*
X176452380Y-116738095D01*
X176452380Y-117119047D01*
X175452380Y-117119047D01*
X175452380Y-116785714D01*
X175500000Y-116690476D01*
X175547619Y-116642857D01*
X175642857Y-116595238D01*
X175738095Y-116595238D01*
X175833333Y-116642857D01*
X175880952Y-116690476D01*
X175928571Y-116785714D01*
X175928571Y-117119047D01*
X175452380Y-116261904D02*
X175452380Y-115690476D01*
X176452380Y-115976190D02*
X175452380Y-115976190D01*
X176452380Y-114833333D02*
X176452380Y-115404761D01*
X176452380Y-115119047D02*
X175452380Y-115119047D01*
X175595238Y-115214285D01*
X175690476Y-115309523D01*
X175738095Y-115404761D01*
X168928571Y-113357142D02*
X168976190Y-113214285D01*
X169023809Y-113166666D01*
X169119047Y-113119047D01*
X169261904Y-113119047D01*
X169357142Y-113166666D01*
X169404761Y-113214285D01*
X169452380Y-113309523D01*
X169452380Y-113690476D01*
X168452380Y-113690476D01*
X168452380Y-113357142D01*
X168500000Y-113261904D01*
X168547619Y-113214285D01*
X168642857Y-113166666D01*
X168738095Y-113166666D01*
X168833333Y-113214285D01*
X168880952Y-113261904D01*
X168928571Y-113357142D01*
X168928571Y-113690476D01*
X169166666Y-112738095D02*
X169166666Y-112261904D01*
X169452380Y-112833333D02*
X168452380Y-112500000D01*
X169452380Y-112166666D01*
X168452380Y-111976190D02*
X168452380Y-111404761D01*
X169452380Y-111690476D02*
X168452380Y-111690476D01*
X169071428Y-111071428D02*
X169071428Y-110309523D01*
X169452380Y-110690476D02*
X168690476Y-110690476D01*
X172928571Y-113357142D02*
X172976190Y-113214285D01*
X173023809Y-113166666D01*
X173119047Y-113119047D01*
X173261904Y-113119047D01*
X173357142Y-113166666D01*
X173404761Y-113214285D01*
X173452380Y-113309523D01*
X173452380Y-113690476D01*
X172452380Y-113690476D01*
X172452380Y-113357142D01*
X172500000Y-113261904D01*
X172547619Y-113214285D01*
X172642857Y-113166666D01*
X172738095Y-113166666D01*
X172833333Y-113214285D01*
X172880952Y-113261904D01*
X172928571Y-113357142D01*
X172928571Y-113690476D01*
X173166666Y-112738095D02*
X173166666Y-112261904D01*
X173452380Y-112833333D02*
X172452380Y-112500000D01*
X173452380Y-112166666D01*
X172452380Y-111976190D02*
X172452380Y-111404761D01*
X173452380Y-111690476D02*
X172452380Y-111690476D01*
X173071428Y-111071428D02*
X173071428Y-110309523D01*
X147238095Y-145452380D02*
X147238095Y-146261904D01*
X147285714Y-146357142D01*
X147333333Y-146404761D01*
X147428571Y-146452380D01*
X147619047Y-146452380D01*
X147714285Y-146404761D01*
X147761904Y-146357142D01*
X147809523Y-146261904D01*
X147809523Y-145452380D01*
X148238095Y-145547619D02*
X148285714Y-145500000D01*
X148380952Y-145452380D01*
X148619047Y-145452380D01*
X148714285Y-145500000D01*
X148761904Y-145547619D01*
X148809523Y-145642857D01*
X148809523Y-145738095D01*
X148761904Y-145880952D01*
X148190476Y-146452380D01*
X148809523Y-146452380D01*
X158452380Y-111761904D02*
X159261904Y-111761904D01*
X159357142Y-111714285D01*
X159404761Y-111666666D01*
X159452380Y-111571428D01*
X159452380Y-111380952D01*
X159404761Y-111285714D01*
X159357142Y-111238095D01*
X159261904Y-111190476D01*
X158452380Y-111190476D01*
X158452380Y-110809523D02*
X158452380Y-110190476D01*
X158833333Y-110523809D01*
X158833333Y-110380952D01*
X158880952Y-110285714D01*
X158928571Y-110238095D01*
X159023809Y-110190476D01*
X159261904Y-110190476D01*
X159357142Y-110238095D01*
X159404761Y-110285714D01*
X159452380Y-110380952D01*
X159452380Y-110666666D01*
X159404761Y-110761904D01*
X159357142Y-110809523D01*
X155952380Y-107333333D02*
X156952380Y-107000000D01*
X155952380Y-106666666D01*
X156857142Y-105761904D02*
X156904761Y-105809523D01*
X156952380Y-105952380D01*
X156952380Y-106047619D01*
X156904761Y-106190476D01*
X156809523Y-106285714D01*
X156714285Y-106333333D01*
X156523809Y-106380952D01*
X156380952Y-106380952D01*
X156190476Y-106333333D01*
X156095238Y-106285714D01*
X156000000Y-106190476D01*
X155952380Y-106047619D01*
X155952380Y-105952380D01*
X156000000Y-105809523D01*
X156047619Y-105761904D01*
X156857142Y-104761904D02*
X156904761Y-104809523D01*
X156952380Y-104952380D01*
X156952380Y-105047619D01*
X156904761Y-105190476D01*
X156809523Y-105285714D01*
X156714285Y-105333333D01*
X156523809Y-105380952D01*
X156380952Y-105380952D01*
X156190476Y-105333333D01*
X156095238Y-105285714D01*
X156000000Y-105190476D01*
X155952380Y-105047619D01*
X155952380Y-104952380D01*
X156000000Y-104809523D01*
X156047619Y-104761904D01*
X153000000Y-106761904D02*
X152952380Y-106857142D01*
X152952380Y-107000000D01*
X153000000Y-107142857D01*
X153095238Y-107238095D01*
X153190476Y-107285714D01*
X153380952Y-107333333D01*
X153523809Y-107333333D01*
X153714285Y-107285714D01*
X153809523Y-107238095D01*
X153904761Y-107142857D01*
X153952380Y-107000000D01*
X153952380Y-106904761D01*
X153904761Y-106761904D01*
X153857142Y-106714285D01*
X153523809Y-106714285D01*
X153523809Y-106904761D01*
X153952380Y-106285714D02*
X152952380Y-106285714D01*
X153952380Y-105714285D01*
X152952380Y-105714285D01*
X153952380Y-105238095D02*
X152952380Y-105238095D01*
X152952380Y-105000000D01*
X153000000Y-104857142D01*
X153095238Y-104761904D01*
X153190476Y-104714285D01*
X153380952Y-104666666D01*
X153523809Y-104666666D01*
X153714285Y-104714285D01*
X153809523Y-104761904D01*
X153904761Y-104857142D01*
X153952380Y-105000000D01*
X153952380Y-105238095D01*
X150904761Y-107190476D02*
X150952380Y-107047619D01*
X150952380Y-106809523D01*
X150904761Y-106714285D01*
X150857142Y-106666666D01*
X150761904Y-106619047D01*
X150666666Y-106619047D01*
X150571428Y-106666666D01*
X150523809Y-106714285D01*
X150476190Y-106809523D01*
X150428571Y-107000000D01*
X150380952Y-107095238D01*
X150333333Y-107142857D01*
X150238095Y-107190476D01*
X150142857Y-107190476D01*
X150047619Y-107142857D01*
X150000000Y-107095238D01*
X149952380Y-107000000D01*
X149952380Y-106761904D01*
X150000000Y-106619047D01*
X150857142Y-105619047D02*
X150904761Y-105666666D01*
X150952380Y-105809523D01*
X150952380Y-105904761D01*
X150904761Y-106047619D01*
X150809523Y-106142857D01*
X150714285Y-106190476D01*
X150523809Y-106238095D01*
X150380952Y-106238095D01*
X150190476Y-106190476D01*
X150095238Y-106142857D01*
X150000000Y-106047619D01*
X149952380Y-105904761D01*
X149952380Y-105809523D01*
X150000000Y-105666666D01*
X150047619Y-105619047D01*
X150952380Y-104714285D02*
X150952380Y-105190476D01*
X149952380Y-105190476D01*
X147904761Y-107214285D02*
X147952380Y-107071428D01*
X147952380Y-106833333D01*
X147904761Y-106738095D01*
X147857142Y-106690476D01*
X147761904Y-106642857D01*
X147666666Y-106642857D01*
X147571428Y-106690476D01*
X147523809Y-106738095D01*
X147476190Y-106833333D01*
X147428571Y-107023809D01*
X147380952Y-107119047D01*
X147333333Y-107166666D01*
X147238095Y-107214285D01*
X147142857Y-107214285D01*
X147047619Y-107166666D01*
X147000000Y-107119047D01*
X146952380Y-107023809D01*
X146952380Y-106785714D01*
X147000000Y-106642857D01*
X147952380Y-106214285D02*
X146952380Y-106214285D01*
X146952380Y-105976190D01*
X147000000Y-105833333D01*
X147095238Y-105738095D01*
X147190476Y-105690476D01*
X147380952Y-105642857D01*
X147523809Y-105642857D01*
X147714285Y-105690476D01*
X147809523Y-105738095D01*
X147904761Y-105833333D01*
X147952380Y-105976190D01*
X147952380Y-106214285D01*
X147666666Y-105261904D02*
X147666666Y-104785714D01*
X147952380Y-105357142D02*
X146952380Y-105023809D01*
X147952380Y-104690476D01*
X144666666Y-107214285D02*
X144666666Y-106738095D01*
X144952380Y-107309523D02*
X143952380Y-106976190D01*
X144952380Y-106642857D01*
X144952380Y-106309523D02*
X143952380Y-106309523D01*
X143952380Y-106071428D01*
X144000000Y-105928571D01*
X144095238Y-105833333D01*
X144190476Y-105785714D01*
X144380952Y-105738095D01*
X144523809Y-105738095D01*
X144714285Y-105785714D01*
X144809523Y-105833333D01*
X144904761Y-105928571D01*
X144952380Y-106071428D01*
X144952380Y-106309523D01*
X143952380Y-105119047D02*
X143952380Y-105023809D01*
X144000000Y-104928571D01*
X144047619Y-104880952D01*
X144142857Y-104833333D01*
X144333333Y-104785714D01*
X144571428Y-104785714D01*
X144761904Y-104833333D01*
X144857142Y-104880952D01*
X144904761Y-104928571D01*
X144952380Y-105023809D01*
X144952380Y-105119047D01*
X144904761Y-105214285D01*
X144857142Y-105261904D01*
X144761904Y-105309523D01*
X144571428Y-105357142D01*
X144333333Y-105357142D01*
X144142857Y-105309523D01*
X144047619Y-105261904D01*
X144000000Y-105214285D01*
X143952380Y-105119047D01*
X141952380Y-106904761D02*
X140952380Y-106904761D01*
X141952380Y-106428571D02*
X140952380Y-106428571D01*
X141952380Y-105857142D01*
X140952380Y-105857142D01*
X140952380Y-105523809D02*
X140952380Y-104952380D01*
X141952380Y-105238095D02*
X140952380Y-105238095D01*
X158452380Y-103761904D02*
X159261904Y-103761904D01*
X159357142Y-103714285D01*
X159404761Y-103666666D01*
X159452380Y-103571428D01*
X159452380Y-103380952D01*
X159404761Y-103285714D01*
X159357142Y-103238095D01*
X159261904Y-103190476D01*
X158452380Y-103190476D01*
X158785714Y-102285714D02*
X159452380Y-102285714D01*
X158404761Y-102523809D02*
X159119047Y-102761904D01*
X159119047Y-102142857D01*
X141952380Y-98904761D02*
X140952380Y-98904761D01*
X141952380Y-98428571D02*
X140952380Y-98428571D01*
X141952380Y-97857142D01*
X140952380Y-97857142D01*
X140952380Y-97523809D02*
X140952380Y-96952380D01*
X141952380Y-97238095D02*
X140952380Y-97238095D01*
X144666666Y-99214285D02*
X144666666Y-98738095D01*
X144952380Y-99309523D02*
X143952380Y-98976190D01*
X144952380Y-98642857D01*
X144952380Y-98309523D02*
X143952380Y-98309523D01*
X143952380Y-98071428D01*
X144000000Y-97928571D01*
X144095238Y-97833333D01*
X144190476Y-97785714D01*
X144380952Y-97738095D01*
X144523809Y-97738095D01*
X144714285Y-97785714D01*
X144809523Y-97833333D01*
X144904761Y-97928571D01*
X144952380Y-98071428D01*
X144952380Y-98309523D01*
X143952380Y-97119047D02*
X143952380Y-97023809D01*
X144000000Y-96928571D01*
X144047619Y-96880952D01*
X144142857Y-96833333D01*
X144333333Y-96785714D01*
X144571428Y-96785714D01*
X144761904Y-96833333D01*
X144857142Y-96880952D01*
X144904761Y-96928571D01*
X144952380Y-97023809D01*
X144952380Y-97119047D01*
X144904761Y-97214285D01*
X144857142Y-97261904D01*
X144761904Y-97309523D01*
X144571428Y-97357142D01*
X144333333Y-97357142D01*
X144142857Y-97309523D01*
X144047619Y-97261904D01*
X144000000Y-97214285D01*
X143952380Y-97119047D01*
X147904761Y-99214285D02*
X147952380Y-99071428D01*
X147952380Y-98833333D01*
X147904761Y-98738095D01*
X147857142Y-98690476D01*
X147761904Y-98642857D01*
X147666666Y-98642857D01*
X147571428Y-98690476D01*
X147523809Y-98738095D01*
X147476190Y-98833333D01*
X147428571Y-99023809D01*
X147380952Y-99119047D01*
X147333333Y-99166666D01*
X147238095Y-99214285D01*
X147142857Y-99214285D01*
X147047619Y-99166666D01*
X147000000Y-99119047D01*
X146952380Y-99023809D01*
X146952380Y-98785714D01*
X147000000Y-98642857D01*
X147952380Y-98214285D02*
X146952380Y-98214285D01*
X146952380Y-97976190D01*
X147000000Y-97833333D01*
X147095238Y-97738095D01*
X147190476Y-97690476D01*
X147380952Y-97642857D01*
X147523809Y-97642857D01*
X147714285Y-97690476D01*
X147809523Y-97738095D01*
X147904761Y-97833333D01*
X147952380Y-97976190D01*
X147952380Y-98214285D01*
X147666666Y-97261904D02*
X147666666Y-96785714D01*
X147952380Y-97357142D02*
X146952380Y-97023809D01*
X147952380Y-96690476D01*
X150904761Y-99190476D02*
X150952380Y-99047619D01*
X150952380Y-98809523D01*
X150904761Y-98714285D01*
X150857142Y-98666666D01*
X150761904Y-98619047D01*
X150666666Y-98619047D01*
X150571428Y-98666666D01*
X150523809Y-98714285D01*
X150476190Y-98809523D01*
X150428571Y-99000000D01*
X150380952Y-99095238D01*
X150333333Y-99142857D01*
X150238095Y-99190476D01*
X150142857Y-99190476D01*
X150047619Y-99142857D01*
X150000000Y-99095238D01*
X149952380Y-99000000D01*
X149952380Y-98761904D01*
X150000000Y-98619047D01*
X150857142Y-97619047D02*
X150904761Y-97666666D01*
X150952380Y-97809523D01*
X150952380Y-97904761D01*
X150904761Y-98047619D01*
X150809523Y-98142857D01*
X150714285Y-98190476D01*
X150523809Y-98238095D01*
X150380952Y-98238095D01*
X150190476Y-98190476D01*
X150095238Y-98142857D01*
X150000000Y-98047619D01*
X149952380Y-97904761D01*
X149952380Y-97809523D01*
X150000000Y-97666666D01*
X150047619Y-97619047D01*
X150952380Y-96714285D02*
X150952380Y-97190476D01*
X149952380Y-97190476D01*
X153000000Y-98761904D02*
X152952380Y-98857142D01*
X152952380Y-99000000D01*
X153000000Y-99142857D01*
X153095238Y-99238095D01*
X153190476Y-99285714D01*
X153380952Y-99333333D01*
X153523809Y-99333333D01*
X153714285Y-99285714D01*
X153809523Y-99238095D01*
X153904761Y-99142857D01*
X153952380Y-99000000D01*
X153952380Y-98904761D01*
X153904761Y-98761904D01*
X153857142Y-98714285D01*
X153523809Y-98714285D01*
X153523809Y-98904761D01*
X153952380Y-98285714D02*
X152952380Y-98285714D01*
X153952380Y-97714285D01*
X152952380Y-97714285D01*
X153952380Y-97238095D02*
X152952380Y-97238095D01*
X152952380Y-97000000D01*
X153000000Y-96857142D01*
X153095238Y-96761904D01*
X153190476Y-96714285D01*
X153380952Y-96666666D01*
X153523809Y-96666666D01*
X153714285Y-96714285D01*
X153809523Y-96761904D01*
X153904761Y-96857142D01*
X153952380Y-97000000D01*
X153952380Y-97238095D01*
X155952380Y-99333333D02*
X156952380Y-99000000D01*
X155952380Y-98666666D01*
X156857142Y-97761904D02*
X156904761Y-97809523D01*
X156952380Y-97952380D01*
X156952380Y-98047619D01*
X156904761Y-98190476D01*
X156809523Y-98285714D01*
X156714285Y-98333333D01*
X156523809Y-98380952D01*
X156380952Y-98380952D01*
X156190476Y-98333333D01*
X156095238Y-98285714D01*
X156000000Y-98190476D01*
X155952380Y-98047619D01*
X155952380Y-97952380D01*
X156000000Y-97809523D01*
X156047619Y-97761904D01*
X156857142Y-96761904D02*
X156904761Y-96809523D01*
X156952380Y-96952380D01*
X156952380Y-97047619D01*
X156904761Y-97190476D01*
X156809523Y-97285714D01*
X156714285Y-97333333D01*
X156523809Y-97380952D01*
X156380952Y-97380952D01*
X156190476Y-97333333D01*
X156095238Y-97285714D01*
X156000000Y-97190476D01*
X155952380Y-97047619D01*
X155952380Y-96952380D01*
X156000000Y-96809523D01*
X156047619Y-96761904D01*
X182938095Y-148404761D02*
X183080952Y-148452380D01*
X183319047Y-148452380D01*
X183414285Y-148404761D01*
X183461904Y-148357142D01*
X183509523Y-148261904D01*
X183509523Y-148166666D01*
X183461904Y-148071428D01*
X183414285Y-148023809D01*
X183319047Y-147976190D01*
X183128571Y-147928571D01*
X183033333Y-147880952D01*
X182985714Y-147833333D01*
X182938095Y-147738095D01*
X182938095Y-147642857D01*
X182985714Y-147547619D01*
X183033333Y-147500000D01*
X183128571Y-147452380D01*
X183366666Y-147452380D01*
X183509523Y-147500000D01*
X184461904Y-148452380D02*
X183890476Y-148452380D01*
X184176190Y-148452380D02*
X184176190Y-147452380D01*
X184080952Y-147595238D01*
X183985714Y-147690476D01*
X183890476Y-147738095D01*
X170238095Y-119452380D02*
X170238095Y-120261904D01*
X170285714Y-120357142D01*
X170333333Y-120404761D01*
X170428571Y-120452380D01*
X170619047Y-120452380D01*
X170714285Y-120404761D01*
X170761904Y-120357142D01*
X170809523Y-120261904D01*
X170809523Y-119452380D01*
X171809523Y-120452380D02*
X171238095Y-120452380D01*
X171523809Y-120452380D02*
X171523809Y-119452380D01*
X171428571Y-119595238D01*
X171333333Y-119690476D01*
X171238095Y-119738095D01*
X163452380Y-127619047D02*
X163452380Y-127428571D01*
X163500000Y-127333333D01*
X163595238Y-127238095D01*
X163785714Y-127190476D01*
X164119047Y-127190476D01*
X164309523Y-127238095D01*
X164404761Y-127333333D01*
X164452380Y-127428571D01*
X164452380Y-127619047D01*
X164404761Y-127714285D01*
X164309523Y-127809523D01*
X164119047Y-127857142D01*
X163785714Y-127857142D01*
X163595238Y-127809523D01*
X163500000Y-127714285D01*
X163452380Y-127619047D01*
X163452380Y-126761904D02*
X164261904Y-126761904D01*
X164357142Y-126714285D01*
X164404761Y-126666666D01*
X164452380Y-126571428D01*
X164452380Y-126380952D01*
X164404761Y-126285714D01*
X164357142Y-126238095D01*
X164261904Y-126190476D01*
X163452380Y-126190476D01*
X163452380Y-125857142D02*
X163452380Y-125285714D01*
X164452380Y-125571428D02*
X163452380Y-125571428D01*
X164071428Y-124952380D02*
X164071428Y-124190476D01*
X164452380Y-124571428D02*
X163690476Y-124571428D01*
X177452380Y-127619047D02*
X177452380Y-127428571D01*
X177500000Y-127333333D01*
X177595238Y-127238095D01*
X177785714Y-127190476D01*
X178119047Y-127190476D01*
X178309523Y-127238095D01*
X178404761Y-127333333D01*
X178452380Y-127428571D01*
X178452380Y-127619047D01*
X178404761Y-127714285D01*
X178309523Y-127809523D01*
X178119047Y-127857142D01*
X177785714Y-127857142D01*
X177595238Y-127809523D01*
X177500000Y-127714285D01*
X177452380Y-127619047D01*
X177452380Y-126761904D02*
X178261904Y-126761904D01*
X178357142Y-126714285D01*
X178404761Y-126666666D01*
X178452380Y-126571428D01*
X178452380Y-126380952D01*
X178404761Y-126285714D01*
X178357142Y-126238095D01*
X178261904Y-126190476D01*
X177452380Y-126190476D01*
X177452380Y-125857142D02*
X177452380Y-125285714D01*
X178452380Y-125571428D02*
X177452380Y-125571428D01*
X178071428Y-124952380D02*
X178071428Y-124190476D01*
X166928571Y-127357142D02*
X166976190Y-127214285D01*
X167023809Y-127166666D01*
X167119047Y-127119047D01*
X167261904Y-127119047D01*
X167357142Y-127166666D01*
X167404761Y-127214285D01*
X167452380Y-127309523D01*
X167452380Y-127690476D01*
X166452380Y-127690476D01*
X166452380Y-127357142D01*
X166500000Y-127261904D01*
X166547619Y-127214285D01*
X166642857Y-127166666D01*
X166738095Y-127166666D01*
X166833333Y-127214285D01*
X166880952Y-127261904D01*
X166928571Y-127357142D01*
X166928571Y-127690476D01*
X167166666Y-126738095D02*
X167166666Y-126261904D01*
X167452380Y-126833333D02*
X166452380Y-126500000D01*
X167452380Y-126166666D01*
X166452380Y-125976190D02*
X166452380Y-125404761D01*
X167452380Y-125690476D02*
X166452380Y-125690476D01*
X167071428Y-125071428D02*
X167071428Y-124309523D01*
X167452380Y-124690476D02*
X166690476Y-124690476D01*
X174928571Y-127357142D02*
X174976190Y-127214285D01*
X175023809Y-127166666D01*
X175119047Y-127119047D01*
X175261904Y-127119047D01*
X175357142Y-127166666D01*
X175404761Y-127214285D01*
X175452380Y-127309523D01*
X175452380Y-127690476D01*
X174452380Y-127690476D01*
X174452380Y-127357142D01*
X174500000Y-127261904D01*
X174547619Y-127214285D01*
X174642857Y-127166666D01*
X174738095Y-127166666D01*
X174833333Y-127214285D01*
X174880952Y-127261904D01*
X174928571Y-127357142D01*
X174928571Y-127690476D01*
X175166666Y-126738095D02*
X175166666Y-126261904D01*
X175452380Y-126833333D02*
X174452380Y-126500000D01*
X175452380Y-126166666D01*
X174452380Y-125976190D02*
X174452380Y-125404761D01*
X175452380Y-125690476D02*
X174452380Y-125690476D01*
X175071428Y-125071428D02*
X175071428Y-124309523D01*
X167190476Y-145452380D02*
X166857142Y-144976190D01*
X166619047Y-145452380D02*
X166619047Y-144452380D01*
X167000000Y-144452380D01*
X167095238Y-144500000D01*
X167142857Y-144547619D01*
X167190476Y-144642857D01*
X167190476Y-144785714D01*
X167142857Y-144880952D01*
X167095238Y-144928571D01*
X167000000Y-144976190D01*
X166619047Y-144976190D01*
X167952380Y-144928571D02*
X168095238Y-144976190D01*
X168142857Y-145023809D01*
X168190476Y-145119047D01*
X168190476Y-145261904D01*
X168142857Y-145357142D01*
X168095238Y-145404761D01*
X168000000Y-145452380D01*
X167619047Y-145452380D01*
X167619047Y-144452380D01*
X167952380Y-144452380D01*
X168047619Y-144500000D01*
X168095238Y-144547619D01*
X168142857Y-144642857D01*
X168142857Y-144738095D01*
X168095238Y-144833333D01*
X168047619Y-144880952D01*
X167952380Y-144928571D01*
X167619047Y-144928571D01*
X168619047Y-145071428D02*
X169380952Y-145071428D01*
X169000000Y-145452380D02*
X169000000Y-144690476D01*
X173690476Y-145452380D02*
X173357142Y-144976190D01*
X173119047Y-145452380D02*
X173119047Y-144452380D01*
X173500000Y-144452380D01*
X173595238Y-144500000D01*
X173642857Y-144547619D01*
X173690476Y-144642857D01*
X173690476Y-144785714D01*
X173642857Y-144880952D01*
X173595238Y-144928571D01*
X173500000Y-144976190D01*
X173119047Y-144976190D01*
X174452380Y-144928571D02*
X174595238Y-144976190D01*
X174642857Y-145023809D01*
X174690476Y-145119047D01*
X174690476Y-145261904D01*
X174642857Y-145357142D01*
X174595238Y-145404761D01*
X174500000Y-145452380D01*
X174119047Y-145452380D01*
X174119047Y-144452380D01*
X174452380Y-144452380D01*
X174547619Y-144500000D01*
X174595238Y-144547619D01*
X174642857Y-144642857D01*
X174642857Y-144738095D01*
X174595238Y-144833333D01*
X174547619Y-144880952D01*
X174452380Y-144928571D01*
X174119047Y-144928571D01*
X175119047Y-145071428D02*
X175880952Y-145071428D01*
%LPC*%
D13*
X137000000Y-109500000D03*
X137000000Y-102500000D03*
G36*
G01*
X177800000Y-116750000D02*
X177800000Y-115250000D01*
G75*
G02*
X177850000Y-115200000I50000J0D01*
G01*
X178850000Y-115200000D01*
G75*
G02*
X178900000Y-115250000I0J-50000D01*
G01*
X178900000Y-116750000D01*
G75*
G02*
X178850000Y-116800000I-50000J0D01*
G01*
X177850000Y-116800000D01*
G75*
G02*
X177800000Y-116750000I0J50000D01*
G01*
G37*
G36*
G01*
X179100000Y-116750000D02*
X179100000Y-115250000D01*
G75*
G02*
X179150000Y-115200000I50000J0D01*
G01*
X180150000Y-115200000D01*
G75*
G02*
X180200000Y-115250000I0J-50000D01*
G01*
X180200000Y-116750000D01*
G75*
G02*
X180150000Y-116800000I-50000J0D01*
G01*
X179150000Y-116800000D01*
G75*
G02*
X179100000Y-116750000I0J50000D01*
G01*
G37*
D14*
X184000000Y-103840000D03*
G36*
G01*
X185100000Y-115150000D02*
X182900000Y-115150000D01*
G75*
G02*
X182850000Y-115100000I0J50000D01*
G01*
X182850000Y-112900000D01*
G75*
G02*
X182900000Y-112850000I50000J0D01*
G01*
X185100000Y-112850000D01*
G75*
G02*
X185150000Y-112900000I0J-50000D01*
G01*
X185150000Y-115100000D01*
G75*
G02*
X185100000Y-115150000I-50000J0D01*
G01*
G37*
X184000000Y-117840000D03*
G36*
G01*
X185100000Y-129150000D02*
X182900000Y-129150000D01*
G75*
G02*
X182850000Y-129100000I0J50000D01*
G01*
X182850000Y-126900000D01*
G75*
G02*
X182900000Y-126850000I50000J0D01*
G01*
X185100000Y-126850000D01*
G75*
G02*
X185150000Y-126900000I0J-50000D01*
G01*
X185150000Y-129100000D01*
G75*
G02*
X185100000Y-129150000I-50000J0D01*
G01*
G37*
D13*
X173000000Y-116000000D03*
X169000000Y-116000000D03*
D15*
X136570000Y-138890000D03*
X159430000Y-138890000D03*
X136570000Y-136350000D03*
X159430000Y-136350000D03*
X136570000Y-133810000D03*
X159430000Y-133810000D03*
X136570000Y-131270000D03*
X159430000Y-131270000D03*
X136570000Y-128730000D03*
X159430000Y-128730000D03*
X136570000Y-126190000D03*
X159430000Y-126190000D03*
X136570000Y-123650000D03*
X159430000Y-123650000D03*
X136570000Y-121110000D03*
X159430000Y-121110000D03*
D13*
X150500000Y-110000000D03*
X153500000Y-110000000D03*
X156500000Y-110000000D03*
X147500000Y-110000000D03*
X144500000Y-110000000D03*
X141500000Y-110000000D03*
X141500000Y-102000000D03*
X144500000Y-102000000D03*
X147500000Y-102000000D03*
X156500000Y-102000000D03*
X153500000Y-102000000D03*
X150500000Y-102000000D03*
D16*
X182400000Y-145000000D03*
X185000000Y-145000000D03*
X182400000Y-141000000D03*
X185000000Y-141000000D03*
X182400000Y-137000000D03*
X185000000Y-137000000D03*
D13*
X178000000Y-122500000D03*
X175000000Y-122500000D03*
X164000000Y-145000000D03*
X178000000Y-145000000D03*
X164000000Y-122500000D03*
X167000000Y-122500000D03*
M02*
