%FSLAX45Y45*%
G04 Gerber Fmt 4.5, Leading zero omitted, Abs format (unit mm)*
G04 Created by KiCad (PCBNEW (5.1.10)-1) date 2022-01-03 01:22:54*
%MOMM*%
%LPD*%
G01*
G04 APERTURE LIST*
%TA.AperFunction,Profile*%
%ADD10C,0.050000*%
%TD*%
%ADD11C,0.200000*%
%ADD12C,0.300000*%
G04 APERTURE END LIST*
D10*
X18610000Y-13190000D02*
G75*
G03*
X18610000Y-13190000I-110000J0D01*
G01*
X13810000Y-9800000D02*
G75*
G03*
X13810000Y-9800000I-110000J0D01*
G01*
X18610000Y-9800000D02*
G75*
G03*
X18610000Y-9800000I-110000J0D01*
G01*
X18800000Y-9500000D02*
X18800000Y-14900000D01*
X13400000Y-9500000D02*
X18800000Y-9500000D01*
X13400000Y-14900000D02*
X13400000Y-9500000D01*
X18800000Y-14900000D02*
X13400000Y-14900000D01*
D11*
D12*
X13683928Y-15368214D02*
X13683928Y-15068214D01*
X13755357Y-15068214D01*
X13798214Y-15082500D01*
X13826786Y-15111071D01*
X13841071Y-15139643D01*
X13855357Y-15196786D01*
X13855357Y-15239643D01*
X13841071Y-15296786D01*
X13826786Y-15325357D01*
X13798214Y-15353929D01*
X13755357Y-15368214D01*
X13683928Y-15368214D01*
X13983928Y-15368214D02*
X13983928Y-15168214D01*
X13983928Y-15225357D02*
X13998214Y-15196786D01*
X14012500Y-15182500D01*
X14041071Y-15168214D01*
X14069643Y-15168214D01*
X14169643Y-15368214D02*
X14169643Y-15168214D01*
X14169643Y-15068214D02*
X14155357Y-15082500D01*
X14169643Y-15096786D01*
X14183928Y-15082500D01*
X14169643Y-15068214D01*
X14169643Y-15096786D01*
X14355357Y-15368214D02*
X14326786Y-15353929D01*
X14312500Y-15325357D01*
X14312500Y-15068214D01*
X14512500Y-15368214D02*
X14483928Y-15353929D01*
X14469643Y-15325357D01*
X14469643Y-15068214D01*
X14855357Y-15368214D02*
X14855357Y-15068214D01*
X14955357Y-15282500D01*
X15055357Y-15068214D01*
X15055357Y-15368214D01*
X15326786Y-15368214D02*
X15326786Y-15211071D01*
X15312500Y-15182500D01*
X15283928Y-15168214D01*
X15226786Y-15168214D01*
X15198214Y-15182500D01*
X15326786Y-15353929D02*
X15298214Y-15368214D01*
X15226786Y-15368214D01*
X15198214Y-15353929D01*
X15183928Y-15325357D01*
X15183928Y-15296786D01*
X15198214Y-15268214D01*
X15226786Y-15253929D01*
X15298214Y-15253929D01*
X15326786Y-15239643D01*
X15469643Y-15168214D02*
X15469643Y-15468214D01*
X15469643Y-15182500D02*
X15498214Y-15168214D01*
X15555357Y-15168214D01*
X15583928Y-15182500D01*
X15598214Y-15196786D01*
X15612500Y-15225357D01*
X15612500Y-15311071D01*
X15598214Y-15339643D01*
X15583928Y-15353929D01*
X15555357Y-15368214D01*
X15498214Y-15368214D01*
X15469643Y-15353929D01*
X15741071Y-15339643D02*
X15755357Y-15353929D01*
X15741071Y-15368214D01*
X15726786Y-15353929D01*
X15741071Y-15339643D01*
X15741071Y-15368214D01*
X15741071Y-15182500D02*
X15755357Y-15196786D01*
X15741071Y-15211071D01*
X15726786Y-15196786D01*
X15741071Y-15182500D01*
X15741071Y-15211071D01*
M02*
