G04 #@! TF.GenerationSoftware,KiCad,Pcbnew,(5.1.10)-1*
G04 #@! TF.CreationDate,2022-01-03T01:22:49-05:00*
G04 #@! TF.ProjectId,SlimeVRMotherBoard,536c696d-6556-4524-9d6f-74686572426f,V1.1*
G04 #@! TF.SameCoordinates,Original*
G04 #@! TF.FileFunction,Copper,L2,Bot*
G04 #@! TF.FilePolarity,Positive*
%FSLAX46Y46*%
G04 Gerber Fmt 4.6, Leading zero omitted, Abs format (unit mm)*
G04 Created by KiCad (PCBNEW (5.1.10)-1) date 2022-01-03 01:22:49*
%MOMM*%
%LPD*%
G01*
G04 APERTURE LIST*
G04 #@! TA.AperFunction,ComponentPad*
%ADD10C,2.000000*%
G04 #@! TD*
G04 #@! TA.AperFunction,ComponentPad*
%ADD11O,2.200000X2.200000*%
G04 #@! TD*
G04 #@! TA.AperFunction,ComponentPad*
%ADD12R,2.200000X2.200000*%
G04 #@! TD*
G04 #@! TA.AperFunction,ComponentPad*
%ADD13C,1.800000*%
G04 #@! TD*
G04 #@! TA.AperFunction,ComponentPad*
%ADD14C,2.200000*%
G04 #@! TD*
G04 #@! TA.AperFunction,Conductor*
%ADD15C,0.254000*%
G04 #@! TD*
G04 #@! TA.AperFunction,Conductor*
%ADD16C,0.100000*%
G04 #@! TD*
G04 APERTURE END LIST*
D10*
X137000000Y-109500000D03*
X137000000Y-102500000D03*
D11*
X184000000Y-103840000D03*
D12*
X184000000Y-114000000D03*
D11*
X184000000Y-117840000D03*
D12*
X184000000Y-128000000D03*
D10*
X173000000Y-116000000D03*
X169000000Y-116000000D03*
D13*
X136570000Y-138890000D03*
X159430000Y-138890000D03*
X136570000Y-136350000D03*
X159430000Y-136350000D03*
X136570000Y-133810000D03*
X159430000Y-133810000D03*
X136570000Y-131270000D03*
X159430000Y-131270000D03*
X136570000Y-128730000D03*
X159430000Y-128730000D03*
X136570000Y-126190000D03*
X159430000Y-126190000D03*
X136570000Y-123650000D03*
X159430000Y-123650000D03*
X136570000Y-121110000D03*
X159430000Y-121110000D03*
D10*
X150500000Y-110000000D03*
X153500000Y-110000000D03*
X156500000Y-110000000D03*
X147500000Y-110000000D03*
X144500000Y-110000000D03*
X141500000Y-110000000D03*
X141500000Y-102000000D03*
X144500000Y-102000000D03*
X147500000Y-102000000D03*
X156500000Y-102000000D03*
X153500000Y-102000000D03*
X150500000Y-102000000D03*
D14*
X182400000Y-145000000D03*
X185000000Y-145000000D03*
X182400000Y-141000000D03*
X185000000Y-141000000D03*
X182400000Y-137000000D03*
X185000000Y-137000000D03*
D10*
X178000000Y-122500000D03*
X175000000Y-122500000D03*
X164000000Y-145000000D03*
X178000000Y-145000000D03*
X164000000Y-122500000D03*
X167000000Y-122500000D03*
D15*
X187340001Y-148340000D02*
X134660000Y-148340000D01*
X134660000Y-144838967D01*
X162365000Y-144838967D01*
X162365000Y-145161033D01*
X162427832Y-145476912D01*
X162551082Y-145774463D01*
X162730013Y-146042252D01*
X162957748Y-146269987D01*
X163225537Y-146448918D01*
X163523088Y-146572168D01*
X163838967Y-146635000D01*
X164161033Y-146635000D01*
X164476912Y-146572168D01*
X164774463Y-146448918D01*
X165042252Y-146269987D01*
X165269987Y-146042252D01*
X165448918Y-145774463D01*
X165572168Y-145476912D01*
X165635000Y-145161033D01*
X165635000Y-144838967D01*
X176365000Y-144838967D01*
X176365000Y-145161033D01*
X176427832Y-145476912D01*
X176551082Y-145774463D01*
X176730013Y-146042252D01*
X176957748Y-146269987D01*
X177225537Y-146448918D01*
X177523088Y-146572168D01*
X177838967Y-146635000D01*
X178161033Y-146635000D01*
X178476912Y-146572168D01*
X178774463Y-146448918D01*
X179042252Y-146269987D01*
X179269987Y-146042252D01*
X179448918Y-145774463D01*
X179572168Y-145476912D01*
X179635000Y-145161033D01*
X179635000Y-144838967D01*
X179633041Y-144829117D01*
X180665000Y-144829117D01*
X180665000Y-145170883D01*
X180731675Y-145506081D01*
X180862463Y-145821831D01*
X181052337Y-146105998D01*
X181294002Y-146347663D01*
X181578169Y-146537537D01*
X181893919Y-146668325D01*
X182229117Y-146735000D01*
X182570883Y-146735000D01*
X182906081Y-146668325D01*
X183221831Y-146537537D01*
X183505998Y-146347663D01*
X183700000Y-146153661D01*
X183894002Y-146347663D01*
X184178169Y-146537537D01*
X184493919Y-146668325D01*
X184829117Y-146735000D01*
X185170883Y-146735000D01*
X185506081Y-146668325D01*
X185821831Y-146537537D01*
X186105998Y-146347663D01*
X186347663Y-146105998D01*
X186537537Y-145821831D01*
X186668325Y-145506081D01*
X186735000Y-145170883D01*
X186735000Y-144829117D01*
X186668325Y-144493919D01*
X186537537Y-144178169D01*
X186347663Y-143894002D01*
X186105998Y-143652337D01*
X185821831Y-143462463D01*
X185506081Y-143331675D01*
X185170883Y-143265000D01*
X184829117Y-143265000D01*
X184493919Y-143331675D01*
X184178169Y-143462463D01*
X183894002Y-143652337D01*
X183700000Y-143846339D01*
X183505998Y-143652337D01*
X183221831Y-143462463D01*
X182906081Y-143331675D01*
X182570883Y-143265000D01*
X182229117Y-143265000D01*
X181893919Y-143331675D01*
X181578169Y-143462463D01*
X181294002Y-143652337D01*
X181052337Y-143894002D01*
X180862463Y-144178169D01*
X180731675Y-144493919D01*
X180665000Y-144829117D01*
X179633041Y-144829117D01*
X179572168Y-144523088D01*
X179448918Y-144225537D01*
X179269987Y-143957748D01*
X179042252Y-143730013D01*
X178774463Y-143551082D01*
X178476912Y-143427832D01*
X178161033Y-143365000D01*
X177838967Y-143365000D01*
X177523088Y-143427832D01*
X177225537Y-143551082D01*
X176957748Y-143730013D01*
X176730013Y-143957748D01*
X176551082Y-144225537D01*
X176427832Y-144523088D01*
X176365000Y-144838967D01*
X165635000Y-144838967D01*
X165572168Y-144523088D01*
X165448918Y-144225537D01*
X165269987Y-143957748D01*
X165042252Y-143730013D01*
X164774463Y-143551082D01*
X164476912Y-143427832D01*
X164161033Y-143365000D01*
X163838967Y-143365000D01*
X163523088Y-143427832D01*
X163225537Y-143551082D01*
X162957748Y-143730013D01*
X162730013Y-143957748D01*
X162551082Y-144225537D01*
X162427832Y-144523088D01*
X162365000Y-144838967D01*
X134660000Y-144838967D01*
X134660000Y-140829117D01*
X180665000Y-140829117D01*
X180665000Y-141170883D01*
X180731675Y-141506081D01*
X180862463Y-141821831D01*
X181052337Y-142105998D01*
X181294002Y-142347663D01*
X181578169Y-142537537D01*
X181893919Y-142668325D01*
X182229117Y-142735000D01*
X182570883Y-142735000D01*
X182906081Y-142668325D01*
X183221831Y-142537537D01*
X183505998Y-142347663D01*
X183700000Y-142153661D01*
X183894002Y-142347663D01*
X184178169Y-142537537D01*
X184493919Y-142668325D01*
X184829117Y-142735000D01*
X185170883Y-142735000D01*
X185506081Y-142668325D01*
X185821831Y-142537537D01*
X186105998Y-142347663D01*
X186347663Y-142105998D01*
X186537537Y-141821831D01*
X186668325Y-141506081D01*
X186735000Y-141170883D01*
X186735000Y-140829117D01*
X186668325Y-140493919D01*
X186537537Y-140178169D01*
X186347663Y-139894002D01*
X186105998Y-139652337D01*
X185821831Y-139462463D01*
X185506081Y-139331675D01*
X185170883Y-139265000D01*
X184829117Y-139265000D01*
X184493919Y-139331675D01*
X184178169Y-139462463D01*
X183894002Y-139652337D01*
X183700000Y-139846339D01*
X183505998Y-139652337D01*
X183221831Y-139462463D01*
X182906081Y-139331675D01*
X182570883Y-139265000D01*
X182229117Y-139265000D01*
X181893919Y-139331675D01*
X181578169Y-139462463D01*
X181294002Y-139652337D01*
X181052337Y-139894002D01*
X180862463Y-140178169D01*
X180731675Y-140493919D01*
X180665000Y-140829117D01*
X134660000Y-140829117D01*
X134660000Y-120958816D01*
X135035000Y-120958816D01*
X135035000Y-121261184D01*
X135093989Y-121557743D01*
X135209701Y-121837095D01*
X135377688Y-122088505D01*
X135591495Y-122302312D01*
X135707763Y-122380000D01*
X135591495Y-122457688D01*
X135377688Y-122671495D01*
X135209701Y-122922905D01*
X135093989Y-123202257D01*
X135035000Y-123498816D01*
X135035000Y-123801184D01*
X135093989Y-124097743D01*
X135209701Y-124377095D01*
X135377688Y-124628505D01*
X135591495Y-124842312D01*
X135707763Y-124920000D01*
X135591495Y-124997688D01*
X135377688Y-125211495D01*
X135209701Y-125462905D01*
X135093989Y-125742257D01*
X135035000Y-126038816D01*
X135035000Y-126341184D01*
X135093989Y-126637743D01*
X135209701Y-126917095D01*
X135377688Y-127168505D01*
X135591495Y-127382312D01*
X135707763Y-127460000D01*
X135591495Y-127537688D01*
X135377688Y-127751495D01*
X135209701Y-128002905D01*
X135093989Y-128282257D01*
X135035000Y-128578816D01*
X135035000Y-128881184D01*
X135093989Y-129177743D01*
X135209701Y-129457095D01*
X135377688Y-129708505D01*
X135591495Y-129922312D01*
X135707763Y-130000000D01*
X135591495Y-130077688D01*
X135377688Y-130291495D01*
X135209701Y-130542905D01*
X135093989Y-130822257D01*
X135035000Y-131118816D01*
X135035000Y-131421184D01*
X135093989Y-131717743D01*
X135209701Y-131997095D01*
X135377688Y-132248505D01*
X135591495Y-132462312D01*
X135707763Y-132540000D01*
X135591495Y-132617688D01*
X135377688Y-132831495D01*
X135209701Y-133082905D01*
X135093989Y-133362257D01*
X135035000Y-133658816D01*
X135035000Y-133961184D01*
X135093989Y-134257743D01*
X135209701Y-134537095D01*
X135377688Y-134788505D01*
X135591495Y-135002312D01*
X135707763Y-135080000D01*
X135591495Y-135157688D01*
X135377688Y-135371495D01*
X135209701Y-135622905D01*
X135093989Y-135902257D01*
X135035000Y-136198816D01*
X135035000Y-136501184D01*
X135093989Y-136797743D01*
X135209701Y-137077095D01*
X135377688Y-137328505D01*
X135591495Y-137542312D01*
X135707763Y-137620000D01*
X135591495Y-137697688D01*
X135377688Y-137911495D01*
X135209701Y-138162905D01*
X135093989Y-138442257D01*
X135035000Y-138738816D01*
X135035000Y-139041184D01*
X135093989Y-139337743D01*
X135209701Y-139617095D01*
X135377688Y-139868505D01*
X135591495Y-140082312D01*
X135842905Y-140250299D01*
X136122257Y-140366011D01*
X136418816Y-140425000D01*
X136721184Y-140425000D01*
X137017743Y-140366011D01*
X137297095Y-140250299D01*
X137548505Y-140082312D01*
X137762312Y-139868505D01*
X137930299Y-139617095D01*
X138046011Y-139337743D01*
X138105000Y-139041184D01*
X138105000Y-138738816D01*
X157895000Y-138738816D01*
X157895000Y-139041184D01*
X157953989Y-139337743D01*
X158069701Y-139617095D01*
X158237688Y-139868505D01*
X158451495Y-140082312D01*
X158702905Y-140250299D01*
X158982257Y-140366011D01*
X159278816Y-140425000D01*
X159581184Y-140425000D01*
X159877743Y-140366011D01*
X160157095Y-140250299D01*
X160408505Y-140082312D01*
X160622312Y-139868505D01*
X160790299Y-139617095D01*
X160906011Y-139337743D01*
X160965000Y-139041184D01*
X160965000Y-138738816D01*
X160906011Y-138442257D01*
X160790299Y-138162905D01*
X160622312Y-137911495D01*
X160408505Y-137697688D01*
X160254895Y-137595049D01*
X160314475Y-137414080D01*
X159430000Y-136529605D01*
X158545525Y-137414080D01*
X158605105Y-137595049D01*
X158451495Y-137697688D01*
X158237688Y-137911495D01*
X158069701Y-138162905D01*
X157953989Y-138442257D01*
X157895000Y-138738816D01*
X138105000Y-138738816D01*
X138046011Y-138442257D01*
X137930299Y-138162905D01*
X137762312Y-137911495D01*
X137548505Y-137697688D01*
X137432237Y-137620000D01*
X137548505Y-137542312D01*
X137762312Y-137328505D01*
X137930299Y-137077095D01*
X138046011Y-136797743D01*
X138105000Y-136501184D01*
X138105000Y-136416553D01*
X157889009Y-136416553D01*
X157931603Y-136715907D01*
X158031778Y-137001199D01*
X158111739Y-137150792D01*
X158365920Y-137234475D01*
X159250395Y-136350000D01*
X159609605Y-136350000D01*
X160494080Y-137234475D01*
X160748261Y-137150792D01*
X160879158Y-136878225D01*
X160891768Y-136829117D01*
X180665000Y-136829117D01*
X180665000Y-137170883D01*
X180731675Y-137506081D01*
X180862463Y-137821831D01*
X181052337Y-138105998D01*
X181294002Y-138347663D01*
X181578169Y-138537537D01*
X181893919Y-138668325D01*
X182229117Y-138735000D01*
X182570883Y-138735000D01*
X182906081Y-138668325D01*
X183221831Y-138537537D01*
X183505998Y-138347663D01*
X183700000Y-138153661D01*
X183894002Y-138347663D01*
X184178169Y-138537537D01*
X184493919Y-138668325D01*
X184829117Y-138735000D01*
X185170883Y-138735000D01*
X185506081Y-138668325D01*
X185821831Y-138537537D01*
X186105998Y-138347663D01*
X186347663Y-138105998D01*
X186537537Y-137821831D01*
X186668325Y-137506081D01*
X186735000Y-137170883D01*
X186735000Y-136829117D01*
X186668325Y-136493919D01*
X186537537Y-136178169D01*
X186347663Y-135894002D01*
X186105998Y-135652337D01*
X185821831Y-135462463D01*
X185506081Y-135331675D01*
X185170883Y-135265000D01*
X184829117Y-135265000D01*
X184493919Y-135331675D01*
X184178169Y-135462463D01*
X183894002Y-135652337D01*
X183700000Y-135846339D01*
X183505998Y-135652337D01*
X183221831Y-135462463D01*
X182906081Y-135331675D01*
X182570883Y-135265000D01*
X182229117Y-135265000D01*
X181893919Y-135331675D01*
X181578169Y-135462463D01*
X181294002Y-135652337D01*
X181052337Y-135894002D01*
X180862463Y-136178169D01*
X180731675Y-136493919D01*
X180665000Y-136829117D01*
X160891768Y-136829117D01*
X160954365Y-136585358D01*
X160970991Y-136283447D01*
X160928397Y-135984093D01*
X160828222Y-135698801D01*
X160748261Y-135549208D01*
X160494080Y-135465525D01*
X159609605Y-136350000D01*
X159250395Y-136350000D01*
X158365920Y-135465525D01*
X158111739Y-135549208D01*
X157980842Y-135821775D01*
X157905635Y-136114642D01*
X157889009Y-136416553D01*
X138105000Y-136416553D01*
X138105000Y-136198816D01*
X138046011Y-135902257D01*
X137930299Y-135622905D01*
X137762312Y-135371495D01*
X137548505Y-135157688D01*
X137432237Y-135080000D01*
X137548505Y-135002312D01*
X137762312Y-134788505D01*
X137930299Y-134537095D01*
X138046011Y-134257743D01*
X138105000Y-133961184D01*
X138105000Y-133658816D01*
X138046011Y-133362257D01*
X137930299Y-133082905D01*
X137762312Y-132831495D01*
X137548505Y-132617688D01*
X137432237Y-132540000D01*
X137548505Y-132462312D01*
X137762312Y-132248505D01*
X137930299Y-131997095D01*
X138046011Y-131717743D01*
X138105000Y-131421184D01*
X138105000Y-131118816D01*
X138046011Y-130822257D01*
X137930299Y-130542905D01*
X137762312Y-130291495D01*
X137548505Y-130077688D01*
X137432237Y-130000000D01*
X137548505Y-129922312D01*
X137762312Y-129708505D01*
X137930299Y-129457095D01*
X138046011Y-129177743D01*
X138105000Y-128881184D01*
X138105000Y-128578816D01*
X138046011Y-128282257D01*
X137930299Y-128002905D01*
X137762312Y-127751495D01*
X137548505Y-127537688D01*
X137432237Y-127460000D01*
X137548505Y-127382312D01*
X137762312Y-127168505D01*
X137930299Y-126917095D01*
X138046011Y-126637743D01*
X138105000Y-126341184D01*
X138105000Y-126038816D01*
X138046011Y-125742257D01*
X137930299Y-125462905D01*
X137762312Y-125211495D01*
X137548505Y-124997688D01*
X137432237Y-124920000D01*
X137548505Y-124842312D01*
X137762312Y-124628505D01*
X137930299Y-124377095D01*
X138046011Y-124097743D01*
X138105000Y-123801184D01*
X138105000Y-123498816D01*
X138046011Y-123202257D01*
X137930299Y-122922905D01*
X137762312Y-122671495D01*
X137548505Y-122457688D01*
X137432237Y-122380000D01*
X137548505Y-122302312D01*
X137762312Y-122088505D01*
X137930299Y-121837095D01*
X138046011Y-121557743D01*
X138105000Y-121261184D01*
X138105000Y-120958816D01*
X157895000Y-120958816D01*
X157895000Y-121261184D01*
X157953989Y-121557743D01*
X158069701Y-121837095D01*
X158237688Y-122088505D01*
X158451495Y-122302312D01*
X158567763Y-122380000D01*
X158451495Y-122457688D01*
X158237688Y-122671495D01*
X158069701Y-122922905D01*
X157953989Y-123202257D01*
X157895000Y-123498816D01*
X157895000Y-123801184D01*
X157953989Y-124097743D01*
X158069701Y-124377095D01*
X158237688Y-124628505D01*
X158451495Y-124842312D01*
X158567763Y-124920000D01*
X158451495Y-124997688D01*
X158237688Y-125211495D01*
X158069701Y-125462905D01*
X157953989Y-125742257D01*
X157895000Y-126038816D01*
X157895000Y-126341184D01*
X157953989Y-126637743D01*
X158069701Y-126917095D01*
X158237688Y-127168505D01*
X158451495Y-127382312D01*
X158567763Y-127460000D01*
X158451495Y-127537688D01*
X158237688Y-127751495D01*
X158069701Y-128002905D01*
X157953989Y-128282257D01*
X157895000Y-128578816D01*
X157895000Y-128881184D01*
X157953989Y-129177743D01*
X158069701Y-129457095D01*
X158237688Y-129708505D01*
X158451495Y-129922312D01*
X158567763Y-130000000D01*
X158451495Y-130077688D01*
X158237688Y-130291495D01*
X158069701Y-130542905D01*
X157953989Y-130822257D01*
X157895000Y-131118816D01*
X157895000Y-131421184D01*
X157953989Y-131717743D01*
X158069701Y-131997095D01*
X158237688Y-132248505D01*
X158451495Y-132462312D01*
X158567763Y-132540000D01*
X158451495Y-132617688D01*
X158237688Y-132831495D01*
X158069701Y-133082905D01*
X157953989Y-133362257D01*
X157895000Y-133658816D01*
X157895000Y-133961184D01*
X157953989Y-134257743D01*
X158069701Y-134537095D01*
X158237688Y-134788505D01*
X158451495Y-135002312D01*
X158605105Y-135104951D01*
X158545525Y-135285920D01*
X159430000Y-136170395D01*
X160314475Y-135285920D01*
X160254895Y-135104951D01*
X160408505Y-135002312D01*
X160622312Y-134788505D01*
X160790299Y-134537095D01*
X160906011Y-134257743D01*
X160965000Y-133961184D01*
X160965000Y-133658816D01*
X160906011Y-133362257D01*
X160790299Y-133082905D01*
X160622312Y-132831495D01*
X160408505Y-132617688D01*
X160292237Y-132540000D01*
X160408505Y-132462312D01*
X160622312Y-132248505D01*
X160790299Y-131997095D01*
X160902785Y-131725529D01*
X183228571Y-131725529D01*
X183228571Y-132074471D01*
X183296646Y-132416707D01*
X183430180Y-132739086D01*
X183624041Y-133029220D01*
X183870780Y-133275959D01*
X184160914Y-133469820D01*
X184483293Y-133603354D01*
X184825529Y-133671429D01*
X185174471Y-133671429D01*
X185516707Y-133603354D01*
X185839086Y-133469820D01*
X186129220Y-133275959D01*
X186375959Y-133029220D01*
X186569820Y-132739086D01*
X186703354Y-132416707D01*
X186771429Y-132074471D01*
X186771429Y-131725529D01*
X186703354Y-131383293D01*
X186569820Y-131060914D01*
X186375959Y-130770780D01*
X186129220Y-130524041D01*
X185839086Y-130330180D01*
X185516707Y-130196646D01*
X185174471Y-130128571D01*
X184825529Y-130128571D01*
X184483293Y-130196646D01*
X184160914Y-130330180D01*
X183870780Y-130524041D01*
X183624041Y-130770780D01*
X183430180Y-131060914D01*
X183296646Y-131383293D01*
X183228571Y-131725529D01*
X160902785Y-131725529D01*
X160906011Y-131717743D01*
X160965000Y-131421184D01*
X160965000Y-131118816D01*
X160906011Y-130822257D01*
X160790299Y-130542905D01*
X160622312Y-130291495D01*
X160408505Y-130077688D01*
X160292237Y-130000000D01*
X160408505Y-129922312D01*
X160622312Y-129708505D01*
X160790299Y-129457095D01*
X160906011Y-129177743D01*
X160965000Y-128881184D01*
X160965000Y-128578816D01*
X160906011Y-128282257D01*
X160790299Y-128002905D01*
X160622312Y-127751495D01*
X160408505Y-127537688D01*
X160292237Y-127460000D01*
X160408505Y-127382312D01*
X160622312Y-127168505D01*
X160790299Y-126917095D01*
X160797380Y-126900000D01*
X182261928Y-126900000D01*
X182261928Y-129100000D01*
X182274188Y-129224482D01*
X182310498Y-129344180D01*
X182369463Y-129454494D01*
X182448815Y-129551185D01*
X182545506Y-129630537D01*
X182655820Y-129689502D01*
X182775518Y-129725812D01*
X182900000Y-129738072D01*
X185100000Y-129738072D01*
X185224482Y-129725812D01*
X185344180Y-129689502D01*
X185454494Y-129630537D01*
X185551185Y-129551185D01*
X185630537Y-129454494D01*
X185689502Y-129344180D01*
X185725812Y-129224482D01*
X185738072Y-129100000D01*
X185738072Y-126900000D01*
X185725812Y-126775518D01*
X185689502Y-126655820D01*
X185630537Y-126545506D01*
X185551185Y-126448815D01*
X185454494Y-126369463D01*
X185344180Y-126310498D01*
X185224482Y-126274188D01*
X185100000Y-126261928D01*
X182900000Y-126261928D01*
X182775518Y-126274188D01*
X182655820Y-126310498D01*
X182545506Y-126369463D01*
X182448815Y-126448815D01*
X182369463Y-126545506D01*
X182310498Y-126655820D01*
X182274188Y-126775518D01*
X182261928Y-126900000D01*
X160797380Y-126900000D01*
X160906011Y-126637743D01*
X160965000Y-126341184D01*
X160965000Y-126038816D01*
X160906011Y-125742257D01*
X160790299Y-125462905D01*
X160622312Y-125211495D01*
X160408505Y-124997688D01*
X160292237Y-124920000D01*
X160408505Y-124842312D01*
X160622312Y-124628505D01*
X160790299Y-124377095D01*
X160906011Y-124097743D01*
X160965000Y-123801184D01*
X160965000Y-123498816D01*
X160906011Y-123202257D01*
X160790299Y-122922905D01*
X160622312Y-122671495D01*
X160408505Y-122457688D01*
X160292237Y-122380000D01*
X160353647Y-122338967D01*
X162365000Y-122338967D01*
X162365000Y-122661033D01*
X162427832Y-122976912D01*
X162551082Y-123274463D01*
X162730013Y-123542252D01*
X162957748Y-123769987D01*
X163225537Y-123948918D01*
X163523088Y-124072168D01*
X163838967Y-124135000D01*
X164161033Y-124135000D01*
X164476912Y-124072168D01*
X164774463Y-123948918D01*
X165042252Y-123769987D01*
X165269987Y-123542252D01*
X165448918Y-123274463D01*
X165500000Y-123151140D01*
X165551082Y-123274463D01*
X165730013Y-123542252D01*
X165957748Y-123769987D01*
X166225537Y-123948918D01*
X166523088Y-124072168D01*
X166838967Y-124135000D01*
X167161033Y-124135000D01*
X167476912Y-124072168D01*
X167774463Y-123948918D01*
X168042252Y-123769987D01*
X168269987Y-123542252D01*
X168448918Y-123274463D01*
X168572168Y-122976912D01*
X168635000Y-122661033D01*
X168635000Y-122338967D01*
X173365000Y-122338967D01*
X173365000Y-122661033D01*
X173427832Y-122976912D01*
X173551082Y-123274463D01*
X173730013Y-123542252D01*
X173957748Y-123769987D01*
X174225537Y-123948918D01*
X174523088Y-124072168D01*
X174838967Y-124135000D01*
X175161033Y-124135000D01*
X175476912Y-124072168D01*
X175774463Y-123948918D01*
X176042252Y-123769987D01*
X176176826Y-123635413D01*
X177044192Y-123635413D01*
X177139956Y-123899814D01*
X177429571Y-124040704D01*
X177741108Y-124122384D01*
X178062595Y-124141718D01*
X178381675Y-124097961D01*
X178686088Y-123992795D01*
X178860044Y-123899814D01*
X178955808Y-123635413D01*
X178000000Y-122679605D01*
X177044192Y-123635413D01*
X176176826Y-123635413D01*
X176269987Y-123542252D01*
X176448918Y-123274463D01*
X176497346Y-123157549D01*
X176507205Y-123186088D01*
X176600186Y-123360044D01*
X176864587Y-123455808D01*
X177820395Y-122500000D01*
X178179605Y-122500000D01*
X179135413Y-123455808D01*
X179399814Y-123360044D01*
X179540704Y-123070429D01*
X179622384Y-122758892D01*
X179641718Y-122437405D01*
X179597961Y-122118325D01*
X179492795Y-121813912D01*
X179399814Y-121639956D01*
X179135413Y-121544192D01*
X178179605Y-122500000D01*
X177820395Y-122500000D01*
X176864587Y-121544192D01*
X176600186Y-121639956D01*
X176499338Y-121847261D01*
X176448918Y-121725537D01*
X176269987Y-121457748D01*
X176176826Y-121364587D01*
X177044192Y-121364587D01*
X178000000Y-122320395D01*
X178955808Y-121364587D01*
X178860044Y-121100186D01*
X178570429Y-120959296D01*
X178258892Y-120877616D01*
X177937405Y-120858282D01*
X177618325Y-120902039D01*
X177313912Y-121007205D01*
X177139956Y-121100186D01*
X177044192Y-121364587D01*
X176176826Y-121364587D01*
X176042252Y-121230013D01*
X175774463Y-121051082D01*
X175476912Y-120927832D01*
X175161033Y-120865000D01*
X174838967Y-120865000D01*
X174523088Y-120927832D01*
X174225537Y-121051082D01*
X173957748Y-121230013D01*
X173730013Y-121457748D01*
X173551082Y-121725537D01*
X173427832Y-122023088D01*
X173365000Y-122338967D01*
X168635000Y-122338967D01*
X168572168Y-122023088D01*
X168448918Y-121725537D01*
X168269987Y-121457748D01*
X168042252Y-121230013D01*
X167774463Y-121051082D01*
X167476912Y-120927832D01*
X167161033Y-120865000D01*
X166838967Y-120865000D01*
X166523088Y-120927832D01*
X166225537Y-121051082D01*
X165957748Y-121230013D01*
X165730013Y-121457748D01*
X165551082Y-121725537D01*
X165500000Y-121848860D01*
X165448918Y-121725537D01*
X165269987Y-121457748D01*
X165042252Y-121230013D01*
X164774463Y-121051082D01*
X164476912Y-120927832D01*
X164161033Y-120865000D01*
X163838967Y-120865000D01*
X163523088Y-120927832D01*
X163225537Y-121051082D01*
X162957748Y-121230013D01*
X162730013Y-121457748D01*
X162551082Y-121725537D01*
X162427832Y-122023088D01*
X162365000Y-122338967D01*
X160353647Y-122338967D01*
X160408505Y-122302312D01*
X160622312Y-122088505D01*
X160790299Y-121837095D01*
X160906011Y-121557743D01*
X160965000Y-121261184D01*
X160965000Y-120958816D01*
X160906011Y-120662257D01*
X160790299Y-120382905D01*
X160622312Y-120131495D01*
X160408505Y-119917688D01*
X160157095Y-119749701D01*
X159877743Y-119633989D01*
X159581184Y-119575000D01*
X159278816Y-119575000D01*
X158982257Y-119633989D01*
X158702905Y-119749701D01*
X158451495Y-119917688D01*
X158237688Y-120131495D01*
X158069701Y-120382905D01*
X157953989Y-120662257D01*
X157895000Y-120958816D01*
X138105000Y-120958816D01*
X138046011Y-120662257D01*
X137930299Y-120382905D01*
X137762312Y-120131495D01*
X137548505Y-119917688D01*
X137297095Y-119749701D01*
X137017743Y-119633989D01*
X136721184Y-119575000D01*
X136418816Y-119575000D01*
X136122257Y-119633989D01*
X135842905Y-119749701D01*
X135591495Y-119917688D01*
X135377688Y-120131495D01*
X135209701Y-120382905D01*
X135093989Y-120662257D01*
X135035000Y-120958816D01*
X134660000Y-120958816D01*
X134660000Y-117669117D01*
X182265000Y-117669117D01*
X182265000Y-118010883D01*
X182331675Y-118346081D01*
X182462463Y-118661831D01*
X182652337Y-118945998D01*
X182894002Y-119187663D01*
X183178169Y-119377537D01*
X183493919Y-119508325D01*
X183829117Y-119575000D01*
X184170883Y-119575000D01*
X184506081Y-119508325D01*
X184821831Y-119377537D01*
X185105998Y-119187663D01*
X185347663Y-118945998D01*
X185537537Y-118661831D01*
X185668325Y-118346081D01*
X185735000Y-118010883D01*
X185735000Y-117669117D01*
X185668325Y-117333919D01*
X185537537Y-117018169D01*
X185347663Y-116734002D01*
X185105998Y-116492337D01*
X184821831Y-116302463D01*
X184506081Y-116171675D01*
X184170883Y-116105000D01*
X183829117Y-116105000D01*
X183493919Y-116171675D01*
X183178169Y-116302463D01*
X182894002Y-116492337D01*
X182652337Y-116734002D01*
X182462463Y-117018169D01*
X182331675Y-117333919D01*
X182265000Y-117669117D01*
X134660000Y-117669117D01*
X134660000Y-115838967D01*
X167365000Y-115838967D01*
X167365000Y-116161033D01*
X167427832Y-116476912D01*
X167551082Y-116774463D01*
X167730013Y-117042252D01*
X167957748Y-117269987D01*
X168225537Y-117448918D01*
X168523088Y-117572168D01*
X168838967Y-117635000D01*
X169161033Y-117635000D01*
X169476912Y-117572168D01*
X169774463Y-117448918D01*
X170042252Y-117269987D01*
X170269987Y-117042252D01*
X170448918Y-116774463D01*
X170572168Y-116476912D01*
X170635000Y-116161033D01*
X170635000Y-115838967D01*
X171365000Y-115838967D01*
X171365000Y-116161033D01*
X171427832Y-116476912D01*
X171551082Y-116774463D01*
X171730013Y-117042252D01*
X171957748Y-117269987D01*
X172225537Y-117448918D01*
X172523088Y-117572168D01*
X172838967Y-117635000D01*
X173161033Y-117635000D01*
X173476912Y-117572168D01*
X173774463Y-117448918D01*
X174042252Y-117269987D01*
X174269987Y-117042252D01*
X174448918Y-116774463D01*
X174572168Y-116476912D01*
X174635000Y-116161033D01*
X174635000Y-115838967D01*
X174572168Y-115523088D01*
X174448918Y-115225537D01*
X174269987Y-114957748D01*
X174042252Y-114730013D01*
X173774463Y-114551082D01*
X173476912Y-114427832D01*
X173161033Y-114365000D01*
X172838967Y-114365000D01*
X172523088Y-114427832D01*
X172225537Y-114551082D01*
X171957748Y-114730013D01*
X171730013Y-114957748D01*
X171551082Y-115225537D01*
X171427832Y-115523088D01*
X171365000Y-115838967D01*
X170635000Y-115838967D01*
X170572168Y-115523088D01*
X170448918Y-115225537D01*
X170269987Y-114957748D01*
X170042252Y-114730013D01*
X169774463Y-114551082D01*
X169476912Y-114427832D01*
X169161033Y-114365000D01*
X168838967Y-114365000D01*
X168523088Y-114427832D01*
X168225537Y-114551082D01*
X167957748Y-114730013D01*
X167730013Y-114957748D01*
X167551082Y-115225537D01*
X167427832Y-115523088D01*
X167365000Y-115838967D01*
X134660000Y-115838967D01*
X134660000Y-112900000D01*
X182261928Y-112900000D01*
X182261928Y-115100000D01*
X182274188Y-115224482D01*
X182310498Y-115344180D01*
X182369463Y-115454494D01*
X182448815Y-115551185D01*
X182545506Y-115630537D01*
X182655820Y-115689502D01*
X182775518Y-115725812D01*
X182900000Y-115738072D01*
X185100000Y-115738072D01*
X185224482Y-115725812D01*
X185344180Y-115689502D01*
X185454494Y-115630537D01*
X185551185Y-115551185D01*
X185630537Y-115454494D01*
X185689502Y-115344180D01*
X185725812Y-115224482D01*
X185738072Y-115100000D01*
X185738072Y-112900000D01*
X185725812Y-112775518D01*
X185689502Y-112655820D01*
X185630537Y-112545506D01*
X185551185Y-112448815D01*
X185454494Y-112369463D01*
X185344180Y-112310498D01*
X185224482Y-112274188D01*
X185100000Y-112261928D01*
X182900000Y-112261928D01*
X182775518Y-112274188D01*
X182655820Y-112310498D01*
X182545506Y-112369463D01*
X182448815Y-112448815D01*
X182369463Y-112545506D01*
X182310498Y-112655820D01*
X182274188Y-112775518D01*
X182261928Y-112900000D01*
X134660000Y-112900000D01*
X134660000Y-109338967D01*
X135365000Y-109338967D01*
X135365000Y-109661033D01*
X135427832Y-109976912D01*
X135551082Y-110274463D01*
X135730013Y-110542252D01*
X135957748Y-110769987D01*
X136225537Y-110948918D01*
X136523088Y-111072168D01*
X136838967Y-111135000D01*
X137161033Y-111135000D01*
X137476912Y-111072168D01*
X137774463Y-110948918D01*
X138042252Y-110769987D01*
X138269987Y-110542252D01*
X138448918Y-110274463D01*
X138572168Y-109976912D01*
X138599606Y-109838967D01*
X139865000Y-109838967D01*
X139865000Y-110161033D01*
X139927832Y-110476912D01*
X140051082Y-110774463D01*
X140230013Y-111042252D01*
X140457748Y-111269987D01*
X140725537Y-111448918D01*
X141023088Y-111572168D01*
X141338967Y-111635000D01*
X141661033Y-111635000D01*
X141976912Y-111572168D01*
X142274463Y-111448918D01*
X142542252Y-111269987D01*
X142676826Y-111135413D01*
X143544192Y-111135413D01*
X143639956Y-111399814D01*
X143929571Y-111540704D01*
X144241108Y-111622384D01*
X144562595Y-111641718D01*
X144881675Y-111597961D01*
X145186088Y-111492795D01*
X145360044Y-111399814D01*
X145455808Y-111135413D01*
X144500000Y-110179605D01*
X143544192Y-111135413D01*
X142676826Y-111135413D01*
X142769987Y-111042252D01*
X142948918Y-110774463D01*
X142997346Y-110657549D01*
X143007205Y-110686088D01*
X143100186Y-110860044D01*
X143364587Y-110955808D01*
X144320395Y-110000000D01*
X144679605Y-110000000D01*
X145635413Y-110955808D01*
X145899814Y-110860044D01*
X146000662Y-110652739D01*
X146051082Y-110774463D01*
X146230013Y-111042252D01*
X146457748Y-111269987D01*
X146725537Y-111448918D01*
X147023088Y-111572168D01*
X147338967Y-111635000D01*
X147661033Y-111635000D01*
X147976912Y-111572168D01*
X148274463Y-111448918D01*
X148542252Y-111269987D01*
X148769987Y-111042252D01*
X148948918Y-110774463D01*
X149000000Y-110651140D01*
X149051082Y-110774463D01*
X149230013Y-111042252D01*
X149457748Y-111269987D01*
X149725537Y-111448918D01*
X150023088Y-111572168D01*
X150338967Y-111635000D01*
X150661033Y-111635000D01*
X150976912Y-111572168D01*
X151274463Y-111448918D01*
X151542252Y-111269987D01*
X151676826Y-111135413D01*
X152544192Y-111135413D01*
X152639956Y-111399814D01*
X152929571Y-111540704D01*
X153241108Y-111622384D01*
X153562595Y-111641718D01*
X153881675Y-111597961D01*
X154186088Y-111492795D01*
X154360044Y-111399814D01*
X154455808Y-111135413D01*
X153500000Y-110179605D01*
X152544192Y-111135413D01*
X151676826Y-111135413D01*
X151769987Y-111042252D01*
X151948918Y-110774463D01*
X151997346Y-110657549D01*
X152007205Y-110686088D01*
X152100186Y-110860044D01*
X152364587Y-110955808D01*
X153320395Y-110000000D01*
X153679605Y-110000000D01*
X154635413Y-110955808D01*
X154899814Y-110860044D01*
X155000662Y-110652739D01*
X155051082Y-110774463D01*
X155230013Y-111042252D01*
X155457748Y-111269987D01*
X155725537Y-111448918D01*
X156023088Y-111572168D01*
X156338967Y-111635000D01*
X156661033Y-111635000D01*
X156976912Y-111572168D01*
X157274463Y-111448918D01*
X157542252Y-111269987D01*
X157769987Y-111042252D01*
X157948918Y-110774463D01*
X158072168Y-110476912D01*
X158135000Y-110161033D01*
X158135000Y-109838967D01*
X158072168Y-109523088D01*
X157948918Y-109225537D01*
X157769987Y-108957748D01*
X157542252Y-108730013D01*
X157274463Y-108551082D01*
X156976912Y-108427832D01*
X156661033Y-108365000D01*
X156338967Y-108365000D01*
X156023088Y-108427832D01*
X155725537Y-108551082D01*
X155457748Y-108730013D01*
X155230013Y-108957748D01*
X155051082Y-109225537D01*
X155002654Y-109342451D01*
X154992795Y-109313912D01*
X154899814Y-109139956D01*
X154635413Y-109044192D01*
X153679605Y-110000000D01*
X153320395Y-110000000D01*
X152364587Y-109044192D01*
X152100186Y-109139956D01*
X151999338Y-109347261D01*
X151948918Y-109225537D01*
X151769987Y-108957748D01*
X151676826Y-108864587D01*
X152544192Y-108864587D01*
X153500000Y-109820395D01*
X154455808Y-108864587D01*
X154360044Y-108600186D01*
X154070429Y-108459296D01*
X153758892Y-108377616D01*
X153437405Y-108358282D01*
X153118325Y-108402039D01*
X152813912Y-108507205D01*
X152639956Y-108600186D01*
X152544192Y-108864587D01*
X151676826Y-108864587D01*
X151542252Y-108730013D01*
X151274463Y-108551082D01*
X150976912Y-108427832D01*
X150661033Y-108365000D01*
X150338967Y-108365000D01*
X150023088Y-108427832D01*
X149725537Y-108551082D01*
X149457748Y-108730013D01*
X149230013Y-108957748D01*
X149051082Y-109225537D01*
X149000000Y-109348860D01*
X148948918Y-109225537D01*
X148769987Y-108957748D01*
X148542252Y-108730013D01*
X148274463Y-108551082D01*
X147976912Y-108427832D01*
X147661033Y-108365000D01*
X147338967Y-108365000D01*
X147023088Y-108427832D01*
X146725537Y-108551082D01*
X146457748Y-108730013D01*
X146230013Y-108957748D01*
X146051082Y-109225537D01*
X146002654Y-109342451D01*
X145992795Y-109313912D01*
X145899814Y-109139956D01*
X145635413Y-109044192D01*
X144679605Y-110000000D01*
X144320395Y-110000000D01*
X143364587Y-109044192D01*
X143100186Y-109139956D01*
X142999338Y-109347261D01*
X142948918Y-109225537D01*
X142769987Y-108957748D01*
X142676826Y-108864587D01*
X143544192Y-108864587D01*
X144500000Y-109820395D01*
X145455808Y-108864587D01*
X145360044Y-108600186D01*
X145070429Y-108459296D01*
X144758892Y-108377616D01*
X144437405Y-108358282D01*
X144118325Y-108402039D01*
X143813912Y-108507205D01*
X143639956Y-108600186D01*
X143544192Y-108864587D01*
X142676826Y-108864587D01*
X142542252Y-108730013D01*
X142274463Y-108551082D01*
X141976912Y-108427832D01*
X141661033Y-108365000D01*
X141338967Y-108365000D01*
X141023088Y-108427832D01*
X140725537Y-108551082D01*
X140457748Y-108730013D01*
X140230013Y-108957748D01*
X140051082Y-109225537D01*
X139927832Y-109523088D01*
X139865000Y-109838967D01*
X138599606Y-109838967D01*
X138635000Y-109661033D01*
X138635000Y-109338967D01*
X138572168Y-109023088D01*
X138448918Y-108725537D01*
X138269987Y-108457748D01*
X138042252Y-108230013D01*
X137774463Y-108051082D01*
X137476912Y-107927832D01*
X137161033Y-107865000D01*
X136838967Y-107865000D01*
X136523088Y-107927832D01*
X136225537Y-108051082D01*
X135957748Y-108230013D01*
X135730013Y-108457748D01*
X135551082Y-108725537D01*
X135427832Y-109023088D01*
X135365000Y-109338967D01*
X134660000Y-109338967D01*
X134660000Y-102338967D01*
X135365000Y-102338967D01*
X135365000Y-102661033D01*
X135427832Y-102976912D01*
X135551082Y-103274463D01*
X135730013Y-103542252D01*
X135957748Y-103769987D01*
X136225537Y-103948918D01*
X136523088Y-104072168D01*
X136838967Y-104135000D01*
X137161033Y-104135000D01*
X137476912Y-104072168D01*
X137774463Y-103948918D01*
X138042252Y-103769987D01*
X138143122Y-103669117D01*
X182265000Y-103669117D01*
X182265000Y-104010883D01*
X182331675Y-104346081D01*
X182462463Y-104661831D01*
X182652337Y-104945998D01*
X182894002Y-105187663D01*
X183178169Y-105377537D01*
X183493919Y-105508325D01*
X183829117Y-105575000D01*
X184170883Y-105575000D01*
X184506081Y-105508325D01*
X184821831Y-105377537D01*
X185105998Y-105187663D01*
X185347663Y-104945998D01*
X185537537Y-104661831D01*
X185668325Y-104346081D01*
X185735000Y-104010883D01*
X185735000Y-103669117D01*
X185668325Y-103333919D01*
X185537537Y-103018169D01*
X185347663Y-102734002D01*
X185105998Y-102492337D01*
X184821831Y-102302463D01*
X184506081Y-102171675D01*
X184170883Y-102105000D01*
X183829117Y-102105000D01*
X183493919Y-102171675D01*
X183178169Y-102302463D01*
X182894002Y-102492337D01*
X182652337Y-102734002D01*
X182462463Y-103018169D01*
X182331675Y-103333919D01*
X182265000Y-103669117D01*
X138143122Y-103669117D01*
X138269987Y-103542252D01*
X138448918Y-103274463D01*
X138572168Y-102976912D01*
X138635000Y-102661033D01*
X138635000Y-102338967D01*
X138572168Y-102023088D01*
X138495903Y-101838967D01*
X139865000Y-101838967D01*
X139865000Y-102161033D01*
X139927832Y-102476912D01*
X140051082Y-102774463D01*
X140230013Y-103042252D01*
X140457748Y-103269987D01*
X140725537Y-103448918D01*
X141023088Y-103572168D01*
X141338967Y-103635000D01*
X141661033Y-103635000D01*
X141976912Y-103572168D01*
X142274463Y-103448918D01*
X142542252Y-103269987D01*
X142769987Y-103042252D01*
X142948918Y-102774463D01*
X143000000Y-102651140D01*
X143051082Y-102774463D01*
X143230013Y-103042252D01*
X143457748Y-103269987D01*
X143725537Y-103448918D01*
X144023088Y-103572168D01*
X144338967Y-103635000D01*
X144661033Y-103635000D01*
X144976912Y-103572168D01*
X145274463Y-103448918D01*
X145542252Y-103269987D01*
X145769987Y-103042252D01*
X145948918Y-102774463D01*
X146000000Y-102651140D01*
X146051082Y-102774463D01*
X146230013Y-103042252D01*
X146457748Y-103269987D01*
X146725537Y-103448918D01*
X147023088Y-103572168D01*
X147338967Y-103635000D01*
X147661033Y-103635000D01*
X147976912Y-103572168D01*
X148274463Y-103448918D01*
X148542252Y-103269987D01*
X148769987Y-103042252D01*
X148948918Y-102774463D01*
X149000000Y-102651140D01*
X149051082Y-102774463D01*
X149230013Y-103042252D01*
X149457748Y-103269987D01*
X149725537Y-103448918D01*
X150023088Y-103572168D01*
X150338967Y-103635000D01*
X150661033Y-103635000D01*
X150976912Y-103572168D01*
X151274463Y-103448918D01*
X151542252Y-103269987D01*
X151676826Y-103135413D01*
X152544192Y-103135413D01*
X152639956Y-103399814D01*
X152929571Y-103540704D01*
X153241108Y-103622384D01*
X153562595Y-103641718D01*
X153881675Y-103597961D01*
X154186088Y-103492795D01*
X154360044Y-103399814D01*
X154455808Y-103135413D01*
X153500000Y-102179605D01*
X152544192Y-103135413D01*
X151676826Y-103135413D01*
X151769987Y-103042252D01*
X151948918Y-102774463D01*
X151997346Y-102657549D01*
X152007205Y-102686088D01*
X152100186Y-102860044D01*
X152364587Y-102955808D01*
X153320395Y-102000000D01*
X153679605Y-102000000D01*
X154635413Y-102955808D01*
X154899814Y-102860044D01*
X155000662Y-102652739D01*
X155051082Y-102774463D01*
X155230013Y-103042252D01*
X155457748Y-103269987D01*
X155725537Y-103448918D01*
X156023088Y-103572168D01*
X156338967Y-103635000D01*
X156661033Y-103635000D01*
X156976912Y-103572168D01*
X157274463Y-103448918D01*
X157542252Y-103269987D01*
X157769987Y-103042252D01*
X157948918Y-102774463D01*
X158072168Y-102476912D01*
X158135000Y-102161033D01*
X158135000Y-101838967D01*
X158072168Y-101523088D01*
X157948918Y-101225537D01*
X157769987Y-100957748D01*
X157542252Y-100730013D01*
X157274463Y-100551082D01*
X156976912Y-100427832D01*
X156661033Y-100365000D01*
X156338967Y-100365000D01*
X156023088Y-100427832D01*
X155725537Y-100551082D01*
X155457748Y-100730013D01*
X155230013Y-100957748D01*
X155051082Y-101225537D01*
X155002654Y-101342451D01*
X154992795Y-101313912D01*
X154899814Y-101139956D01*
X154635413Y-101044192D01*
X153679605Y-102000000D01*
X153320395Y-102000000D01*
X152364587Y-101044192D01*
X152100186Y-101139956D01*
X151999338Y-101347261D01*
X151948918Y-101225537D01*
X151769987Y-100957748D01*
X151676826Y-100864587D01*
X152544192Y-100864587D01*
X153500000Y-101820395D01*
X154455808Y-100864587D01*
X154360044Y-100600186D01*
X154070429Y-100459296D01*
X153758892Y-100377616D01*
X153437405Y-100358282D01*
X153118325Y-100402039D01*
X152813912Y-100507205D01*
X152639956Y-100600186D01*
X152544192Y-100864587D01*
X151676826Y-100864587D01*
X151542252Y-100730013D01*
X151274463Y-100551082D01*
X150976912Y-100427832D01*
X150661033Y-100365000D01*
X150338967Y-100365000D01*
X150023088Y-100427832D01*
X149725537Y-100551082D01*
X149457748Y-100730013D01*
X149230013Y-100957748D01*
X149051082Y-101225537D01*
X149000000Y-101348860D01*
X148948918Y-101225537D01*
X148769987Y-100957748D01*
X148542252Y-100730013D01*
X148274463Y-100551082D01*
X147976912Y-100427832D01*
X147661033Y-100365000D01*
X147338967Y-100365000D01*
X147023088Y-100427832D01*
X146725537Y-100551082D01*
X146457748Y-100730013D01*
X146230013Y-100957748D01*
X146051082Y-101225537D01*
X146000000Y-101348860D01*
X145948918Y-101225537D01*
X145769987Y-100957748D01*
X145542252Y-100730013D01*
X145274463Y-100551082D01*
X144976912Y-100427832D01*
X144661033Y-100365000D01*
X144338967Y-100365000D01*
X144023088Y-100427832D01*
X143725537Y-100551082D01*
X143457748Y-100730013D01*
X143230013Y-100957748D01*
X143051082Y-101225537D01*
X143000000Y-101348860D01*
X142948918Y-101225537D01*
X142769987Y-100957748D01*
X142542252Y-100730013D01*
X142274463Y-100551082D01*
X141976912Y-100427832D01*
X141661033Y-100365000D01*
X141338967Y-100365000D01*
X141023088Y-100427832D01*
X140725537Y-100551082D01*
X140457748Y-100730013D01*
X140230013Y-100957748D01*
X140051082Y-101225537D01*
X139927832Y-101523088D01*
X139865000Y-101838967D01*
X138495903Y-101838967D01*
X138448918Y-101725537D01*
X138269987Y-101457748D01*
X138042252Y-101230013D01*
X137774463Y-101051082D01*
X137476912Y-100927832D01*
X137161033Y-100865000D01*
X136838967Y-100865000D01*
X136523088Y-100927832D01*
X136225537Y-101051082D01*
X135957748Y-101230013D01*
X135730013Y-101457748D01*
X135551082Y-101725537D01*
X135427832Y-102023088D01*
X135365000Y-102338967D01*
X134660000Y-102338967D01*
X134660000Y-97825529D01*
X135228571Y-97825529D01*
X135228571Y-98174471D01*
X135296646Y-98516707D01*
X135430180Y-98839086D01*
X135624041Y-99129220D01*
X135870780Y-99375959D01*
X136160914Y-99569820D01*
X136483293Y-99703354D01*
X136825529Y-99771429D01*
X137174471Y-99771429D01*
X137516707Y-99703354D01*
X137839086Y-99569820D01*
X138129220Y-99375959D01*
X138375959Y-99129220D01*
X138569820Y-98839086D01*
X138703354Y-98516707D01*
X138771429Y-98174471D01*
X138771429Y-97825529D01*
X183228571Y-97825529D01*
X183228571Y-98174471D01*
X183296646Y-98516707D01*
X183430180Y-98839086D01*
X183624041Y-99129220D01*
X183870780Y-99375959D01*
X184160914Y-99569820D01*
X184483293Y-99703354D01*
X184825529Y-99771429D01*
X185174471Y-99771429D01*
X185516707Y-99703354D01*
X185839086Y-99569820D01*
X186129220Y-99375959D01*
X186375959Y-99129220D01*
X186569820Y-98839086D01*
X186703354Y-98516707D01*
X186771429Y-98174471D01*
X186771429Y-97825529D01*
X186703354Y-97483293D01*
X186569820Y-97160914D01*
X186375959Y-96870780D01*
X186129220Y-96624041D01*
X185839086Y-96430180D01*
X185516707Y-96296646D01*
X185174471Y-96228571D01*
X184825529Y-96228571D01*
X184483293Y-96296646D01*
X184160914Y-96430180D01*
X183870780Y-96624041D01*
X183624041Y-96870780D01*
X183430180Y-97160914D01*
X183296646Y-97483293D01*
X183228571Y-97825529D01*
X138771429Y-97825529D01*
X138703354Y-97483293D01*
X138569820Y-97160914D01*
X138375959Y-96870780D01*
X138129220Y-96624041D01*
X137839086Y-96430180D01*
X137516707Y-96296646D01*
X137174471Y-96228571D01*
X136825529Y-96228571D01*
X136483293Y-96296646D01*
X136160914Y-96430180D01*
X135870780Y-96624041D01*
X135624041Y-96870780D01*
X135430180Y-97160914D01*
X135296646Y-97483293D01*
X135228571Y-97825529D01*
X134660000Y-97825529D01*
X134660000Y-95660000D01*
X187340000Y-95660000D01*
X187340001Y-148340000D01*
G04 #@! TA.AperFunction,Conductor*
D16*
G36*
X187340001Y-148340000D02*
G01*
X134660000Y-148340000D01*
X134660000Y-144838967D01*
X162365000Y-144838967D01*
X162365000Y-145161033D01*
X162427832Y-145476912D01*
X162551082Y-145774463D01*
X162730013Y-146042252D01*
X162957748Y-146269987D01*
X163225537Y-146448918D01*
X163523088Y-146572168D01*
X163838967Y-146635000D01*
X164161033Y-146635000D01*
X164476912Y-146572168D01*
X164774463Y-146448918D01*
X165042252Y-146269987D01*
X165269987Y-146042252D01*
X165448918Y-145774463D01*
X165572168Y-145476912D01*
X165635000Y-145161033D01*
X165635000Y-144838967D01*
X176365000Y-144838967D01*
X176365000Y-145161033D01*
X176427832Y-145476912D01*
X176551082Y-145774463D01*
X176730013Y-146042252D01*
X176957748Y-146269987D01*
X177225537Y-146448918D01*
X177523088Y-146572168D01*
X177838967Y-146635000D01*
X178161033Y-146635000D01*
X178476912Y-146572168D01*
X178774463Y-146448918D01*
X179042252Y-146269987D01*
X179269987Y-146042252D01*
X179448918Y-145774463D01*
X179572168Y-145476912D01*
X179635000Y-145161033D01*
X179635000Y-144838967D01*
X179633041Y-144829117D01*
X180665000Y-144829117D01*
X180665000Y-145170883D01*
X180731675Y-145506081D01*
X180862463Y-145821831D01*
X181052337Y-146105998D01*
X181294002Y-146347663D01*
X181578169Y-146537537D01*
X181893919Y-146668325D01*
X182229117Y-146735000D01*
X182570883Y-146735000D01*
X182906081Y-146668325D01*
X183221831Y-146537537D01*
X183505998Y-146347663D01*
X183700000Y-146153661D01*
X183894002Y-146347663D01*
X184178169Y-146537537D01*
X184493919Y-146668325D01*
X184829117Y-146735000D01*
X185170883Y-146735000D01*
X185506081Y-146668325D01*
X185821831Y-146537537D01*
X186105998Y-146347663D01*
X186347663Y-146105998D01*
X186537537Y-145821831D01*
X186668325Y-145506081D01*
X186735000Y-145170883D01*
X186735000Y-144829117D01*
X186668325Y-144493919D01*
X186537537Y-144178169D01*
X186347663Y-143894002D01*
X186105998Y-143652337D01*
X185821831Y-143462463D01*
X185506081Y-143331675D01*
X185170883Y-143265000D01*
X184829117Y-143265000D01*
X184493919Y-143331675D01*
X184178169Y-143462463D01*
X183894002Y-143652337D01*
X183700000Y-143846339D01*
X183505998Y-143652337D01*
X183221831Y-143462463D01*
X182906081Y-143331675D01*
X182570883Y-143265000D01*
X182229117Y-143265000D01*
X181893919Y-143331675D01*
X181578169Y-143462463D01*
X181294002Y-143652337D01*
X181052337Y-143894002D01*
X180862463Y-144178169D01*
X180731675Y-144493919D01*
X180665000Y-144829117D01*
X179633041Y-144829117D01*
X179572168Y-144523088D01*
X179448918Y-144225537D01*
X179269987Y-143957748D01*
X179042252Y-143730013D01*
X178774463Y-143551082D01*
X178476912Y-143427832D01*
X178161033Y-143365000D01*
X177838967Y-143365000D01*
X177523088Y-143427832D01*
X177225537Y-143551082D01*
X176957748Y-143730013D01*
X176730013Y-143957748D01*
X176551082Y-144225537D01*
X176427832Y-144523088D01*
X176365000Y-144838967D01*
X165635000Y-144838967D01*
X165572168Y-144523088D01*
X165448918Y-144225537D01*
X165269987Y-143957748D01*
X165042252Y-143730013D01*
X164774463Y-143551082D01*
X164476912Y-143427832D01*
X164161033Y-143365000D01*
X163838967Y-143365000D01*
X163523088Y-143427832D01*
X163225537Y-143551082D01*
X162957748Y-143730013D01*
X162730013Y-143957748D01*
X162551082Y-144225537D01*
X162427832Y-144523088D01*
X162365000Y-144838967D01*
X134660000Y-144838967D01*
X134660000Y-140829117D01*
X180665000Y-140829117D01*
X180665000Y-141170883D01*
X180731675Y-141506081D01*
X180862463Y-141821831D01*
X181052337Y-142105998D01*
X181294002Y-142347663D01*
X181578169Y-142537537D01*
X181893919Y-142668325D01*
X182229117Y-142735000D01*
X182570883Y-142735000D01*
X182906081Y-142668325D01*
X183221831Y-142537537D01*
X183505998Y-142347663D01*
X183700000Y-142153661D01*
X183894002Y-142347663D01*
X184178169Y-142537537D01*
X184493919Y-142668325D01*
X184829117Y-142735000D01*
X185170883Y-142735000D01*
X185506081Y-142668325D01*
X185821831Y-142537537D01*
X186105998Y-142347663D01*
X186347663Y-142105998D01*
X186537537Y-141821831D01*
X186668325Y-141506081D01*
X186735000Y-141170883D01*
X186735000Y-140829117D01*
X186668325Y-140493919D01*
X186537537Y-140178169D01*
X186347663Y-139894002D01*
X186105998Y-139652337D01*
X185821831Y-139462463D01*
X185506081Y-139331675D01*
X185170883Y-139265000D01*
X184829117Y-139265000D01*
X184493919Y-139331675D01*
X184178169Y-139462463D01*
X183894002Y-139652337D01*
X183700000Y-139846339D01*
X183505998Y-139652337D01*
X183221831Y-139462463D01*
X182906081Y-139331675D01*
X182570883Y-139265000D01*
X182229117Y-139265000D01*
X181893919Y-139331675D01*
X181578169Y-139462463D01*
X181294002Y-139652337D01*
X181052337Y-139894002D01*
X180862463Y-140178169D01*
X180731675Y-140493919D01*
X180665000Y-140829117D01*
X134660000Y-140829117D01*
X134660000Y-120958816D01*
X135035000Y-120958816D01*
X135035000Y-121261184D01*
X135093989Y-121557743D01*
X135209701Y-121837095D01*
X135377688Y-122088505D01*
X135591495Y-122302312D01*
X135707763Y-122380000D01*
X135591495Y-122457688D01*
X135377688Y-122671495D01*
X135209701Y-122922905D01*
X135093989Y-123202257D01*
X135035000Y-123498816D01*
X135035000Y-123801184D01*
X135093989Y-124097743D01*
X135209701Y-124377095D01*
X135377688Y-124628505D01*
X135591495Y-124842312D01*
X135707763Y-124920000D01*
X135591495Y-124997688D01*
X135377688Y-125211495D01*
X135209701Y-125462905D01*
X135093989Y-125742257D01*
X135035000Y-126038816D01*
X135035000Y-126341184D01*
X135093989Y-126637743D01*
X135209701Y-126917095D01*
X135377688Y-127168505D01*
X135591495Y-127382312D01*
X135707763Y-127460000D01*
X135591495Y-127537688D01*
X135377688Y-127751495D01*
X135209701Y-128002905D01*
X135093989Y-128282257D01*
X135035000Y-128578816D01*
X135035000Y-128881184D01*
X135093989Y-129177743D01*
X135209701Y-129457095D01*
X135377688Y-129708505D01*
X135591495Y-129922312D01*
X135707763Y-130000000D01*
X135591495Y-130077688D01*
X135377688Y-130291495D01*
X135209701Y-130542905D01*
X135093989Y-130822257D01*
X135035000Y-131118816D01*
X135035000Y-131421184D01*
X135093989Y-131717743D01*
X135209701Y-131997095D01*
X135377688Y-132248505D01*
X135591495Y-132462312D01*
X135707763Y-132540000D01*
X135591495Y-132617688D01*
X135377688Y-132831495D01*
X135209701Y-133082905D01*
X135093989Y-133362257D01*
X135035000Y-133658816D01*
X135035000Y-133961184D01*
X135093989Y-134257743D01*
X135209701Y-134537095D01*
X135377688Y-134788505D01*
X135591495Y-135002312D01*
X135707763Y-135080000D01*
X135591495Y-135157688D01*
X135377688Y-135371495D01*
X135209701Y-135622905D01*
X135093989Y-135902257D01*
X135035000Y-136198816D01*
X135035000Y-136501184D01*
X135093989Y-136797743D01*
X135209701Y-137077095D01*
X135377688Y-137328505D01*
X135591495Y-137542312D01*
X135707763Y-137620000D01*
X135591495Y-137697688D01*
X135377688Y-137911495D01*
X135209701Y-138162905D01*
X135093989Y-138442257D01*
X135035000Y-138738816D01*
X135035000Y-139041184D01*
X135093989Y-139337743D01*
X135209701Y-139617095D01*
X135377688Y-139868505D01*
X135591495Y-140082312D01*
X135842905Y-140250299D01*
X136122257Y-140366011D01*
X136418816Y-140425000D01*
X136721184Y-140425000D01*
X137017743Y-140366011D01*
X137297095Y-140250299D01*
X137548505Y-140082312D01*
X137762312Y-139868505D01*
X137930299Y-139617095D01*
X138046011Y-139337743D01*
X138105000Y-139041184D01*
X138105000Y-138738816D01*
X157895000Y-138738816D01*
X157895000Y-139041184D01*
X157953989Y-139337743D01*
X158069701Y-139617095D01*
X158237688Y-139868505D01*
X158451495Y-140082312D01*
X158702905Y-140250299D01*
X158982257Y-140366011D01*
X159278816Y-140425000D01*
X159581184Y-140425000D01*
X159877743Y-140366011D01*
X160157095Y-140250299D01*
X160408505Y-140082312D01*
X160622312Y-139868505D01*
X160790299Y-139617095D01*
X160906011Y-139337743D01*
X160965000Y-139041184D01*
X160965000Y-138738816D01*
X160906011Y-138442257D01*
X160790299Y-138162905D01*
X160622312Y-137911495D01*
X160408505Y-137697688D01*
X160254895Y-137595049D01*
X160314475Y-137414080D01*
X159430000Y-136529605D01*
X158545525Y-137414080D01*
X158605105Y-137595049D01*
X158451495Y-137697688D01*
X158237688Y-137911495D01*
X158069701Y-138162905D01*
X157953989Y-138442257D01*
X157895000Y-138738816D01*
X138105000Y-138738816D01*
X138046011Y-138442257D01*
X137930299Y-138162905D01*
X137762312Y-137911495D01*
X137548505Y-137697688D01*
X137432237Y-137620000D01*
X137548505Y-137542312D01*
X137762312Y-137328505D01*
X137930299Y-137077095D01*
X138046011Y-136797743D01*
X138105000Y-136501184D01*
X138105000Y-136416553D01*
X157889009Y-136416553D01*
X157931603Y-136715907D01*
X158031778Y-137001199D01*
X158111739Y-137150792D01*
X158365920Y-137234475D01*
X159250395Y-136350000D01*
X159609605Y-136350000D01*
X160494080Y-137234475D01*
X160748261Y-137150792D01*
X160879158Y-136878225D01*
X160891768Y-136829117D01*
X180665000Y-136829117D01*
X180665000Y-137170883D01*
X180731675Y-137506081D01*
X180862463Y-137821831D01*
X181052337Y-138105998D01*
X181294002Y-138347663D01*
X181578169Y-138537537D01*
X181893919Y-138668325D01*
X182229117Y-138735000D01*
X182570883Y-138735000D01*
X182906081Y-138668325D01*
X183221831Y-138537537D01*
X183505998Y-138347663D01*
X183700000Y-138153661D01*
X183894002Y-138347663D01*
X184178169Y-138537537D01*
X184493919Y-138668325D01*
X184829117Y-138735000D01*
X185170883Y-138735000D01*
X185506081Y-138668325D01*
X185821831Y-138537537D01*
X186105998Y-138347663D01*
X186347663Y-138105998D01*
X186537537Y-137821831D01*
X186668325Y-137506081D01*
X186735000Y-137170883D01*
X186735000Y-136829117D01*
X186668325Y-136493919D01*
X186537537Y-136178169D01*
X186347663Y-135894002D01*
X186105998Y-135652337D01*
X185821831Y-135462463D01*
X185506081Y-135331675D01*
X185170883Y-135265000D01*
X184829117Y-135265000D01*
X184493919Y-135331675D01*
X184178169Y-135462463D01*
X183894002Y-135652337D01*
X183700000Y-135846339D01*
X183505998Y-135652337D01*
X183221831Y-135462463D01*
X182906081Y-135331675D01*
X182570883Y-135265000D01*
X182229117Y-135265000D01*
X181893919Y-135331675D01*
X181578169Y-135462463D01*
X181294002Y-135652337D01*
X181052337Y-135894002D01*
X180862463Y-136178169D01*
X180731675Y-136493919D01*
X180665000Y-136829117D01*
X160891768Y-136829117D01*
X160954365Y-136585358D01*
X160970991Y-136283447D01*
X160928397Y-135984093D01*
X160828222Y-135698801D01*
X160748261Y-135549208D01*
X160494080Y-135465525D01*
X159609605Y-136350000D01*
X159250395Y-136350000D01*
X158365920Y-135465525D01*
X158111739Y-135549208D01*
X157980842Y-135821775D01*
X157905635Y-136114642D01*
X157889009Y-136416553D01*
X138105000Y-136416553D01*
X138105000Y-136198816D01*
X138046011Y-135902257D01*
X137930299Y-135622905D01*
X137762312Y-135371495D01*
X137548505Y-135157688D01*
X137432237Y-135080000D01*
X137548505Y-135002312D01*
X137762312Y-134788505D01*
X137930299Y-134537095D01*
X138046011Y-134257743D01*
X138105000Y-133961184D01*
X138105000Y-133658816D01*
X138046011Y-133362257D01*
X137930299Y-133082905D01*
X137762312Y-132831495D01*
X137548505Y-132617688D01*
X137432237Y-132540000D01*
X137548505Y-132462312D01*
X137762312Y-132248505D01*
X137930299Y-131997095D01*
X138046011Y-131717743D01*
X138105000Y-131421184D01*
X138105000Y-131118816D01*
X138046011Y-130822257D01*
X137930299Y-130542905D01*
X137762312Y-130291495D01*
X137548505Y-130077688D01*
X137432237Y-130000000D01*
X137548505Y-129922312D01*
X137762312Y-129708505D01*
X137930299Y-129457095D01*
X138046011Y-129177743D01*
X138105000Y-128881184D01*
X138105000Y-128578816D01*
X138046011Y-128282257D01*
X137930299Y-128002905D01*
X137762312Y-127751495D01*
X137548505Y-127537688D01*
X137432237Y-127460000D01*
X137548505Y-127382312D01*
X137762312Y-127168505D01*
X137930299Y-126917095D01*
X138046011Y-126637743D01*
X138105000Y-126341184D01*
X138105000Y-126038816D01*
X138046011Y-125742257D01*
X137930299Y-125462905D01*
X137762312Y-125211495D01*
X137548505Y-124997688D01*
X137432237Y-124920000D01*
X137548505Y-124842312D01*
X137762312Y-124628505D01*
X137930299Y-124377095D01*
X138046011Y-124097743D01*
X138105000Y-123801184D01*
X138105000Y-123498816D01*
X138046011Y-123202257D01*
X137930299Y-122922905D01*
X137762312Y-122671495D01*
X137548505Y-122457688D01*
X137432237Y-122380000D01*
X137548505Y-122302312D01*
X137762312Y-122088505D01*
X137930299Y-121837095D01*
X138046011Y-121557743D01*
X138105000Y-121261184D01*
X138105000Y-120958816D01*
X157895000Y-120958816D01*
X157895000Y-121261184D01*
X157953989Y-121557743D01*
X158069701Y-121837095D01*
X158237688Y-122088505D01*
X158451495Y-122302312D01*
X158567763Y-122380000D01*
X158451495Y-122457688D01*
X158237688Y-122671495D01*
X158069701Y-122922905D01*
X157953989Y-123202257D01*
X157895000Y-123498816D01*
X157895000Y-123801184D01*
X157953989Y-124097743D01*
X158069701Y-124377095D01*
X158237688Y-124628505D01*
X158451495Y-124842312D01*
X158567763Y-124920000D01*
X158451495Y-124997688D01*
X158237688Y-125211495D01*
X158069701Y-125462905D01*
X157953989Y-125742257D01*
X157895000Y-126038816D01*
X157895000Y-126341184D01*
X157953989Y-126637743D01*
X158069701Y-126917095D01*
X158237688Y-127168505D01*
X158451495Y-127382312D01*
X158567763Y-127460000D01*
X158451495Y-127537688D01*
X158237688Y-127751495D01*
X158069701Y-128002905D01*
X157953989Y-128282257D01*
X157895000Y-128578816D01*
X157895000Y-128881184D01*
X157953989Y-129177743D01*
X158069701Y-129457095D01*
X158237688Y-129708505D01*
X158451495Y-129922312D01*
X158567763Y-130000000D01*
X158451495Y-130077688D01*
X158237688Y-130291495D01*
X158069701Y-130542905D01*
X157953989Y-130822257D01*
X157895000Y-131118816D01*
X157895000Y-131421184D01*
X157953989Y-131717743D01*
X158069701Y-131997095D01*
X158237688Y-132248505D01*
X158451495Y-132462312D01*
X158567763Y-132540000D01*
X158451495Y-132617688D01*
X158237688Y-132831495D01*
X158069701Y-133082905D01*
X157953989Y-133362257D01*
X157895000Y-133658816D01*
X157895000Y-133961184D01*
X157953989Y-134257743D01*
X158069701Y-134537095D01*
X158237688Y-134788505D01*
X158451495Y-135002312D01*
X158605105Y-135104951D01*
X158545525Y-135285920D01*
X159430000Y-136170395D01*
X160314475Y-135285920D01*
X160254895Y-135104951D01*
X160408505Y-135002312D01*
X160622312Y-134788505D01*
X160790299Y-134537095D01*
X160906011Y-134257743D01*
X160965000Y-133961184D01*
X160965000Y-133658816D01*
X160906011Y-133362257D01*
X160790299Y-133082905D01*
X160622312Y-132831495D01*
X160408505Y-132617688D01*
X160292237Y-132540000D01*
X160408505Y-132462312D01*
X160622312Y-132248505D01*
X160790299Y-131997095D01*
X160902785Y-131725529D01*
X183228571Y-131725529D01*
X183228571Y-132074471D01*
X183296646Y-132416707D01*
X183430180Y-132739086D01*
X183624041Y-133029220D01*
X183870780Y-133275959D01*
X184160914Y-133469820D01*
X184483293Y-133603354D01*
X184825529Y-133671429D01*
X185174471Y-133671429D01*
X185516707Y-133603354D01*
X185839086Y-133469820D01*
X186129220Y-133275959D01*
X186375959Y-133029220D01*
X186569820Y-132739086D01*
X186703354Y-132416707D01*
X186771429Y-132074471D01*
X186771429Y-131725529D01*
X186703354Y-131383293D01*
X186569820Y-131060914D01*
X186375959Y-130770780D01*
X186129220Y-130524041D01*
X185839086Y-130330180D01*
X185516707Y-130196646D01*
X185174471Y-130128571D01*
X184825529Y-130128571D01*
X184483293Y-130196646D01*
X184160914Y-130330180D01*
X183870780Y-130524041D01*
X183624041Y-130770780D01*
X183430180Y-131060914D01*
X183296646Y-131383293D01*
X183228571Y-131725529D01*
X160902785Y-131725529D01*
X160906011Y-131717743D01*
X160965000Y-131421184D01*
X160965000Y-131118816D01*
X160906011Y-130822257D01*
X160790299Y-130542905D01*
X160622312Y-130291495D01*
X160408505Y-130077688D01*
X160292237Y-130000000D01*
X160408505Y-129922312D01*
X160622312Y-129708505D01*
X160790299Y-129457095D01*
X160906011Y-129177743D01*
X160965000Y-128881184D01*
X160965000Y-128578816D01*
X160906011Y-128282257D01*
X160790299Y-128002905D01*
X160622312Y-127751495D01*
X160408505Y-127537688D01*
X160292237Y-127460000D01*
X160408505Y-127382312D01*
X160622312Y-127168505D01*
X160790299Y-126917095D01*
X160797380Y-126900000D01*
X182261928Y-126900000D01*
X182261928Y-129100000D01*
X182274188Y-129224482D01*
X182310498Y-129344180D01*
X182369463Y-129454494D01*
X182448815Y-129551185D01*
X182545506Y-129630537D01*
X182655820Y-129689502D01*
X182775518Y-129725812D01*
X182900000Y-129738072D01*
X185100000Y-129738072D01*
X185224482Y-129725812D01*
X185344180Y-129689502D01*
X185454494Y-129630537D01*
X185551185Y-129551185D01*
X185630537Y-129454494D01*
X185689502Y-129344180D01*
X185725812Y-129224482D01*
X185738072Y-129100000D01*
X185738072Y-126900000D01*
X185725812Y-126775518D01*
X185689502Y-126655820D01*
X185630537Y-126545506D01*
X185551185Y-126448815D01*
X185454494Y-126369463D01*
X185344180Y-126310498D01*
X185224482Y-126274188D01*
X185100000Y-126261928D01*
X182900000Y-126261928D01*
X182775518Y-126274188D01*
X182655820Y-126310498D01*
X182545506Y-126369463D01*
X182448815Y-126448815D01*
X182369463Y-126545506D01*
X182310498Y-126655820D01*
X182274188Y-126775518D01*
X182261928Y-126900000D01*
X160797380Y-126900000D01*
X160906011Y-126637743D01*
X160965000Y-126341184D01*
X160965000Y-126038816D01*
X160906011Y-125742257D01*
X160790299Y-125462905D01*
X160622312Y-125211495D01*
X160408505Y-124997688D01*
X160292237Y-124920000D01*
X160408505Y-124842312D01*
X160622312Y-124628505D01*
X160790299Y-124377095D01*
X160906011Y-124097743D01*
X160965000Y-123801184D01*
X160965000Y-123498816D01*
X160906011Y-123202257D01*
X160790299Y-122922905D01*
X160622312Y-122671495D01*
X160408505Y-122457688D01*
X160292237Y-122380000D01*
X160353647Y-122338967D01*
X162365000Y-122338967D01*
X162365000Y-122661033D01*
X162427832Y-122976912D01*
X162551082Y-123274463D01*
X162730013Y-123542252D01*
X162957748Y-123769987D01*
X163225537Y-123948918D01*
X163523088Y-124072168D01*
X163838967Y-124135000D01*
X164161033Y-124135000D01*
X164476912Y-124072168D01*
X164774463Y-123948918D01*
X165042252Y-123769987D01*
X165269987Y-123542252D01*
X165448918Y-123274463D01*
X165500000Y-123151140D01*
X165551082Y-123274463D01*
X165730013Y-123542252D01*
X165957748Y-123769987D01*
X166225537Y-123948918D01*
X166523088Y-124072168D01*
X166838967Y-124135000D01*
X167161033Y-124135000D01*
X167476912Y-124072168D01*
X167774463Y-123948918D01*
X168042252Y-123769987D01*
X168269987Y-123542252D01*
X168448918Y-123274463D01*
X168572168Y-122976912D01*
X168635000Y-122661033D01*
X168635000Y-122338967D01*
X173365000Y-122338967D01*
X173365000Y-122661033D01*
X173427832Y-122976912D01*
X173551082Y-123274463D01*
X173730013Y-123542252D01*
X173957748Y-123769987D01*
X174225537Y-123948918D01*
X174523088Y-124072168D01*
X174838967Y-124135000D01*
X175161033Y-124135000D01*
X175476912Y-124072168D01*
X175774463Y-123948918D01*
X176042252Y-123769987D01*
X176176826Y-123635413D01*
X177044192Y-123635413D01*
X177139956Y-123899814D01*
X177429571Y-124040704D01*
X177741108Y-124122384D01*
X178062595Y-124141718D01*
X178381675Y-124097961D01*
X178686088Y-123992795D01*
X178860044Y-123899814D01*
X178955808Y-123635413D01*
X178000000Y-122679605D01*
X177044192Y-123635413D01*
X176176826Y-123635413D01*
X176269987Y-123542252D01*
X176448918Y-123274463D01*
X176497346Y-123157549D01*
X176507205Y-123186088D01*
X176600186Y-123360044D01*
X176864587Y-123455808D01*
X177820395Y-122500000D01*
X178179605Y-122500000D01*
X179135413Y-123455808D01*
X179399814Y-123360044D01*
X179540704Y-123070429D01*
X179622384Y-122758892D01*
X179641718Y-122437405D01*
X179597961Y-122118325D01*
X179492795Y-121813912D01*
X179399814Y-121639956D01*
X179135413Y-121544192D01*
X178179605Y-122500000D01*
X177820395Y-122500000D01*
X176864587Y-121544192D01*
X176600186Y-121639956D01*
X176499338Y-121847261D01*
X176448918Y-121725537D01*
X176269987Y-121457748D01*
X176176826Y-121364587D01*
X177044192Y-121364587D01*
X178000000Y-122320395D01*
X178955808Y-121364587D01*
X178860044Y-121100186D01*
X178570429Y-120959296D01*
X178258892Y-120877616D01*
X177937405Y-120858282D01*
X177618325Y-120902039D01*
X177313912Y-121007205D01*
X177139956Y-121100186D01*
X177044192Y-121364587D01*
X176176826Y-121364587D01*
X176042252Y-121230013D01*
X175774463Y-121051082D01*
X175476912Y-120927832D01*
X175161033Y-120865000D01*
X174838967Y-120865000D01*
X174523088Y-120927832D01*
X174225537Y-121051082D01*
X173957748Y-121230013D01*
X173730013Y-121457748D01*
X173551082Y-121725537D01*
X173427832Y-122023088D01*
X173365000Y-122338967D01*
X168635000Y-122338967D01*
X168572168Y-122023088D01*
X168448918Y-121725537D01*
X168269987Y-121457748D01*
X168042252Y-121230013D01*
X167774463Y-121051082D01*
X167476912Y-120927832D01*
X167161033Y-120865000D01*
X166838967Y-120865000D01*
X166523088Y-120927832D01*
X166225537Y-121051082D01*
X165957748Y-121230013D01*
X165730013Y-121457748D01*
X165551082Y-121725537D01*
X165500000Y-121848860D01*
X165448918Y-121725537D01*
X165269987Y-121457748D01*
X165042252Y-121230013D01*
X164774463Y-121051082D01*
X164476912Y-120927832D01*
X164161033Y-120865000D01*
X163838967Y-120865000D01*
X163523088Y-120927832D01*
X163225537Y-121051082D01*
X162957748Y-121230013D01*
X162730013Y-121457748D01*
X162551082Y-121725537D01*
X162427832Y-122023088D01*
X162365000Y-122338967D01*
X160353647Y-122338967D01*
X160408505Y-122302312D01*
X160622312Y-122088505D01*
X160790299Y-121837095D01*
X160906011Y-121557743D01*
X160965000Y-121261184D01*
X160965000Y-120958816D01*
X160906011Y-120662257D01*
X160790299Y-120382905D01*
X160622312Y-120131495D01*
X160408505Y-119917688D01*
X160157095Y-119749701D01*
X159877743Y-119633989D01*
X159581184Y-119575000D01*
X159278816Y-119575000D01*
X158982257Y-119633989D01*
X158702905Y-119749701D01*
X158451495Y-119917688D01*
X158237688Y-120131495D01*
X158069701Y-120382905D01*
X157953989Y-120662257D01*
X157895000Y-120958816D01*
X138105000Y-120958816D01*
X138046011Y-120662257D01*
X137930299Y-120382905D01*
X137762312Y-120131495D01*
X137548505Y-119917688D01*
X137297095Y-119749701D01*
X137017743Y-119633989D01*
X136721184Y-119575000D01*
X136418816Y-119575000D01*
X136122257Y-119633989D01*
X135842905Y-119749701D01*
X135591495Y-119917688D01*
X135377688Y-120131495D01*
X135209701Y-120382905D01*
X135093989Y-120662257D01*
X135035000Y-120958816D01*
X134660000Y-120958816D01*
X134660000Y-117669117D01*
X182265000Y-117669117D01*
X182265000Y-118010883D01*
X182331675Y-118346081D01*
X182462463Y-118661831D01*
X182652337Y-118945998D01*
X182894002Y-119187663D01*
X183178169Y-119377537D01*
X183493919Y-119508325D01*
X183829117Y-119575000D01*
X184170883Y-119575000D01*
X184506081Y-119508325D01*
X184821831Y-119377537D01*
X185105998Y-119187663D01*
X185347663Y-118945998D01*
X185537537Y-118661831D01*
X185668325Y-118346081D01*
X185735000Y-118010883D01*
X185735000Y-117669117D01*
X185668325Y-117333919D01*
X185537537Y-117018169D01*
X185347663Y-116734002D01*
X185105998Y-116492337D01*
X184821831Y-116302463D01*
X184506081Y-116171675D01*
X184170883Y-116105000D01*
X183829117Y-116105000D01*
X183493919Y-116171675D01*
X183178169Y-116302463D01*
X182894002Y-116492337D01*
X182652337Y-116734002D01*
X182462463Y-117018169D01*
X182331675Y-117333919D01*
X182265000Y-117669117D01*
X134660000Y-117669117D01*
X134660000Y-115838967D01*
X167365000Y-115838967D01*
X167365000Y-116161033D01*
X167427832Y-116476912D01*
X167551082Y-116774463D01*
X167730013Y-117042252D01*
X167957748Y-117269987D01*
X168225537Y-117448918D01*
X168523088Y-117572168D01*
X168838967Y-117635000D01*
X169161033Y-117635000D01*
X169476912Y-117572168D01*
X169774463Y-117448918D01*
X170042252Y-117269987D01*
X170269987Y-117042252D01*
X170448918Y-116774463D01*
X170572168Y-116476912D01*
X170635000Y-116161033D01*
X170635000Y-115838967D01*
X171365000Y-115838967D01*
X171365000Y-116161033D01*
X171427832Y-116476912D01*
X171551082Y-116774463D01*
X171730013Y-117042252D01*
X171957748Y-117269987D01*
X172225537Y-117448918D01*
X172523088Y-117572168D01*
X172838967Y-117635000D01*
X173161033Y-117635000D01*
X173476912Y-117572168D01*
X173774463Y-117448918D01*
X174042252Y-117269987D01*
X174269987Y-117042252D01*
X174448918Y-116774463D01*
X174572168Y-116476912D01*
X174635000Y-116161033D01*
X174635000Y-115838967D01*
X174572168Y-115523088D01*
X174448918Y-115225537D01*
X174269987Y-114957748D01*
X174042252Y-114730013D01*
X173774463Y-114551082D01*
X173476912Y-114427832D01*
X173161033Y-114365000D01*
X172838967Y-114365000D01*
X172523088Y-114427832D01*
X172225537Y-114551082D01*
X171957748Y-114730013D01*
X171730013Y-114957748D01*
X171551082Y-115225537D01*
X171427832Y-115523088D01*
X171365000Y-115838967D01*
X170635000Y-115838967D01*
X170572168Y-115523088D01*
X170448918Y-115225537D01*
X170269987Y-114957748D01*
X170042252Y-114730013D01*
X169774463Y-114551082D01*
X169476912Y-114427832D01*
X169161033Y-114365000D01*
X168838967Y-114365000D01*
X168523088Y-114427832D01*
X168225537Y-114551082D01*
X167957748Y-114730013D01*
X167730013Y-114957748D01*
X167551082Y-115225537D01*
X167427832Y-115523088D01*
X167365000Y-115838967D01*
X134660000Y-115838967D01*
X134660000Y-112900000D01*
X182261928Y-112900000D01*
X182261928Y-115100000D01*
X182274188Y-115224482D01*
X182310498Y-115344180D01*
X182369463Y-115454494D01*
X182448815Y-115551185D01*
X182545506Y-115630537D01*
X182655820Y-115689502D01*
X182775518Y-115725812D01*
X182900000Y-115738072D01*
X185100000Y-115738072D01*
X185224482Y-115725812D01*
X185344180Y-115689502D01*
X185454494Y-115630537D01*
X185551185Y-115551185D01*
X185630537Y-115454494D01*
X185689502Y-115344180D01*
X185725812Y-115224482D01*
X185738072Y-115100000D01*
X185738072Y-112900000D01*
X185725812Y-112775518D01*
X185689502Y-112655820D01*
X185630537Y-112545506D01*
X185551185Y-112448815D01*
X185454494Y-112369463D01*
X185344180Y-112310498D01*
X185224482Y-112274188D01*
X185100000Y-112261928D01*
X182900000Y-112261928D01*
X182775518Y-112274188D01*
X182655820Y-112310498D01*
X182545506Y-112369463D01*
X182448815Y-112448815D01*
X182369463Y-112545506D01*
X182310498Y-112655820D01*
X182274188Y-112775518D01*
X182261928Y-112900000D01*
X134660000Y-112900000D01*
X134660000Y-109338967D01*
X135365000Y-109338967D01*
X135365000Y-109661033D01*
X135427832Y-109976912D01*
X135551082Y-110274463D01*
X135730013Y-110542252D01*
X135957748Y-110769987D01*
X136225537Y-110948918D01*
X136523088Y-111072168D01*
X136838967Y-111135000D01*
X137161033Y-111135000D01*
X137476912Y-111072168D01*
X137774463Y-110948918D01*
X138042252Y-110769987D01*
X138269987Y-110542252D01*
X138448918Y-110274463D01*
X138572168Y-109976912D01*
X138599606Y-109838967D01*
X139865000Y-109838967D01*
X139865000Y-110161033D01*
X139927832Y-110476912D01*
X140051082Y-110774463D01*
X140230013Y-111042252D01*
X140457748Y-111269987D01*
X140725537Y-111448918D01*
X141023088Y-111572168D01*
X141338967Y-111635000D01*
X141661033Y-111635000D01*
X141976912Y-111572168D01*
X142274463Y-111448918D01*
X142542252Y-111269987D01*
X142676826Y-111135413D01*
X143544192Y-111135413D01*
X143639956Y-111399814D01*
X143929571Y-111540704D01*
X144241108Y-111622384D01*
X144562595Y-111641718D01*
X144881675Y-111597961D01*
X145186088Y-111492795D01*
X145360044Y-111399814D01*
X145455808Y-111135413D01*
X144500000Y-110179605D01*
X143544192Y-111135413D01*
X142676826Y-111135413D01*
X142769987Y-111042252D01*
X142948918Y-110774463D01*
X142997346Y-110657549D01*
X143007205Y-110686088D01*
X143100186Y-110860044D01*
X143364587Y-110955808D01*
X144320395Y-110000000D01*
X144679605Y-110000000D01*
X145635413Y-110955808D01*
X145899814Y-110860044D01*
X146000662Y-110652739D01*
X146051082Y-110774463D01*
X146230013Y-111042252D01*
X146457748Y-111269987D01*
X146725537Y-111448918D01*
X147023088Y-111572168D01*
X147338967Y-111635000D01*
X147661033Y-111635000D01*
X147976912Y-111572168D01*
X148274463Y-111448918D01*
X148542252Y-111269987D01*
X148769987Y-111042252D01*
X148948918Y-110774463D01*
X149000000Y-110651140D01*
X149051082Y-110774463D01*
X149230013Y-111042252D01*
X149457748Y-111269987D01*
X149725537Y-111448918D01*
X150023088Y-111572168D01*
X150338967Y-111635000D01*
X150661033Y-111635000D01*
X150976912Y-111572168D01*
X151274463Y-111448918D01*
X151542252Y-111269987D01*
X151676826Y-111135413D01*
X152544192Y-111135413D01*
X152639956Y-111399814D01*
X152929571Y-111540704D01*
X153241108Y-111622384D01*
X153562595Y-111641718D01*
X153881675Y-111597961D01*
X154186088Y-111492795D01*
X154360044Y-111399814D01*
X154455808Y-111135413D01*
X153500000Y-110179605D01*
X152544192Y-111135413D01*
X151676826Y-111135413D01*
X151769987Y-111042252D01*
X151948918Y-110774463D01*
X151997346Y-110657549D01*
X152007205Y-110686088D01*
X152100186Y-110860044D01*
X152364587Y-110955808D01*
X153320395Y-110000000D01*
X153679605Y-110000000D01*
X154635413Y-110955808D01*
X154899814Y-110860044D01*
X155000662Y-110652739D01*
X155051082Y-110774463D01*
X155230013Y-111042252D01*
X155457748Y-111269987D01*
X155725537Y-111448918D01*
X156023088Y-111572168D01*
X156338967Y-111635000D01*
X156661033Y-111635000D01*
X156976912Y-111572168D01*
X157274463Y-111448918D01*
X157542252Y-111269987D01*
X157769987Y-111042252D01*
X157948918Y-110774463D01*
X158072168Y-110476912D01*
X158135000Y-110161033D01*
X158135000Y-109838967D01*
X158072168Y-109523088D01*
X157948918Y-109225537D01*
X157769987Y-108957748D01*
X157542252Y-108730013D01*
X157274463Y-108551082D01*
X156976912Y-108427832D01*
X156661033Y-108365000D01*
X156338967Y-108365000D01*
X156023088Y-108427832D01*
X155725537Y-108551082D01*
X155457748Y-108730013D01*
X155230013Y-108957748D01*
X155051082Y-109225537D01*
X155002654Y-109342451D01*
X154992795Y-109313912D01*
X154899814Y-109139956D01*
X154635413Y-109044192D01*
X153679605Y-110000000D01*
X153320395Y-110000000D01*
X152364587Y-109044192D01*
X152100186Y-109139956D01*
X151999338Y-109347261D01*
X151948918Y-109225537D01*
X151769987Y-108957748D01*
X151676826Y-108864587D01*
X152544192Y-108864587D01*
X153500000Y-109820395D01*
X154455808Y-108864587D01*
X154360044Y-108600186D01*
X154070429Y-108459296D01*
X153758892Y-108377616D01*
X153437405Y-108358282D01*
X153118325Y-108402039D01*
X152813912Y-108507205D01*
X152639956Y-108600186D01*
X152544192Y-108864587D01*
X151676826Y-108864587D01*
X151542252Y-108730013D01*
X151274463Y-108551082D01*
X150976912Y-108427832D01*
X150661033Y-108365000D01*
X150338967Y-108365000D01*
X150023088Y-108427832D01*
X149725537Y-108551082D01*
X149457748Y-108730013D01*
X149230013Y-108957748D01*
X149051082Y-109225537D01*
X149000000Y-109348860D01*
X148948918Y-109225537D01*
X148769987Y-108957748D01*
X148542252Y-108730013D01*
X148274463Y-108551082D01*
X147976912Y-108427832D01*
X147661033Y-108365000D01*
X147338967Y-108365000D01*
X147023088Y-108427832D01*
X146725537Y-108551082D01*
X146457748Y-108730013D01*
X146230013Y-108957748D01*
X146051082Y-109225537D01*
X146002654Y-109342451D01*
X145992795Y-109313912D01*
X145899814Y-109139956D01*
X145635413Y-109044192D01*
X144679605Y-110000000D01*
X144320395Y-110000000D01*
X143364587Y-109044192D01*
X143100186Y-109139956D01*
X142999338Y-109347261D01*
X142948918Y-109225537D01*
X142769987Y-108957748D01*
X142676826Y-108864587D01*
X143544192Y-108864587D01*
X144500000Y-109820395D01*
X145455808Y-108864587D01*
X145360044Y-108600186D01*
X145070429Y-108459296D01*
X144758892Y-108377616D01*
X144437405Y-108358282D01*
X144118325Y-108402039D01*
X143813912Y-108507205D01*
X143639956Y-108600186D01*
X143544192Y-108864587D01*
X142676826Y-108864587D01*
X142542252Y-108730013D01*
X142274463Y-108551082D01*
X141976912Y-108427832D01*
X141661033Y-108365000D01*
X141338967Y-108365000D01*
X141023088Y-108427832D01*
X140725537Y-108551082D01*
X140457748Y-108730013D01*
X140230013Y-108957748D01*
X140051082Y-109225537D01*
X139927832Y-109523088D01*
X139865000Y-109838967D01*
X138599606Y-109838967D01*
X138635000Y-109661033D01*
X138635000Y-109338967D01*
X138572168Y-109023088D01*
X138448918Y-108725537D01*
X138269987Y-108457748D01*
X138042252Y-108230013D01*
X137774463Y-108051082D01*
X137476912Y-107927832D01*
X137161033Y-107865000D01*
X136838967Y-107865000D01*
X136523088Y-107927832D01*
X136225537Y-108051082D01*
X135957748Y-108230013D01*
X135730013Y-108457748D01*
X135551082Y-108725537D01*
X135427832Y-109023088D01*
X135365000Y-109338967D01*
X134660000Y-109338967D01*
X134660000Y-102338967D01*
X135365000Y-102338967D01*
X135365000Y-102661033D01*
X135427832Y-102976912D01*
X135551082Y-103274463D01*
X135730013Y-103542252D01*
X135957748Y-103769987D01*
X136225537Y-103948918D01*
X136523088Y-104072168D01*
X136838967Y-104135000D01*
X137161033Y-104135000D01*
X137476912Y-104072168D01*
X137774463Y-103948918D01*
X138042252Y-103769987D01*
X138143122Y-103669117D01*
X182265000Y-103669117D01*
X182265000Y-104010883D01*
X182331675Y-104346081D01*
X182462463Y-104661831D01*
X182652337Y-104945998D01*
X182894002Y-105187663D01*
X183178169Y-105377537D01*
X183493919Y-105508325D01*
X183829117Y-105575000D01*
X184170883Y-105575000D01*
X184506081Y-105508325D01*
X184821831Y-105377537D01*
X185105998Y-105187663D01*
X185347663Y-104945998D01*
X185537537Y-104661831D01*
X185668325Y-104346081D01*
X185735000Y-104010883D01*
X185735000Y-103669117D01*
X185668325Y-103333919D01*
X185537537Y-103018169D01*
X185347663Y-102734002D01*
X185105998Y-102492337D01*
X184821831Y-102302463D01*
X184506081Y-102171675D01*
X184170883Y-102105000D01*
X183829117Y-102105000D01*
X183493919Y-102171675D01*
X183178169Y-102302463D01*
X182894002Y-102492337D01*
X182652337Y-102734002D01*
X182462463Y-103018169D01*
X182331675Y-103333919D01*
X182265000Y-103669117D01*
X138143122Y-103669117D01*
X138269987Y-103542252D01*
X138448918Y-103274463D01*
X138572168Y-102976912D01*
X138635000Y-102661033D01*
X138635000Y-102338967D01*
X138572168Y-102023088D01*
X138495903Y-101838967D01*
X139865000Y-101838967D01*
X139865000Y-102161033D01*
X139927832Y-102476912D01*
X140051082Y-102774463D01*
X140230013Y-103042252D01*
X140457748Y-103269987D01*
X140725537Y-103448918D01*
X141023088Y-103572168D01*
X141338967Y-103635000D01*
X141661033Y-103635000D01*
X141976912Y-103572168D01*
X142274463Y-103448918D01*
X142542252Y-103269987D01*
X142769987Y-103042252D01*
X142948918Y-102774463D01*
X143000000Y-102651140D01*
X143051082Y-102774463D01*
X143230013Y-103042252D01*
X143457748Y-103269987D01*
X143725537Y-103448918D01*
X144023088Y-103572168D01*
X144338967Y-103635000D01*
X144661033Y-103635000D01*
X144976912Y-103572168D01*
X145274463Y-103448918D01*
X145542252Y-103269987D01*
X145769987Y-103042252D01*
X145948918Y-102774463D01*
X146000000Y-102651140D01*
X146051082Y-102774463D01*
X146230013Y-103042252D01*
X146457748Y-103269987D01*
X146725537Y-103448918D01*
X147023088Y-103572168D01*
X147338967Y-103635000D01*
X147661033Y-103635000D01*
X147976912Y-103572168D01*
X148274463Y-103448918D01*
X148542252Y-103269987D01*
X148769987Y-103042252D01*
X148948918Y-102774463D01*
X149000000Y-102651140D01*
X149051082Y-102774463D01*
X149230013Y-103042252D01*
X149457748Y-103269987D01*
X149725537Y-103448918D01*
X150023088Y-103572168D01*
X150338967Y-103635000D01*
X150661033Y-103635000D01*
X150976912Y-103572168D01*
X151274463Y-103448918D01*
X151542252Y-103269987D01*
X151676826Y-103135413D01*
X152544192Y-103135413D01*
X152639956Y-103399814D01*
X152929571Y-103540704D01*
X153241108Y-103622384D01*
X153562595Y-103641718D01*
X153881675Y-103597961D01*
X154186088Y-103492795D01*
X154360044Y-103399814D01*
X154455808Y-103135413D01*
X153500000Y-102179605D01*
X152544192Y-103135413D01*
X151676826Y-103135413D01*
X151769987Y-103042252D01*
X151948918Y-102774463D01*
X151997346Y-102657549D01*
X152007205Y-102686088D01*
X152100186Y-102860044D01*
X152364587Y-102955808D01*
X153320395Y-102000000D01*
X153679605Y-102000000D01*
X154635413Y-102955808D01*
X154899814Y-102860044D01*
X155000662Y-102652739D01*
X155051082Y-102774463D01*
X155230013Y-103042252D01*
X155457748Y-103269987D01*
X155725537Y-103448918D01*
X156023088Y-103572168D01*
X156338967Y-103635000D01*
X156661033Y-103635000D01*
X156976912Y-103572168D01*
X157274463Y-103448918D01*
X157542252Y-103269987D01*
X157769987Y-103042252D01*
X157948918Y-102774463D01*
X158072168Y-102476912D01*
X158135000Y-102161033D01*
X158135000Y-101838967D01*
X158072168Y-101523088D01*
X157948918Y-101225537D01*
X157769987Y-100957748D01*
X157542252Y-100730013D01*
X157274463Y-100551082D01*
X156976912Y-100427832D01*
X156661033Y-100365000D01*
X156338967Y-100365000D01*
X156023088Y-100427832D01*
X155725537Y-100551082D01*
X155457748Y-100730013D01*
X155230013Y-100957748D01*
X155051082Y-101225537D01*
X155002654Y-101342451D01*
X154992795Y-101313912D01*
X154899814Y-101139956D01*
X154635413Y-101044192D01*
X153679605Y-102000000D01*
X153320395Y-102000000D01*
X152364587Y-101044192D01*
X152100186Y-101139956D01*
X151999338Y-101347261D01*
X151948918Y-101225537D01*
X151769987Y-100957748D01*
X151676826Y-100864587D01*
X152544192Y-100864587D01*
X153500000Y-101820395D01*
X154455808Y-100864587D01*
X154360044Y-100600186D01*
X154070429Y-100459296D01*
X153758892Y-100377616D01*
X153437405Y-100358282D01*
X153118325Y-100402039D01*
X152813912Y-100507205D01*
X152639956Y-100600186D01*
X152544192Y-100864587D01*
X151676826Y-100864587D01*
X151542252Y-100730013D01*
X151274463Y-100551082D01*
X150976912Y-100427832D01*
X150661033Y-100365000D01*
X150338967Y-100365000D01*
X150023088Y-100427832D01*
X149725537Y-100551082D01*
X149457748Y-100730013D01*
X149230013Y-100957748D01*
X149051082Y-101225537D01*
X149000000Y-101348860D01*
X148948918Y-101225537D01*
X148769987Y-100957748D01*
X148542252Y-100730013D01*
X148274463Y-100551082D01*
X147976912Y-100427832D01*
X147661033Y-100365000D01*
X147338967Y-100365000D01*
X147023088Y-100427832D01*
X146725537Y-100551082D01*
X146457748Y-100730013D01*
X146230013Y-100957748D01*
X146051082Y-101225537D01*
X146000000Y-101348860D01*
X145948918Y-101225537D01*
X145769987Y-100957748D01*
X145542252Y-100730013D01*
X145274463Y-100551082D01*
X144976912Y-100427832D01*
X144661033Y-100365000D01*
X144338967Y-100365000D01*
X144023088Y-100427832D01*
X143725537Y-100551082D01*
X143457748Y-100730013D01*
X143230013Y-100957748D01*
X143051082Y-101225537D01*
X143000000Y-101348860D01*
X142948918Y-101225537D01*
X142769987Y-100957748D01*
X142542252Y-100730013D01*
X142274463Y-100551082D01*
X141976912Y-100427832D01*
X141661033Y-100365000D01*
X141338967Y-100365000D01*
X141023088Y-100427832D01*
X140725537Y-100551082D01*
X140457748Y-100730013D01*
X140230013Y-100957748D01*
X140051082Y-101225537D01*
X139927832Y-101523088D01*
X139865000Y-101838967D01*
X138495903Y-101838967D01*
X138448918Y-101725537D01*
X138269987Y-101457748D01*
X138042252Y-101230013D01*
X137774463Y-101051082D01*
X137476912Y-100927832D01*
X137161033Y-100865000D01*
X136838967Y-100865000D01*
X136523088Y-100927832D01*
X136225537Y-101051082D01*
X135957748Y-101230013D01*
X135730013Y-101457748D01*
X135551082Y-101725537D01*
X135427832Y-102023088D01*
X135365000Y-102338967D01*
X134660000Y-102338967D01*
X134660000Y-97825529D01*
X135228571Y-97825529D01*
X135228571Y-98174471D01*
X135296646Y-98516707D01*
X135430180Y-98839086D01*
X135624041Y-99129220D01*
X135870780Y-99375959D01*
X136160914Y-99569820D01*
X136483293Y-99703354D01*
X136825529Y-99771429D01*
X137174471Y-99771429D01*
X137516707Y-99703354D01*
X137839086Y-99569820D01*
X138129220Y-99375959D01*
X138375959Y-99129220D01*
X138569820Y-98839086D01*
X138703354Y-98516707D01*
X138771429Y-98174471D01*
X138771429Y-97825529D01*
X183228571Y-97825529D01*
X183228571Y-98174471D01*
X183296646Y-98516707D01*
X183430180Y-98839086D01*
X183624041Y-99129220D01*
X183870780Y-99375959D01*
X184160914Y-99569820D01*
X184483293Y-99703354D01*
X184825529Y-99771429D01*
X185174471Y-99771429D01*
X185516707Y-99703354D01*
X185839086Y-99569820D01*
X186129220Y-99375959D01*
X186375959Y-99129220D01*
X186569820Y-98839086D01*
X186703354Y-98516707D01*
X186771429Y-98174471D01*
X186771429Y-97825529D01*
X186703354Y-97483293D01*
X186569820Y-97160914D01*
X186375959Y-96870780D01*
X186129220Y-96624041D01*
X185839086Y-96430180D01*
X185516707Y-96296646D01*
X185174471Y-96228571D01*
X184825529Y-96228571D01*
X184483293Y-96296646D01*
X184160914Y-96430180D01*
X183870780Y-96624041D01*
X183624041Y-96870780D01*
X183430180Y-97160914D01*
X183296646Y-97483293D01*
X183228571Y-97825529D01*
X138771429Y-97825529D01*
X138703354Y-97483293D01*
X138569820Y-97160914D01*
X138375959Y-96870780D01*
X138129220Y-96624041D01*
X137839086Y-96430180D01*
X137516707Y-96296646D01*
X137174471Y-96228571D01*
X136825529Y-96228571D01*
X136483293Y-96296646D01*
X136160914Y-96430180D01*
X135870780Y-96624041D01*
X135624041Y-96870780D01*
X135430180Y-97160914D01*
X135296646Y-97483293D01*
X135228571Y-97825529D01*
X134660000Y-97825529D01*
X134660000Y-95660000D01*
X187340000Y-95660000D01*
X187340001Y-148340000D01*
G37*
G04 #@! TD.AperFunction*
M02*
