G04 #@! TF.GenerationSoftware,KiCad,Pcbnew,(5.1.10)-1*
G04 #@! TF.CreationDate,2022-01-03T01:22:49-05:00*
G04 #@! TF.ProjectId,SlimeVRMotherBoard,536c696d-6556-4524-9d6f-74686572426f,V1.1*
G04 #@! TF.SameCoordinates,Original*
G04 #@! TF.FileFunction,Soldermask,Bot*
G04 #@! TF.FilePolarity,Negative*
%FSLAX46Y46*%
G04 Gerber Fmt 4.6, Leading zero omitted, Abs format (unit mm)*
G04 Created by KiCad (PCBNEW (5.1.10)-1) date 2022-01-03 01:22:49*
%MOMM*%
%LPD*%
G01*
G04 APERTURE LIST*
%ADD10C,2.100000*%
%ADD11O,2.300000X2.300000*%
%ADD12C,1.900000*%
%ADD13C,2.300000*%
G04 APERTURE END LIST*
D10*
X137000000Y-109500000D03*
X137000000Y-102500000D03*
D11*
X184000000Y-103840000D03*
G36*
G01*
X185100000Y-115150000D02*
X182900000Y-115150000D01*
G75*
G02*
X182850000Y-115100000I0J50000D01*
G01*
X182850000Y-112900000D01*
G75*
G02*
X182900000Y-112850000I50000J0D01*
G01*
X185100000Y-112850000D01*
G75*
G02*
X185150000Y-112900000I0J-50000D01*
G01*
X185150000Y-115100000D01*
G75*
G02*
X185100000Y-115150000I-50000J0D01*
G01*
G37*
X184000000Y-117840000D03*
G36*
G01*
X185100000Y-129150000D02*
X182900000Y-129150000D01*
G75*
G02*
X182850000Y-129100000I0J50000D01*
G01*
X182850000Y-126900000D01*
G75*
G02*
X182900000Y-126850000I50000J0D01*
G01*
X185100000Y-126850000D01*
G75*
G02*
X185150000Y-126900000I0J-50000D01*
G01*
X185150000Y-129100000D01*
G75*
G02*
X185100000Y-129150000I-50000J0D01*
G01*
G37*
D10*
X173000000Y-116000000D03*
X169000000Y-116000000D03*
D12*
X136570000Y-138890000D03*
X159430000Y-138890000D03*
X136570000Y-136350000D03*
X159430000Y-136350000D03*
X136570000Y-133810000D03*
X159430000Y-133810000D03*
X136570000Y-131270000D03*
X159430000Y-131270000D03*
X136570000Y-128730000D03*
X159430000Y-128730000D03*
X136570000Y-126190000D03*
X159430000Y-126190000D03*
X136570000Y-123650000D03*
X159430000Y-123650000D03*
X136570000Y-121110000D03*
X159430000Y-121110000D03*
D10*
X150500000Y-110000000D03*
X153500000Y-110000000D03*
X156500000Y-110000000D03*
X147500000Y-110000000D03*
X144500000Y-110000000D03*
X141500000Y-110000000D03*
X141500000Y-102000000D03*
X144500000Y-102000000D03*
X147500000Y-102000000D03*
X156500000Y-102000000D03*
X153500000Y-102000000D03*
X150500000Y-102000000D03*
D13*
X182400000Y-145000000D03*
X185000000Y-145000000D03*
X182400000Y-141000000D03*
X185000000Y-141000000D03*
X182400000Y-137000000D03*
X185000000Y-137000000D03*
D10*
X178000000Y-122500000D03*
X175000000Y-122500000D03*
X164000000Y-145000000D03*
X178000000Y-145000000D03*
X164000000Y-122500000D03*
X167000000Y-122500000D03*
M02*
