%FSLAX45Y45*%
G04 Gerber Fmt 4.5, Leading zero omitted, Abs format (unit mm)*
G04 Created by KiCad (PCBNEW (5.1.10)-1) date 2022-01-03 01:22:54*
%MOMM*%
%LPD*%
G01*
G04 APERTURE LIST*
%TA.AperFunction,Profile*%
%ADD10C,0.050000*%
%TD*%
%ADD11C,0.200000*%
%ADD12C,0.300000*%
G04 APERTURE END LIST*
D10*
X18610000Y-13190000D02*
G75*
G03*
X18610000Y-13190000I-110000J0D01*
G01*
X13810000Y-9800000D02*
G75*
G03*
X13810000Y-9800000I-110000J0D01*
G01*
X18610000Y-9800000D02*
G75*
G03*
X18610000Y-9800000I-110000J0D01*
G01*
X18800000Y-9500000D02*
X18800000Y-14900000D01*
X13400000Y-9500000D02*
X18800000Y-9500000D01*
X13400000Y-14900000D02*
X13400000Y-9500000D01*
X18800000Y-14900000D02*
X13400000Y-14900000D01*
D11*
X13661900Y-10211900D02*
X13738100Y-10288100D01*
X13738100Y-10211900D02*
X13661900Y-10288100D01*
X13661900Y-10911900D02*
X13738100Y-10988100D01*
X13738100Y-10911900D02*
X13661900Y-10988100D01*
X13707800Y-12111000D02*
G75*
G03*
X13707800Y-12111000I-50800J0D01*
G01*
X13707800Y-12365000D02*
G75*
G03*
X13707800Y-12365000I-50800J0D01*
G01*
X13707800Y-12619000D02*
G75*
G03*
X13707800Y-12619000I-50800J0D01*
G01*
X13707800Y-12873000D02*
G75*
G03*
X13707800Y-12873000I-50800J0D01*
G01*
X13707800Y-13127000D02*
G75*
G03*
X13707800Y-13127000I-50800J0D01*
G01*
X13707800Y-13381000D02*
G75*
G03*
X13707800Y-13381000I-50800J0D01*
G01*
X13707800Y-13635000D02*
G75*
G03*
X13707800Y-13635000I-50800J0D01*
G01*
X13707800Y-13889000D02*
G75*
G03*
X13707800Y-13889000I-50800J0D01*
G01*
X15993800Y-12111000D02*
G75*
G03*
X15993800Y-12111000I-50800J0D01*
G01*
X15993800Y-12365000D02*
G75*
G03*
X15993800Y-12365000I-50800J0D01*
G01*
X15993800Y-12619000D02*
G75*
G03*
X15993800Y-12619000I-50800J0D01*
G01*
X15993800Y-12873000D02*
G75*
G03*
X15993800Y-12873000I-50800J0D01*
G01*
X15993800Y-13127000D02*
G75*
G03*
X15993800Y-13127000I-50800J0D01*
G01*
X15993800Y-13381000D02*
G75*
G03*
X15993800Y-13381000I-50800J0D01*
G01*
X15993800Y-13635000D02*
G75*
G03*
X15993800Y-13635000I-50800J0D01*
G01*
X15993800Y-13889000D02*
G75*
G03*
X15993800Y-13889000I-50800J0D01*
G01*
X18400000Y-10329000D02*
X18400000Y-10439000D01*
X18345000Y-10384000D02*
X18455000Y-10384000D01*
X18400000Y-11345000D02*
X18400000Y-11455000D01*
X18345000Y-11400000D02*
X18455000Y-11400000D01*
X18400000Y-11729000D02*
X18400000Y-11839000D01*
X18345000Y-11784000D02*
X18455000Y-11784000D01*
X18400000Y-12745000D02*
X18400000Y-12855000D01*
X18345000Y-12800000D02*
X18455000Y-12800000D01*
X14192427Y-10242427D02*
X14192427Y-10157573D01*
X14107573Y-10157573D01*
X14107573Y-10242427D01*
X14192427Y-10242427D01*
X14192427Y-11042427D02*
X14192427Y-10957573D01*
X14107573Y-10957573D01*
X14107573Y-11042427D01*
X14192427Y-11042427D01*
X14492427Y-10242427D02*
X14492427Y-10157573D01*
X14407573Y-10157573D01*
X14407573Y-10242427D01*
X14492427Y-10242427D01*
X14492427Y-11042427D02*
X14492427Y-10957573D01*
X14407573Y-10957573D01*
X14407573Y-11042427D01*
X14492427Y-11042427D01*
X14792427Y-10242427D02*
X14792427Y-10157573D01*
X14707573Y-10157573D01*
X14707573Y-10242427D01*
X14792427Y-10242427D01*
X14792427Y-11042427D02*
X14792427Y-10957573D01*
X14707573Y-10957573D01*
X14707573Y-11042427D01*
X14792427Y-11042427D01*
X15092427Y-10242427D02*
X15092427Y-10157573D01*
X15007573Y-10157573D01*
X15007573Y-10242427D01*
X15092427Y-10242427D01*
X15092427Y-11042427D02*
X15092427Y-10957573D01*
X15007573Y-10957573D01*
X15007573Y-11042427D01*
X15092427Y-11042427D01*
X15392427Y-10242427D02*
X15392427Y-10157573D01*
X15307573Y-10157573D01*
X15307573Y-10242427D01*
X15392427Y-10242427D01*
X15392427Y-11042427D02*
X15392427Y-10957573D01*
X15307573Y-10957573D01*
X15307573Y-11042427D01*
X15392427Y-11042427D01*
X15692427Y-10242427D02*
X15692427Y-10157573D01*
X15607573Y-10157573D01*
X15607573Y-10242427D01*
X15692427Y-10242427D01*
X15692427Y-11042427D02*
X15692427Y-10957573D01*
X15607573Y-10957573D01*
X15607573Y-11042427D01*
X15692427Y-11042427D01*
X16442427Y-12292427D02*
X16442427Y-12207573D01*
X16357573Y-12207573D01*
X16357573Y-12292427D01*
X16442427Y-12292427D01*
X16442427Y-14542427D02*
X16442427Y-14457573D01*
X16357573Y-14457573D01*
X16357573Y-14542427D01*
X16442427Y-14542427D01*
X16742427Y-12292427D02*
X16742427Y-12207573D01*
X16657573Y-12207573D01*
X16657573Y-12292427D01*
X16742427Y-12292427D01*
X16942427Y-11642427D02*
X16942427Y-11557573D01*
X16857573Y-11557573D01*
X16857573Y-11642427D01*
X16942427Y-11642427D01*
X17342427Y-11642427D02*
X17342427Y-11557573D01*
X17257573Y-11557573D01*
X17257573Y-11642427D01*
X17342427Y-11642427D01*
X17542427Y-12292427D02*
X17542427Y-12207573D01*
X17457573Y-12207573D01*
X17457573Y-12292427D01*
X17542427Y-12292427D01*
X17842427Y-12292427D02*
X17842427Y-12207573D01*
X17757573Y-12207573D01*
X17757573Y-12292427D01*
X17842427Y-12292427D01*
X17842427Y-14542427D02*
X17842427Y-14457573D01*
X17757573Y-14457573D01*
X17757573Y-14542427D01*
X17842427Y-14542427D01*
X18240000Y-13795000D02*
X18335000Y-13700000D01*
X18240000Y-13605000D01*
X18145000Y-13700000D01*
X18240000Y-13795000D01*
X18240000Y-14195000D02*
X18335000Y-14100000D01*
X18240000Y-14005000D01*
X18145000Y-14100000D01*
X18240000Y-14195000D01*
X18240000Y-14595000D02*
X18335000Y-14500000D01*
X18240000Y-14405000D01*
X18145000Y-14500000D01*
X18240000Y-14595000D01*
X18500000Y-13795000D02*
X18595000Y-13700000D01*
X18500000Y-13605000D01*
X18405000Y-13700000D01*
X18500000Y-13795000D01*
X18500000Y-14195000D02*
X18595000Y-14100000D01*
X18500000Y-14005000D01*
X18405000Y-14100000D01*
X18500000Y-14195000D01*
X18500000Y-14595000D02*
X18595000Y-14500000D01*
X18500000Y-14405000D01*
X18405000Y-14500000D01*
X18500000Y-14595000D01*
D12*
X13683928Y-15368214D02*
X13683928Y-15068214D01*
X13755357Y-15068214D01*
X13798214Y-15082500D01*
X13826786Y-15111071D01*
X13841071Y-15139643D01*
X13855357Y-15196786D01*
X13855357Y-15239643D01*
X13841071Y-15296786D01*
X13826786Y-15325357D01*
X13798214Y-15353929D01*
X13755357Y-15368214D01*
X13683928Y-15368214D01*
X13983928Y-15368214D02*
X13983928Y-15168214D01*
X13983928Y-15225357D02*
X13998214Y-15196786D01*
X14012500Y-15182500D01*
X14041071Y-15168214D01*
X14069643Y-15168214D01*
X14169643Y-15368214D02*
X14169643Y-15168214D01*
X14169643Y-15068214D02*
X14155357Y-15082500D01*
X14169643Y-15096786D01*
X14183928Y-15082500D01*
X14169643Y-15068214D01*
X14169643Y-15096786D01*
X14355357Y-15368214D02*
X14326786Y-15353929D01*
X14312500Y-15325357D01*
X14312500Y-15068214D01*
X14512500Y-15368214D02*
X14483928Y-15353929D01*
X14469643Y-15325357D01*
X14469643Y-15068214D01*
X14855357Y-15368214D02*
X14855357Y-15068214D01*
X14955357Y-15282500D01*
X15055357Y-15068214D01*
X15055357Y-15368214D01*
X15326786Y-15368214D02*
X15326786Y-15211071D01*
X15312500Y-15182500D01*
X15283928Y-15168214D01*
X15226786Y-15168214D01*
X15198214Y-15182500D01*
X15326786Y-15353929D02*
X15298214Y-15368214D01*
X15226786Y-15368214D01*
X15198214Y-15353929D01*
X15183928Y-15325357D01*
X15183928Y-15296786D01*
X15198214Y-15268214D01*
X15226786Y-15253929D01*
X15298214Y-15253929D01*
X15326786Y-15239643D01*
X15469643Y-15168214D02*
X15469643Y-15468214D01*
X15469643Y-15182500D02*
X15498214Y-15168214D01*
X15555357Y-15168214D01*
X15583928Y-15182500D01*
X15598214Y-15196786D01*
X15612500Y-15225357D01*
X15612500Y-15311071D01*
X15598214Y-15339643D01*
X15583928Y-15353929D01*
X15555357Y-15368214D01*
X15498214Y-15368214D01*
X15469643Y-15353929D01*
X15741071Y-15339643D02*
X15755357Y-15353929D01*
X15741071Y-15368214D01*
X15726786Y-15353929D01*
X15741071Y-15339643D01*
X15741071Y-15368214D01*
X15741071Y-15182500D02*
X15755357Y-15196786D01*
X15741071Y-15211071D01*
X15726786Y-15196786D01*
X15741071Y-15182500D01*
X15741071Y-15211071D01*
X13321300Y-15824400D02*
X13397500Y-15900600D01*
X13397500Y-15824400D02*
X13321300Y-15900600D01*
X13741071Y-15698214D02*
X13769643Y-15698214D01*
X13798214Y-15712500D01*
X13812500Y-15726786D01*
X13826786Y-15755357D01*
X13841071Y-15812500D01*
X13841071Y-15883929D01*
X13826786Y-15941071D01*
X13812500Y-15969643D01*
X13798214Y-15983929D01*
X13769643Y-15998214D01*
X13741071Y-15998214D01*
X13712500Y-15983929D01*
X13698214Y-15969643D01*
X13683928Y-15941071D01*
X13669643Y-15883929D01*
X13669643Y-15812500D01*
X13683928Y-15755357D01*
X13698214Y-15726786D01*
X13712500Y-15712500D01*
X13741071Y-15698214D01*
X13969643Y-15969643D02*
X13983928Y-15983929D01*
X13969643Y-15998214D01*
X13955357Y-15983929D01*
X13969643Y-15969643D01*
X13969643Y-15998214D01*
X14083928Y-15698214D02*
X14283928Y-15698214D01*
X14155357Y-15998214D01*
X14526786Y-15698214D02*
X14469643Y-15698214D01*
X14441071Y-15712500D01*
X14426786Y-15726786D01*
X14398214Y-15769643D01*
X14383928Y-15826786D01*
X14383928Y-15941071D01*
X14398214Y-15969643D01*
X14412500Y-15983929D01*
X14441071Y-15998214D01*
X14498214Y-15998214D01*
X14526786Y-15983929D01*
X14541071Y-15969643D01*
X14555357Y-15941071D01*
X14555357Y-15869643D01*
X14541071Y-15841071D01*
X14526786Y-15826786D01*
X14498214Y-15812500D01*
X14441071Y-15812500D01*
X14412500Y-15826786D01*
X14398214Y-15841071D01*
X14383928Y-15869643D01*
X14669643Y-15726786D02*
X14683928Y-15712500D01*
X14712500Y-15698214D01*
X14783928Y-15698214D01*
X14812500Y-15712500D01*
X14826786Y-15726786D01*
X14841071Y-15755357D01*
X14841071Y-15783929D01*
X14826786Y-15826786D01*
X14655357Y-15998214D01*
X14841071Y-15998214D01*
X14969643Y-15998214D02*
X14969643Y-15798214D01*
X14969643Y-15826786D02*
X14983928Y-15812500D01*
X15012500Y-15798214D01*
X15055357Y-15798214D01*
X15083928Y-15812500D01*
X15098214Y-15841071D01*
X15098214Y-15998214D01*
X15098214Y-15841071D02*
X15112500Y-15812500D01*
X15141071Y-15798214D01*
X15183928Y-15798214D01*
X15212500Y-15812500D01*
X15226786Y-15841071D01*
X15226786Y-15998214D01*
X15369643Y-15998214D02*
X15369643Y-15798214D01*
X15369643Y-15826786D02*
X15383928Y-15812500D01*
X15412500Y-15798214D01*
X15455357Y-15798214D01*
X15483928Y-15812500D01*
X15498214Y-15841071D01*
X15498214Y-15998214D01*
X15498214Y-15841071D02*
X15512500Y-15812500D01*
X15541071Y-15798214D01*
X15583928Y-15798214D01*
X15612500Y-15812500D01*
X15626786Y-15841071D01*
X15626786Y-15998214D01*
X16212500Y-15683929D02*
X15955357Y-16069643D01*
X16598214Y-15698214D02*
X16626786Y-15698214D01*
X16655357Y-15712500D01*
X16669643Y-15726786D01*
X16683928Y-15755357D01*
X16698214Y-15812500D01*
X16698214Y-15883929D01*
X16683928Y-15941071D01*
X16669643Y-15969643D01*
X16655357Y-15983929D01*
X16626786Y-15998214D01*
X16598214Y-15998214D01*
X16569643Y-15983929D01*
X16555357Y-15969643D01*
X16541071Y-15941071D01*
X16526786Y-15883929D01*
X16526786Y-15812500D01*
X16541071Y-15755357D01*
X16555357Y-15726786D01*
X16569643Y-15712500D01*
X16598214Y-15698214D01*
X16826786Y-15969643D02*
X16841071Y-15983929D01*
X16826786Y-15998214D01*
X16812500Y-15983929D01*
X16826786Y-15969643D01*
X16826786Y-15998214D01*
X17026786Y-15698214D02*
X17055357Y-15698214D01*
X17083928Y-15712500D01*
X17098214Y-15726786D01*
X17112500Y-15755357D01*
X17126786Y-15812500D01*
X17126786Y-15883929D01*
X17112500Y-15941071D01*
X17098214Y-15969643D01*
X17083928Y-15983929D01*
X17055357Y-15998214D01*
X17026786Y-15998214D01*
X16998214Y-15983929D01*
X16983928Y-15969643D01*
X16969643Y-15941071D01*
X16955357Y-15883929D01*
X16955357Y-15812500D01*
X16969643Y-15755357D01*
X16983928Y-15726786D01*
X16998214Y-15712500D01*
X17026786Y-15698214D01*
X17226786Y-15698214D02*
X17412500Y-15698214D01*
X17312500Y-15812500D01*
X17355357Y-15812500D01*
X17383928Y-15826786D01*
X17398214Y-15841071D01*
X17412500Y-15869643D01*
X17412500Y-15941071D01*
X17398214Y-15969643D01*
X17383928Y-15983929D01*
X17355357Y-15998214D01*
X17269643Y-15998214D01*
X17241071Y-15983929D01*
X17226786Y-15969643D01*
X17598214Y-15698214D02*
X17626786Y-15698214D01*
X17655357Y-15712500D01*
X17669643Y-15726786D01*
X17683928Y-15755357D01*
X17698214Y-15812500D01*
X17698214Y-15883929D01*
X17683928Y-15941071D01*
X17669643Y-15969643D01*
X17655357Y-15983929D01*
X17626786Y-15998214D01*
X17598214Y-15998214D01*
X17569643Y-15983929D01*
X17555357Y-15969643D01*
X17541071Y-15941071D01*
X17526786Y-15883929D01*
X17526786Y-15812500D01*
X17541071Y-15755357D01*
X17555357Y-15726786D01*
X17569643Y-15712500D01*
X17598214Y-15698214D01*
X17883928Y-15698214D02*
X17912500Y-15698214D01*
X17941071Y-15712500D01*
X17955357Y-15726786D01*
X17969643Y-15755357D01*
X17983928Y-15812500D01*
X17983928Y-15883929D01*
X17969643Y-15941071D01*
X17955357Y-15969643D01*
X17941071Y-15983929D01*
X17912500Y-15998214D01*
X17883928Y-15998214D01*
X17855357Y-15983929D01*
X17841071Y-15969643D01*
X17826786Y-15941071D01*
X17812500Y-15883929D01*
X17812500Y-15812500D01*
X17826786Y-15755357D01*
X17841071Y-15726786D01*
X17855357Y-15712500D01*
X17883928Y-15698214D01*
X18098214Y-15698214D02*
X18098214Y-15755357D01*
X18212500Y-15698214D02*
X18212500Y-15755357D01*
X18655357Y-16112500D02*
X18641071Y-16098214D01*
X18612500Y-16055357D01*
X18598214Y-16026786D01*
X18583928Y-15983929D01*
X18569643Y-15912500D01*
X18569643Y-15855357D01*
X18583928Y-15783929D01*
X18598214Y-15741071D01*
X18612500Y-15712500D01*
X18641071Y-15669643D01*
X18655357Y-15655357D01*
X18755357Y-15726786D02*
X18769643Y-15712500D01*
X18798214Y-15698214D01*
X18869643Y-15698214D01*
X18898214Y-15712500D01*
X18912500Y-15726786D01*
X18926786Y-15755357D01*
X18926786Y-15783929D01*
X18912500Y-15826786D01*
X18741071Y-15998214D01*
X18926786Y-15998214D01*
X19283928Y-15998214D02*
X19283928Y-15698214D01*
X19412500Y-15998214D02*
X19412500Y-15841071D01*
X19398214Y-15812500D01*
X19369643Y-15798214D01*
X19326786Y-15798214D01*
X19298214Y-15812500D01*
X19283928Y-15826786D01*
X19598214Y-15998214D02*
X19569643Y-15983929D01*
X19555357Y-15969643D01*
X19541071Y-15941071D01*
X19541071Y-15855357D01*
X19555357Y-15826786D01*
X19569643Y-15812500D01*
X19598214Y-15798214D01*
X19641071Y-15798214D01*
X19669643Y-15812500D01*
X19683928Y-15826786D01*
X19698214Y-15855357D01*
X19698214Y-15941071D01*
X19683928Y-15969643D01*
X19669643Y-15983929D01*
X19641071Y-15998214D01*
X19598214Y-15998214D01*
X19869643Y-15998214D02*
X19841071Y-15983929D01*
X19826786Y-15955357D01*
X19826786Y-15698214D01*
X20098214Y-15983929D02*
X20069643Y-15998214D01*
X20012500Y-15998214D01*
X19983928Y-15983929D01*
X19969643Y-15955357D01*
X19969643Y-15841071D01*
X19983928Y-15812500D01*
X20012500Y-15798214D01*
X20069643Y-15798214D01*
X20098214Y-15812500D01*
X20112500Y-15841071D01*
X20112500Y-15869643D01*
X19969643Y-15898214D01*
X20226786Y-15983929D02*
X20255357Y-15998214D01*
X20312500Y-15998214D01*
X20341071Y-15983929D01*
X20355357Y-15955357D01*
X20355357Y-15941071D01*
X20341071Y-15912500D01*
X20312500Y-15898214D01*
X20269643Y-15898214D01*
X20241071Y-15883929D01*
X20226786Y-15855357D01*
X20226786Y-15841071D01*
X20241071Y-15812500D01*
X20269643Y-15798214D01*
X20312500Y-15798214D01*
X20341071Y-15812500D01*
X20455357Y-16112500D02*
X20469643Y-16098214D01*
X20498214Y-16055357D01*
X20512500Y-16026786D01*
X20526786Y-15983929D01*
X20541071Y-15912500D01*
X20541071Y-15855357D01*
X20526786Y-15783929D01*
X20512500Y-15741071D01*
X20498214Y-15712500D01*
X20469643Y-15669643D01*
X20455357Y-15655357D01*
X13397500Y-16258500D02*
G75*
G03*
X13397500Y-16258500I-50800J0D01*
G01*
X13841071Y-16394214D02*
X13669643Y-16394214D01*
X13755357Y-16394214D02*
X13755357Y-16094214D01*
X13726786Y-16137071D01*
X13698214Y-16165643D01*
X13669643Y-16179929D01*
X13969643Y-16365643D02*
X13983928Y-16379929D01*
X13969643Y-16394214D01*
X13955357Y-16379929D01*
X13969643Y-16365643D01*
X13969643Y-16394214D01*
X14169643Y-16094214D02*
X14198214Y-16094214D01*
X14226786Y-16108500D01*
X14241071Y-16122786D01*
X14255357Y-16151357D01*
X14269643Y-16208500D01*
X14269643Y-16279929D01*
X14255357Y-16337071D01*
X14241071Y-16365643D01*
X14226786Y-16379929D01*
X14198214Y-16394214D01*
X14169643Y-16394214D01*
X14141071Y-16379929D01*
X14126786Y-16365643D01*
X14112500Y-16337071D01*
X14098214Y-16279929D01*
X14098214Y-16208500D01*
X14112500Y-16151357D01*
X14126786Y-16122786D01*
X14141071Y-16108500D01*
X14169643Y-16094214D01*
X14555357Y-16394214D02*
X14383928Y-16394214D01*
X14469643Y-16394214D02*
X14469643Y-16094214D01*
X14441071Y-16137071D01*
X14412500Y-16165643D01*
X14383928Y-16179929D01*
X14812500Y-16094214D02*
X14755357Y-16094214D01*
X14726786Y-16108500D01*
X14712500Y-16122786D01*
X14683928Y-16165643D01*
X14669643Y-16222786D01*
X14669643Y-16337071D01*
X14683928Y-16365643D01*
X14698214Y-16379929D01*
X14726786Y-16394214D01*
X14783928Y-16394214D01*
X14812500Y-16379929D01*
X14826786Y-16365643D01*
X14841071Y-16337071D01*
X14841071Y-16265643D01*
X14826786Y-16237071D01*
X14812500Y-16222786D01*
X14783928Y-16208500D01*
X14726786Y-16208500D01*
X14698214Y-16222786D01*
X14683928Y-16237071D01*
X14669643Y-16265643D01*
X14969643Y-16394214D02*
X14969643Y-16194214D01*
X14969643Y-16222786D02*
X14983928Y-16208500D01*
X15012500Y-16194214D01*
X15055357Y-16194214D01*
X15083928Y-16208500D01*
X15098214Y-16237071D01*
X15098214Y-16394214D01*
X15098214Y-16237071D02*
X15112500Y-16208500D01*
X15141071Y-16194214D01*
X15183928Y-16194214D01*
X15212500Y-16208500D01*
X15226786Y-16237071D01*
X15226786Y-16394214D01*
X15369643Y-16394214D02*
X15369643Y-16194214D01*
X15369643Y-16222786D02*
X15383928Y-16208500D01*
X15412500Y-16194214D01*
X15455357Y-16194214D01*
X15483928Y-16208500D01*
X15498214Y-16237071D01*
X15498214Y-16394214D01*
X15498214Y-16237071D02*
X15512500Y-16208500D01*
X15541071Y-16194214D01*
X15583928Y-16194214D01*
X15612500Y-16208500D01*
X15626786Y-16237071D01*
X15626786Y-16394214D01*
X16212500Y-16079929D02*
X15955357Y-16465643D01*
X16598214Y-16094214D02*
X16626786Y-16094214D01*
X16655357Y-16108500D01*
X16669643Y-16122786D01*
X16683928Y-16151357D01*
X16698214Y-16208500D01*
X16698214Y-16279929D01*
X16683928Y-16337071D01*
X16669643Y-16365643D01*
X16655357Y-16379929D01*
X16626786Y-16394214D01*
X16598214Y-16394214D01*
X16569643Y-16379929D01*
X16555357Y-16365643D01*
X16541071Y-16337071D01*
X16526786Y-16279929D01*
X16526786Y-16208500D01*
X16541071Y-16151357D01*
X16555357Y-16122786D01*
X16569643Y-16108500D01*
X16598214Y-16094214D01*
X16826786Y-16365643D02*
X16841071Y-16379929D01*
X16826786Y-16394214D01*
X16812500Y-16379929D01*
X16826786Y-16365643D01*
X16826786Y-16394214D01*
X17026786Y-16094214D02*
X17055357Y-16094214D01*
X17083928Y-16108500D01*
X17098214Y-16122786D01*
X17112500Y-16151357D01*
X17126786Y-16208500D01*
X17126786Y-16279929D01*
X17112500Y-16337071D01*
X17098214Y-16365643D01*
X17083928Y-16379929D01*
X17055357Y-16394214D01*
X17026786Y-16394214D01*
X16998214Y-16379929D01*
X16983928Y-16365643D01*
X16969643Y-16337071D01*
X16955357Y-16279929D01*
X16955357Y-16208500D01*
X16969643Y-16151357D01*
X16983928Y-16122786D01*
X16998214Y-16108500D01*
X17026786Y-16094214D01*
X17383928Y-16194214D02*
X17383928Y-16394214D01*
X17312500Y-16079929D02*
X17241071Y-16294214D01*
X17426786Y-16294214D01*
X17598214Y-16094214D02*
X17626786Y-16094214D01*
X17655357Y-16108500D01*
X17669643Y-16122786D01*
X17683928Y-16151357D01*
X17698214Y-16208500D01*
X17698214Y-16279929D01*
X17683928Y-16337071D01*
X17669643Y-16365643D01*
X17655357Y-16379929D01*
X17626786Y-16394214D01*
X17598214Y-16394214D01*
X17569643Y-16379929D01*
X17555357Y-16365643D01*
X17541071Y-16337071D01*
X17526786Y-16279929D01*
X17526786Y-16208500D01*
X17541071Y-16151357D01*
X17555357Y-16122786D01*
X17569643Y-16108500D01*
X17598214Y-16094214D01*
X17883928Y-16094214D02*
X17912500Y-16094214D01*
X17941071Y-16108500D01*
X17955357Y-16122786D01*
X17969643Y-16151357D01*
X17983928Y-16208500D01*
X17983928Y-16279929D01*
X17969643Y-16337071D01*
X17955357Y-16365643D01*
X17941071Y-16379929D01*
X17912500Y-16394214D01*
X17883928Y-16394214D01*
X17855357Y-16379929D01*
X17841071Y-16365643D01*
X17826786Y-16337071D01*
X17812500Y-16279929D01*
X17812500Y-16208500D01*
X17826786Y-16151357D01*
X17841071Y-16122786D01*
X17855357Y-16108500D01*
X17883928Y-16094214D01*
X18098214Y-16094214D02*
X18098214Y-16151357D01*
X18212500Y-16094214D02*
X18212500Y-16151357D01*
X18655357Y-16508500D02*
X18641071Y-16494214D01*
X18612500Y-16451357D01*
X18598214Y-16422786D01*
X18583928Y-16379929D01*
X18569643Y-16308500D01*
X18569643Y-16251357D01*
X18583928Y-16179929D01*
X18598214Y-16137071D01*
X18612500Y-16108500D01*
X18641071Y-16065643D01*
X18655357Y-16051357D01*
X18926786Y-16394214D02*
X18755357Y-16394214D01*
X18841071Y-16394214D02*
X18841071Y-16094214D01*
X18812500Y-16137071D01*
X18783928Y-16165643D01*
X18755357Y-16179929D01*
X19183928Y-16094214D02*
X19126786Y-16094214D01*
X19098214Y-16108500D01*
X19083928Y-16122786D01*
X19055357Y-16165643D01*
X19041071Y-16222786D01*
X19041071Y-16337071D01*
X19055357Y-16365643D01*
X19069643Y-16379929D01*
X19098214Y-16394214D01*
X19155357Y-16394214D01*
X19183928Y-16379929D01*
X19198214Y-16365643D01*
X19212500Y-16337071D01*
X19212500Y-16265643D01*
X19198214Y-16237071D01*
X19183928Y-16222786D01*
X19155357Y-16208500D01*
X19098214Y-16208500D01*
X19069643Y-16222786D01*
X19055357Y-16237071D01*
X19041071Y-16265643D01*
X19569643Y-16394214D02*
X19569643Y-16094214D01*
X19698214Y-16394214D02*
X19698214Y-16237071D01*
X19683928Y-16208500D01*
X19655357Y-16194214D01*
X19612500Y-16194214D01*
X19583928Y-16208500D01*
X19569643Y-16222786D01*
X19883928Y-16394214D02*
X19855357Y-16379929D01*
X19841071Y-16365643D01*
X19826786Y-16337071D01*
X19826786Y-16251357D01*
X19841071Y-16222786D01*
X19855357Y-16208500D01*
X19883928Y-16194214D01*
X19926786Y-16194214D01*
X19955357Y-16208500D01*
X19969643Y-16222786D01*
X19983928Y-16251357D01*
X19983928Y-16337071D01*
X19969643Y-16365643D01*
X19955357Y-16379929D01*
X19926786Y-16394214D01*
X19883928Y-16394214D01*
X20155357Y-16394214D02*
X20126786Y-16379929D01*
X20112500Y-16351357D01*
X20112500Y-16094214D01*
X20383928Y-16379929D02*
X20355357Y-16394214D01*
X20298214Y-16394214D01*
X20269643Y-16379929D01*
X20255357Y-16351357D01*
X20255357Y-16237071D01*
X20269643Y-16208500D01*
X20298214Y-16194214D01*
X20355357Y-16194214D01*
X20383928Y-16208500D01*
X20398214Y-16237071D01*
X20398214Y-16265643D01*
X20255357Y-16294214D01*
X20512500Y-16379929D02*
X20541071Y-16394214D01*
X20598214Y-16394214D01*
X20626786Y-16379929D01*
X20641071Y-16351357D01*
X20641071Y-16337071D01*
X20626786Y-16308500D01*
X20598214Y-16294214D01*
X20555357Y-16294214D01*
X20526786Y-16279929D01*
X20512500Y-16251357D01*
X20512500Y-16237071D01*
X20526786Y-16208500D01*
X20555357Y-16194214D01*
X20598214Y-16194214D01*
X20626786Y-16208500D01*
X20741071Y-16508500D02*
X20755357Y-16494214D01*
X20783928Y-16451357D01*
X20798214Y-16422786D01*
X20812500Y-16379929D01*
X20826786Y-16308500D01*
X20826786Y-16251357D01*
X20812500Y-16179929D01*
X20798214Y-16137071D01*
X20783928Y-16108500D01*
X20755357Y-16065643D01*
X20741071Y-16051357D01*
X13342500Y-16599500D02*
X13342500Y-16709500D01*
X13287500Y-16654500D02*
X13397500Y-16654500D01*
X13841071Y-16790214D02*
X13669643Y-16790214D01*
X13755357Y-16790214D02*
X13755357Y-16490214D01*
X13726786Y-16533071D01*
X13698214Y-16561643D01*
X13669643Y-16575929D01*
X13969643Y-16761643D02*
X13983928Y-16775929D01*
X13969643Y-16790214D01*
X13955357Y-16775929D01*
X13969643Y-16761643D01*
X13969643Y-16790214D01*
X14269643Y-16790214D02*
X14098214Y-16790214D01*
X14183928Y-16790214D02*
X14183928Y-16490214D01*
X14155357Y-16533071D01*
X14126786Y-16561643D01*
X14098214Y-16575929D01*
X14455357Y-16490214D02*
X14483928Y-16490214D01*
X14512500Y-16504500D01*
X14526786Y-16518786D01*
X14541071Y-16547357D01*
X14555357Y-16604500D01*
X14555357Y-16675929D01*
X14541071Y-16733071D01*
X14526786Y-16761643D01*
X14512500Y-16775929D01*
X14483928Y-16790214D01*
X14455357Y-16790214D01*
X14426786Y-16775929D01*
X14412500Y-16761643D01*
X14398214Y-16733071D01*
X14383928Y-16675929D01*
X14383928Y-16604500D01*
X14398214Y-16547357D01*
X14412500Y-16518786D01*
X14426786Y-16504500D01*
X14455357Y-16490214D01*
X14741071Y-16490214D02*
X14769643Y-16490214D01*
X14798214Y-16504500D01*
X14812500Y-16518786D01*
X14826786Y-16547357D01*
X14841071Y-16604500D01*
X14841071Y-16675929D01*
X14826786Y-16733071D01*
X14812500Y-16761643D01*
X14798214Y-16775929D01*
X14769643Y-16790214D01*
X14741071Y-16790214D01*
X14712500Y-16775929D01*
X14698214Y-16761643D01*
X14683928Y-16733071D01*
X14669643Y-16675929D01*
X14669643Y-16604500D01*
X14683928Y-16547357D01*
X14698214Y-16518786D01*
X14712500Y-16504500D01*
X14741071Y-16490214D01*
X14969643Y-16790214D02*
X14969643Y-16590214D01*
X14969643Y-16618786D02*
X14983928Y-16604500D01*
X15012500Y-16590214D01*
X15055357Y-16590214D01*
X15083928Y-16604500D01*
X15098214Y-16633071D01*
X15098214Y-16790214D01*
X15098214Y-16633071D02*
X15112500Y-16604500D01*
X15141071Y-16590214D01*
X15183928Y-16590214D01*
X15212500Y-16604500D01*
X15226786Y-16633071D01*
X15226786Y-16790214D01*
X15369643Y-16790214D02*
X15369643Y-16590214D01*
X15369643Y-16618786D02*
X15383928Y-16604500D01*
X15412500Y-16590214D01*
X15455357Y-16590214D01*
X15483928Y-16604500D01*
X15498214Y-16633071D01*
X15498214Y-16790214D01*
X15498214Y-16633071D02*
X15512500Y-16604500D01*
X15541071Y-16590214D01*
X15583928Y-16590214D01*
X15612500Y-16604500D01*
X15626786Y-16633071D01*
X15626786Y-16790214D01*
X16212500Y-16475929D02*
X15955357Y-16861643D01*
X16598214Y-16490214D02*
X16626786Y-16490214D01*
X16655357Y-16504500D01*
X16669643Y-16518786D01*
X16683928Y-16547357D01*
X16698214Y-16604500D01*
X16698214Y-16675929D01*
X16683928Y-16733071D01*
X16669643Y-16761643D01*
X16655357Y-16775929D01*
X16626786Y-16790214D01*
X16598214Y-16790214D01*
X16569643Y-16775929D01*
X16555357Y-16761643D01*
X16541071Y-16733071D01*
X16526786Y-16675929D01*
X16526786Y-16604500D01*
X16541071Y-16547357D01*
X16555357Y-16518786D01*
X16569643Y-16504500D01*
X16598214Y-16490214D01*
X16826786Y-16761643D02*
X16841071Y-16775929D01*
X16826786Y-16790214D01*
X16812500Y-16775929D01*
X16826786Y-16761643D01*
X16826786Y-16790214D01*
X17026786Y-16490214D02*
X17055357Y-16490214D01*
X17083928Y-16504500D01*
X17098214Y-16518786D01*
X17112500Y-16547357D01*
X17126786Y-16604500D01*
X17126786Y-16675929D01*
X17112500Y-16733071D01*
X17098214Y-16761643D01*
X17083928Y-16775929D01*
X17055357Y-16790214D01*
X17026786Y-16790214D01*
X16998214Y-16775929D01*
X16983928Y-16761643D01*
X16969643Y-16733071D01*
X16955357Y-16675929D01*
X16955357Y-16604500D01*
X16969643Y-16547357D01*
X16983928Y-16518786D01*
X16998214Y-16504500D01*
X17026786Y-16490214D01*
X17383928Y-16590214D02*
X17383928Y-16790214D01*
X17312500Y-16475929D02*
X17241071Y-16690214D01*
X17426786Y-16690214D01*
X17512500Y-16490214D02*
X17698214Y-16490214D01*
X17598214Y-16604500D01*
X17641071Y-16604500D01*
X17669643Y-16618786D01*
X17683928Y-16633071D01*
X17698214Y-16661643D01*
X17698214Y-16733071D01*
X17683928Y-16761643D01*
X17669643Y-16775929D01*
X17641071Y-16790214D01*
X17555357Y-16790214D01*
X17526786Y-16775929D01*
X17512500Y-16761643D01*
X17798214Y-16490214D02*
X17983928Y-16490214D01*
X17883928Y-16604500D01*
X17926786Y-16604500D01*
X17955357Y-16618786D01*
X17969643Y-16633071D01*
X17983928Y-16661643D01*
X17983928Y-16733071D01*
X17969643Y-16761643D01*
X17955357Y-16775929D01*
X17926786Y-16790214D01*
X17841071Y-16790214D01*
X17812500Y-16775929D01*
X17798214Y-16761643D01*
X18098214Y-16490214D02*
X18098214Y-16547357D01*
X18212500Y-16490214D02*
X18212500Y-16547357D01*
X18655357Y-16904500D02*
X18641071Y-16890214D01*
X18612500Y-16847357D01*
X18598214Y-16818786D01*
X18583928Y-16775929D01*
X18569643Y-16704500D01*
X18569643Y-16647357D01*
X18583928Y-16575929D01*
X18598214Y-16533071D01*
X18612500Y-16504500D01*
X18641071Y-16461643D01*
X18655357Y-16447357D01*
X18898214Y-16590214D02*
X18898214Y-16790214D01*
X18826786Y-16475929D02*
X18755357Y-16690214D01*
X18941071Y-16690214D01*
X19283928Y-16790214D02*
X19283928Y-16490214D01*
X19412500Y-16790214D02*
X19412500Y-16633071D01*
X19398214Y-16604500D01*
X19369643Y-16590214D01*
X19326786Y-16590214D01*
X19298214Y-16604500D01*
X19283928Y-16618786D01*
X19598214Y-16790214D02*
X19569643Y-16775929D01*
X19555357Y-16761643D01*
X19541071Y-16733071D01*
X19541071Y-16647357D01*
X19555357Y-16618786D01*
X19569643Y-16604500D01*
X19598214Y-16590214D01*
X19641071Y-16590214D01*
X19669643Y-16604500D01*
X19683928Y-16618786D01*
X19698214Y-16647357D01*
X19698214Y-16733071D01*
X19683928Y-16761643D01*
X19669643Y-16775929D01*
X19641071Y-16790214D01*
X19598214Y-16790214D01*
X19869643Y-16790214D02*
X19841071Y-16775929D01*
X19826786Y-16747357D01*
X19826786Y-16490214D01*
X20098214Y-16775929D02*
X20069643Y-16790214D01*
X20012500Y-16790214D01*
X19983928Y-16775929D01*
X19969643Y-16747357D01*
X19969643Y-16633071D01*
X19983928Y-16604500D01*
X20012500Y-16590214D01*
X20069643Y-16590214D01*
X20098214Y-16604500D01*
X20112500Y-16633071D01*
X20112500Y-16661643D01*
X19969643Y-16690214D01*
X20226786Y-16775929D02*
X20255357Y-16790214D01*
X20312500Y-16790214D01*
X20341071Y-16775929D01*
X20355357Y-16747357D01*
X20355357Y-16733071D01*
X20341071Y-16704500D01*
X20312500Y-16690214D01*
X20269643Y-16690214D01*
X20241071Y-16675929D01*
X20226786Y-16647357D01*
X20226786Y-16633071D01*
X20241071Y-16604500D01*
X20269643Y-16590214D01*
X20312500Y-16590214D01*
X20341071Y-16604500D01*
X20455357Y-16904500D02*
X20469643Y-16890214D01*
X20498214Y-16847357D01*
X20512500Y-16818786D01*
X20526786Y-16775929D01*
X20541071Y-16704500D01*
X20541071Y-16647357D01*
X20526786Y-16575929D01*
X20512500Y-16533071D01*
X20498214Y-16504500D01*
X20469643Y-16461643D01*
X20455357Y-16447357D01*
X13379927Y-17092927D02*
X13379927Y-17008073D01*
X13295073Y-17008073D01*
X13295073Y-17092927D01*
X13379927Y-17092927D01*
X13841071Y-17186214D02*
X13669643Y-17186214D01*
X13755357Y-17186214D02*
X13755357Y-16886214D01*
X13726786Y-16929072D01*
X13698214Y-16957643D01*
X13669643Y-16971929D01*
X13969643Y-17157643D02*
X13983928Y-17171929D01*
X13969643Y-17186214D01*
X13955357Y-17171929D01*
X13969643Y-17157643D01*
X13969643Y-17186214D01*
X14098214Y-16914786D02*
X14112500Y-16900500D01*
X14141071Y-16886214D01*
X14212500Y-16886214D01*
X14241071Y-16900500D01*
X14255357Y-16914786D01*
X14269643Y-16943357D01*
X14269643Y-16971929D01*
X14255357Y-17014786D01*
X14083928Y-17186214D01*
X14269643Y-17186214D01*
X14455357Y-16886214D02*
X14483928Y-16886214D01*
X14512500Y-16900500D01*
X14526786Y-16914786D01*
X14541071Y-16943357D01*
X14555357Y-17000500D01*
X14555357Y-17071929D01*
X14541071Y-17129072D01*
X14526786Y-17157643D01*
X14512500Y-17171929D01*
X14483928Y-17186214D01*
X14455357Y-17186214D01*
X14426786Y-17171929D01*
X14412500Y-17157643D01*
X14398214Y-17129072D01*
X14383928Y-17071929D01*
X14383928Y-17000500D01*
X14398214Y-16943357D01*
X14412500Y-16914786D01*
X14426786Y-16900500D01*
X14455357Y-16886214D01*
X14741071Y-16886214D02*
X14769643Y-16886214D01*
X14798214Y-16900500D01*
X14812500Y-16914786D01*
X14826786Y-16943357D01*
X14841071Y-17000500D01*
X14841071Y-17071929D01*
X14826786Y-17129072D01*
X14812500Y-17157643D01*
X14798214Y-17171929D01*
X14769643Y-17186214D01*
X14741071Y-17186214D01*
X14712500Y-17171929D01*
X14698214Y-17157643D01*
X14683928Y-17129072D01*
X14669643Y-17071929D01*
X14669643Y-17000500D01*
X14683928Y-16943357D01*
X14698214Y-16914786D01*
X14712500Y-16900500D01*
X14741071Y-16886214D01*
X14969643Y-17186214D02*
X14969643Y-16986214D01*
X14969643Y-17014786D02*
X14983928Y-17000500D01*
X15012500Y-16986214D01*
X15055357Y-16986214D01*
X15083928Y-17000500D01*
X15098214Y-17029072D01*
X15098214Y-17186214D01*
X15098214Y-17029072D02*
X15112500Y-17000500D01*
X15141071Y-16986214D01*
X15183928Y-16986214D01*
X15212500Y-17000500D01*
X15226786Y-17029072D01*
X15226786Y-17186214D01*
X15369643Y-17186214D02*
X15369643Y-16986214D01*
X15369643Y-17014786D02*
X15383928Y-17000500D01*
X15412500Y-16986214D01*
X15455357Y-16986214D01*
X15483928Y-17000500D01*
X15498214Y-17029072D01*
X15498214Y-17186214D01*
X15498214Y-17029072D02*
X15512500Y-17000500D01*
X15541071Y-16986214D01*
X15583928Y-16986214D01*
X15612500Y-17000500D01*
X15626786Y-17029072D01*
X15626786Y-17186214D01*
X16212500Y-16871929D02*
X15955357Y-17257643D01*
X16598214Y-16886214D02*
X16626786Y-16886214D01*
X16655357Y-16900500D01*
X16669643Y-16914786D01*
X16683928Y-16943357D01*
X16698214Y-17000500D01*
X16698214Y-17071929D01*
X16683928Y-17129072D01*
X16669643Y-17157643D01*
X16655357Y-17171929D01*
X16626786Y-17186214D01*
X16598214Y-17186214D01*
X16569643Y-17171929D01*
X16555357Y-17157643D01*
X16541071Y-17129072D01*
X16526786Y-17071929D01*
X16526786Y-17000500D01*
X16541071Y-16943357D01*
X16555357Y-16914786D01*
X16569643Y-16900500D01*
X16598214Y-16886214D01*
X16826786Y-17157643D02*
X16841071Y-17171929D01*
X16826786Y-17186214D01*
X16812500Y-17171929D01*
X16826786Y-17157643D01*
X16826786Y-17186214D01*
X17026786Y-16886214D02*
X17055357Y-16886214D01*
X17083928Y-16900500D01*
X17098214Y-16914786D01*
X17112500Y-16943357D01*
X17126786Y-17000500D01*
X17126786Y-17071929D01*
X17112500Y-17129072D01*
X17098214Y-17157643D01*
X17083928Y-17171929D01*
X17055357Y-17186214D01*
X17026786Y-17186214D01*
X16998214Y-17171929D01*
X16983928Y-17157643D01*
X16969643Y-17129072D01*
X16955357Y-17071929D01*
X16955357Y-17000500D01*
X16969643Y-16943357D01*
X16983928Y-16914786D01*
X16998214Y-16900500D01*
X17026786Y-16886214D01*
X17383928Y-16986214D02*
X17383928Y-17186214D01*
X17312500Y-16871929D02*
X17241071Y-17086214D01*
X17426786Y-17086214D01*
X17512500Y-16886214D02*
X17712500Y-16886214D01*
X17583928Y-17186214D01*
X17812500Y-16914786D02*
X17826786Y-16900500D01*
X17855357Y-16886214D01*
X17926786Y-16886214D01*
X17955357Y-16900500D01*
X17969643Y-16914786D01*
X17983928Y-16943357D01*
X17983928Y-16971929D01*
X17969643Y-17014786D01*
X17798214Y-17186214D01*
X17983928Y-17186214D01*
X18098214Y-16886214D02*
X18098214Y-16943357D01*
X18212500Y-16886214D02*
X18212500Y-16943357D01*
X18655357Y-17300500D02*
X18641071Y-17286214D01*
X18612500Y-17243357D01*
X18598214Y-17214786D01*
X18583928Y-17171929D01*
X18569643Y-17100500D01*
X18569643Y-17043357D01*
X18583928Y-16971929D01*
X18598214Y-16929072D01*
X18612500Y-16900500D01*
X18641071Y-16857643D01*
X18655357Y-16843357D01*
X18755357Y-16914786D02*
X18769643Y-16900500D01*
X18798214Y-16886214D01*
X18869643Y-16886214D01*
X18898214Y-16900500D01*
X18912500Y-16914786D01*
X18926786Y-16943357D01*
X18926786Y-16971929D01*
X18912500Y-17014786D01*
X18741071Y-17186214D01*
X18926786Y-17186214D01*
X19112500Y-16886214D02*
X19141071Y-16886214D01*
X19169643Y-16900500D01*
X19183928Y-16914786D01*
X19198214Y-16943357D01*
X19212500Y-17000500D01*
X19212500Y-17071929D01*
X19198214Y-17129072D01*
X19183928Y-17157643D01*
X19169643Y-17171929D01*
X19141071Y-17186214D01*
X19112500Y-17186214D01*
X19083928Y-17171929D01*
X19069643Y-17157643D01*
X19055357Y-17129072D01*
X19041071Y-17071929D01*
X19041071Y-17000500D01*
X19055357Y-16943357D01*
X19069643Y-16914786D01*
X19083928Y-16900500D01*
X19112500Y-16886214D01*
X19569643Y-17186214D02*
X19569643Y-16886214D01*
X19698214Y-17186214D02*
X19698214Y-17029072D01*
X19683928Y-17000500D01*
X19655357Y-16986214D01*
X19612500Y-16986214D01*
X19583928Y-17000500D01*
X19569643Y-17014786D01*
X19883928Y-17186214D02*
X19855357Y-17171929D01*
X19841071Y-17157643D01*
X19826786Y-17129072D01*
X19826786Y-17043357D01*
X19841071Y-17014786D01*
X19855357Y-17000500D01*
X19883928Y-16986214D01*
X19926786Y-16986214D01*
X19955357Y-17000500D01*
X19969643Y-17014786D01*
X19983928Y-17043357D01*
X19983928Y-17129072D01*
X19969643Y-17157643D01*
X19955357Y-17171929D01*
X19926786Y-17186214D01*
X19883928Y-17186214D01*
X20155357Y-17186214D02*
X20126786Y-17171929D01*
X20112500Y-17143357D01*
X20112500Y-16886214D01*
X20383928Y-17171929D02*
X20355357Y-17186214D01*
X20298214Y-17186214D01*
X20269643Y-17171929D01*
X20255357Y-17143357D01*
X20255357Y-17029072D01*
X20269643Y-17000500D01*
X20298214Y-16986214D01*
X20355357Y-16986214D01*
X20383928Y-17000500D01*
X20398214Y-17029072D01*
X20398214Y-17057643D01*
X20255357Y-17086214D01*
X20512500Y-17171929D02*
X20541071Y-17186214D01*
X20598214Y-17186214D01*
X20626786Y-17171929D01*
X20641071Y-17143357D01*
X20641071Y-17129072D01*
X20626786Y-17100500D01*
X20598214Y-17086214D01*
X20555357Y-17086214D01*
X20526786Y-17071929D01*
X20512500Y-17043357D01*
X20512500Y-17029072D01*
X20526786Y-17000500D01*
X20555357Y-16986214D01*
X20598214Y-16986214D01*
X20626786Y-17000500D01*
X20741071Y-17300500D02*
X20755357Y-17286214D01*
X20783928Y-17243357D01*
X20798214Y-17214786D01*
X20812500Y-17171929D01*
X20826786Y-17100500D01*
X20826786Y-17043357D01*
X20812500Y-16971929D01*
X20798214Y-16929072D01*
X20783928Y-16900500D01*
X20755357Y-16857643D01*
X20741071Y-16843357D01*
X13302500Y-17541500D02*
X13397500Y-17446500D01*
X13302500Y-17351500D01*
X13207500Y-17446500D01*
X13302500Y-17541500D01*
X13841071Y-17582214D02*
X13669643Y-17582214D01*
X13755357Y-17582214D02*
X13755357Y-17282214D01*
X13726786Y-17325072D01*
X13698214Y-17353643D01*
X13669643Y-17367929D01*
X13969643Y-17553643D02*
X13983928Y-17567929D01*
X13969643Y-17582214D01*
X13955357Y-17567929D01*
X13969643Y-17553643D01*
X13969643Y-17582214D01*
X14126786Y-17582214D02*
X14183928Y-17582214D01*
X14212500Y-17567929D01*
X14226786Y-17553643D01*
X14255357Y-17510786D01*
X14269643Y-17453643D01*
X14269643Y-17339357D01*
X14255357Y-17310786D01*
X14241071Y-17296500D01*
X14212500Y-17282214D01*
X14155357Y-17282214D01*
X14126786Y-17296500D01*
X14112500Y-17310786D01*
X14098214Y-17339357D01*
X14098214Y-17410786D01*
X14112500Y-17439357D01*
X14126786Y-17453643D01*
X14155357Y-17467929D01*
X14212500Y-17467929D01*
X14241071Y-17453643D01*
X14255357Y-17439357D01*
X14269643Y-17410786D01*
X14455357Y-17282214D02*
X14483928Y-17282214D01*
X14512500Y-17296500D01*
X14526786Y-17310786D01*
X14541071Y-17339357D01*
X14555357Y-17396500D01*
X14555357Y-17467929D01*
X14541071Y-17525072D01*
X14526786Y-17553643D01*
X14512500Y-17567929D01*
X14483928Y-17582214D01*
X14455357Y-17582214D01*
X14426786Y-17567929D01*
X14412500Y-17553643D01*
X14398214Y-17525072D01*
X14383928Y-17467929D01*
X14383928Y-17396500D01*
X14398214Y-17339357D01*
X14412500Y-17310786D01*
X14426786Y-17296500D01*
X14455357Y-17282214D01*
X14741071Y-17282214D02*
X14769643Y-17282214D01*
X14798214Y-17296500D01*
X14812500Y-17310786D01*
X14826786Y-17339357D01*
X14841071Y-17396500D01*
X14841071Y-17467929D01*
X14826786Y-17525072D01*
X14812500Y-17553643D01*
X14798214Y-17567929D01*
X14769643Y-17582214D01*
X14741071Y-17582214D01*
X14712500Y-17567929D01*
X14698214Y-17553643D01*
X14683928Y-17525072D01*
X14669643Y-17467929D01*
X14669643Y-17396500D01*
X14683928Y-17339357D01*
X14698214Y-17310786D01*
X14712500Y-17296500D01*
X14741071Y-17282214D01*
X14969643Y-17582214D02*
X14969643Y-17382214D01*
X14969643Y-17410786D02*
X14983928Y-17396500D01*
X15012500Y-17382214D01*
X15055357Y-17382214D01*
X15083928Y-17396500D01*
X15098214Y-17425072D01*
X15098214Y-17582214D01*
X15098214Y-17425072D02*
X15112500Y-17396500D01*
X15141071Y-17382214D01*
X15183928Y-17382214D01*
X15212500Y-17396500D01*
X15226786Y-17425072D01*
X15226786Y-17582214D01*
X15369643Y-17582214D02*
X15369643Y-17382214D01*
X15369643Y-17410786D02*
X15383928Y-17396500D01*
X15412500Y-17382214D01*
X15455357Y-17382214D01*
X15483928Y-17396500D01*
X15498214Y-17425072D01*
X15498214Y-17582214D01*
X15498214Y-17425072D02*
X15512500Y-17396500D01*
X15541071Y-17382214D01*
X15583928Y-17382214D01*
X15612500Y-17396500D01*
X15626786Y-17425072D01*
X15626786Y-17582214D01*
X16212500Y-17267929D02*
X15955357Y-17653643D01*
X16598214Y-17282214D02*
X16626786Y-17282214D01*
X16655357Y-17296500D01*
X16669643Y-17310786D01*
X16683928Y-17339357D01*
X16698214Y-17396500D01*
X16698214Y-17467929D01*
X16683928Y-17525072D01*
X16669643Y-17553643D01*
X16655357Y-17567929D01*
X16626786Y-17582214D01*
X16598214Y-17582214D01*
X16569643Y-17567929D01*
X16555357Y-17553643D01*
X16541071Y-17525072D01*
X16526786Y-17467929D01*
X16526786Y-17396500D01*
X16541071Y-17339357D01*
X16555357Y-17310786D01*
X16569643Y-17296500D01*
X16598214Y-17282214D01*
X16826786Y-17553643D02*
X16841071Y-17567929D01*
X16826786Y-17582214D01*
X16812500Y-17567929D01*
X16826786Y-17553643D01*
X16826786Y-17582214D01*
X17026786Y-17282214D02*
X17055357Y-17282214D01*
X17083928Y-17296500D01*
X17098214Y-17310786D01*
X17112500Y-17339357D01*
X17126786Y-17396500D01*
X17126786Y-17467929D01*
X17112500Y-17525072D01*
X17098214Y-17553643D01*
X17083928Y-17567929D01*
X17055357Y-17582214D01*
X17026786Y-17582214D01*
X16998214Y-17567929D01*
X16983928Y-17553643D01*
X16969643Y-17525072D01*
X16955357Y-17467929D01*
X16955357Y-17396500D01*
X16969643Y-17339357D01*
X16983928Y-17310786D01*
X16998214Y-17296500D01*
X17026786Y-17282214D01*
X17226786Y-17282214D02*
X17426786Y-17282214D01*
X17298214Y-17582214D01*
X17669643Y-17382214D02*
X17669643Y-17582214D01*
X17598214Y-17267929D02*
X17526786Y-17482214D01*
X17712500Y-17482214D01*
X17869643Y-17410786D02*
X17841071Y-17396500D01*
X17826786Y-17382214D01*
X17812500Y-17353643D01*
X17812500Y-17339357D01*
X17826786Y-17310786D01*
X17841071Y-17296500D01*
X17869643Y-17282214D01*
X17926786Y-17282214D01*
X17955357Y-17296500D01*
X17969643Y-17310786D01*
X17983928Y-17339357D01*
X17983928Y-17353643D01*
X17969643Y-17382214D01*
X17955357Y-17396500D01*
X17926786Y-17410786D01*
X17869643Y-17410786D01*
X17841071Y-17425072D01*
X17826786Y-17439357D01*
X17812500Y-17467929D01*
X17812500Y-17525072D01*
X17826786Y-17553643D01*
X17841071Y-17567929D01*
X17869643Y-17582214D01*
X17926786Y-17582214D01*
X17955357Y-17567929D01*
X17969643Y-17553643D01*
X17983928Y-17525072D01*
X17983928Y-17467929D01*
X17969643Y-17439357D01*
X17955357Y-17425072D01*
X17926786Y-17410786D01*
X18098214Y-17282214D02*
X18098214Y-17339357D01*
X18212500Y-17282214D02*
X18212500Y-17339357D01*
X18655357Y-17696500D02*
X18641071Y-17682214D01*
X18612500Y-17639357D01*
X18598214Y-17610786D01*
X18583928Y-17567929D01*
X18569643Y-17496500D01*
X18569643Y-17439357D01*
X18583928Y-17367929D01*
X18598214Y-17325072D01*
X18612500Y-17296500D01*
X18641071Y-17253643D01*
X18655357Y-17239357D01*
X18898214Y-17282214D02*
X18841071Y-17282214D01*
X18812500Y-17296500D01*
X18798214Y-17310786D01*
X18769643Y-17353643D01*
X18755357Y-17410786D01*
X18755357Y-17525072D01*
X18769643Y-17553643D01*
X18783928Y-17567929D01*
X18812500Y-17582214D01*
X18869643Y-17582214D01*
X18898214Y-17567929D01*
X18912500Y-17553643D01*
X18926786Y-17525072D01*
X18926786Y-17453643D01*
X18912500Y-17425072D01*
X18898214Y-17410786D01*
X18869643Y-17396500D01*
X18812500Y-17396500D01*
X18783928Y-17410786D01*
X18769643Y-17425072D01*
X18755357Y-17453643D01*
X19283928Y-17582214D02*
X19283928Y-17282214D01*
X19412500Y-17582214D02*
X19412500Y-17425072D01*
X19398214Y-17396500D01*
X19369643Y-17382214D01*
X19326786Y-17382214D01*
X19298214Y-17396500D01*
X19283928Y-17410786D01*
X19598214Y-17582214D02*
X19569643Y-17567929D01*
X19555357Y-17553643D01*
X19541071Y-17525072D01*
X19541071Y-17439357D01*
X19555357Y-17410786D01*
X19569643Y-17396500D01*
X19598214Y-17382214D01*
X19641071Y-17382214D01*
X19669643Y-17396500D01*
X19683928Y-17410786D01*
X19698214Y-17439357D01*
X19698214Y-17525072D01*
X19683928Y-17553643D01*
X19669643Y-17567929D01*
X19641071Y-17582214D01*
X19598214Y-17582214D01*
X19869643Y-17582214D02*
X19841071Y-17567929D01*
X19826786Y-17539357D01*
X19826786Y-17282214D01*
X20098214Y-17567929D02*
X20069643Y-17582214D01*
X20012500Y-17582214D01*
X19983928Y-17567929D01*
X19969643Y-17539357D01*
X19969643Y-17425072D01*
X19983928Y-17396500D01*
X20012500Y-17382214D01*
X20069643Y-17382214D01*
X20098214Y-17396500D01*
X20112500Y-17425072D01*
X20112500Y-17453643D01*
X19969643Y-17482214D01*
X20226786Y-17567929D02*
X20255357Y-17582214D01*
X20312500Y-17582214D01*
X20341071Y-17567929D01*
X20355357Y-17539357D01*
X20355357Y-17525072D01*
X20341071Y-17496500D01*
X20312500Y-17482214D01*
X20269643Y-17482214D01*
X20241071Y-17467929D01*
X20226786Y-17439357D01*
X20226786Y-17425072D01*
X20241071Y-17396500D01*
X20269643Y-17382214D01*
X20312500Y-17382214D01*
X20341071Y-17396500D01*
X20455357Y-17696500D02*
X20469643Y-17682214D01*
X20498214Y-17639357D01*
X20512500Y-17610786D01*
X20526786Y-17567929D01*
X20541071Y-17496500D01*
X20541071Y-17439357D01*
X20526786Y-17367929D01*
X20512500Y-17325072D01*
X20498214Y-17296500D01*
X20469643Y-17253643D01*
X20455357Y-17239357D01*
M02*
