%FSLAX45Y45*%
G04 Gerber Fmt 4.5, Leading zero omitted, Abs format (unit mm)*
G04 Created by KiCad (PCBNEW (6.0.0)) date 2022-01-19 17:05:03*
%MOMM*%
%LPD*%
G01*
G04 APERTURE LIST*
%TA.AperFunction,Profile*%
%ADD10C,0.050000*%
%TD*%
%ADD11C,0.200000*%
%ADD12C,0.076200*%
%ADD13C,0.101600*%
%ADD14C,0.110000*%
%ADD15C,0.120000*%
%ADD16C,0.190000*%
G04 APERTURE END LIST*
D10*
X18610000Y-13190000D02*
G75*
G03*
X18610000Y-13190000I-110000J0D01*
G01*
X13810000Y-9800000D02*
G75*
G03*
X13810000Y-9800000I-110000J0D01*
G01*
X18610000Y-9800000D02*
G75*
G03*
X18610000Y-9800000I-110000J0D01*
G01*
X18800000Y-9500000D02*
X18800000Y-14900000D01*
X13400000Y-9500000D02*
X18800000Y-9500000D01*
X13400000Y-14900000D02*
X13400000Y-9500000D01*
X18800000Y-14900000D02*
X13400000Y-14900000D01*
D11*
D12*
X13661900Y-10211900D02*
X13738100Y-10288100D01*
X13738100Y-10211900D02*
X13661900Y-10288100D01*
X13661900Y-10911900D02*
X13738100Y-10988100D01*
X13738100Y-10911900D02*
X13661900Y-10988100D01*
D13*
X13707800Y-12111000D02*
G75*
G03*
X13707800Y-12111000I-50800J0D01*
G01*
X13707800Y-12365000D02*
G75*
G03*
X13707800Y-12365000I-50800J0D01*
G01*
X13707800Y-12619000D02*
G75*
G03*
X13707800Y-12619000I-50800J0D01*
G01*
X13707800Y-12873000D02*
G75*
G03*
X13707800Y-12873000I-50800J0D01*
G01*
X13707800Y-13127000D02*
G75*
G03*
X13707800Y-13127000I-50800J0D01*
G01*
X13707800Y-13381000D02*
G75*
G03*
X13707800Y-13381000I-50800J0D01*
G01*
X13707800Y-13635000D02*
G75*
G03*
X13707800Y-13635000I-50800J0D01*
G01*
X13707800Y-13889000D02*
G75*
G03*
X13707800Y-13889000I-50800J0D01*
G01*
X15993800Y-12111000D02*
G75*
G03*
X15993800Y-12111000I-50800J0D01*
G01*
X15993800Y-12365000D02*
G75*
G03*
X15993800Y-12365000I-50800J0D01*
G01*
X15993800Y-12619000D02*
G75*
G03*
X15993800Y-12619000I-50800J0D01*
G01*
X15993800Y-12873000D02*
G75*
G03*
X15993800Y-12873000I-50800J0D01*
G01*
X15993800Y-13127000D02*
G75*
G03*
X15993800Y-13127000I-50800J0D01*
G01*
X15993800Y-13381000D02*
G75*
G03*
X15993800Y-13381000I-50800J0D01*
G01*
X15993800Y-13635000D02*
G75*
G03*
X15993800Y-13635000I-50800J0D01*
G01*
X15993800Y-13889000D02*
G75*
G03*
X15993800Y-13889000I-50800J0D01*
G01*
D14*
X18400000Y-10329000D02*
X18400000Y-10439000D01*
X18345000Y-10384000D02*
X18455000Y-10384000D01*
X18400000Y-11345000D02*
X18400000Y-11455000D01*
X18345000Y-11400000D02*
X18455000Y-11400000D01*
X18400000Y-11729000D02*
X18400000Y-11839000D01*
X18345000Y-11784000D02*
X18455000Y-11784000D01*
X18400000Y-12745000D02*
X18400000Y-12855000D01*
X18345000Y-12800000D02*
X18455000Y-12800000D01*
D15*
X14192427Y-10242427D02*
X14192427Y-10157573D01*
X14107573Y-10157573D01*
X14107573Y-10242427D01*
X14192427Y-10242427D01*
X14192427Y-11042427D02*
X14192427Y-10957573D01*
X14107573Y-10957573D01*
X14107573Y-11042427D01*
X14192427Y-11042427D01*
X14492427Y-10242427D02*
X14492427Y-10157573D01*
X14407573Y-10157573D01*
X14407573Y-10242427D01*
X14492427Y-10242427D01*
X14492427Y-11042427D02*
X14492427Y-10957573D01*
X14407573Y-10957573D01*
X14407573Y-11042427D01*
X14492427Y-11042427D01*
X14792427Y-10242427D02*
X14792427Y-10157573D01*
X14707573Y-10157573D01*
X14707573Y-10242427D01*
X14792427Y-10242427D01*
X14792427Y-11042427D02*
X14792427Y-10957573D01*
X14707573Y-10957573D01*
X14707573Y-11042427D01*
X14792427Y-11042427D01*
X15092427Y-10242427D02*
X15092427Y-10157573D01*
X15007573Y-10157573D01*
X15007573Y-10242427D01*
X15092427Y-10242427D01*
X15092427Y-11042427D02*
X15092427Y-10957573D01*
X15007573Y-10957573D01*
X15007573Y-11042427D01*
X15092427Y-11042427D01*
X15392427Y-10242427D02*
X15392427Y-10157573D01*
X15307573Y-10157573D01*
X15307573Y-10242427D01*
X15392427Y-10242427D01*
X15392427Y-11042427D02*
X15392427Y-10957573D01*
X15307573Y-10957573D01*
X15307573Y-11042427D01*
X15392427Y-11042427D01*
X15692427Y-10242427D02*
X15692427Y-10157573D01*
X15607573Y-10157573D01*
X15607573Y-10242427D01*
X15692427Y-10242427D01*
X15692427Y-11042427D02*
X15692427Y-10957573D01*
X15607573Y-10957573D01*
X15607573Y-11042427D01*
X15692427Y-11042427D01*
X16442427Y-12292427D02*
X16442427Y-12207573D01*
X16357573Y-12207573D01*
X16357573Y-12292427D01*
X16442427Y-12292427D01*
X16442427Y-14542427D02*
X16442427Y-14457573D01*
X16357573Y-14457573D01*
X16357573Y-14542427D01*
X16442427Y-14542427D01*
X16742427Y-12292427D02*
X16742427Y-12207573D01*
X16657573Y-12207573D01*
X16657573Y-12292427D01*
X16742427Y-12292427D01*
X16942427Y-11642427D02*
X16942427Y-11557573D01*
X16857573Y-11557573D01*
X16857573Y-11642427D01*
X16942427Y-11642427D01*
X17342427Y-11642427D02*
X17342427Y-11557573D01*
X17257573Y-11557573D01*
X17257573Y-11642427D01*
X17342427Y-11642427D01*
X17542427Y-12292427D02*
X17542427Y-12207573D01*
X17457573Y-12207573D01*
X17457573Y-12292427D01*
X17542427Y-12292427D01*
X17842427Y-12292427D02*
X17842427Y-12207573D01*
X17757573Y-12207573D01*
X17757573Y-12292427D01*
X17842427Y-12292427D01*
X17842427Y-14542427D02*
X17842427Y-14457573D01*
X17757573Y-14457573D01*
X17757573Y-14542427D01*
X17842427Y-14542427D01*
D16*
X18240000Y-13795000D02*
X18335000Y-13700000D01*
X18240000Y-13605000D01*
X18145000Y-13700000D01*
X18240000Y-13795000D01*
X18240000Y-14195000D02*
X18335000Y-14100000D01*
X18240000Y-14005000D01*
X18145000Y-14100000D01*
X18240000Y-14195000D01*
X18240000Y-14595000D02*
X18335000Y-14500000D01*
X18240000Y-14405000D01*
X18145000Y-14500000D01*
X18240000Y-14595000D01*
X18500000Y-13795000D02*
X18595000Y-13700000D01*
X18500000Y-13605000D01*
X18405000Y-13700000D01*
X18500000Y-13795000D01*
X18500000Y-14195000D02*
X18595000Y-14100000D01*
X18500000Y-14005000D01*
X18405000Y-14100000D01*
X18500000Y-14195000D01*
X18500000Y-14595000D02*
X18595000Y-14500000D01*
X18500000Y-14405000D01*
X18405000Y-14500000D01*
X18500000Y-14595000D01*
D11*
X13655119Y-15212976D02*
X13655119Y-15012976D01*
X13702738Y-15012976D01*
X13731309Y-15022500D01*
X13750357Y-15041548D01*
X13759881Y-15060595D01*
X13769405Y-15098690D01*
X13769405Y-15127262D01*
X13759881Y-15165357D01*
X13750357Y-15184405D01*
X13731309Y-15203452D01*
X13702738Y-15212976D01*
X13655119Y-15212976D01*
X13855119Y-15212976D02*
X13855119Y-15079643D01*
X13855119Y-15117738D02*
X13864643Y-15098690D01*
X13874167Y-15089167D01*
X13893214Y-15079643D01*
X13912262Y-15079643D01*
X13978928Y-15212976D02*
X13978928Y-15079643D01*
X13978928Y-15012976D02*
X13969405Y-15022500D01*
X13978928Y-15032024D01*
X13988452Y-15022500D01*
X13978928Y-15012976D01*
X13978928Y-15032024D01*
X14102738Y-15212976D02*
X14083690Y-15203452D01*
X14074167Y-15184405D01*
X14074167Y-15012976D01*
X14207500Y-15212976D02*
X14188452Y-15203452D01*
X14178928Y-15184405D01*
X14178928Y-15012976D01*
X14436071Y-15212976D02*
X14436071Y-15012976D01*
X14502738Y-15155833D01*
X14569405Y-15012976D01*
X14569405Y-15212976D01*
X14750357Y-15212976D02*
X14750357Y-15108214D01*
X14740833Y-15089167D01*
X14721786Y-15079643D01*
X14683690Y-15079643D01*
X14664643Y-15089167D01*
X14750357Y-15203452D02*
X14731309Y-15212976D01*
X14683690Y-15212976D01*
X14664643Y-15203452D01*
X14655119Y-15184405D01*
X14655119Y-15165357D01*
X14664643Y-15146309D01*
X14683690Y-15136786D01*
X14731309Y-15136786D01*
X14750357Y-15127262D01*
X14845595Y-15079643D02*
X14845595Y-15279643D01*
X14845595Y-15089167D02*
X14864643Y-15079643D01*
X14902738Y-15079643D01*
X14921786Y-15089167D01*
X14931309Y-15098690D01*
X14940833Y-15117738D01*
X14940833Y-15174881D01*
X14931309Y-15193928D01*
X14921786Y-15203452D01*
X14902738Y-15212976D01*
X14864643Y-15212976D01*
X14845595Y-15203452D01*
X15026548Y-15193928D02*
X15036071Y-15203452D01*
X15026548Y-15212976D01*
X15017024Y-15203452D01*
X15026548Y-15193928D01*
X15026548Y-15212976D01*
X15026548Y-15089167D02*
X15036071Y-15098690D01*
X15026548Y-15108214D01*
X15017024Y-15098690D01*
X15026548Y-15089167D01*
X15026548Y-15108214D01*
D12*
X13321300Y-15504400D02*
X13397500Y-15580600D01*
X13397500Y-15504400D02*
X13321300Y-15580600D01*
D11*
X13693214Y-15432976D02*
X13712262Y-15432976D01*
X13731309Y-15442500D01*
X13740833Y-15452024D01*
X13750357Y-15471071D01*
X13759881Y-15509167D01*
X13759881Y-15556786D01*
X13750357Y-15594881D01*
X13740833Y-15613928D01*
X13731309Y-15623452D01*
X13712262Y-15632976D01*
X13693214Y-15632976D01*
X13674167Y-15623452D01*
X13664643Y-15613928D01*
X13655119Y-15594881D01*
X13645595Y-15556786D01*
X13645595Y-15509167D01*
X13655119Y-15471071D01*
X13664643Y-15452024D01*
X13674167Y-15442500D01*
X13693214Y-15432976D01*
X13845595Y-15613928D02*
X13855119Y-15623452D01*
X13845595Y-15632976D01*
X13836071Y-15623452D01*
X13845595Y-15613928D01*
X13845595Y-15632976D01*
X13921786Y-15432976D02*
X14055119Y-15432976D01*
X13969405Y-15632976D01*
X14217024Y-15432976D02*
X14178928Y-15432976D01*
X14159881Y-15442500D01*
X14150357Y-15452024D01*
X14131309Y-15480595D01*
X14121786Y-15518690D01*
X14121786Y-15594881D01*
X14131309Y-15613928D01*
X14140833Y-15623452D01*
X14159881Y-15632976D01*
X14197976Y-15632976D01*
X14217024Y-15623452D01*
X14226548Y-15613928D01*
X14236071Y-15594881D01*
X14236071Y-15547262D01*
X14226548Y-15528214D01*
X14217024Y-15518690D01*
X14197976Y-15509167D01*
X14159881Y-15509167D01*
X14140833Y-15518690D01*
X14131309Y-15528214D01*
X14121786Y-15547262D01*
X14312262Y-15452024D02*
X14321786Y-15442500D01*
X14340833Y-15432976D01*
X14388452Y-15432976D01*
X14407500Y-15442500D01*
X14417024Y-15452024D01*
X14426548Y-15471071D01*
X14426548Y-15490119D01*
X14417024Y-15518690D01*
X14302738Y-15632976D01*
X14426548Y-15632976D01*
X14512262Y-15632976D02*
X14512262Y-15499643D01*
X14512262Y-15518690D02*
X14521786Y-15509167D01*
X14540833Y-15499643D01*
X14569405Y-15499643D01*
X14588452Y-15509167D01*
X14597976Y-15528214D01*
X14597976Y-15632976D01*
X14597976Y-15528214D02*
X14607500Y-15509167D01*
X14626548Y-15499643D01*
X14655119Y-15499643D01*
X14674167Y-15509167D01*
X14683690Y-15528214D01*
X14683690Y-15632976D01*
X14778928Y-15632976D02*
X14778928Y-15499643D01*
X14778928Y-15518690D02*
X14788452Y-15509167D01*
X14807500Y-15499643D01*
X14836071Y-15499643D01*
X14855119Y-15509167D01*
X14864643Y-15528214D01*
X14864643Y-15632976D01*
X14864643Y-15528214D02*
X14874167Y-15509167D01*
X14893214Y-15499643D01*
X14921786Y-15499643D01*
X14940833Y-15509167D01*
X14950357Y-15528214D01*
X14950357Y-15632976D01*
X15340833Y-15423452D02*
X15169405Y-15680595D01*
X15597976Y-15432976D02*
X15617024Y-15432976D01*
X15636071Y-15442500D01*
X15645595Y-15452024D01*
X15655119Y-15471071D01*
X15664643Y-15509167D01*
X15664643Y-15556786D01*
X15655119Y-15594881D01*
X15645595Y-15613928D01*
X15636071Y-15623452D01*
X15617024Y-15632976D01*
X15597976Y-15632976D01*
X15578928Y-15623452D01*
X15569405Y-15613928D01*
X15559881Y-15594881D01*
X15550357Y-15556786D01*
X15550357Y-15509167D01*
X15559881Y-15471071D01*
X15569405Y-15452024D01*
X15578928Y-15442500D01*
X15597976Y-15432976D01*
X15750357Y-15613928D02*
X15759881Y-15623452D01*
X15750357Y-15632976D01*
X15740833Y-15623452D01*
X15750357Y-15613928D01*
X15750357Y-15632976D01*
X15883690Y-15432976D02*
X15902738Y-15432976D01*
X15921786Y-15442500D01*
X15931309Y-15452024D01*
X15940833Y-15471071D01*
X15950357Y-15509167D01*
X15950357Y-15556786D01*
X15940833Y-15594881D01*
X15931309Y-15613928D01*
X15921786Y-15623452D01*
X15902738Y-15632976D01*
X15883690Y-15632976D01*
X15864643Y-15623452D01*
X15855119Y-15613928D01*
X15845595Y-15594881D01*
X15836071Y-15556786D01*
X15836071Y-15509167D01*
X15845595Y-15471071D01*
X15855119Y-15452024D01*
X15864643Y-15442500D01*
X15883690Y-15432976D01*
X16017024Y-15432976D02*
X16140833Y-15432976D01*
X16074167Y-15509167D01*
X16102738Y-15509167D01*
X16121786Y-15518690D01*
X16131309Y-15528214D01*
X16140833Y-15547262D01*
X16140833Y-15594881D01*
X16131309Y-15613928D01*
X16121786Y-15623452D01*
X16102738Y-15632976D01*
X16045595Y-15632976D01*
X16026548Y-15623452D01*
X16017024Y-15613928D01*
X16264643Y-15432976D02*
X16283690Y-15432976D01*
X16302738Y-15442500D01*
X16312262Y-15452024D01*
X16321786Y-15471071D01*
X16331309Y-15509167D01*
X16331309Y-15556786D01*
X16321786Y-15594881D01*
X16312262Y-15613928D01*
X16302738Y-15623452D01*
X16283690Y-15632976D01*
X16264643Y-15632976D01*
X16245595Y-15623452D01*
X16236071Y-15613928D01*
X16226548Y-15594881D01*
X16217024Y-15556786D01*
X16217024Y-15509167D01*
X16226548Y-15471071D01*
X16236071Y-15452024D01*
X16245595Y-15442500D01*
X16264643Y-15432976D01*
X16455119Y-15432976D02*
X16474167Y-15432976D01*
X16493214Y-15442500D01*
X16502738Y-15452024D01*
X16512262Y-15471071D01*
X16521786Y-15509167D01*
X16521786Y-15556786D01*
X16512262Y-15594881D01*
X16502738Y-15613928D01*
X16493214Y-15623452D01*
X16474167Y-15632976D01*
X16455119Y-15632976D01*
X16436071Y-15623452D01*
X16426548Y-15613928D01*
X16417024Y-15594881D01*
X16407500Y-15556786D01*
X16407500Y-15509167D01*
X16417024Y-15471071D01*
X16426548Y-15452024D01*
X16436071Y-15442500D01*
X16455119Y-15432976D01*
X16597976Y-15432976D02*
X16597976Y-15471071D01*
X16674167Y-15432976D02*
X16674167Y-15471071D01*
X16969405Y-15709167D02*
X16959881Y-15699643D01*
X16940833Y-15671071D01*
X16931310Y-15652024D01*
X16921786Y-15623452D01*
X16912262Y-15575833D01*
X16912262Y-15537738D01*
X16921786Y-15490119D01*
X16931310Y-15461548D01*
X16940833Y-15442500D01*
X16959881Y-15413928D01*
X16969405Y-15404405D01*
X17036071Y-15452024D02*
X17045595Y-15442500D01*
X17064643Y-15432976D01*
X17112262Y-15432976D01*
X17131310Y-15442500D01*
X17140833Y-15452024D01*
X17150357Y-15471071D01*
X17150357Y-15490119D01*
X17140833Y-15518690D01*
X17026548Y-15632976D01*
X17150357Y-15632976D01*
X17388452Y-15632976D02*
X17388452Y-15432976D01*
X17474167Y-15632976D02*
X17474167Y-15528214D01*
X17464643Y-15509167D01*
X17445595Y-15499643D01*
X17417024Y-15499643D01*
X17397976Y-15509167D01*
X17388452Y-15518690D01*
X17597976Y-15632976D02*
X17578929Y-15623452D01*
X17569405Y-15613928D01*
X17559881Y-15594881D01*
X17559881Y-15537738D01*
X17569405Y-15518690D01*
X17578929Y-15509167D01*
X17597976Y-15499643D01*
X17626548Y-15499643D01*
X17645595Y-15509167D01*
X17655119Y-15518690D01*
X17664643Y-15537738D01*
X17664643Y-15594881D01*
X17655119Y-15613928D01*
X17645595Y-15623452D01*
X17626548Y-15632976D01*
X17597976Y-15632976D01*
X17778929Y-15632976D02*
X17759881Y-15623452D01*
X17750357Y-15604405D01*
X17750357Y-15432976D01*
X17931310Y-15623452D02*
X17912262Y-15632976D01*
X17874167Y-15632976D01*
X17855119Y-15623452D01*
X17845595Y-15604405D01*
X17845595Y-15528214D01*
X17855119Y-15509167D01*
X17874167Y-15499643D01*
X17912262Y-15499643D01*
X17931310Y-15509167D01*
X17940833Y-15528214D01*
X17940833Y-15547262D01*
X17845595Y-15566309D01*
X18017024Y-15623452D02*
X18036071Y-15632976D01*
X18074167Y-15632976D01*
X18093214Y-15623452D01*
X18102738Y-15604405D01*
X18102738Y-15594881D01*
X18093214Y-15575833D01*
X18074167Y-15566309D01*
X18045595Y-15566309D01*
X18026548Y-15556786D01*
X18017024Y-15537738D01*
X18017024Y-15528214D01*
X18026548Y-15509167D01*
X18045595Y-15499643D01*
X18074167Y-15499643D01*
X18093214Y-15509167D01*
X18169405Y-15709167D02*
X18178929Y-15699643D01*
X18197976Y-15671071D01*
X18207500Y-15652024D01*
X18217024Y-15623452D01*
X18226548Y-15575833D01*
X18226548Y-15537738D01*
X18217024Y-15490119D01*
X18207500Y-15461548D01*
X18197976Y-15442500D01*
X18178929Y-15413928D01*
X18169405Y-15404405D01*
D13*
X13397500Y-15806500D02*
G75*
G03*
X13397500Y-15806500I-50800J0D01*
G01*
D11*
X13759881Y-15896976D02*
X13645595Y-15896976D01*
X13702738Y-15896976D02*
X13702738Y-15696976D01*
X13683690Y-15725548D01*
X13664643Y-15744595D01*
X13645595Y-15754119D01*
X13845595Y-15877928D02*
X13855119Y-15887452D01*
X13845595Y-15896976D01*
X13836071Y-15887452D01*
X13845595Y-15877928D01*
X13845595Y-15896976D01*
X13978928Y-15696976D02*
X13997976Y-15696976D01*
X14017024Y-15706500D01*
X14026548Y-15716024D01*
X14036071Y-15735071D01*
X14045595Y-15773167D01*
X14045595Y-15820786D01*
X14036071Y-15858881D01*
X14026548Y-15877928D01*
X14017024Y-15887452D01*
X13997976Y-15896976D01*
X13978928Y-15896976D01*
X13959881Y-15887452D01*
X13950357Y-15877928D01*
X13940833Y-15858881D01*
X13931309Y-15820786D01*
X13931309Y-15773167D01*
X13940833Y-15735071D01*
X13950357Y-15716024D01*
X13959881Y-15706500D01*
X13978928Y-15696976D01*
X14236071Y-15896976D02*
X14121786Y-15896976D01*
X14178928Y-15896976D02*
X14178928Y-15696976D01*
X14159881Y-15725548D01*
X14140833Y-15744595D01*
X14121786Y-15754119D01*
X14407500Y-15696976D02*
X14369405Y-15696976D01*
X14350357Y-15706500D01*
X14340833Y-15716024D01*
X14321786Y-15744595D01*
X14312262Y-15782690D01*
X14312262Y-15858881D01*
X14321786Y-15877928D01*
X14331309Y-15887452D01*
X14350357Y-15896976D01*
X14388452Y-15896976D01*
X14407500Y-15887452D01*
X14417024Y-15877928D01*
X14426548Y-15858881D01*
X14426548Y-15811262D01*
X14417024Y-15792214D01*
X14407500Y-15782690D01*
X14388452Y-15773167D01*
X14350357Y-15773167D01*
X14331309Y-15782690D01*
X14321786Y-15792214D01*
X14312262Y-15811262D01*
X14512262Y-15896976D02*
X14512262Y-15763643D01*
X14512262Y-15782690D02*
X14521786Y-15773167D01*
X14540833Y-15763643D01*
X14569405Y-15763643D01*
X14588452Y-15773167D01*
X14597976Y-15792214D01*
X14597976Y-15896976D01*
X14597976Y-15792214D02*
X14607500Y-15773167D01*
X14626548Y-15763643D01*
X14655119Y-15763643D01*
X14674167Y-15773167D01*
X14683690Y-15792214D01*
X14683690Y-15896976D01*
X14778928Y-15896976D02*
X14778928Y-15763643D01*
X14778928Y-15782690D02*
X14788452Y-15773167D01*
X14807500Y-15763643D01*
X14836071Y-15763643D01*
X14855119Y-15773167D01*
X14864643Y-15792214D01*
X14864643Y-15896976D01*
X14864643Y-15792214D02*
X14874167Y-15773167D01*
X14893214Y-15763643D01*
X14921786Y-15763643D01*
X14940833Y-15773167D01*
X14950357Y-15792214D01*
X14950357Y-15896976D01*
X15340833Y-15687452D02*
X15169405Y-15944595D01*
X15597976Y-15696976D02*
X15617024Y-15696976D01*
X15636071Y-15706500D01*
X15645595Y-15716024D01*
X15655119Y-15735071D01*
X15664643Y-15773167D01*
X15664643Y-15820786D01*
X15655119Y-15858881D01*
X15645595Y-15877928D01*
X15636071Y-15887452D01*
X15617024Y-15896976D01*
X15597976Y-15896976D01*
X15578928Y-15887452D01*
X15569405Y-15877928D01*
X15559881Y-15858881D01*
X15550357Y-15820786D01*
X15550357Y-15773167D01*
X15559881Y-15735071D01*
X15569405Y-15716024D01*
X15578928Y-15706500D01*
X15597976Y-15696976D01*
X15750357Y-15877928D02*
X15759881Y-15887452D01*
X15750357Y-15896976D01*
X15740833Y-15887452D01*
X15750357Y-15877928D01*
X15750357Y-15896976D01*
X15883690Y-15696976D02*
X15902738Y-15696976D01*
X15921786Y-15706500D01*
X15931309Y-15716024D01*
X15940833Y-15735071D01*
X15950357Y-15773167D01*
X15950357Y-15820786D01*
X15940833Y-15858881D01*
X15931309Y-15877928D01*
X15921786Y-15887452D01*
X15902738Y-15896976D01*
X15883690Y-15896976D01*
X15864643Y-15887452D01*
X15855119Y-15877928D01*
X15845595Y-15858881D01*
X15836071Y-15820786D01*
X15836071Y-15773167D01*
X15845595Y-15735071D01*
X15855119Y-15716024D01*
X15864643Y-15706500D01*
X15883690Y-15696976D01*
X16121786Y-15763643D02*
X16121786Y-15896976D01*
X16074167Y-15687452D02*
X16026548Y-15830309D01*
X16150357Y-15830309D01*
X16264643Y-15696976D02*
X16283690Y-15696976D01*
X16302738Y-15706500D01*
X16312262Y-15716024D01*
X16321786Y-15735071D01*
X16331309Y-15773167D01*
X16331309Y-15820786D01*
X16321786Y-15858881D01*
X16312262Y-15877928D01*
X16302738Y-15887452D01*
X16283690Y-15896976D01*
X16264643Y-15896976D01*
X16245595Y-15887452D01*
X16236071Y-15877928D01*
X16226548Y-15858881D01*
X16217024Y-15820786D01*
X16217024Y-15773167D01*
X16226548Y-15735071D01*
X16236071Y-15716024D01*
X16245595Y-15706500D01*
X16264643Y-15696976D01*
X16455119Y-15696976D02*
X16474167Y-15696976D01*
X16493214Y-15706500D01*
X16502738Y-15716024D01*
X16512262Y-15735071D01*
X16521786Y-15773167D01*
X16521786Y-15820786D01*
X16512262Y-15858881D01*
X16502738Y-15877928D01*
X16493214Y-15887452D01*
X16474167Y-15896976D01*
X16455119Y-15896976D01*
X16436071Y-15887452D01*
X16426548Y-15877928D01*
X16417024Y-15858881D01*
X16407500Y-15820786D01*
X16407500Y-15773167D01*
X16417024Y-15735071D01*
X16426548Y-15716024D01*
X16436071Y-15706500D01*
X16455119Y-15696976D01*
X16597976Y-15696976D02*
X16597976Y-15735071D01*
X16674167Y-15696976D02*
X16674167Y-15735071D01*
X16969405Y-15973167D02*
X16959881Y-15963643D01*
X16940833Y-15935071D01*
X16931310Y-15916024D01*
X16921786Y-15887452D01*
X16912262Y-15839833D01*
X16912262Y-15801738D01*
X16921786Y-15754119D01*
X16931310Y-15725548D01*
X16940833Y-15706500D01*
X16959881Y-15677928D01*
X16969405Y-15668405D01*
X17150357Y-15896976D02*
X17036071Y-15896976D01*
X17093214Y-15896976D02*
X17093214Y-15696976D01*
X17074167Y-15725548D01*
X17055119Y-15744595D01*
X17036071Y-15754119D01*
X17321786Y-15696976D02*
X17283690Y-15696976D01*
X17264643Y-15706500D01*
X17255119Y-15716024D01*
X17236071Y-15744595D01*
X17226548Y-15782690D01*
X17226548Y-15858881D01*
X17236071Y-15877928D01*
X17245595Y-15887452D01*
X17264643Y-15896976D01*
X17302738Y-15896976D01*
X17321786Y-15887452D01*
X17331310Y-15877928D01*
X17340833Y-15858881D01*
X17340833Y-15811262D01*
X17331310Y-15792214D01*
X17321786Y-15782690D01*
X17302738Y-15773167D01*
X17264643Y-15773167D01*
X17245595Y-15782690D01*
X17236071Y-15792214D01*
X17226548Y-15811262D01*
X17578929Y-15896976D02*
X17578929Y-15696976D01*
X17664643Y-15896976D02*
X17664643Y-15792214D01*
X17655119Y-15773167D01*
X17636071Y-15763643D01*
X17607500Y-15763643D01*
X17588452Y-15773167D01*
X17578929Y-15782690D01*
X17788452Y-15896976D02*
X17769405Y-15887452D01*
X17759881Y-15877928D01*
X17750357Y-15858881D01*
X17750357Y-15801738D01*
X17759881Y-15782690D01*
X17769405Y-15773167D01*
X17788452Y-15763643D01*
X17817024Y-15763643D01*
X17836071Y-15773167D01*
X17845595Y-15782690D01*
X17855119Y-15801738D01*
X17855119Y-15858881D01*
X17845595Y-15877928D01*
X17836071Y-15887452D01*
X17817024Y-15896976D01*
X17788452Y-15896976D01*
X17969405Y-15896976D02*
X17950357Y-15887452D01*
X17940833Y-15868405D01*
X17940833Y-15696976D01*
X18121786Y-15887452D02*
X18102738Y-15896976D01*
X18064643Y-15896976D01*
X18045595Y-15887452D01*
X18036071Y-15868405D01*
X18036071Y-15792214D01*
X18045595Y-15773167D01*
X18064643Y-15763643D01*
X18102738Y-15763643D01*
X18121786Y-15773167D01*
X18131310Y-15792214D01*
X18131310Y-15811262D01*
X18036071Y-15830309D01*
X18207500Y-15887452D02*
X18226548Y-15896976D01*
X18264643Y-15896976D01*
X18283690Y-15887452D01*
X18293214Y-15868405D01*
X18293214Y-15858881D01*
X18283690Y-15839833D01*
X18264643Y-15830309D01*
X18236071Y-15830309D01*
X18217024Y-15820786D01*
X18207500Y-15801738D01*
X18207500Y-15792214D01*
X18217024Y-15773167D01*
X18236071Y-15763643D01*
X18264643Y-15763643D01*
X18283690Y-15773167D01*
X18359881Y-15973167D02*
X18369405Y-15963643D01*
X18388452Y-15935071D01*
X18397976Y-15916024D01*
X18407500Y-15887452D01*
X18417024Y-15839833D01*
X18417024Y-15801738D01*
X18407500Y-15754119D01*
X18397976Y-15725548D01*
X18388452Y-15706500D01*
X18369405Y-15677928D01*
X18359881Y-15668405D01*
D14*
X13342500Y-16015500D02*
X13342500Y-16125500D01*
X13287500Y-16070500D02*
X13397500Y-16070500D01*
D11*
X13759881Y-16160976D02*
X13645595Y-16160976D01*
X13702738Y-16160976D02*
X13702738Y-15960976D01*
X13683690Y-15989548D01*
X13664643Y-16008595D01*
X13645595Y-16018119D01*
X13845595Y-16141928D02*
X13855119Y-16151452D01*
X13845595Y-16160976D01*
X13836071Y-16151452D01*
X13845595Y-16141928D01*
X13845595Y-16160976D01*
X14045595Y-16160976D02*
X13931309Y-16160976D01*
X13988452Y-16160976D02*
X13988452Y-15960976D01*
X13969405Y-15989548D01*
X13950357Y-16008595D01*
X13931309Y-16018119D01*
X14169405Y-15960976D02*
X14188452Y-15960976D01*
X14207500Y-15970500D01*
X14217024Y-15980024D01*
X14226548Y-15999071D01*
X14236071Y-16037167D01*
X14236071Y-16084786D01*
X14226548Y-16122881D01*
X14217024Y-16141928D01*
X14207500Y-16151452D01*
X14188452Y-16160976D01*
X14169405Y-16160976D01*
X14150357Y-16151452D01*
X14140833Y-16141928D01*
X14131309Y-16122881D01*
X14121786Y-16084786D01*
X14121786Y-16037167D01*
X14131309Y-15999071D01*
X14140833Y-15980024D01*
X14150357Y-15970500D01*
X14169405Y-15960976D01*
X14359881Y-15960976D02*
X14378928Y-15960976D01*
X14397976Y-15970500D01*
X14407500Y-15980024D01*
X14417024Y-15999071D01*
X14426548Y-16037167D01*
X14426548Y-16084786D01*
X14417024Y-16122881D01*
X14407500Y-16141928D01*
X14397976Y-16151452D01*
X14378928Y-16160976D01*
X14359881Y-16160976D01*
X14340833Y-16151452D01*
X14331309Y-16141928D01*
X14321786Y-16122881D01*
X14312262Y-16084786D01*
X14312262Y-16037167D01*
X14321786Y-15999071D01*
X14331309Y-15980024D01*
X14340833Y-15970500D01*
X14359881Y-15960976D01*
X14512262Y-16160976D02*
X14512262Y-16027643D01*
X14512262Y-16046690D02*
X14521786Y-16037167D01*
X14540833Y-16027643D01*
X14569405Y-16027643D01*
X14588452Y-16037167D01*
X14597976Y-16056214D01*
X14597976Y-16160976D01*
X14597976Y-16056214D02*
X14607500Y-16037167D01*
X14626548Y-16027643D01*
X14655119Y-16027643D01*
X14674167Y-16037167D01*
X14683690Y-16056214D01*
X14683690Y-16160976D01*
X14778928Y-16160976D02*
X14778928Y-16027643D01*
X14778928Y-16046690D02*
X14788452Y-16037167D01*
X14807500Y-16027643D01*
X14836071Y-16027643D01*
X14855119Y-16037167D01*
X14864643Y-16056214D01*
X14864643Y-16160976D01*
X14864643Y-16056214D02*
X14874167Y-16037167D01*
X14893214Y-16027643D01*
X14921786Y-16027643D01*
X14940833Y-16037167D01*
X14950357Y-16056214D01*
X14950357Y-16160976D01*
X15340833Y-15951452D02*
X15169405Y-16208595D01*
X15597976Y-15960976D02*
X15617024Y-15960976D01*
X15636071Y-15970500D01*
X15645595Y-15980024D01*
X15655119Y-15999071D01*
X15664643Y-16037167D01*
X15664643Y-16084786D01*
X15655119Y-16122881D01*
X15645595Y-16141928D01*
X15636071Y-16151452D01*
X15617024Y-16160976D01*
X15597976Y-16160976D01*
X15578928Y-16151452D01*
X15569405Y-16141928D01*
X15559881Y-16122881D01*
X15550357Y-16084786D01*
X15550357Y-16037167D01*
X15559881Y-15999071D01*
X15569405Y-15980024D01*
X15578928Y-15970500D01*
X15597976Y-15960976D01*
X15750357Y-16141928D02*
X15759881Y-16151452D01*
X15750357Y-16160976D01*
X15740833Y-16151452D01*
X15750357Y-16141928D01*
X15750357Y-16160976D01*
X15883690Y-15960976D02*
X15902738Y-15960976D01*
X15921786Y-15970500D01*
X15931309Y-15980024D01*
X15940833Y-15999071D01*
X15950357Y-16037167D01*
X15950357Y-16084786D01*
X15940833Y-16122881D01*
X15931309Y-16141928D01*
X15921786Y-16151452D01*
X15902738Y-16160976D01*
X15883690Y-16160976D01*
X15864643Y-16151452D01*
X15855119Y-16141928D01*
X15845595Y-16122881D01*
X15836071Y-16084786D01*
X15836071Y-16037167D01*
X15845595Y-15999071D01*
X15855119Y-15980024D01*
X15864643Y-15970500D01*
X15883690Y-15960976D01*
X16121786Y-16027643D02*
X16121786Y-16160976D01*
X16074167Y-15951452D02*
X16026548Y-16094309D01*
X16150357Y-16094309D01*
X16207500Y-15960976D02*
X16331309Y-15960976D01*
X16264643Y-16037167D01*
X16293214Y-16037167D01*
X16312262Y-16046690D01*
X16321786Y-16056214D01*
X16331309Y-16075262D01*
X16331309Y-16122881D01*
X16321786Y-16141928D01*
X16312262Y-16151452D01*
X16293214Y-16160976D01*
X16236071Y-16160976D01*
X16217024Y-16151452D01*
X16207500Y-16141928D01*
X16397976Y-15960976D02*
X16521786Y-15960976D01*
X16455119Y-16037167D01*
X16483690Y-16037167D01*
X16502738Y-16046690D01*
X16512262Y-16056214D01*
X16521786Y-16075262D01*
X16521786Y-16122881D01*
X16512262Y-16141928D01*
X16502738Y-16151452D01*
X16483690Y-16160976D01*
X16426548Y-16160976D01*
X16407500Y-16151452D01*
X16397976Y-16141928D01*
X16597976Y-15960976D02*
X16597976Y-15999071D01*
X16674167Y-15960976D02*
X16674167Y-15999071D01*
X16969405Y-16237167D02*
X16959881Y-16227643D01*
X16940833Y-16199071D01*
X16931310Y-16180024D01*
X16921786Y-16151452D01*
X16912262Y-16103833D01*
X16912262Y-16065738D01*
X16921786Y-16018119D01*
X16931310Y-15989548D01*
X16940833Y-15970500D01*
X16959881Y-15941928D01*
X16969405Y-15932405D01*
X17131310Y-16027643D02*
X17131310Y-16160976D01*
X17083690Y-15951452D02*
X17036071Y-16094309D01*
X17159881Y-16094309D01*
X17388452Y-16160976D02*
X17388452Y-15960976D01*
X17474167Y-16160976D02*
X17474167Y-16056214D01*
X17464643Y-16037167D01*
X17445595Y-16027643D01*
X17417024Y-16027643D01*
X17397976Y-16037167D01*
X17388452Y-16046690D01*
X17597976Y-16160976D02*
X17578929Y-16151452D01*
X17569405Y-16141928D01*
X17559881Y-16122881D01*
X17559881Y-16065738D01*
X17569405Y-16046690D01*
X17578929Y-16037167D01*
X17597976Y-16027643D01*
X17626548Y-16027643D01*
X17645595Y-16037167D01*
X17655119Y-16046690D01*
X17664643Y-16065738D01*
X17664643Y-16122881D01*
X17655119Y-16141928D01*
X17645595Y-16151452D01*
X17626548Y-16160976D01*
X17597976Y-16160976D01*
X17778929Y-16160976D02*
X17759881Y-16151452D01*
X17750357Y-16132405D01*
X17750357Y-15960976D01*
X17931310Y-16151452D02*
X17912262Y-16160976D01*
X17874167Y-16160976D01*
X17855119Y-16151452D01*
X17845595Y-16132405D01*
X17845595Y-16056214D01*
X17855119Y-16037167D01*
X17874167Y-16027643D01*
X17912262Y-16027643D01*
X17931310Y-16037167D01*
X17940833Y-16056214D01*
X17940833Y-16075262D01*
X17845595Y-16094309D01*
X18017024Y-16151452D02*
X18036071Y-16160976D01*
X18074167Y-16160976D01*
X18093214Y-16151452D01*
X18102738Y-16132405D01*
X18102738Y-16122881D01*
X18093214Y-16103833D01*
X18074167Y-16094309D01*
X18045595Y-16094309D01*
X18026548Y-16084786D01*
X18017024Y-16065738D01*
X18017024Y-16056214D01*
X18026548Y-16037167D01*
X18045595Y-16027643D01*
X18074167Y-16027643D01*
X18093214Y-16037167D01*
X18169405Y-16237167D02*
X18178929Y-16227643D01*
X18197976Y-16199071D01*
X18207500Y-16180024D01*
X18217024Y-16151452D01*
X18226548Y-16103833D01*
X18226548Y-16065738D01*
X18217024Y-16018119D01*
X18207500Y-15989548D01*
X18197976Y-15970500D01*
X18178929Y-15941928D01*
X18169405Y-15932405D01*
D15*
X13379927Y-16376927D02*
X13379927Y-16292073D01*
X13295073Y-16292073D01*
X13295073Y-16376927D01*
X13379927Y-16376927D01*
D11*
X13759881Y-16424976D02*
X13645595Y-16424976D01*
X13702738Y-16424976D02*
X13702738Y-16224976D01*
X13683690Y-16253548D01*
X13664643Y-16272595D01*
X13645595Y-16282119D01*
X13845595Y-16405928D02*
X13855119Y-16415452D01*
X13845595Y-16424976D01*
X13836071Y-16415452D01*
X13845595Y-16405928D01*
X13845595Y-16424976D01*
X13931309Y-16244024D02*
X13940833Y-16234500D01*
X13959881Y-16224976D01*
X14007500Y-16224976D01*
X14026548Y-16234500D01*
X14036071Y-16244024D01*
X14045595Y-16263071D01*
X14045595Y-16282119D01*
X14036071Y-16310690D01*
X13921786Y-16424976D01*
X14045595Y-16424976D01*
X14169405Y-16224976D02*
X14188452Y-16224976D01*
X14207500Y-16234500D01*
X14217024Y-16244024D01*
X14226548Y-16263071D01*
X14236071Y-16301167D01*
X14236071Y-16348786D01*
X14226548Y-16386881D01*
X14217024Y-16405928D01*
X14207500Y-16415452D01*
X14188452Y-16424976D01*
X14169405Y-16424976D01*
X14150357Y-16415452D01*
X14140833Y-16405928D01*
X14131309Y-16386881D01*
X14121786Y-16348786D01*
X14121786Y-16301167D01*
X14131309Y-16263071D01*
X14140833Y-16244024D01*
X14150357Y-16234500D01*
X14169405Y-16224976D01*
X14359881Y-16224976D02*
X14378928Y-16224976D01*
X14397976Y-16234500D01*
X14407500Y-16244024D01*
X14417024Y-16263071D01*
X14426548Y-16301167D01*
X14426548Y-16348786D01*
X14417024Y-16386881D01*
X14407500Y-16405928D01*
X14397976Y-16415452D01*
X14378928Y-16424976D01*
X14359881Y-16424976D01*
X14340833Y-16415452D01*
X14331309Y-16405928D01*
X14321786Y-16386881D01*
X14312262Y-16348786D01*
X14312262Y-16301167D01*
X14321786Y-16263071D01*
X14331309Y-16244024D01*
X14340833Y-16234500D01*
X14359881Y-16224976D01*
X14512262Y-16424976D02*
X14512262Y-16291643D01*
X14512262Y-16310690D02*
X14521786Y-16301167D01*
X14540833Y-16291643D01*
X14569405Y-16291643D01*
X14588452Y-16301167D01*
X14597976Y-16320214D01*
X14597976Y-16424976D01*
X14597976Y-16320214D02*
X14607500Y-16301167D01*
X14626548Y-16291643D01*
X14655119Y-16291643D01*
X14674167Y-16301167D01*
X14683690Y-16320214D01*
X14683690Y-16424976D01*
X14778928Y-16424976D02*
X14778928Y-16291643D01*
X14778928Y-16310690D02*
X14788452Y-16301167D01*
X14807500Y-16291643D01*
X14836071Y-16291643D01*
X14855119Y-16301167D01*
X14864643Y-16320214D01*
X14864643Y-16424976D01*
X14864643Y-16320214D02*
X14874167Y-16301167D01*
X14893214Y-16291643D01*
X14921786Y-16291643D01*
X14940833Y-16301167D01*
X14950357Y-16320214D01*
X14950357Y-16424976D01*
X15340833Y-16215452D02*
X15169405Y-16472595D01*
X15597976Y-16224976D02*
X15617024Y-16224976D01*
X15636071Y-16234500D01*
X15645595Y-16244024D01*
X15655119Y-16263071D01*
X15664643Y-16301167D01*
X15664643Y-16348786D01*
X15655119Y-16386881D01*
X15645595Y-16405928D01*
X15636071Y-16415452D01*
X15617024Y-16424976D01*
X15597976Y-16424976D01*
X15578928Y-16415452D01*
X15569405Y-16405928D01*
X15559881Y-16386881D01*
X15550357Y-16348786D01*
X15550357Y-16301167D01*
X15559881Y-16263071D01*
X15569405Y-16244024D01*
X15578928Y-16234500D01*
X15597976Y-16224976D01*
X15750357Y-16405928D02*
X15759881Y-16415452D01*
X15750357Y-16424976D01*
X15740833Y-16415452D01*
X15750357Y-16405928D01*
X15750357Y-16424976D01*
X15883690Y-16224976D02*
X15902738Y-16224976D01*
X15921786Y-16234500D01*
X15931309Y-16244024D01*
X15940833Y-16263071D01*
X15950357Y-16301167D01*
X15950357Y-16348786D01*
X15940833Y-16386881D01*
X15931309Y-16405928D01*
X15921786Y-16415452D01*
X15902738Y-16424976D01*
X15883690Y-16424976D01*
X15864643Y-16415452D01*
X15855119Y-16405928D01*
X15845595Y-16386881D01*
X15836071Y-16348786D01*
X15836071Y-16301167D01*
X15845595Y-16263071D01*
X15855119Y-16244024D01*
X15864643Y-16234500D01*
X15883690Y-16224976D01*
X16121786Y-16291643D02*
X16121786Y-16424976D01*
X16074167Y-16215452D02*
X16026548Y-16358309D01*
X16150357Y-16358309D01*
X16207500Y-16224976D02*
X16340833Y-16224976D01*
X16255119Y-16424976D01*
X16407500Y-16244024D02*
X16417024Y-16234500D01*
X16436071Y-16224976D01*
X16483690Y-16224976D01*
X16502738Y-16234500D01*
X16512262Y-16244024D01*
X16521786Y-16263071D01*
X16521786Y-16282119D01*
X16512262Y-16310690D01*
X16397976Y-16424976D01*
X16521786Y-16424976D01*
X16597976Y-16224976D02*
X16597976Y-16263071D01*
X16674167Y-16224976D02*
X16674167Y-16263071D01*
X16969405Y-16501167D02*
X16959881Y-16491643D01*
X16940833Y-16463071D01*
X16931310Y-16444024D01*
X16921786Y-16415452D01*
X16912262Y-16367833D01*
X16912262Y-16329738D01*
X16921786Y-16282119D01*
X16931310Y-16253548D01*
X16940833Y-16234500D01*
X16959881Y-16205928D01*
X16969405Y-16196405D01*
X17036071Y-16244024D02*
X17045595Y-16234500D01*
X17064643Y-16224976D01*
X17112262Y-16224976D01*
X17131310Y-16234500D01*
X17140833Y-16244024D01*
X17150357Y-16263071D01*
X17150357Y-16282119D01*
X17140833Y-16310690D01*
X17026548Y-16424976D01*
X17150357Y-16424976D01*
X17274167Y-16224976D02*
X17293214Y-16224976D01*
X17312262Y-16234500D01*
X17321786Y-16244024D01*
X17331310Y-16263071D01*
X17340833Y-16301167D01*
X17340833Y-16348786D01*
X17331310Y-16386881D01*
X17321786Y-16405928D01*
X17312262Y-16415452D01*
X17293214Y-16424976D01*
X17274167Y-16424976D01*
X17255119Y-16415452D01*
X17245595Y-16405928D01*
X17236071Y-16386881D01*
X17226548Y-16348786D01*
X17226548Y-16301167D01*
X17236071Y-16263071D01*
X17245595Y-16244024D01*
X17255119Y-16234500D01*
X17274167Y-16224976D01*
X17578929Y-16424976D02*
X17578929Y-16224976D01*
X17664643Y-16424976D02*
X17664643Y-16320214D01*
X17655119Y-16301167D01*
X17636071Y-16291643D01*
X17607500Y-16291643D01*
X17588452Y-16301167D01*
X17578929Y-16310690D01*
X17788452Y-16424976D02*
X17769405Y-16415452D01*
X17759881Y-16405928D01*
X17750357Y-16386881D01*
X17750357Y-16329738D01*
X17759881Y-16310690D01*
X17769405Y-16301167D01*
X17788452Y-16291643D01*
X17817024Y-16291643D01*
X17836071Y-16301167D01*
X17845595Y-16310690D01*
X17855119Y-16329738D01*
X17855119Y-16386881D01*
X17845595Y-16405928D01*
X17836071Y-16415452D01*
X17817024Y-16424976D01*
X17788452Y-16424976D01*
X17969405Y-16424976D02*
X17950357Y-16415452D01*
X17940833Y-16396405D01*
X17940833Y-16224976D01*
X18121786Y-16415452D02*
X18102738Y-16424976D01*
X18064643Y-16424976D01*
X18045595Y-16415452D01*
X18036071Y-16396405D01*
X18036071Y-16320214D01*
X18045595Y-16301167D01*
X18064643Y-16291643D01*
X18102738Y-16291643D01*
X18121786Y-16301167D01*
X18131310Y-16320214D01*
X18131310Y-16339262D01*
X18036071Y-16358309D01*
X18207500Y-16415452D02*
X18226548Y-16424976D01*
X18264643Y-16424976D01*
X18283690Y-16415452D01*
X18293214Y-16396405D01*
X18293214Y-16386881D01*
X18283690Y-16367833D01*
X18264643Y-16358309D01*
X18236071Y-16358309D01*
X18217024Y-16348786D01*
X18207500Y-16329738D01*
X18207500Y-16320214D01*
X18217024Y-16301167D01*
X18236071Y-16291643D01*
X18264643Y-16291643D01*
X18283690Y-16301167D01*
X18359881Y-16501167D02*
X18369405Y-16491643D01*
X18388452Y-16463071D01*
X18397976Y-16444024D01*
X18407500Y-16415452D01*
X18417024Y-16367833D01*
X18417024Y-16329738D01*
X18407500Y-16282119D01*
X18397976Y-16253548D01*
X18388452Y-16234500D01*
X18369405Y-16205928D01*
X18359881Y-16196405D01*
D16*
X13302500Y-16693500D02*
X13397500Y-16598500D01*
X13302500Y-16503500D01*
X13207500Y-16598500D01*
X13302500Y-16693500D01*
D11*
X13759881Y-16688976D02*
X13645595Y-16688976D01*
X13702738Y-16688976D02*
X13702738Y-16488976D01*
X13683690Y-16517548D01*
X13664643Y-16536595D01*
X13645595Y-16546119D01*
X13845595Y-16669928D02*
X13855119Y-16679452D01*
X13845595Y-16688976D01*
X13836071Y-16679452D01*
X13845595Y-16669928D01*
X13845595Y-16688976D01*
X13950357Y-16688976D02*
X13988452Y-16688976D01*
X14007500Y-16679452D01*
X14017024Y-16669928D01*
X14036071Y-16641357D01*
X14045595Y-16603262D01*
X14045595Y-16527071D01*
X14036071Y-16508024D01*
X14026548Y-16498500D01*
X14007500Y-16488976D01*
X13969405Y-16488976D01*
X13950357Y-16498500D01*
X13940833Y-16508024D01*
X13931309Y-16527071D01*
X13931309Y-16574690D01*
X13940833Y-16593738D01*
X13950357Y-16603262D01*
X13969405Y-16612786D01*
X14007500Y-16612786D01*
X14026548Y-16603262D01*
X14036071Y-16593738D01*
X14045595Y-16574690D01*
X14169405Y-16488976D02*
X14188452Y-16488976D01*
X14207500Y-16498500D01*
X14217024Y-16508024D01*
X14226548Y-16527071D01*
X14236071Y-16565167D01*
X14236071Y-16612786D01*
X14226548Y-16650881D01*
X14217024Y-16669928D01*
X14207500Y-16679452D01*
X14188452Y-16688976D01*
X14169405Y-16688976D01*
X14150357Y-16679452D01*
X14140833Y-16669928D01*
X14131309Y-16650881D01*
X14121786Y-16612786D01*
X14121786Y-16565167D01*
X14131309Y-16527071D01*
X14140833Y-16508024D01*
X14150357Y-16498500D01*
X14169405Y-16488976D01*
X14359881Y-16488976D02*
X14378928Y-16488976D01*
X14397976Y-16498500D01*
X14407500Y-16508024D01*
X14417024Y-16527071D01*
X14426548Y-16565167D01*
X14426548Y-16612786D01*
X14417024Y-16650881D01*
X14407500Y-16669928D01*
X14397976Y-16679452D01*
X14378928Y-16688976D01*
X14359881Y-16688976D01*
X14340833Y-16679452D01*
X14331309Y-16669928D01*
X14321786Y-16650881D01*
X14312262Y-16612786D01*
X14312262Y-16565167D01*
X14321786Y-16527071D01*
X14331309Y-16508024D01*
X14340833Y-16498500D01*
X14359881Y-16488976D01*
X14512262Y-16688976D02*
X14512262Y-16555643D01*
X14512262Y-16574690D02*
X14521786Y-16565167D01*
X14540833Y-16555643D01*
X14569405Y-16555643D01*
X14588452Y-16565167D01*
X14597976Y-16584214D01*
X14597976Y-16688976D01*
X14597976Y-16584214D02*
X14607500Y-16565167D01*
X14626548Y-16555643D01*
X14655119Y-16555643D01*
X14674167Y-16565167D01*
X14683690Y-16584214D01*
X14683690Y-16688976D01*
X14778928Y-16688976D02*
X14778928Y-16555643D01*
X14778928Y-16574690D02*
X14788452Y-16565167D01*
X14807500Y-16555643D01*
X14836071Y-16555643D01*
X14855119Y-16565167D01*
X14864643Y-16584214D01*
X14864643Y-16688976D01*
X14864643Y-16584214D02*
X14874167Y-16565167D01*
X14893214Y-16555643D01*
X14921786Y-16555643D01*
X14940833Y-16565167D01*
X14950357Y-16584214D01*
X14950357Y-16688976D01*
X15340833Y-16479452D02*
X15169405Y-16736595D01*
X15597976Y-16488976D02*
X15617024Y-16488976D01*
X15636071Y-16498500D01*
X15645595Y-16508024D01*
X15655119Y-16527071D01*
X15664643Y-16565167D01*
X15664643Y-16612786D01*
X15655119Y-16650881D01*
X15645595Y-16669928D01*
X15636071Y-16679452D01*
X15617024Y-16688976D01*
X15597976Y-16688976D01*
X15578928Y-16679452D01*
X15569405Y-16669928D01*
X15559881Y-16650881D01*
X15550357Y-16612786D01*
X15550357Y-16565167D01*
X15559881Y-16527071D01*
X15569405Y-16508024D01*
X15578928Y-16498500D01*
X15597976Y-16488976D01*
X15750357Y-16669928D02*
X15759881Y-16679452D01*
X15750357Y-16688976D01*
X15740833Y-16679452D01*
X15750357Y-16669928D01*
X15750357Y-16688976D01*
X15883690Y-16488976D02*
X15902738Y-16488976D01*
X15921786Y-16498500D01*
X15931309Y-16508024D01*
X15940833Y-16527071D01*
X15950357Y-16565167D01*
X15950357Y-16612786D01*
X15940833Y-16650881D01*
X15931309Y-16669928D01*
X15921786Y-16679452D01*
X15902738Y-16688976D01*
X15883690Y-16688976D01*
X15864643Y-16679452D01*
X15855119Y-16669928D01*
X15845595Y-16650881D01*
X15836071Y-16612786D01*
X15836071Y-16565167D01*
X15845595Y-16527071D01*
X15855119Y-16508024D01*
X15864643Y-16498500D01*
X15883690Y-16488976D01*
X16017024Y-16488976D02*
X16150357Y-16488976D01*
X16064643Y-16688976D01*
X16312262Y-16555643D02*
X16312262Y-16688976D01*
X16264643Y-16479452D02*
X16217024Y-16622309D01*
X16340833Y-16622309D01*
X16445595Y-16574690D02*
X16426548Y-16565167D01*
X16417024Y-16555643D01*
X16407500Y-16536595D01*
X16407500Y-16527071D01*
X16417024Y-16508024D01*
X16426548Y-16498500D01*
X16445595Y-16488976D01*
X16483690Y-16488976D01*
X16502738Y-16498500D01*
X16512262Y-16508024D01*
X16521786Y-16527071D01*
X16521786Y-16536595D01*
X16512262Y-16555643D01*
X16502738Y-16565167D01*
X16483690Y-16574690D01*
X16445595Y-16574690D01*
X16426548Y-16584214D01*
X16417024Y-16593738D01*
X16407500Y-16612786D01*
X16407500Y-16650881D01*
X16417024Y-16669928D01*
X16426548Y-16679452D01*
X16445595Y-16688976D01*
X16483690Y-16688976D01*
X16502738Y-16679452D01*
X16512262Y-16669928D01*
X16521786Y-16650881D01*
X16521786Y-16612786D01*
X16512262Y-16593738D01*
X16502738Y-16584214D01*
X16483690Y-16574690D01*
X16597976Y-16488976D02*
X16597976Y-16527071D01*
X16674167Y-16488976D02*
X16674167Y-16527071D01*
X16969405Y-16765167D02*
X16959881Y-16755643D01*
X16940833Y-16727071D01*
X16931310Y-16708024D01*
X16921786Y-16679452D01*
X16912262Y-16631833D01*
X16912262Y-16593738D01*
X16921786Y-16546119D01*
X16931310Y-16517548D01*
X16940833Y-16498500D01*
X16959881Y-16469928D01*
X16969405Y-16460405D01*
X17131310Y-16488976D02*
X17093214Y-16488976D01*
X17074167Y-16498500D01*
X17064643Y-16508024D01*
X17045595Y-16536595D01*
X17036071Y-16574690D01*
X17036071Y-16650881D01*
X17045595Y-16669928D01*
X17055119Y-16679452D01*
X17074167Y-16688976D01*
X17112262Y-16688976D01*
X17131310Y-16679452D01*
X17140833Y-16669928D01*
X17150357Y-16650881D01*
X17150357Y-16603262D01*
X17140833Y-16584214D01*
X17131310Y-16574690D01*
X17112262Y-16565167D01*
X17074167Y-16565167D01*
X17055119Y-16574690D01*
X17045595Y-16584214D01*
X17036071Y-16603262D01*
X17388452Y-16688976D02*
X17388452Y-16488976D01*
X17474167Y-16688976D02*
X17474167Y-16584214D01*
X17464643Y-16565167D01*
X17445595Y-16555643D01*
X17417024Y-16555643D01*
X17397976Y-16565167D01*
X17388452Y-16574690D01*
X17597976Y-16688976D02*
X17578929Y-16679452D01*
X17569405Y-16669928D01*
X17559881Y-16650881D01*
X17559881Y-16593738D01*
X17569405Y-16574690D01*
X17578929Y-16565167D01*
X17597976Y-16555643D01*
X17626548Y-16555643D01*
X17645595Y-16565167D01*
X17655119Y-16574690D01*
X17664643Y-16593738D01*
X17664643Y-16650881D01*
X17655119Y-16669928D01*
X17645595Y-16679452D01*
X17626548Y-16688976D01*
X17597976Y-16688976D01*
X17778929Y-16688976D02*
X17759881Y-16679452D01*
X17750357Y-16660405D01*
X17750357Y-16488976D01*
X17931310Y-16679452D02*
X17912262Y-16688976D01*
X17874167Y-16688976D01*
X17855119Y-16679452D01*
X17845595Y-16660405D01*
X17845595Y-16584214D01*
X17855119Y-16565167D01*
X17874167Y-16555643D01*
X17912262Y-16555643D01*
X17931310Y-16565167D01*
X17940833Y-16584214D01*
X17940833Y-16603262D01*
X17845595Y-16622309D01*
X18017024Y-16679452D02*
X18036071Y-16688976D01*
X18074167Y-16688976D01*
X18093214Y-16679452D01*
X18102738Y-16660405D01*
X18102738Y-16650881D01*
X18093214Y-16631833D01*
X18074167Y-16622309D01*
X18045595Y-16622309D01*
X18026548Y-16612786D01*
X18017024Y-16593738D01*
X18017024Y-16584214D01*
X18026548Y-16565167D01*
X18045595Y-16555643D01*
X18074167Y-16555643D01*
X18093214Y-16565167D01*
X18169405Y-16765167D02*
X18178929Y-16755643D01*
X18197976Y-16727071D01*
X18207500Y-16708024D01*
X18217024Y-16679452D01*
X18226548Y-16631833D01*
X18226548Y-16593738D01*
X18217024Y-16546119D01*
X18207500Y-16517548D01*
X18197976Y-16498500D01*
X18178929Y-16469928D01*
X18169405Y-16460405D01*
M02*
