G04 #@! TF.GenerationSoftware,KiCad,Pcbnew,(6.0.0)*
G04 #@! TF.CreationDate,2022-01-19T17:04:22-05:00*
G04 #@! TF.ProjectId,SlimeVRMotherBoard,536c696d-6556-4524-9d6f-74686572426f,V1.2*
G04 #@! TF.SameCoordinates,Original*
G04 #@! TF.FileFunction,Copper,L1,Top*
G04 #@! TF.FilePolarity,Positive*
%FSLAX46Y46*%
G04 Gerber Fmt 4.6, Leading zero omitted, Abs format (unit mm)*
G04 Created by KiCad (PCBNEW (6.0.0)) date 2022-01-19 17:04:22*
%MOMM*%
%LPD*%
G01*
G04 APERTURE LIST*
%ADD10C,0.150000*%
G04 #@! TA.AperFunction,NonConductor*
%ADD11C,0.150000*%
G04 #@! TD*
G04 #@! TA.AperFunction,ComponentPad*
%ADD12C,2.200000*%
G04 #@! TD*
G04 #@! TA.AperFunction,ComponentPad*
%ADD13C,2.000000*%
G04 #@! TD*
G04 #@! TA.AperFunction,SMDPad,CuDef*
%ADD14R,1.000000X1.500000*%
G04 #@! TD*
G04 #@! TA.AperFunction,ComponentPad*
%ADD15O,2.200000X2.200000*%
G04 #@! TD*
G04 #@! TA.AperFunction,ComponentPad*
%ADD16R,2.200000X2.200000*%
G04 #@! TD*
G04 #@! TA.AperFunction,ComponentPad*
%ADD17C,1.800000*%
G04 #@! TD*
G04 #@! TA.AperFunction,Conductor*
%ADD18C,0.250000*%
G04 #@! TD*
G04 APERTURE END LIST*
D10*
D11*
X169476190Y-95452380D02*
X169809523Y-96452380D01*
X170142857Y-95452380D01*
X171000000Y-96452380D02*
X170428571Y-96452380D01*
X170714285Y-96452380D02*
X170714285Y-95452380D01*
X170619047Y-95595238D01*
X170523809Y-95690476D01*
X170428571Y-95738095D01*
X171428571Y-96357142D02*
X171476190Y-96404761D01*
X171428571Y-96452380D01*
X171380952Y-96404761D01*
X171428571Y-96357142D01*
X171428571Y-96452380D01*
X171857142Y-95547619D02*
X171904761Y-95500000D01*
X172000000Y-95452380D01*
X172238095Y-95452380D01*
X172333333Y-95500000D01*
X172380952Y-95547619D01*
X172428571Y-95642857D01*
X172428571Y-95738095D01*
X172380952Y-95880952D01*
X171809523Y-96452380D01*
X172428571Y-96452380D01*
D12*
X185000000Y-141000000D03*
X185000000Y-145000000D03*
X185000000Y-137000000D03*
X182400000Y-141000000D03*
X182400000Y-145000000D03*
X182400000Y-137000000D03*
D13*
X137000000Y-109500000D03*
X137000000Y-102500000D03*
D14*
X178350000Y-116000000D03*
X179650000Y-116000000D03*
D15*
X184000000Y-103840000D03*
D16*
X184000000Y-114000000D03*
D15*
X184000000Y-117840000D03*
D16*
X184000000Y-128000000D03*
D13*
X173000000Y-116000000D03*
X169000000Y-116000000D03*
D17*
X136570000Y-138890000D03*
X159430000Y-138890000D03*
X136570000Y-136350000D03*
X159430000Y-136350000D03*
X136570000Y-133810000D03*
X159430000Y-133810000D03*
X136570000Y-131270000D03*
X159430000Y-131270000D03*
X136570000Y-128730000D03*
X159430000Y-128730000D03*
X136570000Y-126190000D03*
X159430000Y-126190000D03*
X136570000Y-123650000D03*
X159430000Y-123650000D03*
X136570000Y-121110000D03*
X159430000Y-121110000D03*
D13*
X150500000Y-110000000D03*
X153500000Y-110000000D03*
X156500000Y-110000000D03*
X147500000Y-110000000D03*
X144500000Y-110000000D03*
X141500000Y-110000000D03*
X141500000Y-102000000D03*
X144500000Y-102000000D03*
X147500000Y-102000000D03*
X156500000Y-102000000D03*
X153500000Y-102000000D03*
X150500000Y-102000000D03*
X178000000Y-122500000D03*
X175000000Y-122500000D03*
X164000000Y-145000000D03*
X178000000Y-145000000D03*
X164000000Y-122500000D03*
X167000000Y-122500000D03*
D18*
X186424511Y-130484735D02*
X186454623Y-130454623D01*
X186424511Y-143575489D02*
X186424511Y-130484735D01*
X185000000Y-145000000D02*
X186424511Y-143575489D01*
X182890000Y-138890000D02*
X185000000Y-141000000D01*
X159430000Y-138890000D02*
X182890000Y-138890000D01*
X173000000Y-120500000D02*
X175000000Y-122500000D01*
X173000000Y-116000000D02*
X173000000Y-120500000D01*
X156010992Y-99549990D02*
X161000000Y-104538998D01*
X139950010Y-99549990D02*
X156010992Y-99549990D01*
X137000000Y-102500000D02*
X139950010Y-99549990D01*
X161000000Y-104538998D02*
X161000000Y-112000000D01*
X165000000Y-116000000D02*
X169000000Y-116000000D01*
X161000000Y-112000000D02*
X165000000Y-116000000D01*
X169000000Y-120500000D02*
X167000000Y-122500000D01*
X169000000Y-116000000D02*
X169000000Y-120500000D01*
X153500000Y-102000000D02*
X153500000Y-110000000D01*
X156500000Y-102000000D02*
X156500000Y-110000000D01*
X162000000Y-115500000D02*
X156500000Y-110000000D01*
X160504999Y-132495001D02*
X162000000Y-131000000D01*
X162000000Y-131000000D02*
X162000000Y-115500000D01*
X142964999Y-132495001D02*
X160504999Y-132495001D01*
X136570000Y-138890000D02*
X142964999Y-132495001D01*
X156500000Y-102000000D02*
X154500000Y-100000000D01*
X146500000Y-100000000D02*
X144500000Y-102000000D01*
X154500000Y-100000000D02*
X146500000Y-100000000D01*
X136570000Y-131270000D02*
X135000000Y-129700000D01*
X135000000Y-108500000D02*
X141500000Y-102000000D01*
X135000000Y-129700000D02*
X135000000Y-108500000D01*
X141500000Y-123800000D02*
X141500000Y-110000000D01*
X136570000Y-128730000D02*
X141500000Y-123800000D01*
X147500000Y-102000000D02*
X147500000Y-110000000D01*
X147500000Y-116800000D02*
X147500000Y-110000000D01*
X159430000Y-128730000D02*
X147500000Y-116800000D01*
X150500000Y-110000000D02*
X150500000Y-102000000D01*
X150500000Y-117260000D02*
X150500000Y-110000000D01*
X159430000Y-126190000D02*
X150500000Y-117260000D01*
X184000000Y-118461002D02*
X184000000Y-117840000D01*
X184000000Y-120000000D02*
X184000000Y-117840000D01*
X177335001Y-126664999D02*
X184000000Y-120000000D01*
X177335001Y-137664999D02*
X177335001Y-126664999D01*
X158841999Y-137664999D02*
X177335001Y-137664999D01*
X158204999Y-138301999D02*
X158841999Y-137664999D01*
X158204999Y-140619212D02*
X158204999Y-138301999D01*
X162585787Y-145000000D02*
X158204999Y-140619212D01*
X164000000Y-145000000D02*
X162585787Y-145000000D01*
X185425001Y-126574999D02*
X184000000Y-128000000D01*
X185425001Y-117155999D02*
X185425001Y-126574999D01*
X179650000Y-116000000D02*
X179650000Y-115350000D01*
X186454623Y-130454623D02*
X184000000Y-128000000D01*
X179650000Y-116000000D02*
X182000000Y-116000000D01*
X184269002Y-116000000D02*
X185425001Y-117155999D01*
X179650000Y-116000000D02*
X184269002Y-116000000D01*
X179650000Y-116000000D02*
X179650000Y-114350000D01*
X180000000Y-114000000D02*
X184000000Y-114000000D01*
X179650000Y-114350000D02*
X180000000Y-114000000D01*
X178350000Y-109490000D02*
X184000000Y-103840000D01*
X178350000Y-116000000D02*
X178350000Y-109490000D01*
X175636001Y-123825001D02*
X165325001Y-123825001D01*
X176674999Y-117675001D02*
X176674999Y-122786003D01*
X165325001Y-123825001D02*
X164000000Y-122500000D01*
X176674999Y-122786003D02*
X175636001Y-123825001D01*
X178350000Y-116000000D02*
X176674999Y-117675001D01*
X137999999Y-122220001D02*
X136570000Y-123650000D01*
X137999999Y-110499999D02*
X137999999Y-122220001D01*
X137000000Y-109500000D02*
X137999999Y-110499999D01*
G04 #@! TA.AperFunction,Conductor*
G36*
X168590074Y-95528002D02*
G01*
X168636567Y-95581658D01*
X168647953Y-95634000D01*
X168647953Y-97688000D01*
X173352048Y-97688000D01*
X173352048Y-95634000D01*
X173372050Y-95565879D01*
X173425706Y-95519386D01*
X173478048Y-95508000D01*
X187366000Y-95508000D01*
X187434121Y-95528002D01*
X187480614Y-95581658D01*
X187492000Y-95634000D01*
X187492000Y-148366000D01*
X187471998Y-148434121D01*
X187418342Y-148480614D01*
X187366000Y-148492000D01*
X134634000Y-148492000D01*
X134565879Y-148471998D01*
X134519386Y-148418342D01*
X134508000Y-148366000D01*
X134508000Y-130408094D01*
X134528002Y-130339973D01*
X134581658Y-130293480D01*
X134651932Y-130283376D01*
X134716512Y-130312870D01*
X134723095Y-130318999D01*
X135179154Y-130775058D01*
X135213180Y-130837370D01*
X135211476Y-130897825D01*
X135181707Y-131005169D01*
X135157095Y-131235469D01*
X135157392Y-131240622D01*
X135157392Y-131240625D01*
X135165850Y-131387313D01*
X135170427Y-131466697D01*
X135171564Y-131471743D01*
X135171565Y-131471749D01*
X135201370Y-131604000D01*
X135221346Y-131692642D01*
X135223288Y-131697424D01*
X135223289Y-131697428D01*
X135295611Y-131875534D01*
X135308484Y-131907237D01*
X135429501Y-132104719D01*
X135581147Y-132279784D01*
X135759349Y-132427730D01*
X135763819Y-132430342D01*
X135767511Y-132432500D01*
X135816232Y-132484140D01*
X135829301Y-132553924D01*
X135802566Y-132619694D01*
X135779589Y-132642045D01*
X135631655Y-132753117D01*
X135471639Y-132920564D01*
X135468725Y-132924836D01*
X135468724Y-132924837D01*
X135453152Y-132947665D01*
X135341119Y-133111899D01*
X135243602Y-133321981D01*
X135181707Y-133545169D01*
X135157095Y-133775469D01*
X135157392Y-133780622D01*
X135157392Y-133780625D01*
X135163067Y-133879041D01*
X135170427Y-134006697D01*
X135171564Y-134011743D01*
X135171565Y-134011749D01*
X135203741Y-134154523D01*
X135221346Y-134232642D01*
X135223288Y-134237424D01*
X135223289Y-134237428D01*
X135306540Y-134442450D01*
X135308484Y-134447237D01*
X135429501Y-134644719D01*
X135581147Y-134819784D01*
X135759349Y-134967730D01*
X135763819Y-134970342D01*
X135767511Y-134972500D01*
X135816232Y-135024140D01*
X135829301Y-135093924D01*
X135802566Y-135159694D01*
X135779589Y-135182045D01*
X135631655Y-135293117D01*
X135471639Y-135460564D01*
X135468725Y-135464836D01*
X135468724Y-135464837D01*
X135453152Y-135487665D01*
X135341119Y-135651899D01*
X135243602Y-135861981D01*
X135181707Y-136085169D01*
X135157095Y-136315469D01*
X135157392Y-136320622D01*
X135157392Y-136320625D01*
X135170129Y-136541529D01*
X135170427Y-136546697D01*
X135171564Y-136551743D01*
X135171565Y-136551749D01*
X135203741Y-136694523D01*
X135221346Y-136772642D01*
X135223288Y-136777424D01*
X135223289Y-136777428D01*
X135302955Y-136973620D01*
X135308484Y-136987237D01*
X135429501Y-137184719D01*
X135581147Y-137359784D01*
X135759349Y-137507730D01*
X135763819Y-137510342D01*
X135767511Y-137512500D01*
X135816232Y-137564140D01*
X135829301Y-137633924D01*
X135802566Y-137699694D01*
X135779589Y-137722045D01*
X135760041Y-137736722D01*
X135654746Y-137815780D01*
X135631655Y-137833117D01*
X135604935Y-137861078D01*
X135500180Y-137970698D01*
X135471639Y-138000564D01*
X135468725Y-138004836D01*
X135468724Y-138004837D01*
X135444519Y-138040320D01*
X135341119Y-138191899D01*
X135243602Y-138401981D01*
X135181707Y-138625169D01*
X135157095Y-138855469D01*
X135157392Y-138860622D01*
X135157392Y-138860625D01*
X135163067Y-138959041D01*
X135170427Y-139086697D01*
X135171564Y-139091743D01*
X135171565Y-139091749D01*
X135203741Y-139234523D01*
X135221346Y-139312642D01*
X135223288Y-139317424D01*
X135223289Y-139317428D01*
X135275891Y-139446971D01*
X135308484Y-139527237D01*
X135429501Y-139724719D01*
X135581147Y-139899784D01*
X135759349Y-140047730D01*
X135959322Y-140164584D01*
X136175694Y-140247209D01*
X136180760Y-140248240D01*
X136180761Y-140248240D01*
X136233846Y-140259040D01*
X136402656Y-140293385D01*
X136533324Y-140298176D01*
X136628949Y-140301683D01*
X136628953Y-140301683D01*
X136634113Y-140301872D01*
X136639233Y-140301216D01*
X136639235Y-140301216D01*
X136712270Y-140291860D01*
X136863847Y-140272442D01*
X136868795Y-140270957D01*
X136868802Y-140270956D01*
X137080747Y-140207369D01*
X137085690Y-140205886D01*
X137166236Y-140166427D01*
X137289049Y-140106262D01*
X137289052Y-140106260D01*
X137293684Y-140103991D01*
X137482243Y-139969494D01*
X137646303Y-139806005D01*
X137781458Y-139617917D01*
X137828641Y-139522450D01*
X137881784Y-139414922D01*
X137881785Y-139414920D01*
X137884078Y-139410280D01*
X137951408Y-139188671D01*
X137981640Y-138959041D01*
X137983327Y-138890000D01*
X137964349Y-138659167D01*
X137928026Y-138514560D01*
X137930830Y-138443618D01*
X137961135Y-138394769D01*
X143190498Y-133165406D01*
X143252810Y-133131380D01*
X143279593Y-133128501D01*
X157996013Y-133128501D01*
X158064134Y-133148503D01*
X158110627Y-133202159D01*
X158120731Y-133272433D01*
X158110301Y-133307549D01*
X158103602Y-133321981D01*
X158041707Y-133545169D01*
X158017095Y-133775469D01*
X158017392Y-133780622D01*
X158017392Y-133780625D01*
X158023067Y-133879041D01*
X158030427Y-134006697D01*
X158031564Y-134011743D01*
X158031565Y-134011749D01*
X158063741Y-134154523D01*
X158081346Y-134232642D01*
X158083288Y-134237424D01*
X158083289Y-134237428D01*
X158166540Y-134442450D01*
X158168484Y-134447237D01*
X158289501Y-134644719D01*
X158441147Y-134819784D01*
X158619349Y-134967730D01*
X158623814Y-134970339D01*
X158627979Y-134972773D01*
X158676700Y-135024414D01*
X158689767Y-135094198D01*
X158663033Y-135159968D01*
X158646323Y-135176221D01*
X158635508Y-135190711D01*
X158642251Y-135203040D01*
X159417189Y-135977979D01*
X159431132Y-135985592D01*
X159432966Y-135985461D01*
X159439580Y-135981210D01*
X160218994Y-135201795D01*
X160226011Y-135188944D01*
X160218237Y-135178275D01*
X160216655Y-135177025D01*
X160175592Y-135119109D01*
X160172359Y-135048186D01*
X160207983Y-134986774D01*
X160221578Y-134975563D01*
X160237193Y-134964425D01*
X160342243Y-134889494D01*
X160506303Y-134726005D01*
X160641458Y-134537917D01*
X160688641Y-134442450D01*
X160741784Y-134334922D01*
X160741785Y-134334920D01*
X160744078Y-134330280D01*
X160811408Y-134108671D01*
X160841640Y-133879041D01*
X160843327Y-133810000D01*
X160837032Y-133733434D01*
X160824773Y-133584318D01*
X160824772Y-133584312D01*
X160824349Y-133579167D01*
X160775579Y-133385003D01*
X160769184Y-133359544D01*
X160769183Y-133359540D01*
X160767925Y-133354533D01*
X160765866Y-133349797D01*
X160765864Y-133349791D01*
X160715788Y-133234626D01*
X160706967Y-133164179D01*
X160737634Y-133100147D01*
X160767191Y-133075933D01*
X160776034Y-133070704D01*
X160793775Y-133062013D01*
X160812616Y-133054553D01*
X160831900Y-133040543D01*
X160848386Y-133028565D01*
X160858306Y-133022049D01*
X160889534Y-133003581D01*
X160889537Y-133003579D01*
X160896361Y-132999543D01*
X160910682Y-132985222D01*
X160925716Y-132972381D01*
X160935693Y-132965132D01*
X160942106Y-132960473D01*
X160970297Y-132926396D01*
X160978287Y-132917617D01*
X162392247Y-131503657D01*
X162400537Y-131496113D01*
X162407018Y-131492000D01*
X162453659Y-131442332D01*
X162456413Y-131439491D01*
X162476135Y-131419769D01*
X162478619Y-131416567D01*
X162486317Y-131407555D01*
X162511161Y-131381098D01*
X162516586Y-131375321D01*
X162526347Y-131357566D01*
X162537198Y-131341047D01*
X162549614Y-131325041D01*
X162567174Y-131284463D01*
X162572391Y-131273813D01*
X162593695Y-131235060D01*
X162598733Y-131215437D01*
X162605137Y-131196734D01*
X162610033Y-131185420D01*
X162610033Y-131185419D01*
X162613181Y-131178145D01*
X162614420Y-131170322D01*
X162614423Y-131170312D01*
X162620099Y-131134476D01*
X162622505Y-131122856D01*
X162631528Y-131087711D01*
X162631528Y-131087710D01*
X162633500Y-131080030D01*
X162633500Y-131059776D01*
X162635051Y-131040065D01*
X162636980Y-131027886D01*
X162638220Y-131020057D01*
X162634059Y-130976038D01*
X162633500Y-130964181D01*
X162633500Y-123564314D01*
X162653502Y-123496193D01*
X162707158Y-123449700D01*
X162777432Y-123439596D01*
X162842012Y-123469090D01*
X162855311Y-123482484D01*
X162926818Y-123566208D01*
X162926823Y-123566213D01*
X162930031Y-123569969D01*
X163110584Y-123724176D01*
X163114792Y-123726755D01*
X163114798Y-123726759D01*
X163279822Y-123827886D01*
X163313037Y-123848240D01*
X163317607Y-123850133D01*
X163317611Y-123850135D01*
X163527833Y-123937211D01*
X163532406Y-123939105D01*
X163592853Y-123953617D01*
X163758476Y-123993380D01*
X163758482Y-123993381D01*
X163763289Y-123994535D01*
X164000000Y-124013165D01*
X164236711Y-123994535D01*
X164241518Y-123993381D01*
X164241524Y-123993380D01*
X164459951Y-123940940D01*
X164530859Y-123944487D01*
X164578460Y-123974364D01*
X164821344Y-124217248D01*
X164828888Y-124225538D01*
X164833001Y-124232019D01*
X164838778Y-124237444D01*
X164882668Y-124278659D01*
X164885510Y-124281414D01*
X164905231Y-124301135D01*
X164908426Y-124303613D01*
X164917448Y-124311319D01*
X164949680Y-124341587D01*
X164956629Y-124345407D01*
X164967433Y-124351347D01*
X164983957Y-124362200D01*
X164999960Y-124374614D01*
X165040544Y-124392177D01*
X165051174Y-124397384D01*
X165089941Y-124418696D01*
X165097618Y-124420667D01*
X165097623Y-124420669D01*
X165109559Y-124423733D01*
X165128267Y-124430138D01*
X165146856Y-124438182D01*
X165154681Y-124439421D01*
X165154683Y-124439422D01*
X165190520Y-124445098D01*
X165202141Y-124447505D01*
X165233960Y-124455674D01*
X165244971Y-124458501D01*
X165265232Y-124458501D01*
X165284941Y-124460052D01*
X165304944Y-124463220D01*
X165312836Y-124462474D01*
X165318063Y-124461980D01*
X165348955Y-124459060D01*
X165360812Y-124458501D01*
X175557234Y-124458501D01*
X175568417Y-124459028D01*
X175575910Y-124460703D01*
X175583836Y-124460454D01*
X175583837Y-124460454D01*
X175643987Y-124458563D01*
X175647946Y-124458501D01*
X175675857Y-124458501D01*
X175679792Y-124458004D01*
X175679857Y-124457996D01*
X175691694Y-124457063D01*
X175723952Y-124456049D01*
X175727971Y-124455923D01*
X175735890Y-124455674D01*
X175755344Y-124450022D01*
X175774701Y-124446014D01*
X175786931Y-124444469D01*
X175786932Y-124444469D01*
X175794798Y-124443475D01*
X175802169Y-124440556D01*
X175802171Y-124440556D01*
X175835913Y-124427197D01*
X175847143Y-124423352D01*
X175881984Y-124413230D01*
X175881985Y-124413230D01*
X175889594Y-124411019D01*
X175896413Y-124406986D01*
X175896418Y-124406984D01*
X175907029Y-124400708D01*
X175924777Y-124392013D01*
X175943618Y-124384553D01*
X175963988Y-124369754D01*
X175979388Y-124358565D01*
X175989308Y-124352049D01*
X176020536Y-124333581D01*
X176020539Y-124333579D01*
X176027363Y-124329543D01*
X176041684Y-124315222D01*
X176056718Y-124302381D01*
X176058433Y-124301135D01*
X176073108Y-124290473D01*
X176078158Y-124284369D01*
X176078163Y-124284364D01*
X176101294Y-124256403D01*
X176109284Y-124247622D01*
X176624237Y-123732670D01*
X177132160Y-123732670D01*
X177137887Y-123740320D01*
X177309042Y-123845205D01*
X177317837Y-123849687D01*
X177527988Y-123936734D01*
X177537373Y-123939783D01*
X177758554Y-123992885D01*
X177768301Y-123994428D01*
X177995070Y-124012275D01*
X178004930Y-124012275D01*
X178231699Y-123994428D01*
X178241446Y-123992885D01*
X178462627Y-123939783D01*
X178472012Y-123936734D01*
X178682163Y-123849687D01*
X178690958Y-123845205D01*
X178858445Y-123742568D01*
X178867907Y-123732110D01*
X178864124Y-123723334D01*
X178012812Y-122872022D01*
X177998868Y-122864408D01*
X177997035Y-122864539D01*
X177990420Y-122868790D01*
X177138920Y-123720290D01*
X177132160Y-123732670D01*
X176624237Y-123732670D01*
X177067257Y-123289650D01*
X177075536Y-123282116D01*
X177082017Y-123278003D01*
X177128643Y-123228351D01*
X177131397Y-123225510D01*
X177151134Y-123205773D01*
X177153614Y-123202576D01*
X177161319Y-123193554D01*
X177164847Y-123189797D01*
X177191585Y-123161324D01*
X177195404Y-123154378D01*
X177195406Y-123154375D01*
X177201347Y-123143569D01*
X177212198Y-123127050D01*
X177219757Y-123117304D01*
X177224613Y-123111044D01*
X177227758Y-123103775D01*
X177227761Y-123103771D01*
X177242173Y-123070466D01*
X177247390Y-123059816D01*
X177268694Y-123021063D01*
X177273732Y-123001440D01*
X177280136Y-122982737D01*
X177285032Y-122971423D01*
X177285032Y-122971422D01*
X177288180Y-122964148D01*
X177289419Y-122956325D01*
X177289422Y-122956315D01*
X177295098Y-122920479D01*
X177297504Y-122908859D01*
X177306529Y-122873707D01*
X177306529Y-122873705D01*
X177308499Y-122866034D01*
X177309082Y-122866184D01*
X177335208Y-122806279D01*
X177342737Y-122798053D01*
X177639658Y-122501132D01*
X178364408Y-122501132D01*
X178364539Y-122502965D01*
X178368790Y-122509580D01*
X179220290Y-123361080D01*
X179232670Y-123367840D01*
X179240320Y-123362113D01*
X179345205Y-123190958D01*
X179349687Y-123182163D01*
X179436734Y-122972012D01*
X179439783Y-122962627D01*
X179492885Y-122741446D01*
X179494428Y-122731699D01*
X179512275Y-122504930D01*
X179512275Y-122495070D01*
X179494428Y-122268301D01*
X179492885Y-122258554D01*
X179439783Y-122037373D01*
X179436734Y-122027988D01*
X179349687Y-121817837D01*
X179345205Y-121809042D01*
X179242568Y-121641555D01*
X179232110Y-121632093D01*
X179223334Y-121635876D01*
X178372022Y-122487188D01*
X178364408Y-122501132D01*
X177639658Y-122501132D01*
X178861080Y-121279710D01*
X178867840Y-121267330D01*
X178862113Y-121259680D01*
X178690958Y-121154795D01*
X178682163Y-121150313D01*
X178472012Y-121063266D01*
X178462627Y-121060217D01*
X178241446Y-121007115D01*
X178231699Y-121005572D01*
X178004930Y-120987725D01*
X177995070Y-120987725D01*
X177768301Y-121005572D01*
X177758554Y-121007115D01*
X177537373Y-121060217D01*
X177527988Y-121063266D01*
X177482717Y-121082018D01*
X177412127Y-121089607D01*
X177348640Y-121057828D01*
X177312413Y-120996769D01*
X177308499Y-120965609D01*
X177308499Y-117989596D01*
X177328501Y-117921475D01*
X177345404Y-117900500D01*
X177950501Y-117295404D01*
X178012813Y-117261379D01*
X178039596Y-117258500D01*
X178898134Y-117258500D01*
X178960316Y-117251745D01*
X178967715Y-117248971D01*
X178970854Y-117248225D01*
X179029146Y-117248225D01*
X179032285Y-117248971D01*
X179039684Y-117251745D01*
X179101866Y-117258500D01*
X180198134Y-117258500D01*
X180260316Y-117251745D01*
X180396705Y-117200615D01*
X180513261Y-117113261D01*
X180600615Y-116996705D01*
X180651745Y-116860316D01*
X180658500Y-116798134D01*
X180658500Y-116759500D01*
X180678502Y-116691379D01*
X180732158Y-116644886D01*
X180784500Y-116633500D01*
X182641815Y-116633500D01*
X182709936Y-116653502D01*
X182756429Y-116707158D01*
X182766533Y-116777432D01*
X182737626Y-116841330D01*
X182697888Y-116887858D01*
X182694672Y-116891624D01*
X182562384Y-117107498D01*
X182560491Y-117112068D01*
X182560489Y-117112072D01*
X182482707Y-117299856D01*
X182465495Y-117341409D01*
X182451741Y-117398700D01*
X182411188Y-117567617D01*
X182406391Y-117587597D01*
X182386526Y-117840000D01*
X182406391Y-118092403D01*
X182465495Y-118338591D01*
X182562384Y-118572502D01*
X182694672Y-118788376D01*
X182859102Y-118980898D01*
X183051624Y-119145328D01*
X183267498Y-119277616D01*
X183272073Y-119279511D01*
X183272075Y-119279512D01*
X183288720Y-119286407D01*
X183344000Y-119330956D01*
X183366500Y-119402815D01*
X183366500Y-119685406D01*
X183346498Y-119753527D01*
X183329595Y-119774501D01*
X180132672Y-122971423D01*
X176942748Y-126161347D01*
X176934462Y-126168887D01*
X176927983Y-126172999D01*
X176922558Y-126178776D01*
X176881358Y-126222650D01*
X176878603Y-126225492D01*
X176858866Y-126245229D01*
X176856386Y-126248426D01*
X176848683Y-126257446D01*
X176818415Y-126289678D01*
X176814596Y-126296624D01*
X176814594Y-126296627D01*
X176808653Y-126307433D01*
X176797802Y-126323952D01*
X176785387Y-126339958D01*
X176782242Y-126347227D01*
X176782239Y-126347231D01*
X176767827Y-126380536D01*
X176762610Y-126391186D01*
X176741306Y-126429939D01*
X176739335Y-126437614D01*
X176739335Y-126437615D01*
X176736268Y-126449561D01*
X176729864Y-126468265D01*
X176721820Y-126486854D01*
X176720581Y-126494677D01*
X176720578Y-126494687D01*
X176714902Y-126530523D01*
X176712496Y-126542143D01*
X176703473Y-126577288D01*
X176701501Y-126584969D01*
X176701501Y-126605223D01*
X176699950Y-126624933D01*
X176696781Y-126644942D01*
X176697527Y-126652834D01*
X176700942Y-126688960D01*
X176701501Y-126700818D01*
X176701501Y-136905499D01*
X176681499Y-136973620D01*
X176627843Y-137020113D01*
X176575501Y-137031499D01*
X160864542Y-137031499D01*
X160796421Y-137011497D01*
X160749928Y-136957841D01*
X160739824Y-136887567D01*
X160743984Y-136868870D01*
X160809415Y-136653516D01*
X160811594Y-136643436D01*
X160840702Y-136422338D01*
X160841221Y-136415663D01*
X160842744Y-136353364D01*
X160842550Y-136346646D01*
X160824279Y-136124400D01*
X160822596Y-136114238D01*
X160768710Y-135899708D01*
X160765389Y-135889953D01*
X160677193Y-135687118D01*
X160672315Y-135678020D01*
X160599224Y-135565038D01*
X160588538Y-135555835D01*
X160578973Y-135560238D01*
X159519095Y-136620115D01*
X159456783Y-136654141D01*
X159385967Y-136649076D01*
X159340905Y-136620115D01*
X158283866Y-135563077D01*
X158272329Y-135556777D01*
X158260048Y-135566399D01*
X158204467Y-135647877D01*
X158199379Y-135656833D01*
X158106252Y-135857459D01*
X158102689Y-135867146D01*
X158043581Y-136080280D01*
X158041650Y-136090400D01*
X158018145Y-136310349D01*
X158017893Y-136320638D01*
X158030627Y-136541468D01*
X158032061Y-136551670D01*
X158080685Y-136767439D01*
X158083773Y-136777292D01*
X158166989Y-136982226D01*
X158171629Y-136991413D01*
X158289905Y-137184423D01*
X158287784Y-137185723D01*
X158308323Y-137242881D01*
X158292399Y-137312068D01*
X158271641Y-137339453D01*
X157988988Y-137622105D01*
X157812741Y-137798352D01*
X157804462Y-137805886D01*
X157797981Y-137809999D01*
X157779188Y-137830012D01*
X157751356Y-137859650D01*
X157748601Y-137862492D01*
X157728864Y-137882229D01*
X157726384Y-137885426D01*
X157718681Y-137894446D01*
X157688413Y-137926678D01*
X157684594Y-137933624D01*
X157684592Y-137933627D01*
X157678651Y-137944433D01*
X157667800Y-137960952D01*
X157655385Y-137976958D01*
X157652240Y-137984227D01*
X157652237Y-137984231D01*
X157637825Y-138017536D01*
X157632608Y-138028186D01*
X157611304Y-138066939D01*
X157609333Y-138074614D01*
X157609333Y-138074615D01*
X157606266Y-138086561D01*
X157599862Y-138105265D01*
X157591818Y-138123854D01*
X157590579Y-138131677D01*
X157590576Y-138131687D01*
X157584900Y-138167523D01*
X157582494Y-138179143D01*
X157573471Y-138214288D01*
X157571499Y-138221969D01*
X157571499Y-138242223D01*
X157569948Y-138261933D01*
X157566779Y-138281942D01*
X157567525Y-138289834D01*
X157570940Y-138325960D01*
X157571499Y-138337818D01*
X157571499Y-140540445D01*
X157570972Y-140551628D01*
X157569297Y-140559121D01*
X157569546Y-140567047D01*
X157569546Y-140567048D01*
X157571437Y-140627198D01*
X157571499Y-140631157D01*
X157571499Y-140659068D01*
X157571996Y-140663002D01*
X157571996Y-140663003D01*
X157572004Y-140663068D01*
X157572937Y-140674905D01*
X157574326Y-140719101D01*
X157579977Y-140738551D01*
X157583986Y-140757912D01*
X157586525Y-140778009D01*
X157589444Y-140785380D01*
X157589444Y-140785382D01*
X157602803Y-140819124D01*
X157606648Y-140830354D01*
X157618981Y-140872805D01*
X157623014Y-140879624D01*
X157623016Y-140879629D01*
X157629292Y-140890240D01*
X157637987Y-140907988D01*
X157645447Y-140926829D01*
X157650109Y-140933245D01*
X157650109Y-140933246D01*
X157671435Y-140962599D01*
X157677951Y-140972519D01*
X157691288Y-140995070D01*
X157700457Y-141010574D01*
X157714778Y-141024895D01*
X157727618Y-141039928D01*
X157739527Y-141056319D01*
X157745633Y-141061370D01*
X157773604Y-141084510D01*
X157782383Y-141092500D01*
X162082135Y-145392253D01*
X162089675Y-145400539D01*
X162093787Y-145407018D01*
X162099564Y-145412443D01*
X162143438Y-145453643D01*
X162146280Y-145456398D01*
X162166017Y-145476135D01*
X162169214Y-145478615D01*
X162178234Y-145486318D01*
X162210466Y-145516586D01*
X162217412Y-145520405D01*
X162217415Y-145520407D01*
X162228221Y-145526348D01*
X162244740Y-145537199D01*
X162260746Y-145549614D01*
X162268015Y-145552759D01*
X162268019Y-145552762D01*
X162301324Y-145567174D01*
X162311974Y-145572391D01*
X162350727Y-145593695D01*
X162358402Y-145595666D01*
X162358403Y-145595666D01*
X162370349Y-145598733D01*
X162389054Y-145605137D01*
X162407642Y-145613181D01*
X162415465Y-145614420D01*
X162415475Y-145614423D01*
X162451311Y-145620099D01*
X162462931Y-145622505D01*
X162498076Y-145631528D01*
X162505757Y-145633500D01*
X162526011Y-145633500D01*
X162545722Y-145635051D01*
X162565730Y-145638220D01*
X162565375Y-145640464D01*
X162621887Y-145659009D01*
X162657894Y-145696973D01*
X162775824Y-145889416D01*
X162930031Y-146069969D01*
X163110584Y-146224176D01*
X163114792Y-146226755D01*
X163114798Y-146226759D01*
X163308817Y-146345654D01*
X163313037Y-146348240D01*
X163317607Y-146350133D01*
X163317611Y-146350135D01*
X163522568Y-146435030D01*
X163532406Y-146439105D01*
X163612609Y-146458360D01*
X163758476Y-146493380D01*
X163758482Y-146493381D01*
X163763289Y-146494535D01*
X164000000Y-146513165D01*
X164236711Y-146494535D01*
X164241518Y-146493381D01*
X164241524Y-146493380D01*
X164387391Y-146458360D01*
X164467594Y-146439105D01*
X164477432Y-146435030D01*
X164682389Y-146350135D01*
X164682393Y-146350133D01*
X164686963Y-146348240D01*
X164691183Y-146345654D01*
X164885202Y-146226759D01*
X164885208Y-146226755D01*
X164889416Y-146224176D01*
X165069969Y-146069969D01*
X165224176Y-145889416D01*
X165226755Y-145885208D01*
X165226759Y-145885202D01*
X165345654Y-145691183D01*
X165348240Y-145686963D01*
X165367501Y-145640464D01*
X165437211Y-145472167D01*
X165437212Y-145472165D01*
X165439105Y-145467594D01*
X165458360Y-145387391D01*
X165493380Y-145241524D01*
X165493381Y-145241518D01*
X165494535Y-145236711D01*
X165513165Y-145000000D01*
X176486835Y-145000000D01*
X176505465Y-145236711D01*
X176506619Y-145241518D01*
X176506620Y-145241524D01*
X176541640Y-145387391D01*
X176560895Y-145467594D01*
X176562788Y-145472165D01*
X176562789Y-145472167D01*
X176632500Y-145640464D01*
X176651760Y-145686963D01*
X176654346Y-145691183D01*
X176773241Y-145885202D01*
X176773245Y-145885208D01*
X176775824Y-145889416D01*
X176930031Y-146069969D01*
X177110584Y-146224176D01*
X177114792Y-146226755D01*
X177114798Y-146226759D01*
X177308817Y-146345654D01*
X177313037Y-146348240D01*
X177317607Y-146350133D01*
X177317611Y-146350135D01*
X177522568Y-146435030D01*
X177532406Y-146439105D01*
X177612609Y-146458360D01*
X177758476Y-146493380D01*
X177758482Y-146493381D01*
X177763289Y-146494535D01*
X178000000Y-146513165D01*
X178236711Y-146494535D01*
X178241518Y-146493381D01*
X178241524Y-146493380D01*
X178387391Y-146458360D01*
X178467594Y-146439105D01*
X178477432Y-146435030D01*
X178682389Y-146350135D01*
X178682393Y-146350133D01*
X178686963Y-146348240D01*
X178691183Y-146345654D01*
X178885202Y-146226759D01*
X178885208Y-146226755D01*
X178889416Y-146224176D01*
X179069969Y-146069969D01*
X179224176Y-145889416D01*
X179226755Y-145885208D01*
X179226759Y-145885202D01*
X179345654Y-145691183D01*
X179348240Y-145686963D01*
X179367501Y-145640464D01*
X179437211Y-145472167D01*
X179437212Y-145472165D01*
X179439105Y-145467594D01*
X179458360Y-145387391D01*
X179493380Y-145241524D01*
X179493381Y-145241518D01*
X179494535Y-145236711D01*
X179513165Y-145000000D01*
X179494535Y-144763289D01*
X179491953Y-144752531D01*
X179440260Y-144537218D01*
X179439105Y-144532406D01*
X179385258Y-144402407D01*
X179350135Y-144317611D01*
X179350133Y-144317607D01*
X179348240Y-144313037D01*
X179345654Y-144308817D01*
X179226759Y-144114798D01*
X179226755Y-144114792D01*
X179224176Y-144110584D01*
X179069969Y-143930031D01*
X178889416Y-143775824D01*
X178885208Y-143773245D01*
X178885202Y-143773241D01*
X178691183Y-143654346D01*
X178686963Y-143651760D01*
X178682393Y-143649867D01*
X178682389Y-143649865D01*
X178472167Y-143562789D01*
X178472165Y-143562788D01*
X178467594Y-143560895D01*
X178379185Y-143539670D01*
X178241524Y-143506620D01*
X178241518Y-143506619D01*
X178236711Y-143505465D01*
X178000000Y-143486835D01*
X177763289Y-143505465D01*
X177758482Y-143506619D01*
X177758476Y-143506620D01*
X177620815Y-143539670D01*
X177532406Y-143560895D01*
X177527835Y-143562788D01*
X177527833Y-143562789D01*
X177317611Y-143649865D01*
X177317607Y-143649867D01*
X177313037Y-143651760D01*
X177308817Y-143654346D01*
X177114798Y-143773241D01*
X177114792Y-143773245D01*
X177110584Y-143775824D01*
X176930031Y-143930031D01*
X176775824Y-144110584D01*
X176773245Y-144114792D01*
X176773241Y-144114798D01*
X176654346Y-144308817D01*
X176651760Y-144313037D01*
X176649867Y-144317607D01*
X176649865Y-144317611D01*
X176614742Y-144402407D01*
X176560895Y-144532406D01*
X176559740Y-144537218D01*
X176508048Y-144752531D01*
X176505465Y-144763289D01*
X176486835Y-145000000D01*
X165513165Y-145000000D01*
X165494535Y-144763289D01*
X165491953Y-144752531D01*
X165440260Y-144537218D01*
X165439105Y-144532406D01*
X165385258Y-144402407D01*
X165350135Y-144317611D01*
X165350133Y-144317607D01*
X165348240Y-144313037D01*
X165345654Y-144308817D01*
X165226759Y-144114798D01*
X165226755Y-144114792D01*
X165224176Y-144110584D01*
X165069969Y-143930031D01*
X164889416Y-143775824D01*
X164885208Y-143773245D01*
X164885202Y-143773241D01*
X164691183Y-143654346D01*
X164686963Y-143651760D01*
X164682393Y-143649867D01*
X164682389Y-143649865D01*
X164472167Y-143562789D01*
X164472165Y-143562788D01*
X164467594Y-143560895D01*
X164379185Y-143539670D01*
X164241524Y-143506620D01*
X164241518Y-143506619D01*
X164236711Y-143505465D01*
X164000000Y-143486835D01*
X163763289Y-143505465D01*
X163758482Y-143506619D01*
X163758476Y-143506620D01*
X163620815Y-143539670D01*
X163532406Y-143560895D01*
X163527835Y-143562788D01*
X163527833Y-143562789D01*
X163317611Y-143649865D01*
X163317607Y-143649867D01*
X163313037Y-143651760D01*
X163308817Y-143654346D01*
X163114798Y-143773241D01*
X163114792Y-143773245D01*
X163110584Y-143775824D01*
X162930031Y-143930031D01*
X162926823Y-143933787D01*
X162779795Y-144105934D01*
X162720344Y-144144743D01*
X162649350Y-144145249D01*
X162594889Y-144113198D01*
X158946572Y-140464880D01*
X158912546Y-140402568D01*
X158917611Y-140331752D01*
X158960158Y-140274917D01*
X159026678Y-140250106D01*
X159060788Y-140252315D01*
X159257585Y-140292354D01*
X159257593Y-140292355D01*
X159262656Y-140293385D01*
X159393324Y-140298176D01*
X159488949Y-140301683D01*
X159488953Y-140301683D01*
X159494113Y-140301872D01*
X159499233Y-140301216D01*
X159499235Y-140301216D01*
X159572270Y-140291860D01*
X159723847Y-140272442D01*
X159728795Y-140270957D01*
X159728802Y-140270956D01*
X159940747Y-140207369D01*
X159945690Y-140205886D01*
X160026236Y-140166427D01*
X160149049Y-140106262D01*
X160149052Y-140106260D01*
X160153684Y-140103991D01*
X160342243Y-139969494D01*
X160506303Y-139806005D01*
X160641458Y-139617917D01*
X160653440Y-139593672D01*
X160701553Y-139541466D01*
X160766397Y-139523500D01*
X181310503Y-139523500D01*
X181378624Y-139543502D01*
X181425117Y-139597158D01*
X181435221Y-139667432D01*
X181405727Y-139732012D01*
X181392337Y-139745309D01*
X181259102Y-139859102D01*
X181094672Y-140051624D01*
X180962384Y-140267498D01*
X180960491Y-140272068D01*
X180960489Y-140272072D01*
X180935769Y-140331752D01*
X180865495Y-140501409D01*
X180854005Y-140549270D01*
X180808563Y-140738551D01*
X180806391Y-140747597D01*
X180786526Y-141000000D01*
X180806391Y-141252403D01*
X180865495Y-141498591D01*
X180962384Y-141732502D01*
X181094672Y-141948376D01*
X181259102Y-142140898D01*
X181451624Y-142305328D01*
X181667498Y-142437616D01*
X181672068Y-142439509D01*
X181672072Y-142439511D01*
X181841606Y-142509734D01*
X181901409Y-142534505D01*
X181986032Y-142554821D01*
X182142784Y-142592454D01*
X182142790Y-142592455D01*
X182147597Y-142593609D01*
X182400000Y-142613474D01*
X182652403Y-142593609D01*
X182657210Y-142592455D01*
X182657216Y-142592454D01*
X182813968Y-142554821D01*
X182898591Y-142534505D01*
X182958394Y-142509734D01*
X183127928Y-142439511D01*
X183127932Y-142439509D01*
X183132502Y-142437616D01*
X183348376Y-142305328D01*
X183540898Y-142140898D01*
X183604189Y-142066794D01*
X183663640Y-142027985D01*
X183734634Y-142027479D01*
X183795811Y-142066794D01*
X183859102Y-142140898D01*
X184051624Y-142305328D01*
X184267498Y-142437616D01*
X184272068Y-142439509D01*
X184272072Y-142439511D01*
X184441606Y-142509734D01*
X184501409Y-142534505D01*
X184586032Y-142554821D01*
X184742784Y-142592454D01*
X184742790Y-142592455D01*
X184747597Y-142593609D01*
X185000000Y-142613474D01*
X185252403Y-142593609D01*
X185257210Y-142592455D01*
X185257216Y-142592454D01*
X185413968Y-142554821D01*
X185498591Y-142534505D01*
X185616794Y-142485544D01*
X185687383Y-142477955D01*
X185750870Y-142509734D01*
X185787097Y-142570792D01*
X185791011Y-142601953D01*
X185791011Y-143260895D01*
X185771009Y-143329016D01*
X185754106Y-143349990D01*
X185657125Y-143446971D01*
X185594813Y-143480997D01*
X185519812Y-143474285D01*
X185503164Y-143467389D01*
X185503162Y-143467388D01*
X185498591Y-143465495D01*
X185413968Y-143445179D01*
X185257216Y-143407546D01*
X185257210Y-143407545D01*
X185252403Y-143406391D01*
X185000000Y-143386526D01*
X184747597Y-143406391D01*
X184742790Y-143407545D01*
X184742784Y-143407546D01*
X184586032Y-143445179D01*
X184501409Y-143465495D01*
X184496838Y-143467388D01*
X184496836Y-143467389D01*
X184272072Y-143560489D01*
X184272068Y-143560491D01*
X184267498Y-143562384D01*
X184051624Y-143694672D01*
X183859102Y-143859102D01*
X183855894Y-143862858D01*
X183795811Y-143933206D01*
X183736360Y-143972015D01*
X183665366Y-143972521D01*
X183604189Y-143933206D01*
X183544106Y-143862858D01*
X183540898Y-143859102D01*
X183348376Y-143694672D01*
X183132502Y-143562384D01*
X183127932Y-143560491D01*
X183127928Y-143560489D01*
X182903164Y-143467389D01*
X182903162Y-143467388D01*
X182898591Y-143465495D01*
X182813968Y-143445179D01*
X182657216Y-143407546D01*
X182657210Y-143407545D01*
X182652403Y-143406391D01*
X182400000Y-143386526D01*
X182147597Y-143406391D01*
X182142790Y-143407545D01*
X182142784Y-143407546D01*
X181986032Y-143445179D01*
X181901409Y-143465495D01*
X181896838Y-143467388D01*
X181896836Y-143467389D01*
X181672072Y-143560489D01*
X181672068Y-143560491D01*
X181667498Y-143562384D01*
X181451624Y-143694672D01*
X181259102Y-143859102D01*
X181094672Y-144051624D01*
X180962384Y-144267498D01*
X180960491Y-144272068D01*
X180960489Y-144272072D01*
X180867389Y-144496836D01*
X180865495Y-144501409D01*
X180806391Y-144747597D01*
X180786526Y-145000000D01*
X180806391Y-145252403D01*
X180865495Y-145498591D01*
X180867388Y-145503162D01*
X180867389Y-145503164D01*
X180947668Y-145696974D01*
X180962384Y-145732502D01*
X181094672Y-145948376D01*
X181259102Y-146140898D01*
X181451624Y-146305328D01*
X181667498Y-146437616D01*
X181672068Y-146439509D01*
X181672072Y-146439511D01*
X181896836Y-146532611D01*
X181901409Y-146534505D01*
X181986032Y-146554821D01*
X182142784Y-146592454D01*
X182142790Y-146592455D01*
X182147597Y-146593609D01*
X182400000Y-146613474D01*
X182652403Y-146593609D01*
X182657210Y-146592455D01*
X182657216Y-146592454D01*
X182813968Y-146554821D01*
X182898591Y-146534505D01*
X182903164Y-146532611D01*
X183127928Y-146439511D01*
X183127932Y-146439509D01*
X183132502Y-146437616D01*
X183348376Y-146305328D01*
X183540898Y-146140898D01*
X183604189Y-146066794D01*
X183663640Y-146027985D01*
X183734634Y-146027479D01*
X183795811Y-146066794D01*
X183859102Y-146140898D01*
X184051624Y-146305328D01*
X184267498Y-146437616D01*
X184272068Y-146439509D01*
X184272072Y-146439511D01*
X184496836Y-146532611D01*
X184501409Y-146534505D01*
X184586032Y-146554821D01*
X184742784Y-146592454D01*
X184742790Y-146592455D01*
X184747597Y-146593609D01*
X185000000Y-146613474D01*
X185252403Y-146593609D01*
X185257210Y-146592455D01*
X185257216Y-146592454D01*
X185413968Y-146554821D01*
X185498591Y-146534505D01*
X185503164Y-146532611D01*
X185727928Y-146439511D01*
X185727932Y-146439509D01*
X185732502Y-146437616D01*
X185948376Y-146305328D01*
X186140898Y-146140898D01*
X186305328Y-145948376D01*
X186437616Y-145732502D01*
X186452333Y-145696974D01*
X186532611Y-145503164D01*
X186532612Y-145503162D01*
X186534505Y-145498591D01*
X186593609Y-145252403D01*
X186613474Y-145000000D01*
X186593609Y-144747597D01*
X186534505Y-144501409D01*
X186525716Y-144480190D01*
X186518126Y-144409601D01*
X186553029Y-144342875D01*
X186671514Y-144224391D01*
X186816769Y-144079136D01*
X186825048Y-144071602D01*
X186831529Y-144067489D01*
X186878155Y-144017837D01*
X186880909Y-144014996D01*
X186900646Y-143995259D01*
X186903126Y-143992062D01*
X186910831Y-143983040D01*
X186935670Y-143956589D01*
X186941097Y-143950810D01*
X186944916Y-143943864D01*
X186944918Y-143943861D01*
X186950859Y-143933055D01*
X186961710Y-143916536D01*
X186969269Y-143906790D01*
X186974125Y-143900530D01*
X186977270Y-143893261D01*
X186977273Y-143893257D01*
X186991685Y-143859952D01*
X186996902Y-143849302D01*
X187018206Y-143810549D01*
X187023244Y-143790926D01*
X187029648Y-143772223D01*
X187034544Y-143760909D01*
X187034544Y-143760908D01*
X187037692Y-143753634D01*
X187038931Y-143745811D01*
X187038934Y-143745801D01*
X187044610Y-143709965D01*
X187047016Y-143698345D01*
X187056039Y-143663200D01*
X187056039Y-143663199D01*
X187058011Y-143655519D01*
X187058011Y-143635265D01*
X187059562Y-143615554D01*
X187061491Y-143603375D01*
X187062731Y-143595546D01*
X187058570Y-143551527D01*
X187058011Y-143539670D01*
X187058011Y-130680847D01*
X187063014Y-130645693D01*
X187064655Y-130640045D01*
X187067804Y-130632768D01*
X187076590Y-130577297D01*
X187078074Y-130569522D01*
X187088594Y-130522457D01*
X187090325Y-130514714D01*
X187090066Y-130506479D01*
X187091556Y-130482808D01*
X187091603Y-130482512D01*
X187091603Y-130482509D01*
X187092843Y-130474680D01*
X187092097Y-130466787D01*
X187087558Y-130418766D01*
X187087061Y-130410869D01*
X187085545Y-130362659D01*
X187085296Y-130354733D01*
X187082998Y-130346824D01*
X187078555Y-130323530D01*
X187078526Y-130323221D01*
X187078526Y-130323220D01*
X187077780Y-130315331D01*
X187058751Y-130262475D01*
X187056311Y-130254965D01*
X187042853Y-130208642D01*
X187042852Y-130208639D01*
X187040641Y-130201030D01*
X187036607Y-130194210D01*
X187036604Y-130194202D01*
X187036446Y-130193935D01*
X187026356Y-130172491D01*
X187026251Y-130172200D01*
X187026247Y-130172192D01*
X187023562Y-130164734D01*
X186991977Y-130118258D01*
X186987768Y-130111627D01*
X186959165Y-130063261D01*
X186953345Y-130057441D01*
X186938229Y-130039170D01*
X186938051Y-130038908D01*
X186938049Y-130038906D01*
X186933595Y-130032352D01*
X186927654Y-130027114D01*
X186927652Y-130027112D01*
X186891449Y-129995195D01*
X186885680Y-129989776D01*
X185645405Y-128749500D01*
X185611379Y-128687188D01*
X185608500Y-128660405D01*
X185608500Y-127339595D01*
X185628502Y-127271474D01*
X185645405Y-127250500D01*
X185817254Y-127078651D01*
X185825540Y-127071111D01*
X185832019Y-127066999D01*
X185878645Y-127017347D01*
X185881399Y-127014506D01*
X185901136Y-126994769D01*
X185903616Y-126991572D01*
X185911321Y-126982550D01*
X185936160Y-126956099D01*
X185941587Y-126950320D01*
X185945406Y-126943374D01*
X185945408Y-126943371D01*
X185951349Y-126932565D01*
X185962200Y-126916046D01*
X185969759Y-126906300D01*
X185974615Y-126900040D01*
X185977760Y-126892771D01*
X185977763Y-126892767D01*
X185992175Y-126859462D01*
X185997392Y-126848812D01*
X186018696Y-126810059D01*
X186023734Y-126790436D01*
X186030138Y-126771733D01*
X186035034Y-126760419D01*
X186035034Y-126760418D01*
X186038182Y-126753144D01*
X186039421Y-126745321D01*
X186039424Y-126745311D01*
X186045100Y-126709475D01*
X186047506Y-126697855D01*
X186056529Y-126662710D01*
X186056529Y-126662709D01*
X186058501Y-126655029D01*
X186058501Y-126634775D01*
X186060052Y-126615064D01*
X186061981Y-126602885D01*
X186063221Y-126595056D01*
X186062268Y-126584969D01*
X186059060Y-126551038D01*
X186058501Y-126539180D01*
X186058501Y-117234762D01*
X186059028Y-117223578D01*
X186060702Y-117216090D01*
X186058563Y-117148031D01*
X186058501Y-117144074D01*
X186058501Y-117116143D01*
X186057995Y-117112137D01*
X186057062Y-117100291D01*
X186055923Y-117064036D01*
X186055674Y-117056109D01*
X186050023Y-117036657D01*
X186046015Y-117017305D01*
X186044469Y-117005067D01*
X186044468Y-117005065D01*
X186043475Y-116997202D01*
X186027195Y-116956085D01*
X186023360Y-116944884D01*
X186011019Y-116902405D01*
X186006986Y-116895586D01*
X186006984Y-116895581D01*
X186000708Y-116884970D01*
X185992011Y-116867220D01*
X185984553Y-116848382D01*
X185979430Y-116841330D01*
X185958573Y-116812624D01*
X185952054Y-116802700D01*
X185933579Y-116771459D01*
X185933575Y-116771454D01*
X185929543Y-116764636D01*
X185915219Y-116750312D01*
X185902377Y-116735277D01*
X185890473Y-116718892D01*
X185856407Y-116690710D01*
X185847628Y-116682721D01*
X184988502Y-115823595D01*
X184954476Y-115761283D01*
X184959541Y-115690468D01*
X185002088Y-115633632D01*
X185068608Y-115608821D01*
X185077597Y-115608500D01*
X185148134Y-115608500D01*
X185210316Y-115601745D01*
X185346705Y-115550615D01*
X185463261Y-115463261D01*
X185550615Y-115346705D01*
X185601745Y-115210316D01*
X185608500Y-115148134D01*
X185608500Y-112851866D01*
X185601745Y-112789684D01*
X185550615Y-112653295D01*
X185463261Y-112536739D01*
X185346705Y-112449385D01*
X185210316Y-112398255D01*
X185148134Y-112391500D01*
X182851866Y-112391500D01*
X182789684Y-112398255D01*
X182653295Y-112449385D01*
X182536739Y-112536739D01*
X182449385Y-112653295D01*
X182398255Y-112789684D01*
X182391500Y-112851866D01*
X182391500Y-113240500D01*
X182371498Y-113308621D01*
X182317842Y-113355114D01*
X182265500Y-113366500D01*
X180078768Y-113366500D01*
X180067585Y-113365973D01*
X180060092Y-113364298D01*
X180052166Y-113364547D01*
X180052165Y-113364547D01*
X179992002Y-113366438D01*
X179988044Y-113366500D01*
X179960144Y-113366500D01*
X179956154Y-113367004D01*
X179944320Y-113367936D01*
X179900111Y-113369326D01*
X179892497Y-113371538D01*
X179892492Y-113371539D01*
X179880659Y-113374977D01*
X179861296Y-113378988D01*
X179841203Y-113381526D01*
X179833836Y-113384443D01*
X179833831Y-113384444D01*
X179800092Y-113397802D01*
X179788865Y-113401646D01*
X179746407Y-113413982D01*
X179739581Y-113418019D01*
X179728972Y-113424293D01*
X179711224Y-113432988D01*
X179692383Y-113440448D01*
X179685967Y-113445110D01*
X179685966Y-113445110D01*
X179656613Y-113466436D01*
X179646692Y-113472952D01*
X179608638Y-113495458D01*
X179603031Y-113501064D01*
X179594315Y-113509780D01*
X179579282Y-113522620D01*
X179562893Y-113534528D01*
X179557841Y-113540635D01*
X179534712Y-113568593D01*
X179526722Y-113577374D01*
X179257742Y-113846353D01*
X179249463Y-113853887D01*
X179242982Y-113858000D01*
X179237556Y-113863778D01*
X179237549Y-113863784D01*
X179201350Y-113902333D01*
X179140138Y-113938299D01*
X179069198Y-113935462D01*
X179011054Y-113894722D01*
X178984165Y-113829014D01*
X178983500Y-113816081D01*
X178983500Y-109804594D01*
X179003502Y-109736473D01*
X179020405Y-109715499D01*
X183342875Y-105393029D01*
X183405187Y-105359003D01*
X183480188Y-105365715D01*
X183501409Y-105374505D01*
X183578568Y-105393029D01*
X183742784Y-105432454D01*
X183742790Y-105432455D01*
X183747597Y-105433609D01*
X184000000Y-105453474D01*
X184252403Y-105433609D01*
X184257210Y-105432455D01*
X184257216Y-105432454D01*
X184421432Y-105393029D01*
X184498591Y-105374505D01*
X184519812Y-105365715D01*
X184727928Y-105279511D01*
X184727932Y-105279509D01*
X184732502Y-105277616D01*
X184948376Y-105145328D01*
X185140898Y-104980898D01*
X185305328Y-104788376D01*
X185437616Y-104572502D01*
X185469656Y-104495152D01*
X185532611Y-104343164D01*
X185532612Y-104343162D01*
X185534505Y-104338591D01*
X185585471Y-104126301D01*
X185592454Y-104097216D01*
X185592455Y-104097210D01*
X185593609Y-104092403D01*
X185613474Y-103840000D01*
X185593609Y-103587597D01*
X185590148Y-103573177D01*
X185552643Y-103416960D01*
X185534505Y-103341409D01*
X185489232Y-103232110D01*
X185439511Y-103112072D01*
X185439509Y-103112068D01*
X185437616Y-103107498D01*
X185305328Y-102891624D01*
X185140898Y-102699102D01*
X184948376Y-102534672D01*
X184732502Y-102402384D01*
X184727932Y-102400491D01*
X184727928Y-102400489D01*
X184503164Y-102307389D01*
X184503162Y-102307388D01*
X184498591Y-102305495D01*
X184413968Y-102285179D01*
X184257216Y-102247546D01*
X184257210Y-102247545D01*
X184252403Y-102246391D01*
X184000000Y-102226526D01*
X183747597Y-102246391D01*
X183742790Y-102247545D01*
X183742784Y-102247546D01*
X183586032Y-102285179D01*
X183501409Y-102305495D01*
X183496838Y-102307388D01*
X183496836Y-102307389D01*
X183272072Y-102400489D01*
X183272068Y-102400491D01*
X183267498Y-102402384D01*
X183051624Y-102534672D01*
X182859102Y-102699102D01*
X182694672Y-102891624D01*
X182562384Y-103107498D01*
X182560491Y-103112068D01*
X182560489Y-103112072D01*
X182510768Y-103232110D01*
X182465495Y-103341409D01*
X182447357Y-103416960D01*
X182409853Y-103573177D01*
X182406391Y-103587597D01*
X182386526Y-103840000D01*
X182406391Y-104092403D01*
X182407545Y-104097210D01*
X182407546Y-104097216D01*
X182414529Y-104126301D01*
X182465495Y-104338591D01*
X182467388Y-104343162D01*
X182467389Y-104343164D01*
X182474285Y-104359812D01*
X182481874Y-104430402D01*
X182446971Y-104497125D01*
X177957747Y-108986348D01*
X177949461Y-108993888D01*
X177942982Y-108998000D01*
X177937557Y-109003777D01*
X177896357Y-109047651D01*
X177893602Y-109050493D01*
X177873865Y-109070230D01*
X177871385Y-109073427D01*
X177863682Y-109082447D01*
X177833414Y-109114679D01*
X177829595Y-109121625D01*
X177829593Y-109121628D01*
X177823652Y-109132434D01*
X177812801Y-109148953D01*
X177800386Y-109164959D01*
X177797241Y-109172228D01*
X177797238Y-109172232D01*
X177782826Y-109205537D01*
X177777609Y-109216187D01*
X177756305Y-109254940D01*
X177754334Y-109262615D01*
X177754334Y-109262616D01*
X177751267Y-109274562D01*
X177744863Y-109293266D01*
X177736819Y-109311855D01*
X177735580Y-109319678D01*
X177735577Y-109319688D01*
X177729901Y-109355524D01*
X177727495Y-109367144D01*
X177716500Y-109409970D01*
X177716500Y-109430224D01*
X177714949Y-109449934D01*
X177711780Y-109469943D01*
X177712526Y-109477835D01*
X177715941Y-109513961D01*
X177716500Y-109525819D01*
X177716500Y-114669618D01*
X177696498Y-114737739D01*
X177642842Y-114784232D01*
X177634731Y-114787599D01*
X177611707Y-114796231D01*
X177611704Y-114796232D01*
X177603295Y-114799385D01*
X177486739Y-114886739D01*
X177399385Y-115003295D01*
X177348255Y-115139684D01*
X177341500Y-115201866D01*
X177341500Y-116060406D01*
X177321498Y-116128527D01*
X177304595Y-116149501D01*
X176771706Y-116682389D01*
X176282746Y-117171349D01*
X176274460Y-117178889D01*
X176267981Y-117183001D01*
X176262556Y-117188778D01*
X176221356Y-117232652D01*
X176218601Y-117235494D01*
X176198864Y-117255231D01*
X176196384Y-117258428D01*
X176188681Y-117267448D01*
X176158413Y-117299680D01*
X176154594Y-117306626D01*
X176154592Y-117306629D01*
X176148651Y-117317435D01*
X176137800Y-117333954D01*
X176125385Y-117349960D01*
X176122240Y-117357229D01*
X176122237Y-117357233D01*
X176107825Y-117390538D01*
X176102608Y-117401188D01*
X176081304Y-117439941D01*
X176079333Y-117447616D01*
X176079333Y-117447617D01*
X176076266Y-117459563D01*
X176069862Y-117478267D01*
X176061818Y-117496856D01*
X176060579Y-117504679D01*
X176060576Y-117504689D01*
X176054900Y-117540525D01*
X176052494Y-117552145D01*
X176044628Y-117582784D01*
X176041499Y-117594971D01*
X176041499Y-117615225D01*
X176039948Y-117634935D01*
X176036779Y-117654944D01*
X176037525Y-117662836D01*
X176040940Y-117698962D01*
X176041499Y-117710820D01*
X176041499Y-121144031D01*
X176021497Y-121212152D01*
X175967841Y-121258645D01*
X175897567Y-121268749D01*
X175849664Y-121251463D01*
X175691193Y-121154351D01*
X175691182Y-121154345D01*
X175686963Y-121151760D01*
X175682393Y-121149867D01*
X175682389Y-121149865D01*
X175472167Y-121062789D01*
X175472165Y-121062788D01*
X175467594Y-121060895D01*
X175387391Y-121041640D01*
X175241524Y-121006620D01*
X175241518Y-121006619D01*
X175236711Y-121005465D01*
X175000000Y-120986835D01*
X174763289Y-121005465D01*
X174758482Y-121006619D01*
X174758476Y-121006620D01*
X174592896Y-121046373D01*
X174540049Y-121059060D01*
X174469142Y-121055513D01*
X174421540Y-121025636D01*
X174055449Y-120659544D01*
X173670404Y-120274499D01*
X173636379Y-120212187D01*
X173633500Y-120185404D01*
X173633500Y-117451566D01*
X173653502Y-117383445D01*
X173693665Y-117344133D01*
X173885202Y-117226759D01*
X173885208Y-117226755D01*
X173889416Y-117224176D01*
X174069969Y-117069969D01*
X174224176Y-116889416D01*
X174226755Y-116885208D01*
X174226759Y-116885202D01*
X174345654Y-116691183D01*
X174348240Y-116686963D01*
X174368944Y-116636980D01*
X174437211Y-116472167D01*
X174437212Y-116472165D01*
X174439105Y-116467594D01*
X174494535Y-116236711D01*
X174513165Y-116000000D01*
X174494535Y-115763289D01*
X174485463Y-115725499D01*
X174455086Y-115598971D01*
X174439105Y-115532406D01*
X174420730Y-115488044D01*
X174350135Y-115317611D01*
X174350133Y-115317607D01*
X174348240Y-115313037D01*
X174336929Y-115294579D01*
X174226759Y-115114798D01*
X174226755Y-115114792D01*
X174224176Y-115110584D01*
X174069969Y-114930031D01*
X173889416Y-114775824D01*
X173885208Y-114773245D01*
X173885202Y-114773241D01*
X173691183Y-114654346D01*
X173686963Y-114651760D01*
X173682393Y-114649867D01*
X173682389Y-114649865D01*
X173472167Y-114562789D01*
X173472165Y-114562788D01*
X173467594Y-114560895D01*
X173387391Y-114541640D01*
X173241524Y-114506620D01*
X173241518Y-114506619D01*
X173236711Y-114505465D01*
X173000000Y-114486835D01*
X172763289Y-114505465D01*
X172758482Y-114506619D01*
X172758476Y-114506620D01*
X172612609Y-114541640D01*
X172532406Y-114560895D01*
X172527835Y-114562788D01*
X172527833Y-114562789D01*
X172317611Y-114649865D01*
X172317607Y-114649867D01*
X172313037Y-114651760D01*
X172308817Y-114654346D01*
X172114798Y-114773241D01*
X172114792Y-114773245D01*
X172110584Y-114775824D01*
X171930031Y-114930031D01*
X171775824Y-115110584D01*
X171773245Y-115114792D01*
X171773241Y-115114798D01*
X171663071Y-115294579D01*
X171651760Y-115313037D01*
X171649867Y-115317607D01*
X171649865Y-115317611D01*
X171579270Y-115488044D01*
X171560895Y-115532406D01*
X171544914Y-115598971D01*
X171514538Y-115725499D01*
X171505465Y-115763289D01*
X171486835Y-116000000D01*
X171505465Y-116236711D01*
X171560895Y-116467594D01*
X171562788Y-116472165D01*
X171562789Y-116472167D01*
X171631057Y-116636980D01*
X171651760Y-116686963D01*
X171654346Y-116691183D01*
X171773241Y-116885202D01*
X171773245Y-116885208D01*
X171775824Y-116889416D01*
X171930031Y-117069969D01*
X172110584Y-117224176D01*
X172114792Y-117226755D01*
X172114798Y-117226759D01*
X172306335Y-117344133D01*
X172353966Y-117396781D01*
X172366500Y-117451566D01*
X172366500Y-120421233D01*
X172365973Y-120432416D01*
X172364298Y-120439909D01*
X172364547Y-120447835D01*
X172364547Y-120447836D01*
X172366438Y-120507986D01*
X172366500Y-120511945D01*
X172366500Y-120539856D01*
X172366997Y-120543790D01*
X172366997Y-120543791D01*
X172367005Y-120543856D01*
X172367938Y-120555693D01*
X172369327Y-120599889D01*
X172374386Y-120617301D01*
X172374978Y-120619339D01*
X172378987Y-120638700D01*
X172381526Y-120658797D01*
X172384445Y-120666168D01*
X172384445Y-120666170D01*
X172397804Y-120699912D01*
X172401649Y-120711142D01*
X172413982Y-120753593D01*
X172418015Y-120760412D01*
X172418017Y-120760417D01*
X172424293Y-120771028D01*
X172432988Y-120788776D01*
X172440448Y-120807617D01*
X172445110Y-120814033D01*
X172445110Y-120814034D01*
X172466436Y-120843387D01*
X172472952Y-120853307D01*
X172488246Y-120879167D01*
X172495458Y-120891362D01*
X172509779Y-120905683D01*
X172522619Y-120920716D01*
X172534528Y-120937107D01*
X172568605Y-120965298D01*
X172577384Y-120973288D01*
X173525636Y-121921540D01*
X173559662Y-121983852D01*
X173559060Y-122040049D01*
X173509163Y-122247887D01*
X173505465Y-122263289D01*
X173486835Y-122500000D01*
X173505465Y-122736711D01*
X173506619Y-122741518D01*
X173506620Y-122741524D01*
X173529269Y-122835861D01*
X173560895Y-122967594D01*
X173562788Y-122972165D01*
X173562789Y-122972167D01*
X173581477Y-123017283D01*
X173589066Y-123087872D01*
X173557287Y-123151359D01*
X173496229Y-123187587D01*
X173465068Y-123191501D01*
X168534932Y-123191501D01*
X168466811Y-123171499D01*
X168420318Y-123117843D01*
X168410214Y-123047569D01*
X168418523Y-123017283D01*
X168437211Y-122972167D01*
X168437212Y-122972165D01*
X168439105Y-122967594D01*
X168470731Y-122835861D01*
X168493380Y-122741524D01*
X168493381Y-122741518D01*
X168494535Y-122736711D01*
X168513165Y-122500000D01*
X168494535Y-122263289D01*
X168490838Y-122247887D01*
X168440940Y-122040049D01*
X168444487Y-121969141D01*
X168474362Y-121921542D01*
X169392264Y-121003641D01*
X169400538Y-120996112D01*
X169407018Y-120992000D01*
X169453644Y-120942348D01*
X169456398Y-120939507D01*
X169476135Y-120919770D01*
X169478615Y-120916573D01*
X169486320Y-120907551D01*
X169488074Y-120905683D01*
X169516586Y-120875321D01*
X169520405Y-120868375D01*
X169520407Y-120868372D01*
X169526348Y-120857566D01*
X169537199Y-120841047D01*
X169544758Y-120831301D01*
X169549614Y-120825041D01*
X169552759Y-120817772D01*
X169552762Y-120817768D01*
X169567174Y-120784463D01*
X169572391Y-120773813D01*
X169593695Y-120735060D01*
X169598733Y-120715437D01*
X169605137Y-120696734D01*
X169610033Y-120685420D01*
X169610033Y-120685419D01*
X169613181Y-120678145D01*
X169614420Y-120670322D01*
X169614423Y-120670312D01*
X169620099Y-120634476D01*
X169622505Y-120622856D01*
X169631528Y-120587711D01*
X169631528Y-120587710D01*
X169633500Y-120580030D01*
X169633500Y-120559776D01*
X169635051Y-120540065D01*
X169636980Y-120527886D01*
X169638220Y-120520057D01*
X169634059Y-120476038D01*
X169633500Y-120464181D01*
X169633500Y-117451566D01*
X169653502Y-117383445D01*
X169693665Y-117344133D01*
X169885202Y-117226759D01*
X169885208Y-117226755D01*
X169889416Y-117224176D01*
X170069969Y-117069969D01*
X170224176Y-116889416D01*
X170226755Y-116885208D01*
X170226759Y-116885202D01*
X170345654Y-116691183D01*
X170348240Y-116686963D01*
X170368944Y-116636980D01*
X170437211Y-116472167D01*
X170437212Y-116472165D01*
X170439105Y-116467594D01*
X170494535Y-116236711D01*
X170513165Y-116000000D01*
X170494535Y-115763289D01*
X170485463Y-115725499D01*
X170455086Y-115598971D01*
X170439105Y-115532406D01*
X170420730Y-115488044D01*
X170350135Y-115317611D01*
X170350133Y-115317607D01*
X170348240Y-115313037D01*
X170336929Y-115294579D01*
X170226759Y-115114798D01*
X170226755Y-115114792D01*
X170224176Y-115110584D01*
X170069969Y-114930031D01*
X169889416Y-114775824D01*
X169885208Y-114773245D01*
X169885202Y-114773241D01*
X169691183Y-114654346D01*
X169686963Y-114651760D01*
X169682393Y-114649867D01*
X169682389Y-114649865D01*
X169472167Y-114562789D01*
X169472165Y-114562788D01*
X169467594Y-114560895D01*
X169387391Y-114541640D01*
X169241524Y-114506620D01*
X169241518Y-114506619D01*
X169236711Y-114505465D01*
X169000000Y-114486835D01*
X168763289Y-114505465D01*
X168758482Y-114506619D01*
X168758476Y-114506620D01*
X168612609Y-114541640D01*
X168532406Y-114560895D01*
X168527835Y-114562788D01*
X168527833Y-114562789D01*
X168317611Y-114649865D01*
X168317607Y-114649867D01*
X168313037Y-114651760D01*
X168308817Y-114654346D01*
X168114798Y-114773241D01*
X168114792Y-114773245D01*
X168110584Y-114775824D01*
X167930031Y-114930031D01*
X167775824Y-115110584D01*
X167773245Y-115114792D01*
X167773241Y-115114798D01*
X167655867Y-115306335D01*
X167603219Y-115353966D01*
X167548434Y-115366500D01*
X165314595Y-115366500D01*
X165246474Y-115346498D01*
X165225500Y-115329595D01*
X161670405Y-111774500D01*
X161636379Y-111712188D01*
X161633500Y-111685405D01*
X161633500Y-104617766D01*
X161634027Y-104606583D01*
X161635702Y-104599090D01*
X161633562Y-104530999D01*
X161633500Y-104527042D01*
X161633500Y-104499142D01*
X161632996Y-104495151D01*
X161632063Y-104483309D01*
X161630923Y-104447034D01*
X161630674Y-104439109D01*
X161628462Y-104431495D01*
X161628461Y-104431490D01*
X161625023Y-104419657D01*
X161621012Y-104400293D01*
X161619467Y-104388062D01*
X161618474Y-104380201D01*
X161615557Y-104372834D01*
X161615556Y-104372829D01*
X161602198Y-104339090D01*
X161598354Y-104327863D01*
X161588230Y-104293020D01*
X161586018Y-104285405D01*
X161575707Y-104267970D01*
X161567012Y-104250222D01*
X161559552Y-104231381D01*
X161533564Y-104195611D01*
X161527048Y-104185691D01*
X161508580Y-104154463D01*
X161508578Y-104154460D01*
X161504542Y-104147636D01*
X161490221Y-104133315D01*
X161477380Y-104118281D01*
X161470131Y-104108304D01*
X161465472Y-104101891D01*
X161431395Y-104073700D01*
X161422616Y-104065710D01*
X156514644Y-99157737D01*
X156507104Y-99149451D01*
X156502992Y-99142972D01*
X156453340Y-99096346D01*
X156450499Y-99093592D01*
X156430762Y-99073855D01*
X156427565Y-99071375D01*
X156418543Y-99063670D01*
X156405114Y-99051059D01*
X156386313Y-99033404D01*
X156379367Y-99029585D01*
X156379364Y-99029583D01*
X156368558Y-99023642D01*
X156352039Y-99012791D01*
X156351575Y-99012431D01*
X156336033Y-99000376D01*
X156328764Y-98997231D01*
X156328760Y-98997228D01*
X156295455Y-98982816D01*
X156284805Y-98977599D01*
X156246052Y-98956295D01*
X156226429Y-98951257D01*
X156207726Y-98944853D01*
X156196412Y-98939957D01*
X156196411Y-98939957D01*
X156189137Y-98936809D01*
X156181314Y-98935570D01*
X156181304Y-98935567D01*
X156145468Y-98929891D01*
X156133848Y-98927485D01*
X156098703Y-98918462D01*
X156098702Y-98918462D01*
X156091022Y-98916490D01*
X156070768Y-98916490D01*
X156051057Y-98914939D01*
X156038878Y-98913010D01*
X156031049Y-98911770D01*
X156001778Y-98914537D01*
X155987031Y-98915931D01*
X155975173Y-98916490D01*
X140028777Y-98916490D01*
X140017594Y-98915963D01*
X140010101Y-98914288D01*
X140002175Y-98914537D01*
X140002174Y-98914537D01*
X139942024Y-98916428D01*
X139938065Y-98916490D01*
X139910154Y-98916490D01*
X139906220Y-98916987D01*
X139906219Y-98916987D01*
X139906154Y-98916995D01*
X139894317Y-98917928D01*
X139862500Y-98918928D01*
X139858039Y-98919068D01*
X139850120Y-98919317D01*
X139832464Y-98924446D01*
X139830668Y-98924968D01*
X139811316Y-98928976D01*
X139804245Y-98929870D01*
X139791213Y-98931516D01*
X139783844Y-98934433D01*
X139783842Y-98934434D01*
X139750107Y-98947790D01*
X139738880Y-98951635D01*
X139736697Y-98952269D01*
X139696417Y-98963972D01*
X139689594Y-98968007D01*
X139689592Y-98968008D01*
X139678982Y-98974283D01*
X139661234Y-98982978D01*
X139642393Y-98990438D01*
X139635977Y-98995100D01*
X139635976Y-98995100D01*
X139606623Y-99016426D01*
X139596703Y-99022942D01*
X139565475Y-99041410D01*
X139565472Y-99041412D01*
X139558648Y-99045448D01*
X139544327Y-99059769D01*
X139529294Y-99072609D01*
X139512903Y-99084518D01*
X139504227Y-99095006D01*
X139484712Y-99118595D01*
X139476722Y-99127374D01*
X137578459Y-101025636D01*
X137516147Y-101059662D01*
X137459951Y-101059060D01*
X137407104Y-101046373D01*
X137241524Y-101006620D01*
X137241518Y-101006619D01*
X137236711Y-101005465D01*
X137000000Y-100986835D01*
X136763289Y-101005465D01*
X136758482Y-101006619D01*
X136758476Y-101006620D01*
X136612609Y-101041640D01*
X136532406Y-101060895D01*
X136527835Y-101062788D01*
X136527833Y-101062789D01*
X136317611Y-101149865D01*
X136317607Y-101149867D01*
X136313037Y-101151760D01*
X136308817Y-101154346D01*
X136114798Y-101273241D01*
X136114792Y-101273245D01*
X136110584Y-101275824D01*
X135930031Y-101430031D01*
X135775824Y-101610584D01*
X135773245Y-101614792D01*
X135773241Y-101614798D01*
X135685195Y-101758476D01*
X135651760Y-101813037D01*
X135649867Y-101817607D01*
X135649865Y-101817611D01*
X135578286Y-101990420D01*
X135560895Y-102032406D01*
X135559740Y-102037218D01*
X135509245Y-102247546D01*
X135505465Y-102263289D01*
X135486835Y-102500000D01*
X135505465Y-102736711D01*
X135560895Y-102967594D01*
X135562788Y-102972165D01*
X135562789Y-102972167D01*
X135618845Y-103107498D01*
X135651760Y-103186963D01*
X135654346Y-103191183D01*
X135773241Y-103385202D01*
X135773245Y-103385208D01*
X135775824Y-103389416D01*
X135930031Y-103569969D01*
X136110584Y-103724176D01*
X136114792Y-103726755D01*
X136114798Y-103726759D01*
X136299591Y-103840000D01*
X136313037Y-103848240D01*
X136317607Y-103850133D01*
X136317611Y-103850135D01*
X136527833Y-103937211D01*
X136532406Y-103939105D01*
X136612609Y-103958360D01*
X136758476Y-103993380D01*
X136758482Y-103993381D01*
X136763289Y-103994535D01*
X137000000Y-104013165D01*
X137236711Y-103994535D01*
X137241518Y-103993381D01*
X137241524Y-103993380D01*
X137387391Y-103958360D01*
X137467594Y-103939105D01*
X137472167Y-103937211D01*
X137682389Y-103850135D01*
X137682393Y-103850133D01*
X137686963Y-103848240D01*
X137700409Y-103840000D01*
X137885202Y-103726759D01*
X137885208Y-103726755D01*
X137889416Y-103724176D01*
X138069969Y-103569969D01*
X138224176Y-103389416D01*
X138226755Y-103385208D01*
X138226759Y-103385202D01*
X138345654Y-103191183D01*
X138348240Y-103186963D01*
X138381156Y-103107498D01*
X138437211Y-102972167D01*
X138437212Y-102972165D01*
X138439105Y-102967594D01*
X138494535Y-102736711D01*
X138513165Y-102500000D01*
X138494535Y-102263289D01*
X138490756Y-102247546D01*
X138440940Y-102040049D01*
X138444487Y-101969141D01*
X138474364Y-101921540D01*
X140175509Y-100220395D01*
X140237821Y-100186369D01*
X140264604Y-100183490D01*
X145116416Y-100183490D01*
X145184537Y-100203492D01*
X145231030Y-100257148D01*
X145241134Y-100327422D01*
X145211640Y-100392002D01*
X145205511Y-100398585D01*
X145078460Y-100525636D01*
X145016148Y-100559662D01*
X144959951Y-100559060D01*
X144741524Y-100506620D01*
X144741518Y-100506619D01*
X144736711Y-100505465D01*
X144500000Y-100486835D01*
X144263289Y-100505465D01*
X144258482Y-100506619D01*
X144258476Y-100506620D01*
X144112609Y-100541640D01*
X144032406Y-100560895D01*
X144027835Y-100562788D01*
X144027833Y-100562789D01*
X143817611Y-100649865D01*
X143817607Y-100649867D01*
X143813037Y-100651760D01*
X143808817Y-100654346D01*
X143614798Y-100773241D01*
X143614792Y-100773245D01*
X143610584Y-100775824D01*
X143430031Y-100930031D01*
X143275824Y-101110584D01*
X143273245Y-101114792D01*
X143273241Y-101114798D01*
X143154346Y-101308817D01*
X143151760Y-101313037D01*
X143149867Y-101317607D01*
X143149865Y-101317611D01*
X143116409Y-101398382D01*
X143071861Y-101453663D01*
X143004497Y-101476084D01*
X142935706Y-101458526D01*
X142887328Y-101406564D01*
X142883591Y-101398382D01*
X142850135Y-101317611D01*
X142850133Y-101317607D01*
X142848240Y-101313037D01*
X142845654Y-101308817D01*
X142726759Y-101114798D01*
X142726755Y-101114792D01*
X142724176Y-101110584D01*
X142569969Y-100930031D01*
X142389416Y-100775824D01*
X142385208Y-100773245D01*
X142385202Y-100773241D01*
X142191183Y-100654346D01*
X142186963Y-100651760D01*
X142182393Y-100649867D01*
X142182389Y-100649865D01*
X141972167Y-100562789D01*
X141972165Y-100562788D01*
X141967594Y-100560895D01*
X141887391Y-100541640D01*
X141741524Y-100506620D01*
X141741518Y-100506619D01*
X141736711Y-100505465D01*
X141500000Y-100486835D01*
X141263289Y-100505465D01*
X141258482Y-100506619D01*
X141258476Y-100506620D01*
X141112609Y-100541640D01*
X141032406Y-100560895D01*
X141027835Y-100562788D01*
X141027833Y-100562789D01*
X140817611Y-100649865D01*
X140817607Y-100649867D01*
X140813037Y-100651760D01*
X140808817Y-100654346D01*
X140614798Y-100773241D01*
X140614792Y-100773245D01*
X140610584Y-100775824D01*
X140430031Y-100930031D01*
X140275824Y-101110584D01*
X140273245Y-101114792D01*
X140273241Y-101114798D01*
X140154346Y-101308817D01*
X140151760Y-101313037D01*
X140149867Y-101317607D01*
X140149865Y-101317611D01*
X140062789Y-101527833D01*
X140060895Y-101532406D01*
X140005465Y-101763289D01*
X139986835Y-102000000D01*
X140005465Y-102236711D01*
X140006619Y-102241518D01*
X140006620Y-102241524D01*
X140059060Y-102459950D01*
X140055513Y-102530858D01*
X140025636Y-102578459D01*
X134723095Y-107881000D01*
X134660783Y-107915026D01*
X134589968Y-107909961D01*
X134533132Y-107867414D01*
X134508321Y-107800894D01*
X134508000Y-107791905D01*
X134508000Y-98000000D01*
X135387028Y-98000000D01*
X135406886Y-98252324D01*
X135408040Y-98257131D01*
X135408041Y-98257137D01*
X135445543Y-98413345D01*
X135465972Y-98498436D01*
X135467865Y-98503007D01*
X135467866Y-98503009D01*
X135504728Y-98592000D01*
X135562831Y-98732274D01*
X135695078Y-98948081D01*
X135859457Y-99140543D01*
X136051919Y-99304922D01*
X136267726Y-99437169D01*
X136272296Y-99439062D01*
X136272300Y-99439064D01*
X136496991Y-99532134D01*
X136501564Y-99534028D01*
X136586655Y-99554457D01*
X136742863Y-99591959D01*
X136742869Y-99591960D01*
X136747676Y-99593114D01*
X137000000Y-99612972D01*
X137252324Y-99593114D01*
X137257131Y-99591960D01*
X137257137Y-99591959D01*
X137413345Y-99554457D01*
X137498436Y-99534028D01*
X137503009Y-99532134D01*
X137727700Y-99439064D01*
X137727704Y-99439062D01*
X137732274Y-99437169D01*
X137948081Y-99304922D01*
X138140543Y-99140543D01*
X138304922Y-98948081D01*
X138437169Y-98732274D01*
X138495273Y-98592000D01*
X138532134Y-98503009D01*
X138532135Y-98503007D01*
X138534028Y-98498436D01*
X138554457Y-98413345D01*
X138591959Y-98257137D01*
X138591960Y-98257131D01*
X138593114Y-98252324D01*
X138612972Y-98000000D01*
X183387028Y-98000000D01*
X183406886Y-98252324D01*
X183408040Y-98257131D01*
X183408041Y-98257137D01*
X183445543Y-98413345D01*
X183465972Y-98498436D01*
X183467865Y-98503007D01*
X183467866Y-98503009D01*
X183504728Y-98592000D01*
X183562831Y-98732274D01*
X183695078Y-98948081D01*
X183859457Y-99140543D01*
X184051919Y-99304922D01*
X184267726Y-99437169D01*
X184272296Y-99439062D01*
X184272300Y-99439064D01*
X184496991Y-99532134D01*
X184501564Y-99534028D01*
X184586655Y-99554457D01*
X184742863Y-99591959D01*
X184742869Y-99591960D01*
X184747676Y-99593114D01*
X185000000Y-99612972D01*
X185252324Y-99593114D01*
X185257131Y-99591960D01*
X185257137Y-99591959D01*
X185413345Y-99554457D01*
X185498436Y-99534028D01*
X185503009Y-99532134D01*
X185727700Y-99439064D01*
X185727704Y-99439062D01*
X185732274Y-99437169D01*
X185948081Y-99304922D01*
X186140543Y-99140543D01*
X186304922Y-98948081D01*
X186437169Y-98732274D01*
X186495273Y-98592000D01*
X186532134Y-98503009D01*
X186532135Y-98503007D01*
X186534028Y-98498436D01*
X186554457Y-98413345D01*
X186591959Y-98257137D01*
X186591960Y-98257131D01*
X186593114Y-98252324D01*
X186612972Y-98000000D01*
X186593114Y-97747676D01*
X186582629Y-97704000D01*
X186535183Y-97506376D01*
X186534028Y-97501564D01*
X186503628Y-97428172D01*
X186439064Y-97272300D01*
X186439062Y-97272296D01*
X186437169Y-97267726D01*
X186304922Y-97051919D01*
X186140543Y-96859457D01*
X185948081Y-96695078D01*
X185732274Y-96562831D01*
X185727704Y-96560938D01*
X185727700Y-96560936D01*
X185503009Y-96467866D01*
X185503007Y-96467865D01*
X185498436Y-96465972D01*
X185413345Y-96445543D01*
X185257137Y-96408041D01*
X185257131Y-96408040D01*
X185252324Y-96406886D01*
X185000000Y-96387028D01*
X184747676Y-96406886D01*
X184742869Y-96408040D01*
X184742863Y-96408041D01*
X184586655Y-96445543D01*
X184501564Y-96465972D01*
X184496993Y-96467865D01*
X184496991Y-96467866D01*
X184272300Y-96560936D01*
X184272296Y-96560938D01*
X184267726Y-96562831D01*
X184051919Y-96695078D01*
X183859457Y-96859457D01*
X183695078Y-97051919D01*
X183562831Y-97267726D01*
X183560938Y-97272296D01*
X183560936Y-97272300D01*
X183496372Y-97428172D01*
X183465972Y-97501564D01*
X183464817Y-97506376D01*
X183417372Y-97704000D01*
X183406886Y-97747676D01*
X183387028Y-98000000D01*
X138612972Y-98000000D01*
X138593114Y-97747676D01*
X138582629Y-97704000D01*
X138535183Y-97506376D01*
X138534028Y-97501564D01*
X138503628Y-97428172D01*
X138439064Y-97272300D01*
X138439062Y-97272296D01*
X138437169Y-97267726D01*
X138304922Y-97051919D01*
X138140543Y-96859457D01*
X137948081Y-96695078D01*
X137732274Y-96562831D01*
X137727704Y-96560938D01*
X137727700Y-96560936D01*
X137503009Y-96467866D01*
X137503007Y-96467865D01*
X137498436Y-96465972D01*
X137413345Y-96445543D01*
X137257137Y-96408041D01*
X137257131Y-96408040D01*
X137252324Y-96406886D01*
X137000000Y-96387028D01*
X136747676Y-96406886D01*
X136742869Y-96408040D01*
X136742863Y-96408041D01*
X136586655Y-96445543D01*
X136501564Y-96465972D01*
X136496993Y-96467865D01*
X136496991Y-96467866D01*
X136272300Y-96560936D01*
X136272296Y-96560938D01*
X136267726Y-96562831D01*
X136051919Y-96695078D01*
X135859457Y-96859457D01*
X135695078Y-97051919D01*
X135562831Y-97267726D01*
X135560938Y-97272296D01*
X135560936Y-97272300D01*
X135496372Y-97428172D01*
X135465972Y-97501564D01*
X135464817Y-97506376D01*
X135417372Y-97704000D01*
X135406886Y-97747676D01*
X135387028Y-98000000D01*
X134508000Y-98000000D01*
X134508000Y-95634000D01*
X134528002Y-95565879D01*
X134581658Y-95519386D01*
X134634000Y-95508000D01*
X168521953Y-95508000D01*
X168590074Y-95528002D01*
G37*
G04 #@! TD.AperFunction*
G04 #@! TA.AperFunction,Conductor*
G36*
X146064294Y-102541474D02*
G01*
X146112672Y-102593436D01*
X146116409Y-102601618D01*
X146149772Y-102682163D01*
X146151760Y-102686963D01*
X146154346Y-102691183D01*
X146273241Y-102885202D01*
X146273245Y-102885208D01*
X146275824Y-102889416D01*
X146430031Y-103069969D01*
X146610584Y-103224176D01*
X146614792Y-103226755D01*
X146614798Y-103226759D01*
X146806335Y-103344133D01*
X146853966Y-103396781D01*
X146866500Y-103451566D01*
X146866500Y-108548434D01*
X146846498Y-108616555D01*
X146806335Y-108655867D01*
X146614798Y-108773241D01*
X146614792Y-108773245D01*
X146610584Y-108775824D01*
X146430031Y-108930031D01*
X146275824Y-109110584D01*
X146273245Y-109114792D01*
X146273241Y-109114798D01*
X146169452Y-109284166D01*
X146151760Y-109313037D01*
X146149867Y-109317607D01*
X146149865Y-109317611D01*
X146116138Y-109399036D01*
X146071590Y-109454317D01*
X146004226Y-109476738D01*
X145935435Y-109459180D01*
X145887057Y-109407218D01*
X145883320Y-109399036D01*
X145849687Y-109317837D01*
X145845205Y-109309042D01*
X145742568Y-109141555D01*
X145732110Y-109132093D01*
X145723334Y-109135876D01*
X144872022Y-109987188D01*
X144864408Y-110001132D01*
X144864539Y-110002965D01*
X144868790Y-110009580D01*
X145720290Y-110861080D01*
X145732670Y-110867840D01*
X145740320Y-110862113D01*
X145845205Y-110690958D01*
X145849687Y-110682163D01*
X145883320Y-110600964D01*
X145927868Y-110545683D01*
X145995231Y-110523262D01*
X146064022Y-110540820D01*
X146112401Y-110592782D01*
X146116138Y-110600964D01*
X146149772Y-110682163D01*
X146151760Y-110686963D01*
X146154346Y-110691183D01*
X146273241Y-110885202D01*
X146273245Y-110885208D01*
X146275824Y-110889416D01*
X146430031Y-111069969D01*
X146610584Y-111224176D01*
X146614792Y-111226755D01*
X146614798Y-111226759D01*
X146806335Y-111344133D01*
X146853966Y-111396781D01*
X146866500Y-111451566D01*
X146866500Y-116721233D01*
X146865973Y-116732416D01*
X146864298Y-116739909D01*
X146864547Y-116747835D01*
X146864547Y-116747836D01*
X146866438Y-116807986D01*
X146866500Y-116811945D01*
X146866500Y-116839856D01*
X146866997Y-116843790D01*
X146866997Y-116843791D01*
X146867005Y-116843856D01*
X146867938Y-116855693D01*
X146869327Y-116899889D01*
X146872268Y-116910011D01*
X146874978Y-116919339D01*
X146878987Y-116938700D01*
X146881526Y-116958797D01*
X146884445Y-116966168D01*
X146884445Y-116966170D01*
X146897804Y-116999912D01*
X146901649Y-117011142D01*
X146906296Y-117027136D01*
X146913982Y-117053593D01*
X146918015Y-117060412D01*
X146918017Y-117060417D01*
X146924293Y-117071028D01*
X146932988Y-117088776D01*
X146940448Y-117107617D01*
X146945110Y-117114033D01*
X146945110Y-117114034D01*
X146966436Y-117143387D01*
X146972952Y-117153307D01*
X146989468Y-117181233D01*
X146995458Y-117191362D01*
X147009779Y-117205683D01*
X147022619Y-117220716D01*
X147034528Y-117237107D01*
X147068605Y-117265298D01*
X147077384Y-117273288D01*
X158039153Y-128235058D01*
X158073179Y-128297370D01*
X158071476Y-128357823D01*
X158041707Y-128465169D01*
X158017095Y-128695469D01*
X158017392Y-128700622D01*
X158017392Y-128700625D01*
X158023067Y-128799041D01*
X158030427Y-128926697D01*
X158031564Y-128931743D01*
X158031565Y-128931749D01*
X158063741Y-129074523D01*
X158081346Y-129152642D01*
X158083288Y-129157424D01*
X158083289Y-129157428D01*
X158160147Y-129346705D01*
X158168484Y-129367237D01*
X158171183Y-129371641D01*
X158277558Y-129545229D01*
X158289501Y-129564719D01*
X158441147Y-129739784D01*
X158619349Y-129887730D01*
X158623819Y-129890342D01*
X158627511Y-129892500D01*
X158676232Y-129944140D01*
X158689301Y-130013924D01*
X158662566Y-130079694D01*
X158639589Y-130102045D01*
X158617966Y-130118280D01*
X158545764Y-130172491D01*
X158491655Y-130213117D01*
X158331639Y-130380564D01*
X158328725Y-130384836D01*
X158328724Y-130384837D01*
X158313152Y-130407665D01*
X158201119Y-130571899D01*
X158103602Y-130781981D01*
X158041707Y-131005169D01*
X158017095Y-131235469D01*
X158017392Y-131240622D01*
X158017392Y-131240625D01*
X158025850Y-131387313D01*
X158030427Y-131466697D01*
X158031564Y-131471743D01*
X158031565Y-131471749D01*
X158059268Y-131594674D01*
X158081346Y-131692642D01*
X158083292Y-131697434D01*
X158083414Y-131697824D01*
X158084697Y-131768809D01*
X158047399Y-131829219D01*
X157983362Y-131859874D01*
X157963179Y-131861501D01*
X143043762Y-131861501D01*
X143032578Y-131860974D01*
X143025090Y-131859300D01*
X143017167Y-131859549D01*
X142957032Y-131861439D01*
X142953074Y-131861501D01*
X142925143Y-131861501D01*
X142921228Y-131861996D01*
X142921224Y-131861996D01*
X142921166Y-131862004D01*
X142921137Y-131862007D01*
X142909295Y-131862940D01*
X142865109Y-131864328D01*
X142847743Y-131869373D01*
X142845657Y-131869979D01*
X142826305Y-131873987D01*
X142819234Y-131874881D01*
X142806202Y-131876527D01*
X142798833Y-131879444D01*
X142798831Y-131879445D01*
X142765096Y-131892801D01*
X142753868Y-131896646D01*
X142711406Y-131908983D01*
X142704584Y-131913017D01*
X142704578Y-131913020D01*
X142693967Y-131919295D01*
X142676217Y-131927991D01*
X142664755Y-131932529D01*
X142664750Y-131932532D01*
X142657382Y-131935449D01*
X142650967Y-131940110D01*
X142621624Y-131961428D01*
X142611706Y-131967944D01*
X142593018Y-131978996D01*
X142573636Y-131990459D01*
X142559312Y-132004783D01*
X142544280Y-132017622D01*
X142527892Y-132029529D01*
X142499711Y-132063594D01*
X142491721Y-132072374D01*
X138193237Y-136370858D01*
X138130925Y-136404884D01*
X138060110Y-136399819D01*
X138003274Y-136357272D01*
X137978566Y-136292088D01*
X137964772Y-136124317D01*
X137964349Y-136119167D01*
X137930797Y-135985592D01*
X137909184Y-135899544D01*
X137909183Y-135899540D01*
X137907925Y-135894533D01*
X137896017Y-135867146D01*
X137817630Y-135686868D01*
X137817628Y-135686865D01*
X137815570Y-135682131D01*
X137689764Y-135487665D01*
X137671315Y-135467389D01*
X137616861Y-135407546D01*
X137533887Y-135316358D01*
X137529836Y-135313159D01*
X137529832Y-135313155D01*
X137357077Y-135176722D01*
X137316014Y-135118805D01*
X137312782Y-135047882D01*
X137348407Y-134986470D01*
X137362001Y-134975261D01*
X137365872Y-134972500D01*
X137482243Y-134889494D01*
X137646303Y-134726005D01*
X137781458Y-134537917D01*
X137828641Y-134442450D01*
X137881784Y-134334922D01*
X137881785Y-134334920D01*
X137884078Y-134330280D01*
X137951408Y-134108671D01*
X137981640Y-133879041D01*
X137983327Y-133810000D01*
X137977032Y-133733434D01*
X137964773Y-133584318D01*
X137964772Y-133584312D01*
X137964349Y-133579167D01*
X137915579Y-133385003D01*
X137909184Y-133359544D01*
X137909183Y-133359540D01*
X137907925Y-133354533D01*
X137900375Y-133337169D01*
X137817630Y-133146868D01*
X137817628Y-133146865D01*
X137815570Y-133142131D01*
X137689764Y-132947665D01*
X137662423Y-132917617D01*
X137602570Y-132851840D01*
X137533887Y-132776358D01*
X137529836Y-132773159D01*
X137529832Y-132773155D01*
X137357077Y-132636722D01*
X137316014Y-132578805D01*
X137312782Y-132507882D01*
X137348407Y-132446470D01*
X137362001Y-132435261D01*
X137365872Y-132432500D01*
X137482243Y-132349494D01*
X137646303Y-132186005D01*
X137781458Y-131997917D01*
X137796272Y-131967944D01*
X137881784Y-131794922D01*
X137881785Y-131794920D01*
X137884078Y-131790280D01*
X137951408Y-131568671D01*
X137981640Y-131339041D01*
X137982160Y-131317762D01*
X137983245Y-131273365D01*
X137983245Y-131273361D01*
X137983327Y-131270000D01*
X137971230Y-131122856D01*
X137964773Y-131044318D01*
X137964772Y-131044312D01*
X137964349Y-131039167D01*
X137936137Y-130926850D01*
X137909184Y-130819544D01*
X137909183Y-130819540D01*
X137907925Y-130814533D01*
X137905866Y-130809797D01*
X137817630Y-130606868D01*
X137817628Y-130606865D01*
X137815570Y-130602131D01*
X137689764Y-130407665D01*
X137533887Y-130236358D01*
X137529836Y-130233159D01*
X137529832Y-130233155D01*
X137357077Y-130096722D01*
X137316014Y-130038805D01*
X137312782Y-129967882D01*
X137348407Y-129906470D01*
X137362001Y-129895261D01*
X137365872Y-129892500D01*
X137482243Y-129809494D01*
X137646303Y-129646005D01*
X137781458Y-129457917D01*
X137828641Y-129362450D01*
X137881784Y-129254922D01*
X137881785Y-129254920D01*
X137884078Y-129250280D01*
X137951408Y-129028671D01*
X137981640Y-128799041D01*
X137983327Y-128730000D01*
X137964349Y-128499167D01*
X137928026Y-128354560D01*
X137930830Y-128283618D01*
X137961135Y-128234769D01*
X139906227Y-126289678D01*
X141892253Y-124303652D01*
X141900539Y-124296112D01*
X141907018Y-124292000D01*
X141953644Y-124242348D01*
X141956398Y-124239507D01*
X141976135Y-124219770D01*
X141978615Y-124216573D01*
X141986320Y-124207551D01*
X142011159Y-124181100D01*
X142016586Y-124175321D01*
X142020405Y-124168375D01*
X142020407Y-124168372D01*
X142026348Y-124157566D01*
X142037199Y-124141047D01*
X142044758Y-124131301D01*
X142049614Y-124125041D01*
X142052759Y-124117772D01*
X142052762Y-124117768D01*
X142067174Y-124084463D01*
X142072391Y-124073813D01*
X142093695Y-124035060D01*
X142098733Y-124015437D01*
X142105137Y-123996734D01*
X142110033Y-123985420D01*
X142110033Y-123985419D01*
X142113181Y-123978145D01*
X142114420Y-123970322D01*
X142114423Y-123970312D01*
X142120099Y-123934476D01*
X142122505Y-123922856D01*
X142131528Y-123887711D01*
X142131528Y-123887710D01*
X142133500Y-123880030D01*
X142133500Y-123859776D01*
X142135051Y-123840065D01*
X142136980Y-123827886D01*
X142138220Y-123820057D01*
X142134059Y-123776038D01*
X142133500Y-123764181D01*
X142133500Y-111451566D01*
X142153502Y-111383445D01*
X142193665Y-111344133D01*
X142375556Y-111232670D01*
X143632160Y-111232670D01*
X143637887Y-111240320D01*
X143809042Y-111345205D01*
X143817837Y-111349687D01*
X144027988Y-111436734D01*
X144037373Y-111439783D01*
X144258554Y-111492885D01*
X144268301Y-111494428D01*
X144495070Y-111512275D01*
X144504930Y-111512275D01*
X144731699Y-111494428D01*
X144741446Y-111492885D01*
X144962627Y-111439783D01*
X144972012Y-111436734D01*
X145182163Y-111349687D01*
X145190958Y-111345205D01*
X145358445Y-111242568D01*
X145367907Y-111232110D01*
X145364124Y-111223334D01*
X144512812Y-110372022D01*
X144498868Y-110364408D01*
X144497035Y-110364539D01*
X144490420Y-110368790D01*
X143638920Y-111220290D01*
X143632160Y-111232670D01*
X142375556Y-111232670D01*
X142385202Y-111226759D01*
X142385208Y-111226755D01*
X142389416Y-111224176D01*
X142569969Y-111069969D01*
X142724176Y-110889416D01*
X142726755Y-110885208D01*
X142726759Y-110885202D01*
X142845654Y-110691183D01*
X142848240Y-110686963D01*
X142850229Y-110682163D01*
X142883862Y-110600964D01*
X142928410Y-110545683D01*
X142995774Y-110523262D01*
X143064565Y-110540820D01*
X143112943Y-110592782D01*
X143116680Y-110600964D01*
X143150313Y-110682163D01*
X143154795Y-110690958D01*
X143257432Y-110858445D01*
X143267890Y-110867907D01*
X143276666Y-110864124D01*
X144127978Y-110012812D01*
X144135592Y-109998868D01*
X144135461Y-109997035D01*
X144131210Y-109990420D01*
X143279710Y-109138920D01*
X143267330Y-109132160D01*
X143259680Y-109137887D01*
X143154795Y-109309042D01*
X143150313Y-109317837D01*
X143116680Y-109399036D01*
X143072132Y-109454317D01*
X143004769Y-109476738D01*
X142935978Y-109459180D01*
X142887599Y-109407218D01*
X142883862Y-109399036D01*
X142850135Y-109317611D01*
X142850133Y-109317607D01*
X142848240Y-109313037D01*
X142830548Y-109284166D01*
X142726759Y-109114798D01*
X142726755Y-109114792D01*
X142724176Y-109110584D01*
X142569969Y-108930031D01*
X142389416Y-108775824D01*
X142385208Y-108773245D01*
X142385202Y-108773241D01*
X142376470Y-108767890D01*
X143632093Y-108767890D01*
X143635876Y-108776666D01*
X144487188Y-109627978D01*
X144501132Y-109635592D01*
X144502965Y-109635461D01*
X144509580Y-109631210D01*
X145361080Y-108779710D01*
X145367840Y-108767330D01*
X145362113Y-108759680D01*
X145190958Y-108654795D01*
X145182163Y-108650313D01*
X144972012Y-108563266D01*
X144962627Y-108560217D01*
X144741446Y-108507115D01*
X144731699Y-108505572D01*
X144504930Y-108487725D01*
X144495070Y-108487725D01*
X144268301Y-108505572D01*
X144258554Y-108507115D01*
X144037373Y-108560217D01*
X144027988Y-108563266D01*
X143817837Y-108650313D01*
X143809042Y-108654795D01*
X143641555Y-108757432D01*
X143632093Y-108767890D01*
X142376470Y-108767890D01*
X142191183Y-108654346D01*
X142186963Y-108651760D01*
X142182393Y-108649867D01*
X142182389Y-108649865D01*
X141972167Y-108562789D01*
X141972165Y-108562788D01*
X141967594Y-108560895D01*
X141887391Y-108541640D01*
X141741524Y-108506620D01*
X141741518Y-108506619D01*
X141736711Y-108505465D01*
X141500000Y-108486835D01*
X141263289Y-108505465D01*
X141258482Y-108506619D01*
X141258476Y-108506620D01*
X141112609Y-108541640D01*
X141032406Y-108560895D01*
X141027835Y-108562788D01*
X141027833Y-108562789D01*
X140817611Y-108649865D01*
X140817607Y-108649867D01*
X140813037Y-108651760D01*
X140808817Y-108654346D01*
X140614798Y-108773241D01*
X140614792Y-108773245D01*
X140610584Y-108775824D01*
X140430031Y-108930031D01*
X140275824Y-109110584D01*
X140273245Y-109114792D01*
X140273241Y-109114798D01*
X140169452Y-109284166D01*
X140151760Y-109313037D01*
X140149867Y-109317607D01*
X140149865Y-109317611D01*
X140086768Y-109469943D01*
X140060895Y-109532406D01*
X140059740Y-109537218D01*
X140011846Y-109736711D01*
X140005465Y-109763289D01*
X139986835Y-110000000D01*
X140005465Y-110236711D01*
X140006619Y-110241518D01*
X140006620Y-110241524D01*
X140037950Y-110372022D01*
X140060895Y-110467594D01*
X140062788Y-110472165D01*
X140062789Y-110472167D01*
X140149772Y-110682163D01*
X140151760Y-110686963D01*
X140154346Y-110691183D01*
X140273241Y-110885202D01*
X140273245Y-110885208D01*
X140275824Y-110889416D01*
X140430031Y-111069969D01*
X140610584Y-111224176D01*
X140614792Y-111226755D01*
X140614798Y-111226759D01*
X140806335Y-111344133D01*
X140853966Y-111396781D01*
X140866500Y-111451566D01*
X140866500Y-123485406D01*
X140846498Y-123553527D01*
X140829595Y-123574501D01*
X138193237Y-126210859D01*
X138130925Y-126244885D01*
X138060110Y-126239820D01*
X138003274Y-126197273D01*
X137978566Y-126132088D01*
X137964773Y-125964318D01*
X137964772Y-125964312D01*
X137964349Y-125959167D01*
X137936137Y-125846850D01*
X137909184Y-125739544D01*
X137909183Y-125739540D01*
X137907925Y-125734533D01*
X137815570Y-125522131D01*
X137689764Y-125327665D01*
X137533887Y-125156358D01*
X137529836Y-125153159D01*
X137529832Y-125153155D01*
X137357077Y-125016722D01*
X137316014Y-124958805D01*
X137312782Y-124887882D01*
X137348407Y-124826470D01*
X137362001Y-124815261D01*
X137372559Y-124807730D01*
X137482243Y-124729494D01*
X137646303Y-124566005D01*
X137781458Y-124377917D01*
X137785493Y-124369754D01*
X137881784Y-124174922D01*
X137881785Y-124174920D01*
X137884078Y-124170280D01*
X137951408Y-123948671D01*
X137981640Y-123719041D01*
X137982859Y-123669161D01*
X137983245Y-123653365D01*
X137983245Y-123653361D01*
X137983327Y-123650000D01*
X137964349Y-123419167D01*
X137928026Y-123274560D01*
X137930830Y-123203620D01*
X137961135Y-123154769D01*
X138159318Y-122956587D01*
X138392257Y-122723648D01*
X138400536Y-122716114D01*
X138407017Y-122712001D01*
X138453643Y-122662349D01*
X138456397Y-122659508D01*
X138476134Y-122639771D01*
X138478614Y-122636574D01*
X138486319Y-122627552D01*
X138511158Y-122601101D01*
X138516585Y-122595322D01*
X138520404Y-122588376D01*
X138520406Y-122588373D01*
X138526347Y-122577567D01*
X138537198Y-122561048D01*
X138544757Y-122551302D01*
X138549613Y-122545042D01*
X138552758Y-122537773D01*
X138552761Y-122537769D01*
X138567173Y-122504464D01*
X138572390Y-122493814D01*
X138593694Y-122455061D01*
X138598732Y-122435438D01*
X138605136Y-122416735D01*
X138610032Y-122405421D01*
X138610032Y-122405420D01*
X138613180Y-122398146D01*
X138614419Y-122390323D01*
X138614422Y-122390313D01*
X138620098Y-122354477D01*
X138622504Y-122342857D01*
X138631527Y-122307712D01*
X138631527Y-122307711D01*
X138633499Y-122300031D01*
X138633499Y-122279777D01*
X138635050Y-122260066D01*
X138635290Y-122258554D01*
X138638219Y-122240058D01*
X138634058Y-122196039D01*
X138633499Y-122184182D01*
X138633499Y-110578766D01*
X138634026Y-110567583D01*
X138635701Y-110560090D01*
X138633561Y-110492013D01*
X138633499Y-110488054D01*
X138633499Y-110460143D01*
X138632994Y-110456143D01*
X138632061Y-110444300D01*
X138630921Y-110408028D01*
X138630672Y-110400109D01*
X138625021Y-110380657D01*
X138621013Y-110361305D01*
X138619466Y-110349062D01*
X138618473Y-110341202D01*
X138615555Y-110333831D01*
X138602199Y-110300096D01*
X138598354Y-110288869D01*
X138597720Y-110286686D01*
X138586017Y-110246406D01*
X138580284Y-110236711D01*
X138575706Y-110228971D01*
X138567011Y-110211223D01*
X138559551Y-110192382D01*
X138533563Y-110156612D01*
X138527047Y-110146692D01*
X138508579Y-110115464D01*
X138508577Y-110115461D01*
X138504541Y-110108637D01*
X138490220Y-110094316D01*
X138477379Y-110079282D01*
X138465471Y-110062892D01*
X138467308Y-110061557D01*
X138440462Y-110008482D01*
X138441846Y-109956177D01*
X138493380Y-109741524D01*
X138493381Y-109741518D01*
X138494535Y-109736711D01*
X138513165Y-109500000D01*
X138494535Y-109263289D01*
X138490865Y-109247999D01*
X138448186Y-109070230D01*
X138439105Y-109032406D01*
X138424854Y-108998000D01*
X138350135Y-108817611D01*
X138350133Y-108817607D01*
X138348240Y-108813037D01*
X138327817Y-108779710D01*
X138226759Y-108614798D01*
X138226755Y-108614792D01*
X138224176Y-108610584D01*
X138069969Y-108430031D01*
X137889416Y-108275824D01*
X137885208Y-108273245D01*
X137885202Y-108273241D01*
X137691183Y-108154346D01*
X137686963Y-108151760D01*
X137682393Y-108149867D01*
X137682389Y-108149865D01*
X137472167Y-108062789D01*
X137472165Y-108062788D01*
X137467594Y-108060895D01*
X137387391Y-108041640D01*
X137241524Y-108006620D01*
X137241518Y-108006619D01*
X137236711Y-108005465D01*
X137000000Y-107986835D01*
X136763289Y-108005465D01*
X136758475Y-108006621D01*
X136758467Y-108006622D01*
X136707064Y-108018963D01*
X136636156Y-108015417D01*
X136578422Y-107974098D01*
X136552191Y-107908124D01*
X136565793Y-107838443D01*
X136588554Y-107807350D01*
X140921540Y-103474364D01*
X140983852Y-103440338D01*
X141040049Y-103440940D01*
X141258476Y-103493380D01*
X141258482Y-103493381D01*
X141263289Y-103494535D01*
X141500000Y-103513165D01*
X141736711Y-103494535D01*
X141741518Y-103493381D01*
X141741524Y-103493380D01*
X141915690Y-103451566D01*
X141967594Y-103439105D01*
X141972167Y-103437211D01*
X142182389Y-103350135D01*
X142182393Y-103350133D01*
X142186963Y-103348240D01*
X142205573Y-103336836D01*
X142385202Y-103226759D01*
X142385208Y-103226755D01*
X142389416Y-103224176D01*
X142569969Y-103069969D01*
X142724176Y-102889416D01*
X142726755Y-102885208D01*
X142726759Y-102885202D01*
X142845654Y-102691183D01*
X142848240Y-102686963D01*
X142850229Y-102682163D01*
X142883591Y-102601618D01*
X142928139Y-102546337D01*
X142995503Y-102523916D01*
X143064294Y-102541474D01*
X143112672Y-102593436D01*
X143116409Y-102601618D01*
X143149772Y-102682163D01*
X143151760Y-102686963D01*
X143154346Y-102691183D01*
X143273241Y-102885202D01*
X143273245Y-102885208D01*
X143275824Y-102889416D01*
X143430031Y-103069969D01*
X143610584Y-103224176D01*
X143614792Y-103226755D01*
X143614798Y-103226759D01*
X143794427Y-103336836D01*
X143813037Y-103348240D01*
X143817607Y-103350133D01*
X143817611Y-103350135D01*
X144027833Y-103437211D01*
X144032406Y-103439105D01*
X144084310Y-103451566D01*
X144258476Y-103493380D01*
X144258482Y-103493381D01*
X144263289Y-103494535D01*
X144500000Y-103513165D01*
X144736711Y-103494535D01*
X144741518Y-103493381D01*
X144741524Y-103493380D01*
X144915690Y-103451566D01*
X144967594Y-103439105D01*
X144972167Y-103437211D01*
X145182389Y-103350135D01*
X145182393Y-103350133D01*
X145186963Y-103348240D01*
X145205573Y-103336836D01*
X145385202Y-103226759D01*
X145385208Y-103226755D01*
X145389416Y-103224176D01*
X145569969Y-103069969D01*
X145724176Y-102889416D01*
X145726755Y-102885208D01*
X145726759Y-102885202D01*
X145845654Y-102691183D01*
X145848240Y-102686963D01*
X145850229Y-102682163D01*
X145883591Y-102601618D01*
X145928139Y-102546337D01*
X145995503Y-102523916D01*
X146064294Y-102541474D01*
G37*
G04 #@! TD.AperFunction*
G04 #@! TA.AperFunction,Conductor*
G36*
X152572910Y-100653502D02*
G01*
X152619403Y-100707158D01*
X152625413Y-100752393D01*
X152635876Y-100776666D01*
X154720290Y-102861080D01*
X154732670Y-102867840D01*
X154740320Y-102862113D01*
X154845205Y-102690958D01*
X154849687Y-102682163D01*
X154883320Y-102600964D01*
X154927868Y-102545683D01*
X154995231Y-102523262D01*
X155064022Y-102540820D01*
X155112401Y-102592782D01*
X155116138Y-102600964D01*
X155149772Y-102682163D01*
X155151760Y-102686963D01*
X155154346Y-102691183D01*
X155273241Y-102885202D01*
X155273245Y-102885208D01*
X155275824Y-102889416D01*
X155430031Y-103069969D01*
X155610584Y-103224176D01*
X155614792Y-103226755D01*
X155614798Y-103226759D01*
X155806335Y-103344133D01*
X155853966Y-103396781D01*
X155866500Y-103451566D01*
X155866500Y-108548434D01*
X155846498Y-108616555D01*
X155806335Y-108655867D01*
X155614798Y-108773241D01*
X155614792Y-108773245D01*
X155610584Y-108775824D01*
X155430031Y-108930031D01*
X155275824Y-109110584D01*
X155273245Y-109114792D01*
X155273241Y-109114798D01*
X155169452Y-109284166D01*
X155151760Y-109313037D01*
X155149867Y-109317607D01*
X155149865Y-109317611D01*
X155116138Y-109399036D01*
X155071590Y-109454317D01*
X155004226Y-109476738D01*
X154935435Y-109459180D01*
X154887057Y-109407218D01*
X154883320Y-109399036D01*
X154849687Y-109317837D01*
X154845205Y-109309042D01*
X154742568Y-109141555D01*
X154732110Y-109132093D01*
X154723334Y-109135876D01*
X153872022Y-109987188D01*
X153864408Y-110001132D01*
X153864539Y-110002965D01*
X153868790Y-110009580D01*
X154720290Y-110861080D01*
X154732670Y-110867840D01*
X154740320Y-110862113D01*
X154845205Y-110690958D01*
X154849687Y-110682163D01*
X154883320Y-110600964D01*
X154927868Y-110545683D01*
X154995231Y-110523262D01*
X155064022Y-110540820D01*
X155112401Y-110592782D01*
X155116138Y-110600964D01*
X155149772Y-110682163D01*
X155151760Y-110686963D01*
X155154346Y-110691183D01*
X155273241Y-110885202D01*
X155273245Y-110885208D01*
X155275824Y-110889416D01*
X155430031Y-111069969D01*
X155610584Y-111224176D01*
X155614792Y-111226755D01*
X155614798Y-111226759D01*
X155806335Y-111344133D01*
X155813037Y-111348240D01*
X155817607Y-111350133D01*
X155817611Y-111350135D01*
X156027833Y-111437211D01*
X156032406Y-111439105D01*
X156084310Y-111451566D01*
X156258476Y-111493380D01*
X156258482Y-111493381D01*
X156263289Y-111494535D01*
X156500000Y-111513165D01*
X156736711Y-111494535D01*
X156741518Y-111493381D01*
X156741524Y-111493380D01*
X156959951Y-111440940D01*
X157030859Y-111444487D01*
X157078460Y-111474364D01*
X161329595Y-115725499D01*
X161363621Y-115787811D01*
X161366500Y-115814594D01*
X161366500Y-130685406D01*
X161346498Y-130753527D01*
X161329595Y-130774501D01*
X161029802Y-131074294D01*
X160967490Y-131108320D01*
X160896675Y-131103255D01*
X160839839Y-131060708D01*
X160818503Y-131015894D01*
X160817567Y-131012165D01*
X160797486Y-130932221D01*
X160769184Y-130819544D01*
X160769183Y-130819540D01*
X160767925Y-130814533D01*
X160765866Y-130809797D01*
X160677630Y-130606868D01*
X160677628Y-130606865D01*
X160675570Y-130602131D01*
X160549764Y-130407665D01*
X160393887Y-130236358D01*
X160389836Y-130233159D01*
X160389832Y-130233155D01*
X160217077Y-130096722D01*
X160176014Y-130038805D01*
X160172782Y-129967882D01*
X160208407Y-129906470D01*
X160222001Y-129895261D01*
X160225872Y-129892500D01*
X160342243Y-129809494D01*
X160506303Y-129646005D01*
X160641458Y-129457917D01*
X160688641Y-129362450D01*
X160741784Y-129254922D01*
X160741785Y-129254920D01*
X160744078Y-129250280D01*
X160811408Y-129028671D01*
X160841640Y-128799041D01*
X160843327Y-128730000D01*
X160837032Y-128653434D01*
X160824773Y-128504318D01*
X160824772Y-128504312D01*
X160824349Y-128499167D01*
X160796137Y-128386850D01*
X160769184Y-128279544D01*
X160769183Y-128279540D01*
X160767925Y-128274533D01*
X160675570Y-128062131D01*
X160549764Y-127867665D01*
X160393887Y-127696358D01*
X160389836Y-127693159D01*
X160389832Y-127693155D01*
X160217077Y-127556722D01*
X160176014Y-127498805D01*
X160172782Y-127427882D01*
X160208407Y-127366470D01*
X160222001Y-127355261D01*
X160243964Y-127339595D01*
X160342243Y-127269494D01*
X160506303Y-127106005D01*
X160641458Y-126917917D01*
X160644644Y-126911472D01*
X160741784Y-126714922D01*
X160741785Y-126714920D01*
X160744078Y-126710280D01*
X160811408Y-126488671D01*
X160841640Y-126259041D01*
X160841901Y-126248355D01*
X160843245Y-126193365D01*
X160843245Y-126193361D01*
X160843327Y-126190000D01*
X160837032Y-126113434D01*
X160824773Y-125964318D01*
X160824772Y-125964312D01*
X160824349Y-125959167D01*
X160796137Y-125846850D01*
X160769184Y-125739544D01*
X160769183Y-125739540D01*
X160767925Y-125734533D01*
X160675570Y-125522131D01*
X160549764Y-125327665D01*
X160393887Y-125156358D01*
X160389836Y-125153159D01*
X160389832Y-125153155D01*
X160217077Y-125016722D01*
X160176014Y-124958805D01*
X160172782Y-124887882D01*
X160208407Y-124826470D01*
X160222001Y-124815261D01*
X160232559Y-124807730D01*
X160342243Y-124729494D01*
X160506303Y-124566005D01*
X160641458Y-124377917D01*
X160645493Y-124369754D01*
X160741784Y-124174922D01*
X160741785Y-124174920D01*
X160744078Y-124170280D01*
X160811408Y-123948671D01*
X160841640Y-123719041D01*
X160842859Y-123669161D01*
X160843245Y-123653365D01*
X160843245Y-123653361D01*
X160843327Y-123650000D01*
X160836282Y-123564314D01*
X160824773Y-123424318D01*
X160824772Y-123424312D01*
X160824349Y-123419167D01*
X160771453Y-123208577D01*
X160769184Y-123199544D01*
X160769183Y-123199540D01*
X160767925Y-123194533D01*
X160764905Y-123187587D01*
X160677630Y-122986868D01*
X160677628Y-122986865D01*
X160675570Y-122982131D01*
X160549764Y-122787665D01*
X160393887Y-122616358D01*
X160389836Y-122613159D01*
X160389832Y-122613155D01*
X160217077Y-122476722D01*
X160176014Y-122418805D01*
X160172782Y-122347882D01*
X160208407Y-122286470D01*
X160222001Y-122275261D01*
X160225872Y-122272500D01*
X160342243Y-122189494D01*
X160506303Y-122026005D01*
X160641458Y-121837917D01*
X160653755Y-121813037D01*
X160741784Y-121634922D01*
X160741785Y-121634920D01*
X160744078Y-121630280D01*
X160811408Y-121408671D01*
X160841640Y-121179041D01*
X160841722Y-121175691D01*
X160843245Y-121113365D01*
X160843245Y-121113361D01*
X160843327Y-121110000D01*
X160834828Y-121006620D01*
X160824773Y-120884318D01*
X160824772Y-120884312D01*
X160824349Y-120879167D01*
X160780710Y-120705431D01*
X160769184Y-120659544D01*
X160769183Y-120659540D01*
X160767925Y-120654533D01*
X160759204Y-120634476D01*
X160677630Y-120446868D01*
X160677628Y-120446865D01*
X160675570Y-120442131D01*
X160549764Y-120247665D01*
X160538295Y-120235060D01*
X160441433Y-120128611D01*
X160393887Y-120076358D01*
X160389836Y-120073159D01*
X160389832Y-120073155D01*
X160216177Y-119936011D01*
X160216172Y-119936008D01*
X160212123Y-119932810D01*
X160207607Y-119930317D01*
X160207604Y-119930315D01*
X160013879Y-119823373D01*
X160013875Y-119823371D01*
X160009355Y-119820876D01*
X160004486Y-119819152D01*
X160004482Y-119819150D01*
X159795903Y-119745288D01*
X159795899Y-119745287D01*
X159791028Y-119743562D01*
X159785935Y-119742655D01*
X159785932Y-119742654D01*
X159568095Y-119703851D01*
X159568089Y-119703850D01*
X159563006Y-119702945D01*
X159490096Y-119702054D01*
X159336581Y-119700179D01*
X159336579Y-119700179D01*
X159331411Y-119700116D01*
X159102464Y-119735150D01*
X158882314Y-119807106D01*
X158877726Y-119809494D01*
X158877722Y-119809496D01*
X158701524Y-119901219D01*
X158676872Y-119914052D01*
X158672739Y-119917155D01*
X158672736Y-119917157D01*
X158495790Y-120050012D01*
X158491655Y-120053117D01*
X158488083Y-120056855D01*
X158372176Y-120178145D01*
X158331639Y-120220564D01*
X158328725Y-120224836D01*
X158328724Y-120224837D01*
X158313152Y-120247665D01*
X158201119Y-120411899D01*
X158103602Y-120621981D01*
X158041707Y-120845169D01*
X158017095Y-121075469D01*
X158017392Y-121080622D01*
X158017392Y-121080625D01*
X158023067Y-121179041D01*
X158030427Y-121306697D01*
X158031564Y-121311743D01*
X158031565Y-121311749D01*
X158059068Y-121433787D01*
X158081346Y-121532642D01*
X158083288Y-121537424D01*
X158083289Y-121537428D01*
X158123265Y-121635876D01*
X158168484Y-121747237D01*
X158289501Y-121944719D01*
X158441147Y-122119784D01*
X158619349Y-122267730D01*
X158623819Y-122270342D01*
X158627511Y-122272500D01*
X158676232Y-122324140D01*
X158689301Y-122393924D01*
X158662566Y-122459694D01*
X158639589Y-122482045D01*
X158512366Y-122577567D01*
X158491655Y-122593117D01*
X158488083Y-122596855D01*
X158349909Y-122741446D01*
X158331639Y-122760564D01*
X158328725Y-122764836D01*
X158328724Y-122764837D01*
X158313152Y-122787665D01*
X158201119Y-122951899D01*
X158103602Y-123161981D01*
X158041707Y-123385169D01*
X158019448Y-123593455D01*
X157992320Y-123659065D01*
X157934028Y-123699593D01*
X157863078Y-123702172D01*
X157805066Y-123669161D01*
X151170405Y-117034500D01*
X151136379Y-116972188D01*
X151133500Y-116945405D01*
X151133500Y-111451566D01*
X151153502Y-111383445D01*
X151193665Y-111344133D01*
X151375556Y-111232670D01*
X152632160Y-111232670D01*
X152637887Y-111240320D01*
X152809042Y-111345205D01*
X152817837Y-111349687D01*
X153027988Y-111436734D01*
X153037373Y-111439783D01*
X153258554Y-111492885D01*
X153268301Y-111494428D01*
X153495070Y-111512275D01*
X153504930Y-111512275D01*
X153731699Y-111494428D01*
X153741446Y-111492885D01*
X153962627Y-111439783D01*
X153972012Y-111436734D01*
X154182163Y-111349687D01*
X154190958Y-111345205D01*
X154358445Y-111242568D01*
X154367907Y-111232110D01*
X154364124Y-111223334D01*
X153512812Y-110372022D01*
X153498868Y-110364408D01*
X153497035Y-110364539D01*
X153490420Y-110368790D01*
X152638920Y-111220290D01*
X152632160Y-111232670D01*
X151375556Y-111232670D01*
X151385202Y-111226759D01*
X151385208Y-111226755D01*
X151389416Y-111224176D01*
X151569969Y-111069969D01*
X151724176Y-110889416D01*
X151726755Y-110885208D01*
X151726759Y-110885202D01*
X151845654Y-110691183D01*
X151848240Y-110686963D01*
X151850229Y-110682163D01*
X151883862Y-110600964D01*
X151928410Y-110545683D01*
X151995774Y-110523262D01*
X152064565Y-110540820D01*
X152112943Y-110592782D01*
X152116680Y-110600964D01*
X152150313Y-110682163D01*
X152154795Y-110690958D01*
X152257432Y-110858445D01*
X152267890Y-110867907D01*
X152276666Y-110864124D01*
X153127978Y-110012812D01*
X153135592Y-109998868D01*
X153135461Y-109997035D01*
X153131210Y-109990420D01*
X152279710Y-109138920D01*
X152267330Y-109132160D01*
X152259680Y-109137887D01*
X152154795Y-109309042D01*
X152150313Y-109317837D01*
X152116680Y-109399036D01*
X152072132Y-109454317D01*
X152004769Y-109476738D01*
X151935978Y-109459180D01*
X151887599Y-109407218D01*
X151883862Y-109399036D01*
X151850135Y-109317611D01*
X151850133Y-109317607D01*
X151848240Y-109313037D01*
X151830548Y-109284166D01*
X151726759Y-109114798D01*
X151726755Y-109114792D01*
X151724176Y-109110584D01*
X151569969Y-108930031D01*
X151389416Y-108775824D01*
X151385208Y-108773245D01*
X151385202Y-108773241D01*
X151376470Y-108767890D01*
X152632093Y-108767890D01*
X152635876Y-108776666D01*
X153487188Y-109627978D01*
X153501132Y-109635592D01*
X153502965Y-109635461D01*
X153509580Y-109631210D01*
X154361080Y-108779710D01*
X154367840Y-108767330D01*
X154362113Y-108759680D01*
X154190958Y-108654795D01*
X154182163Y-108650313D01*
X153972012Y-108563266D01*
X153962627Y-108560217D01*
X153741446Y-108507115D01*
X153731699Y-108505572D01*
X153504930Y-108487725D01*
X153495070Y-108487725D01*
X153268301Y-108505572D01*
X153258554Y-108507115D01*
X153037373Y-108560217D01*
X153027988Y-108563266D01*
X152817837Y-108650313D01*
X152809042Y-108654795D01*
X152641555Y-108757432D01*
X152632093Y-108767890D01*
X151376470Y-108767890D01*
X151193665Y-108655867D01*
X151146034Y-108603219D01*
X151133500Y-108548434D01*
X151133500Y-103451566D01*
X151153502Y-103383445D01*
X151193665Y-103344133D01*
X151375556Y-103232670D01*
X152632160Y-103232670D01*
X152637887Y-103240320D01*
X152809042Y-103345205D01*
X152817837Y-103349687D01*
X153027988Y-103436734D01*
X153037373Y-103439783D01*
X153258554Y-103492885D01*
X153268301Y-103494428D01*
X153495070Y-103512275D01*
X153504930Y-103512275D01*
X153731699Y-103494428D01*
X153741446Y-103492885D01*
X153962627Y-103439783D01*
X153972012Y-103436734D01*
X154182163Y-103349687D01*
X154190958Y-103345205D01*
X154358445Y-103242568D01*
X154367907Y-103232110D01*
X154364124Y-103223334D01*
X153512812Y-102372022D01*
X153498868Y-102364408D01*
X153497035Y-102364539D01*
X153490420Y-102368790D01*
X152638920Y-103220290D01*
X152632160Y-103232670D01*
X151375556Y-103232670D01*
X151385202Y-103226759D01*
X151385208Y-103226755D01*
X151389416Y-103224176D01*
X151569969Y-103069969D01*
X151724176Y-102889416D01*
X151726755Y-102885208D01*
X151726759Y-102885202D01*
X151845654Y-102691183D01*
X151848240Y-102686963D01*
X151850229Y-102682163D01*
X151883862Y-102600964D01*
X151928410Y-102545683D01*
X151995774Y-102523262D01*
X152064565Y-102540820D01*
X152112943Y-102592782D01*
X152116680Y-102600964D01*
X152150313Y-102682163D01*
X152154795Y-102690958D01*
X152257432Y-102858445D01*
X152267890Y-102867907D01*
X152276666Y-102864124D01*
X153127978Y-102012812D01*
X153135592Y-101998868D01*
X153135461Y-101997035D01*
X153131210Y-101990420D01*
X152279710Y-101138920D01*
X152267330Y-101132160D01*
X152259680Y-101137887D01*
X152154795Y-101309042D01*
X152150313Y-101317837D01*
X152116680Y-101399036D01*
X152072132Y-101454317D01*
X152004769Y-101476738D01*
X151935978Y-101459180D01*
X151887599Y-101407218D01*
X151883862Y-101399036D01*
X151850135Y-101317611D01*
X151850133Y-101317607D01*
X151848240Y-101313037D01*
X151845654Y-101308817D01*
X151726759Y-101114798D01*
X151726755Y-101114792D01*
X151724176Y-101110584D01*
X151569969Y-100930031D01*
X151566213Y-100926823D01*
X151566208Y-100926818D01*
X151482484Y-100855311D01*
X151443674Y-100795861D01*
X151443167Y-100724866D01*
X151481124Y-100664867D01*
X151545492Y-100634914D01*
X151564314Y-100633500D01*
X152504789Y-100633500D01*
X152572910Y-100653502D01*
G37*
G04 #@! TD.AperFunction*
M02*
