G04 #@! TF.GenerationSoftware,KiCad,Pcbnew,(6.0.0)*
G04 #@! TF.CreationDate,2022-01-19T17:04:22-05:00*
G04 #@! TF.ProjectId,SlimeVRMotherBoard,536c696d-6556-4524-9d6f-74686572426f,V1.2*
G04 #@! TF.SameCoordinates,Original*
G04 #@! TF.FileFunction,Copper,L2,Bot*
G04 #@! TF.FilePolarity,Positive*
%FSLAX46Y46*%
G04 Gerber Fmt 4.6, Leading zero omitted, Abs format (unit mm)*
G04 Created by KiCad (PCBNEW (6.0.0)) date 2022-01-19 17:04:22*
%MOMM*%
%LPD*%
G01*
G04 APERTURE LIST*
G04 #@! TA.AperFunction,ComponentPad*
%ADD10C,2.200000*%
G04 #@! TD*
G04 #@! TA.AperFunction,ComponentPad*
%ADD11C,2.000000*%
G04 #@! TD*
G04 #@! TA.AperFunction,ComponentPad*
%ADD12O,2.200000X2.200000*%
G04 #@! TD*
G04 #@! TA.AperFunction,ComponentPad*
%ADD13R,2.200000X2.200000*%
G04 #@! TD*
G04 #@! TA.AperFunction,ComponentPad*
%ADD14C,1.800000*%
G04 #@! TD*
G04 APERTURE END LIST*
D10*
X185000000Y-141000000D03*
X185000000Y-145000000D03*
X185000000Y-137000000D03*
X182400000Y-141000000D03*
X182400000Y-145000000D03*
X182400000Y-137000000D03*
D11*
X137000000Y-109500000D03*
X137000000Y-102500000D03*
D12*
X184000000Y-103840000D03*
D13*
X184000000Y-114000000D03*
D12*
X184000000Y-117840000D03*
D13*
X184000000Y-128000000D03*
D11*
X173000000Y-116000000D03*
X169000000Y-116000000D03*
D14*
X136570000Y-138890000D03*
X159430000Y-138890000D03*
X136570000Y-136350000D03*
X159430000Y-136350000D03*
X136570000Y-133810000D03*
X159430000Y-133810000D03*
X136570000Y-131270000D03*
X159430000Y-131270000D03*
X136570000Y-128730000D03*
X159430000Y-128730000D03*
X136570000Y-126190000D03*
X159430000Y-126190000D03*
X136570000Y-123650000D03*
X159430000Y-123650000D03*
X136570000Y-121110000D03*
X159430000Y-121110000D03*
D11*
X150500000Y-110000000D03*
X153500000Y-110000000D03*
X156500000Y-110000000D03*
X147500000Y-110000000D03*
X144500000Y-110000000D03*
X141500000Y-110000000D03*
X141500000Y-102000000D03*
X144500000Y-102000000D03*
X147500000Y-102000000D03*
X156500000Y-102000000D03*
X153500000Y-102000000D03*
X150500000Y-102000000D03*
X178000000Y-122500000D03*
X175000000Y-122500000D03*
X164000000Y-145000000D03*
X178000000Y-145000000D03*
X164000000Y-122500000D03*
X167000000Y-122500000D03*
G04 #@! TA.AperFunction,Conductor*
G36*
X187434121Y-95528002D02*
G01*
X187480614Y-95581658D01*
X187492000Y-95634000D01*
X187492000Y-148366000D01*
X187471998Y-148434121D01*
X187418342Y-148480614D01*
X187366000Y-148492000D01*
X134634000Y-148492000D01*
X134565879Y-148471998D01*
X134519386Y-148418342D01*
X134508000Y-148366000D01*
X134508000Y-145000000D01*
X162486835Y-145000000D01*
X162505465Y-145236711D01*
X162506619Y-145241518D01*
X162506620Y-145241524D01*
X162541640Y-145387391D01*
X162560895Y-145467594D01*
X162651760Y-145686963D01*
X162654346Y-145691183D01*
X162773241Y-145885202D01*
X162773245Y-145885208D01*
X162775824Y-145889416D01*
X162930031Y-146069969D01*
X163110584Y-146224176D01*
X163114792Y-146226755D01*
X163114798Y-146226759D01*
X163308817Y-146345654D01*
X163313037Y-146348240D01*
X163317607Y-146350133D01*
X163317611Y-146350135D01*
X163522568Y-146435030D01*
X163532406Y-146439105D01*
X163612609Y-146458360D01*
X163758476Y-146493380D01*
X163758482Y-146493381D01*
X163763289Y-146494535D01*
X164000000Y-146513165D01*
X164236711Y-146494535D01*
X164241518Y-146493381D01*
X164241524Y-146493380D01*
X164387391Y-146458360D01*
X164467594Y-146439105D01*
X164477432Y-146435030D01*
X164682389Y-146350135D01*
X164682393Y-146350133D01*
X164686963Y-146348240D01*
X164691183Y-146345654D01*
X164885202Y-146226759D01*
X164885208Y-146226755D01*
X164889416Y-146224176D01*
X165069969Y-146069969D01*
X165224176Y-145889416D01*
X165226755Y-145885208D01*
X165226759Y-145885202D01*
X165345654Y-145691183D01*
X165348240Y-145686963D01*
X165439105Y-145467594D01*
X165458360Y-145387391D01*
X165493380Y-145241524D01*
X165493381Y-145241518D01*
X165494535Y-145236711D01*
X165513165Y-145000000D01*
X176486835Y-145000000D01*
X176505465Y-145236711D01*
X176506619Y-145241518D01*
X176506620Y-145241524D01*
X176541640Y-145387391D01*
X176560895Y-145467594D01*
X176651760Y-145686963D01*
X176654346Y-145691183D01*
X176773241Y-145885202D01*
X176773245Y-145885208D01*
X176775824Y-145889416D01*
X176930031Y-146069969D01*
X177110584Y-146224176D01*
X177114792Y-146226755D01*
X177114798Y-146226759D01*
X177308817Y-146345654D01*
X177313037Y-146348240D01*
X177317607Y-146350133D01*
X177317611Y-146350135D01*
X177522568Y-146435030D01*
X177532406Y-146439105D01*
X177612609Y-146458360D01*
X177758476Y-146493380D01*
X177758482Y-146493381D01*
X177763289Y-146494535D01*
X178000000Y-146513165D01*
X178236711Y-146494535D01*
X178241518Y-146493381D01*
X178241524Y-146493380D01*
X178387391Y-146458360D01*
X178467594Y-146439105D01*
X178477432Y-146435030D01*
X178682389Y-146350135D01*
X178682393Y-146350133D01*
X178686963Y-146348240D01*
X178691183Y-146345654D01*
X178885202Y-146226759D01*
X178885208Y-146226755D01*
X178889416Y-146224176D01*
X179069969Y-146069969D01*
X179224176Y-145889416D01*
X179226755Y-145885208D01*
X179226759Y-145885202D01*
X179345654Y-145691183D01*
X179348240Y-145686963D01*
X179439105Y-145467594D01*
X179458360Y-145387391D01*
X179493380Y-145241524D01*
X179493381Y-145241518D01*
X179494535Y-145236711D01*
X179513165Y-145000000D01*
X180786526Y-145000000D01*
X180806391Y-145252403D01*
X180865495Y-145498591D01*
X180867388Y-145503162D01*
X180867389Y-145503164D01*
X180941627Y-145682389D01*
X180962384Y-145732502D01*
X181094672Y-145948376D01*
X181259102Y-146140898D01*
X181451624Y-146305328D01*
X181667498Y-146437616D01*
X181672068Y-146439509D01*
X181672072Y-146439511D01*
X181896836Y-146532611D01*
X181901409Y-146534505D01*
X181986032Y-146554821D01*
X182142784Y-146592454D01*
X182142790Y-146592455D01*
X182147597Y-146593609D01*
X182400000Y-146613474D01*
X182652403Y-146593609D01*
X182657210Y-146592455D01*
X182657216Y-146592454D01*
X182813968Y-146554821D01*
X182898591Y-146534505D01*
X182903164Y-146532611D01*
X183127928Y-146439511D01*
X183127932Y-146439509D01*
X183132502Y-146437616D01*
X183348376Y-146305328D01*
X183540898Y-146140898D01*
X183604189Y-146066794D01*
X183663640Y-146027985D01*
X183734634Y-146027479D01*
X183795811Y-146066794D01*
X183859102Y-146140898D01*
X184051624Y-146305328D01*
X184267498Y-146437616D01*
X184272068Y-146439509D01*
X184272072Y-146439511D01*
X184496836Y-146532611D01*
X184501409Y-146534505D01*
X184586032Y-146554821D01*
X184742784Y-146592454D01*
X184742790Y-146592455D01*
X184747597Y-146593609D01*
X185000000Y-146613474D01*
X185252403Y-146593609D01*
X185257210Y-146592455D01*
X185257216Y-146592454D01*
X185413968Y-146554821D01*
X185498591Y-146534505D01*
X185503164Y-146532611D01*
X185727928Y-146439511D01*
X185727932Y-146439509D01*
X185732502Y-146437616D01*
X185948376Y-146305328D01*
X186140898Y-146140898D01*
X186305328Y-145948376D01*
X186437616Y-145732502D01*
X186458374Y-145682389D01*
X186532611Y-145503164D01*
X186532612Y-145503162D01*
X186534505Y-145498591D01*
X186593609Y-145252403D01*
X186613474Y-145000000D01*
X186593609Y-144747597D01*
X186534505Y-144501409D01*
X186532611Y-144496836D01*
X186439511Y-144272072D01*
X186439509Y-144272068D01*
X186437616Y-144267498D01*
X186305328Y-144051624D01*
X186140898Y-143859102D01*
X185948376Y-143694672D01*
X185732502Y-143562384D01*
X185727932Y-143560491D01*
X185727928Y-143560489D01*
X185503164Y-143467389D01*
X185503162Y-143467388D01*
X185498591Y-143465495D01*
X185413968Y-143445179D01*
X185257216Y-143407546D01*
X185257210Y-143407545D01*
X185252403Y-143406391D01*
X185000000Y-143386526D01*
X184747597Y-143406391D01*
X184742790Y-143407545D01*
X184742784Y-143407546D01*
X184586032Y-143445179D01*
X184501409Y-143465495D01*
X184496838Y-143467388D01*
X184496836Y-143467389D01*
X184272072Y-143560489D01*
X184272068Y-143560491D01*
X184267498Y-143562384D01*
X184051624Y-143694672D01*
X183859102Y-143859102D01*
X183855894Y-143862858D01*
X183795811Y-143933206D01*
X183736360Y-143972015D01*
X183665366Y-143972521D01*
X183604189Y-143933206D01*
X183544106Y-143862858D01*
X183540898Y-143859102D01*
X183348376Y-143694672D01*
X183132502Y-143562384D01*
X183127932Y-143560491D01*
X183127928Y-143560489D01*
X182903164Y-143467389D01*
X182903162Y-143467388D01*
X182898591Y-143465495D01*
X182813968Y-143445179D01*
X182657216Y-143407546D01*
X182657210Y-143407545D01*
X182652403Y-143406391D01*
X182400000Y-143386526D01*
X182147597Y-143406391D01*
X182142790Y-143407545D01*
X182142784Y-143407546D01*
X181986032Y-143445179D01*
X181901409Y-143465495D01*
X181896838Y-143467388D01*
X181896836Y-143467389D01*
X181672072Y-143560489D01*
X181672068Y-143560491D01*
X181667498Y-143562384D01*
X181451624Y-143694672D01*
X181259102Y-143859102D01*
X181094672Y-144051624D01*
X180962384Y-144267498D01*
X180960491Y-144272068D01*
X180960489Y-144272072D01*
X180867389Y-144496836D01*
X180865495Y-144501409D01*
X180806391Y-144747597D01*
X180786526Y-145000000D01*
X179513165Y-145000000D01*
X179494535Y-144763289D01*
X179491953Y-144752531D01*
X179440260Y-144537218D01*
X179439105Y-144532406D01*
X179348240Y-144313037D01*
X179345654Y-144308817D01*
X179226759Y-144114798D01*
X179226755Y-144114792D01*
X179224176Y-144110584D01*
X179069969Y-143930031D01*
X178889416Y-143775824D01*
X178885208Y-143773245D01*
X178885202Y-143773241D01*
X178691183Y-143654346D01*
X178686963Y-143651760D01*
X178682393Y-143649867D01*
X178682389Y-143649865D01*
X178472167Y-143562789D01*
X178472165Y-143562788D01*
X178467594Y-143560895D01*
X178387391Y-143541640D01*
X178241524Y-143506620D01*
X178241518Y-143506619D01*
X178236711Y-143505465D01*
X178000000Y-143486835D01*
X177763289Y-143505465D01*
X177758482Y-143506619D01*
X177758476Y-143506620D01*
X177612609Y-143541640D01*
X177532406Y-143560895D01*
X177527835Y-143562788D01*
X177527833Y-143562789D01*
X177317611Y-143649865D01*
X177317607Y-143649867D01*
X177313037Y-143651760D01*
X177308817Y-143654346D01*
X177114798Y-143773241D01*
X177114792Y-143773245D01*
X177110584Y-143775824D01*
X176930031Y-143930031D01*
X176775824Y-144110584D01*
X176773245Y-144114792D01*
X176773241Y-144114798D01*
X176654346Y-144308817D01*
X176651760Y-144313037D01*
X176560895Y-144532406D01*
X176559740Y-144537218D01*
X176508048Y-144752531D01*
X176505465Y-144763289D01*
X176486835Y-145000000D01*
X165513165Y-145000000D01*
X165494535Y-144763289D01*
X165491953Y-144752531D01*
X165440260Y-144537218D01*
X165439105Y-144532406D01*
X165348240Y-144313037D01*
X165345654Y-144308817D01*
X165226759Y-144114798D01*
X165226755Y-144114792D01*
X165224176Y-144110584D01*
X165069969Y-143930031D01*
X164889416Y-143775824D01*
X164885208Y-143773245D01*
X164885202Y-143773241D01*
X164691183Y-143654346D01*
X164686963Y-143651760D01*
X164682393Y-143649867D01*
X164682389Y-143649865D01*
X164472167Y-143562789D01*
X164472165Y-143562788D01*
X164467594Y-143560895D01*
X164387391Y-143541640D01*
X164241524Y-143506620D01*
X164241518Y-143506619D01*
X164236711Y-143505465D01*
X164000000Y-143486835D01*
X163763289Y-143505465D01*
X163758482Y-143506619D01*
X163758476Y-143506620D01*
X163612609Y-143541640D01*
X163532406Y-143560895D01*
X163527835Y-143562788D01*
X163527833Y-143562789D01*
X163317611Y-143649865D01*
X163317607Y-143649867D01*
X163313037Y-143651760D01*
X163308817Y-143654346D01*
X163114798Y-143773241D01*
X163114792Y-143773245D01*
X163110584Y-143775824D01*
X162930031Y-143930031D01*
X162775824Y-144110584D01*
X162773245Y-144114792D01*
X162773241Y-144114798D01*
X162654346Y-144308817D01*
X162651760Y-144313037D01*
X162560895Y-144532406D01*
X162559740Y-144537218D01*
X162508048Y-144752531D01*
X162505465Y-144763289D01*
X162486835Y-145000000D01*
X134508000Y-145000000D01*
X134508000Y-141000000D01*
X180786526Y-141000000D01*
X180806391Y-141252403D01*
X180865495Y-141498591D01*
X180962384Y-141732502D01*
X181094672Y-141948376D01*
X181259102Y-142140898D01*
X181451624Y-142305328D01*
X181667498Y-142437616D01*
X181672068Y-142439509D01*
X181672072Y-142439511D01*
X181896836Y-142532611D01*
X181901409Y-142534505D01*
X181986032Y-142554821D01*
X182142784Y-142592454D01*
X182142790Y-142592455D01*
X182147597Y-142593609D01*
X182400000Y-142613474D01*
X182652403Y-142593609D01*
X182657210Y-142592455D01*
X182657216Y-142592454D01*
X182813968Y-142554821D01*
X182898591Y-142534505D01*
X182903164Y-142532611D01*
X183127928Y-142439511D01*
X183127932Y-142439509D01*
X183132502Y-142437616D01*
X183348376Y-142305328D01*
X183540898Y-142140898D01*
X183604189Y-142066794D01*
X183663640Y-142027985D01*
X183734634Y-142027479D01*
X183795811Y-142066794D01*
X183859102Y-142140898D01*
X184051624Y-142305328D01*
X184267498Y-142437616D01*
X184272068Y-142439509D01*
X184272072Y-142439511D01*
X184496836Y-142532611D01*
X184501409Y-142534505D01*
X184586032Y-142554821D01*
X184742784Y-142592454D01*
X184742790Y-142592455D01*
X184747597Y-142593609D01*
X185000000Y-142613474D01*
X185252403Y-142593609D01*
X185257210Y-142592455D01*
X185257216Y-142592454D01*
X185413968Y-142554821D01*
X185498591Y-142534505D01*
X185503164Y-142532611D01*
X185727928Y-142439511D01*
X185727932Y-142439509D01*
X185732502Y-142437616D01*
X185948376Y-142305328D01*
X186140898Y-142140898D01*
X186305328Y-141948376D01*
X186437616Y-141732502D01*
X186534505Y-141498591D01*
X186593609Y-141252403D01*
X186613474Y-141000000D01*
X186593609Y-140747597D01*
X186534505Y-140501409D01*
X186532611Y-140496836D01*
X186439511Y-140272072D01*
X186439509Y-140272068D01*
X186437616Y-140267498D01*
X186305328Y-140051624D01*
X186140898Y-139859102D01*
X185948376Y-139694672D01*
X185732502Y-139562384D01*
X185727932Y-139560491D01*
X185727928Y-139560489D01*
X185503164Y-139467389D01*
X185503162Y-139467388D01*
X185498591Y-139465495D01*
X185413968Y-139445179D01*
X185257216Y-139407546D01*
X185257210Y-139407545D01*
X185252403Y-139406391D01*
X185000000Y-139386526D01*
X184747597Y-139406391D01*
X184742790Y-139407545D01*
X184742784Y-139407546D01*
X184586032Y-139445179D01*
X184501409Y-139465495D01*
X184496838Y-139467388D01*
X184496836Y-139467389D01*
X184272072Y-139560489D01*
X184272068Y-139560491D01*
X184267498Y-139562384D01*
X184051624Y-139694672D01*
X183859102Y-139859102D01*
X183855894Y-139862858D01*
X183795811Y-139933206D01*
X183736360Y-139972015D01*
X183665366Y-139972521D01*
X183604189Y-139933206D01*
X183544106Y-139862858D01*
X183540898Y-139859102D01*
X183348376Y-139694672D01*
X183132502Y-139562384D01*
X183127932Y-139560491D01*
X183127928Y-139560489D01*
X182903164Y-139467389D01*
X182903162Y-139467388D01*
X182898591Y-139465495D01*
X182813968Y-139445179D01*
X182657216Y-139407546D01*
X182657210Y-139407545D01*
X182652403Y-139406391D01*
X182400000Y-139386526D01*
X182147597Y-139406391D01*
X182142790Y-139407545D01*
X182142784Y-139407546D01*
X181986032Y-139445179D01*
X181901409Y-139465495D01*
X181896838Y-139467388D01*
X181896836Y-139467389D01*
X181672072Y-139560489D01*
X181672068Y-139560491D01*
X181667498Y-139562384D01*
X181451624Y-139694672D01*
X181259102Y-139859102D01*
X181094672Y-140051624D01*
X180962384Y-140267498D01*
X180960491Y-140272068D01*
X180960489Y-140272072D01*
X180867389Y-140496836D01*
X180865495Y-140501409D01*
X180806391Y-140747597D01*
X180786526Y-141000000D01*
X134508000Y-141000000D01*
X134508000Y-138855469D01*
X135157095Y-138855469D01*
X135157392Y-138860622D01*
X135157392Y-138860625D01*
X135163067Y-138959041D01*
X135170427Y-139086697D01*
X135171564Y-139091743D01*
X135171565Y-139091749D01*
X135203741Y-139234523D01*
X135221346Y-139312642D01*
X135223288Y-139317424D01*
X135223289Y-139317428D01*
X135282944Y-139464340D01*
X135308484Y-139527237D01*
X135429501Y-139724719D01*
X135581147Y-139899784D01*
X135759349Y-140047730D01*
X135959322Y-140164584D01*
X136175694Y-140247209D01*
X136180760Y-140248240D01*
X136180761Y-140248240D01*
X136233846Y-140259040D01*
X136402656Y-140293385D01*
X136533324Y-140298176D01*
X136628949Y-140301683D01*
X136628953Y-140301683D01*
X136634113Y-140301872D01*
X136639233Y-140301216D01*
X136639235Y-140301216D01*
X136712270Y-140291860D01*
X136863847Y-140272442D01*
X136868795Y-140270957D01*
X136868802Y-140270956D01*
X137080747Y-140207369D01*
X137085690Y-140205886D01*
X137166236Y-140166427D01*
X137289049Y-140106262D01*
X137289052Y-140106260D01*
X137293684Y-140103991D01*
X137482243Y-139969494D01*
X137646303Y-139806005D01*
X137781458Y-139617917D01*
X137828641Y-139522450D01*
X137881784Y-139414922D01*
X137881785Y-139414920D01*
X137884078Y-139410280D01*
X137951408Y-139188671D01*
X137981640Y-138959041D01*
X137983327Y-138890000D01*
X137980488Y-138855469D01*
X158017095Y-138855469D01*
X158017392Y-138860622D01*
X158017392Y-138860625D01*
X158023067Y-138959041D01*
X158030427Y-139086697D01*
X158031564Y-139091743D01*
X158031565Y-139091749D01*
X158063741Y-139234523D01*
X158081346Y-139312642D01*
X158083288Y-139317424D01*
X158083289Y-139317428D01*
X158142944Y-139464340D01*
X158168484Y-139527237D01*
X158289501Y-139724719D01*
X158441147Y-139899784D01*
X158619349Y-140047730D01*
X158819322Y-140164584D01*
X159035694Y-140247209D01*
X159040760Y-140248240D01*
X159040761Y-140248240D01*
X159093846Y-140259040D01*
X159262656Y-140293385D01*
X159393324Y-140298176D01*
X159488949Y-140301683D01*
X159488953Y-140301683D01*
X159494113Y-140301872D01*
X159499233Y-140301216D01*
X159499235Y-140301216D01*
X159572270Y-140291860D01*
X159723847Y-140272442D01*
X159728795Y-140270957D01*
X159728802Y-140270956D01*
X159940747Y-140207369D01*
X159945690Y-140205886D01*
X160026236Y-140166427D01*
X160149049Y-140106262D01*
X160149052Y-140106260D01*
X160153684Y-140103991D01*
X160342243Y-139969494D01*
X160506303Y-139806005D01*
X160641458Y-139617917D01*
X160688641Y-139522450D01*
X160741784Y-139414922D01*
X160741785Y-139414920D01*
X160744078Y-139410280D01*
X160811408Y-139188671D01*
X160841640Y-138959041D01*
X160843327Y-138890000D01*
X160837032Y-138813434D01*
X160824773Y-138664318D01*
X160824772Y-138664312D01*
X160824349Y-138659167D01*
X160767925Y-138434533D01*
X160765866Y-138429797D01*
X160677630Y-138226868D01*
X160677628Y-138226865D01*
X160675570Y-138222131D01*
X160549764Y-138027665D01*
X160393887Y-137856358D01*
X160389836Y-137853159D01*
X160389832Y-137853155D01*
X160216669Y-137716400D01*
X160175606Y-137658483D01*
X160172374Y-137587560D01*
X160207999Y-137526148D01*
X160213487Y-137521623D01*
X160223497Y-137508874D01*
X160216510Y-137495721D01*
X159442811Y-136722021D01*
X159428868Y-136714408D01*
X159427034Y-136714539D01*
X159420420Y-136718790D01*
X158640180Y-137499031D01*
X158633423Y-137511406D01*
X158652730Y-137537197D01*
X158652040Y-137537713D01*
X158676627Y-137563737D01*
X158689743Y-137633511D01*
X158663055Y-137699300D01*
X158640023Y-137721719D01*
X158491655Y-137833117D01*
X158331639Y-138000564D01*
X158328725Y-138004836D01*
X158328724Y-138004837D01*
X158313279Y-138027479D01*
X158201119Y-138191899D01*
X158103602Y-138401981D01*
X158041707Y-138625169D01*
X158017095Y-138855469D01*
X137980488Y-138855469D01*
X137977032Y-138813434D01*
X137964773Y-138664318D01*
X137964772Y-138664312D01*
X137964349Y-138659167D01*
X137907925Y-138434533D01*
X137905866Y-138429797D01*
X137817630Y-138226868D01*
X137817628Y-138226865D01*
X137815570Y-138222131D01*
X137689764Y-138027665D01*
X137533887Y-137856358D01*
X137529836Y-137853159D01*
X137529832Y-137853155D01*
X137357077Y-137716722D01*
X137316014Y-137658805D01*
X137312782Y-137587882D01*
X137348407Y-137526470D01*
X137362001Y-137515261D01*
X137367406Y-137511406D01*
X137482243Y-137429494D01*
X137646303Y-137266005D01*
X137659623Y-137247469D01*
X137733080Y-137145242D01*
X137781458Y-137077917D01*
X137783879Y-137073020D01*
X137881784Y-136874922D01*
X137881785Y-136874920D01*
X137884078Y-136870280D01*
X137951408Y-136648671D01*
X137981640Y-136419041D01*
X137983327Y-136350000D01*
X137980913Y-136320638D01*
X158017893Y-136320638D01*
X158030627Y-136541468D01*
X158032061Y-136551670D01*
X158080685Y-136767439D01*
X158083773Y-136777292D01*
X158166986Y-136982220D01*
X158171634Y-136991421D01*
X158260097Y-137135781D01*
X158270553Y-137145242D01*
X158279331Y-137141458D01*
X159057979Y-136362811D01*
X159064356Y-136351132D01*
X159794408Y-136351132D01*
X159794539Y-136352966D01*
X159798790Y-136359580D01*
X160576307Y-137137096D01*
X160588313Y-137143652D01*
X160600052Y-137134684D01*
X160638010Y-137081859D01*
X160643321Y-137073020D01*
X160679410Y-137000000D01*
X180786526Y-137000000D01*
X180806391Y-137252403D01*
X180807545Y-137257210D01*
X180807546Y-137257216D01*
X180810532Y-137269653D01*
X180865495Y-137498591D01*
X180867388Y-137503162D01*
X180867389Y-137503164D01*
X180958053Y-137722045D01*
X180962384Y-137732502D01*
X181094672Y-137948376D01*
X181259102Y-138140898D01*
X181451624Y-138305328D01*
X181667498Y-138437616D01*
X181672068Y-138439509D01*
X181672072Y-138439511D01*
X181896836Y-138532611D01*
X181901409Y-138534505D01*
X181986032Y-138554821D01*
X182142784Y-138592454D01*
X182142790Y-138592455D01*
X182147597Y-138593609D01*
X182400000Y-138613474D01*
X182652403Y-138593609D01*
X182657210Y-138592455D01*
X182657216Y-138592454D01*
X182813968Y-138554821D01*
X182898591Y-138534505D01*
X182903164Y-138532611D01*
X183127928Y-138439511D01*
X183127932Y-138439509D01*
X183132502Y-138437616D01*
X183348376Y-138305328D01*
X183540898Y-138140898D01*
X183604189Y-138066794D01*
X183663640Y-138027985D01*
X183734634Y-138027479D01*
X183795811Y-138066794D01*
X183859102Y-138140898D01*
X184051624Y-138305328D01*
X184267498Y-138437616D01*
X184272068Y-138439509D01*
X184272072Y-138439511D01*
X184496836Y-138532611D01*
X184501409Y-138534505D01*
X184586032Y-138554821D01*
X184742784Y-138592454D01*
X184742790Y-138592455D01*
X184747597Y-138593609D01*
X185000000Y-138613474D01*
X185252403Y-138593609D01*
X185257210Y-138592455D01*
X185257216Y-138592454D01*
X185413968Y-138554821D01*
X185498591Y-138534505D01*
X185503164Y-138532611D01*
X185727928Y-138439511D01*
X185727932Y-138439509D01*
X185732502Y-138437616D01*
X185948376Y-138305328D01*
X186140898Y-138140898D01*
X186305328Y-137948376D01*
X186437616Y-137732502D01*
X186441948Y-137722045D01*
X186532611Y-137503164D01*
X186532612Y-137503162D01*
X186534505Y-137498591D01*
X186589468Y-137269653D01*
X186592454Y-137257216D01*
X186592455Y-137257210D01*
X186593609Y-137252403D01*
X186613474Y-137000000D01*
X186593609Y-136747597D01*
X186586694Y-136718790D01*
X186546571Y-136551670D01*
X186534505Y-136501409D01*
X186532611Y-136496836D01*
X186439511Y-136272072D01*
X186439509Y-136272068D01*
X186437616Y-136267498D01*
X186305328Y-136051624D01*
X186140898Y-135859102D01*
X185948376Y-135694672D01*
X185732502Y-135562384D01*
X185727932Y-135560491D01*
X185727928Y-135560489D01*
X185503164Y-135467389D01*
X185503162Y-135467388D01*
X185498591Y-135465495D01*
X185413968Y-135445179D01*
X185257216Y-135407546D01*
X185257210Y-135407545D01*
X185252403Y-135406391D01*
X185000000Y-135386526D01*
X184747597Y-135406391D01*
X184742790Y-135407545D01*
X184742784Y-135407546D01*
X184586032Y-135445179D01*
X184501409Y-135465495D01*
X184496838Y-135467388D01*
X184496836Y-135467389D01*
X184272072Y-135560489D01*
X184272068Y-135560491D01*
X184267498Y-135562384D01*
X184051624Y-135694672D01*
X183859102Y-135859102D01*
X183855894Y-135862858D01*
X183795811Y-135933206D01*
X183736360Y-135972015D01*
X183665366Y-135972521D01*
X183604189Y-135933206D01*
X183544106Y-135862858D01*
X183540898Y-135859102D01*
X183348376Y-135694672D01*
X183132502Y-135562384D01*
X183127932Y-135560491D01*
X183127928Y-135560489D01*
X182903164Y-135467389D01*
X182903162Y-135467388D01*
X182898591Y-135465495D01*
X182813968Y-135445179D01*
X182657216Y-135407546D01*
X182657210Y-135407545D01*
X182652403Y-135406391D01*
X182400000Y-135386526D01*
X182147597Y-135406391D01*
X182142790Y-135407545D01*
X182142784Y-135407546D01*
X181986032Y-135445179D01*
X181901409Y-135465495D01*
X181896838Y-135467388D01*
X181896836Y-135467389D01*
X181672072Y-135560489D01*
X181672068Y-135560491D01*
X181667498Y-135562384D01*
X181451624Y-135694672D01*
X181259102Y-135859102D01*
X181094672Y-136051624D01*
X180962384Y-136267498D01*
X180960491Y-136272068D01*
X180960489Y-136272072D01*
X180867389Y-136496836D01*
X180865495Y-136501409D01*
X180853429Y-136551670D01*
X180813307Y-136718790D01*
X180806391Y-136747597D01*
X180786526Y-137000000D01*
X160679410Y-137000000D01*
X160741318Y-136874737D01*
X160745117Y-136865142D01*
X160809415Y-136653517D01*
X160811594Y-136643436D01*
X160840702Y-136422338D01*
X160841221Y-136415663D01*
X160842744Y-136353364D01*
X160842550Y-136346646D01*
X160824279Y-136124400D01*
X160822596Y-136114238D01*
X160768710Y-135899708D01*
X160765389Y-135889953D01*
X160677193Y-135687118D01*
X160672315Y-135678020D01*
X160599224Y-135565038D01*
X160588538Y-135555835D01*
X160578973Y-135560238D01*
X159802021Y-136337189D01*
X159794408Y-136351132D01*
X159064356Y-136351132D01*
X159065592Y-136348868D01*
X159065461Y-136347034D01*
X159061210Y-136340420D01*
X158283862Y-135563073D01*
X158272330Y-135556776D01*
X158260048Y-135566399D01*
X158204467Y-135647877D01*
X158199379Y-135656833D01*
X158106252Y-135857459D01*
X158102689Y-135867146D01*
X158043581Y-136080280D01*
X158041650Y-136090400D01*
X158018145Y-136310349D01*
X158017893Y-136320638D01*
X137980913Y-136320638D01*
X137976197Y-136263278D01*
X137964773Y-136124318D01*
X137964772Y-136124312D01*
X137964349Y-136119167D01*
X137930797Y-135985592D01*
X137909184Y-135899544D01*
X137909183Y-135899540D01*
X137907925Y-135894533D01*
X137896017Y-135867146D01*
X137817630Y-135686868D01*
X137817628Y-135686865D01*
X137815570Y-135682131D01*
X137689764Y-135487665D01*
X137671315Y-135467389D01*
X137616861Y-135407546D01*
X137533887Y-135316358D01*
X137529836Y-135313159D01*
X137529832Y-135313155D01*
X137357077Y-135176722D01*
X137316014Y-135118805D01*
X137312782Y-135047882D01*
X137348407Y-134986470D01*
X137362001Y-134975261D01*
X137365872Y-134972500D01*
X137482243Y-134889494D01*
X137646303Y-134726005D01*
X137781458Y-134537917D01*
X137828641Y-134442450D01*
X137881784Y-134334922D01*
X137881785Y-134334920D01*
X137884078Y-134330280D01*
X137951408Y-134108671D01*
X137981640Y-133879041D01*
X137983327Y-133810000D01*
X137980488Y-133775469D01*
X158017095Y-133775469D01*
X158017392Y-133780622D01*
X158017392Y-133780625D01*
X158023067Y-133879041D01*
X158030427Y-134006697D01*
X158031564Y-134011743D01*
X158031565Y-134011749D01*
X158063741Y-134154523D01*
X158081346Y-134232642D01*
X158083288Y-134237424D01*
X158083289Y-134237428D01*
X158166540Y-134442450D01*
X158168484Y-134447237D01*
X158289501Y-134644719D01*
X158441147Y-134819784D01*
X158619349Y-134967730D01*
X158623814Y-134970339D01*
X158627979Y-134972773D01*
X158676700Y-135024414D01*
X158689767Y-135094198D01*
X158663033Y-135159968D01*
X158646323Y-135176221D01*
X158635508Y-135190711D01*
X158642251Y-135203040D01*
X159417189Y-135977979D01*
X159431132Y-135985592D01*
X159432966Y-135985461D01*
X159439580Y-135981210D01*
X160218994Y-135201795D01*
X160226011Y-135188944D01*
X160218237Y-135178275D01*
X160216655Y-135177025D01*
X160175592Y-135119109D01*
X160172359Y-135048186D01*
X160207983Y-134986774D01*
X160221578Y-134975563D01*
X160237193Y-134964425D01*
X160342243Y-134889494D01*
X160506303Y-134726005D01*
X160641458Y-134537917D01*
X160688641Y-134442450D01*
X160741784Y-134334922D01*
X160741785Y-134334920D01*
X160744078Y-134330280D01*
X160811408Y-134108671D01*
X160841640Y-133879041D01*
X160843327Y-133810000D01*
X160837032Y-133733434D01*
X160824773Y-133584318D01*
X160824772Y-133584312D01*
X160824349Y-133579167D01*
X160767925Y-133354533D01*
X160760375Y-133337169D01*
X160677630Y-133146868D01*
X160677628Y-133146865D01*
X160675570Y-133142131D01*
X160549764Y-132947665D01*
X160393887Y-132776358D01*
X160389836Y-132773159D01*
X160389832Y-132773155D01*
X160217077Y-132636722D01*
X160176014Y-132578805D01*
X160172782Y-132507882D01*
X160208407Y-132446470D01*
X160222001Y-132435261D01*
X160225872Y-132432500D01*
X160342243Y-132349494D01*
X160506303Y-132186005D01*
X160641458Y-131997917D01*
X160688641Y-131902450D01*
X160689852Y-131900000D01*
X183387028Y-131900000D01*
X183406886Y-132152324D01*
X183408040Y-132157131D01*
X183408041Y-132157137D01*
X183436548Y-132275877D01*
X183465972Y-132398436D01*
X183467865Y-132403007D01*
X183467866Y-132403009D01*
X183525482Y-132542105D01*
X183562831Y-132632274D01*
X183695078Y-132848081D01*
X183859457Y-133040543D01*
X184051919Y-133204922D01*
X184267726Y-133337169D01*
X184272296Y-133339062D01*
X184272300Y-133339064D01*
X184496991Y-133432134D01*
X184501564Y-133434028D01*
X184586655Y-133454457D01*
X184742863Y-133491959D01*
X184742869Y-133491960D01*
X184747676Y-133493114D01*
X185000000Y-133512972D01*
X185252324Y-133493114D01*
X185257131Y-133491960D01*
X185257137Y-133491959D01*
X185413345Y-133454457D01*
X185498436Y-133434028D01*
X185503009Y-133432134D01*
X185727700Y-133339064D01*
X185727704Y-133339062D01*
X185732274Y-133337169D01*
X185948081Y-133204922D01*
X186140543Y-133040543D01*
X186304922Y-132848081D01*
X186437169Y-132632274D01*
X186474519Y-132542105D01*
X186532134Y-132403009D01*
X186532135Y-132403007D01*
X186534028Y-132398436D01*
X186563452Y-132275877D01*
X186591959Y-132157137D01*
X186591960Y-132157131D01*
X186593114Y-132152324D01*
X186612972Y-131900000D01*
X186593114Y-131647676D01*
X186582629Y-131604000D01*
X186535183Y-131406376D01*
X186534028Y-131401564D01*
X186528125Y-131387313D01*
X186439064Y-131172300D01*
X186439062Y-131172296D01*
X186437169Y-131167726D01*
X186304922Y-130951919D01*
X186140543Y-130759457D01*
X185948081Y-130595078D01*
X185732274Y-130462831D01*
X185727704Y-130460938D01*
X185727700Y-130460936D01*
X185503009Y-130367866D01*
X185503007Y-130367865D01*
X185498436Y-130365972D01*
X185413345Y-130345543D01*
X185257137Y-130308041D01*
X185257131Y-130308040D01*
X185252324Y-130306886D01*
X185000000Y-130287028D01*
X184747676Y-130306886D01*
X184742869Y-130308040D01*
X184742863Y-130308041D01*
X184586655Y-130345543D01*
X184501564Y-130365972D01*
X184496993Y-130367865D01*
X184496991Y-130367866D01*
X184272300Y-130460936D01*
X184272296Y-130460938D01*
X184267726Y-130462831D01*
X184051919Y-130595078D01*
X183859457Y-130759457D01*
X183695078Y-130951919D01*
X183562831Y-131167726D01*
X183560938Y-131172296D01*
X183560936Y-131172300D01*
X183471875Y-131387313D01*
X183465972Y-131401564D01*
X183464817Y-131406376D01*
X183417372Y-131604000D01*
X183406886Y-131647676D01*
X183387028Y-131900000D01*
X160689852Y-131900000D01*
X160741784Y-131794922D01*
X160741785Y-131794920D01*
X160744078Y-131790280D01*
X160811408Y-131568671D01*
X160841640Y-131339041D01*
X160841906Y-131328172D01*
X160843245Y-131273365D01*
X160843245Y-131273361D01*
X160843327Y-131270000D01*
X160834572Y-131163506D01*
X160824773Y-131044318D01*
X160824772Y-131044312D01*
X160824349Y-131039167D01*
X160767925Y-130814533D01*
X160765866Y-130809797D01*
X160677630Y-130606868D01*
X160677628Y-130606865D01*
X160675570Y-130602131D01*
X160549764Y-130407665D01*
X160393887Y-130236358D01*
X160389836Y-130233159D01*
X160389832Y-130233155D01*
X160217077Y-130096722D01*
X160176014Y-130038805D01*
X160172782Y-129967882D01*
X160208407Y-129906470D01*
X160222001Y-129895261D01*
X160225872Y-129892500D01*
X160342243Y-129809494D01*
X160506303Y-129646005D01*
X160641458Y-129457917D01*
X160688641Y-129362450D01*
X160741784Y-129254922D01*
X160741785Y-129254920D01*
X160744078Y-129250280D01*
X160775112Y-129148134D01*
X182391500Y-129148134D01*
X182398255Y-129210316D01*
X182449385Y-129346705D01*
X182536739Y-129463261D01*
X182653295Y-129550615D01*
X182789684Y-129601745D01*
X182851866Y-129608500D01*
X185148134Y-129608500D01*
X185210316Y-129601745D01*
X185346705Y-129550615D01*
X185463261Y-129463261D01*
X185550615Y-129346705D01*
X185601745Y-129210316D01*
X185608500Y-129148134D01*
X185608500Y-126851866D01*
X185601745Y-126789684D01*
X185550615Y-126653295D01*
X185463261Y-126536739D01*
X185346705Y-126449385D01*
X185210316Y-126398255D01*
X185148134Y-126391500D01*
X182851866Y-126391500D01*
X182789684Y-126398255D01*
X182653295Y-126449385D01*
X182536739Y-126536739D01*
X182449385Y-126653295D01*
X182398255Y-126789684D01*
X182391500Y-126851866D01*
X182391500Y-129148134D01*
X160775112Y-129148134D01*
X160811408Y-129028671D01*
X160841640Y-128799041D01*
X160843327Y-128730000D01*
X160837032Y-128653434D01*
X160824773Y-128504318D01*
X160824772Y-128504312D01*
X160824349Y-128499167D01*
X160767925Y-128274533D01*
X160765866Y-128269797D01*
X160677630Y-128066868D01*
X160677628Y-128066865D01*
X160675570Y-128062131D01*
X160549764Y-127867665D01*
X160393887Y-127696358D01*
X160389836Y-127693159D01*
X160389832Y-127693155D01*
X160217077Y-127556722D01*
X160176014Y-127498805D01*
X160172782Y-127427882D01*
X160208407Y-127366470D01*
X160222001Y-127355261D01*
X160225872Y-127352500D01*
X160342243Y-127269494D01*
X160506303Y-127106005D01*
X160641458Y-126917917D01*
X160672414Y-126855283D01*
X160741784Y-126714922D01*
X160741785Y-126714920D01*
X160744078Y-126710280D01*
X160811408Y-126488671D01*
X160841640Y-126259041D01*
X160843327Y-126190000D01*
X160837032Y-126113434D01*
X160824773Y-125964318D01*
X160824772Y-125964312D01*
X160824349Y-125959167D01*
X160767925Y-125734533D01*
X160765866Y-125729797D01*
X160677630Y-125526868D01*
X160677628Y-125526865D01*
X160675570Y-125522131D01*
X160549764Y-125327665D01*
X160393887Y-125156358D01*
X160389836Y-125153159D01*
X160389832Y-125153155D01*
X160217077Y-125016722D01*
X160176014Y-124958805D01*
X160172782Y-124887882D01*
X160208407Y-124826470D01*
X160222001Y-124815261D01*
X160225872Y-124812500D01*
X160342243Y-124729494D01*
X160506303Y-124566005D01*
X160641458Y-124377917D01*
X160688641Y-124282450D01*
X160741784Y-124174922D01*
X160741785Y-124174920D01*
X160744078Y-124170280D01*
X160811408Y-123948671D01*
X160841640Y-123719041D01*
X160843327Y-123650000D01*
X160836438Y-123566213D01*
X160824773Y-123424318D01*
X160824772Y-123424312D01*
X160824349Y-123419167D01*
X160767925Y-123194533D01*
X160765866Y-123189797D01*
X160677630Y-122986868D01*
X160677628Y-122986865D01*
X160675570Y-122982131D01*
X160549764Y-122787665D01*
X160393887Y-122616358D01*
X160389836Y-122613159D01*
X160389832Y-122613155D01*
X160246552Y-122500000D01*
X162486835Y-122500000D01*
X162505465Y-122736711D01*
X162506619Y-122741518D01*
X162506620Y-122741524D01*
X162512217Y-122764837D01*
X162560895Y-122967594D01*
X162562788Y-122972165D01*
X162562789Y-122972167D01*
X162649772Y-123182163D01*
X162651760Y-123186963D01*
X162654346Y-123191183D01*
X162773241Y-123385202D01*
X162773245Y-123385208D01*
X162775824Y-123389416D01*
X162930031Y-123569969D01*
X163110584Y-123724176D01*
X163114792Y-123726755D01*
X163114798Y-123726759D01*
X163302086Y-123841529D01*
X163313037Y-123848240D01*
X163317607Y-123850133D01*
X163317611Y-123850135D01*
X163527833Y-123937211D01*
X163532406Y-123939105D01*
X163592853Y-123953617D01*
X163758476Y-123993380D01*
X163758482Y-123993381D01*
X163763289Y-123994535D01*
X164000000Y-124013165D01*
X164236711Y-123994535D01*
X164241518Y-123993381D01*
X164241524Y-123993380D01*
X164407147Y-123953617D01*
X164467594Y-123939105D01*
X164472167Y-123937211D01*
X164682389Y-123850135D01*
X164682393Y-123850133D01*
X164686963Y-123848240D01*
X164697914Y-123841529D01*
X164885202Y-123726759D01*
X164885208Y-123726755D01*
X164889416Y-123724176D01*
X165069969Y-123569969D01*
X165224176Y-123389416D01*
X165226755Y-123385208D01*
X165226759Y-123385202D01*
X165345654Y-123191183D01*
X165348240Y-123186963D01*
X165350229Y-123182163D01*
X165383591Y-123101618D01*
X165428139Y-123046337D01*
X165495503Y-123023916D01*
X165564294Y-123041474D01*
X165612672Y-123093436D01*
X165616409Y-123101618D01*
X165649772Y-123182163D01*
X165651760Y-123186963D01*
X165654346Y-123191183D01*
X165773241Y-123385202D01*
X165773245Y-123385208D01*
X165775824Y-123389416D01*
X165930031Y-123569969D01*
X166110584Y-123724176D01*
X166114792Y-123726755D01*
X166114798Y-123726759D01*
X166302086Y-123841529D01*
X166313037Y-123848240D01*
X166317607Y-123850133D01*
X166317611Y-123850135D01*
X166527833Y-123937211D01*
X166532406Y-123939105D01*
X166592853Y-123953617D01*
X166758476Y-123993380D01*
X166758482Y-123993381D01*
X166763289Y-123994535D01*
X167000000Y-124013165D01*
X167236711Y-123994535D01*
X167241518Y-123993381D01*
X167241524Y-123993380D01*
X167407147Y-123953617D01*
X167467594Y-123939105D01*
X167472167Y-123937211D01*
X167682389Y-123850135D01*
X167682393Y-123850133D01*
X167686963Y-123848240D01*
X167697914Y-123841529D01*
X167885202Y-123726759D01*
X167885208Y-123726755D01*
X167889416Y-123724176D01*
X168069969Y-123569969D01*
X168224176Y-123389416D01*
X168226755Y-123385208D01*
X168226759Y-123385202D01*
X168345654Y-123191183D01*
X168348240Y-123186963D01*
X168350229Y-123182163D01*
X168437211Y-122972167D01*
X168437212Y-122972165D01*
X168439105Y-122967594D01*
X168487783Y-122764837D01*
X168493380Y-122741524D01*
X168493381Y-122741518D01*
X168494535Y-122736711D01*
X168513165Y-122500000D01*
X173486835Y-122500000D01*
X173505465Y-122736711D01*
X173506619Y-122741518D01*
X173506620Y-122741524D01*
X173512217Y-122764837D01*
X173560895Y-122967594D01*
X173562788Y-122972165D01*
X173562789Y-122972167D01*
X173649772Y-123182163D01*
X173651760Y-123186963D01*
X173654346Y-123191183D01*
X173773241Y-123385202D01*
X173773245Y-123385208D01*
X173775824Y-123389416D01*
X173930031Y-123569969D01*
X174110584Y-123724176D01*
X174114792Y-123726755D01*
X174114798Y-123726759D01*
X174302086Y-123841529D01*
X174313037Y-123848240D01*
X174317607Y-123850133D01*
X174317611Y-123850135D01*
X174527833Y-123937211D01*
X174532406Y-123939105D01*
X174592853Y-123953617D01*
X174758476Y-123993380D01*
X174758482Y-123993381D01*
X174763289Y-123994535D01*
X175000000Y-124013165D01*
X175236711Y-123994535D01*
X175241518Y-123993381D01*
X175241524Y-123993380D01*
X175407147Y-123953617D01*
X175467594Y-123939105D01*
X175472167Y-123937211D01*
X175682389Y-123850135D01*
X175682393Y-123850133D01*
X175686963Y-123848240D01*
X175697914Y-123841529D01*
X175875556Y-123732670D01*
X177132160Y-123732670D01*
X177137887Y-123740320D01*
X177309042Y-123845205D01*
X177317837Y-123849687D01*
X177527988Y-123936734D01*
X177537373Y-123939783D01*
X177758554Y-123992885D01*
X177768301Y-123994428D01*
X177995070Y-124012275D01*
X178004930Y-124012275D01*
X178231699Y-123994428D01*
X178241446Y-123992885D01*
X178462627Y-123939783D01*
X178472012Y-123936734D01*
X178682163Y-123849687D01*
X178690958Y-123845205D01*
X178858445Y-123742568D01*
X178867907Y-123732110D01*
X178864124Y-123723334D01*
X178012812Y-122872022D01*
X177998868Y-122864408D01*
X177997035Y-122864539D01*
X177990420Y-122868790D01*
X177138920Y-123720290D01*
X177132160Y-123732670D01*
X175875556Y-123732670D01*
X175885202Y-123726759D01*
X175885208Y-123726755D01*
X175889416Y-123724176D01*
X176069969Y-123569969D01*
X176224176Y-123389416D01*
X176226755Y-123385208D01*
X176226759Y-123385202D01*
X176345654Y-123191183D01*
X176348240Y-123186963D01*
X176350229Y-123182163D01*
X176383862Y-123100964D01*
X176428410Y-123045683D01*
X176495774Y-123023262D01*
X176564565Y-123040820D01*
X176612943Y-123092782D01*
X176616680Y-123100964D01*
X176650313Y-123182163D01*
X176654795Y-123190958D01*
X176757432Y-123358445D01*
X176767890Y-123367907D01*
X176776666Y-123364124D01*
X177627978Y-122512812D01*
X177634356Y-122501132D01*
X178364408Y-122501132D01*
X178364539Y-122502965D01*
X178368790Y-122509580D01*
X179220290Y-123361080D01*
X179232670Y-123367840D01*
X179240320Y-123362113D01*
X179345205Y-123190958D01*
X179349687Y-123182163D01*
X179436734Y-122972012D01*
X179439783Y-122962627D01*
X179492885Y-122741446D01*
X179494428Y-122731699D01*
X179512275Y-122504930D01*
X179512275Y-122495070D01*
X179494428Y-122268301D01*
X179492885Y-122258554D01*
X179439783Y-122037373D01*
X179436734Y-122027988D01*
X179349687Y-121817837D01*
X179345205Y-121809042D01*
X179242568Y-121641555D01*
X179232110Y-121632093D01*
X179223334Y-121635876D01*
X178372022Y-122487188D01*
X178364408Y-122501132D01*
X177634356Y-122501132D01*
X177635592Y-122498868D01*
X177635461Y-122497035D01*
X177631210Y-122490420D01*
X176779710Y-121638920D01*
X176767330Y-121632160D01*
X176759680Y-121637887D01*
X176654795Y-121809042D01*
X176650313Y-121817837D01*
X176616680Y-121899036D01*
X176572132Y-121954317D01*
X176504769Y-121976738D01*
X176435978Y-121959180D01*
X176387599Y-121907218D01*
X176383862Y-121899036D01*
X176350135Y-121817611D01*
X176350133Y-121817607D01*
X176348240Y-121813037D01*
X176345654Y-121808817D01*
X176226759Y-121614798D01*
X176226755Y-121614792D01*
X176224176Y-121610584D01*
X176069969Y-121430031D01*
X175889416Y-121275824D01*
X175885208Y-121273245D01*
X175885202Y-121273241D01*
X175876470Y-121267890D01*
X177132093Y-121267890D01*
X177135876Y-121276666D01*
X177987188Y-122127978D01*
X178001132Y-122135592D01*
X178002965Y-122135461D01*
X178009580Y-122131210D01*
X178861080Y-121279710D01*
X178867840Y-121267330D01*
X178862113Y-121259680D01*
X178690958Y-121154795D01*
X178682163Y-121150313D01*
X178472012Y-121063266D01*
X178462627Y-121060217D01*
X178241446Y-121007115D01*
X178231699Y-121005572D01*
X178004930Y-120987725D01*
X177995070Y-120987725D01*
X177768301Y-121005572D01*
X177758554Y-121007115D01*
X177537373Y-121060217D01*
X177527988Y-121063266D01*
X177317837Y-121150313D01*
X177309042Y-121154795D01*
X177141555Y-121257432D01*
X177132093Y-121267890D01*
X175876470Y-121267890D01*
X175691183Y-121154346D01*
X175686963Y-121151760D01*
X175682393Y-121149867D01*
X175682389Y-121149865D01*
X175472167Y-121062789D01*
X175472165Y-121062788D01*
X175467594Y-121060895D01*
X175387391Y-121041640D01*
X175241524Y-121006620D01*
X175241518Y-121006619D01*
X175236711Y-121005465D01*
X175000000Y-120986835D01*
X174763289Y-121005465D01*
X174758482Y-121006619D01*
X174758476Y-121006620D01*
X174612609Y-121041640D01*
X174532406Y-121060895D01*
X174527835Y-121062788D01*
X174527833Y-121062789D01*
X174317611Y-121149865D01*
X174317607Y-121149867D01*
X174313037Y-121151760D01*
X174308817Y-121154346D01*
X174114798Y-121273241D01*
X174114792Y-121273245D01*
X174110584Y-121275824D01*
X173930031Y-121430031D01*
X173775824Y-121610584D01*
X173773245Y-121614792D01*
X173773241Y-121614798D01*
X173654346Y-121808817D01*
X173651760Y-121813037D01*
X173649867Y-121817607D01*
X173649865Y-121817611D01*
X173643376Y-121833278D01*
X173560895Y-122032406D01*
X173559740Y-122037218D01*
X173523182Y-122189494D01*
X173505465Y-122263289D01*
X173486835Y-122500000D01*
X168513165Y-122500000D01*
X168494535Y-122263289D01*
X168476819Y-122189494D01*
X168440260Y-122037218D01*
X168439105Y-122032406D01*
X168356624Y-121833278D01*
X168350135Y-121817611D01*
X168350133Y-121817607D01*
X168348240Y-121813037D01*
X168345654Y-121808817D01*
X168226759Y-121614798D01*
X168226755Y-121614792D01*
X168224176Y-121610584D01*
X168069969Y-121430031D01*
X167889416Y-121275824D01*
X167885208Y-121273245D01*
X167885202Y-121273241D01*
X167691183Y-121154346D01*
X167686963Y-121151760D01*
X167682393Y-121149867D01*
X167682389Y-121149865D01*
X167472167Y-121062789D01*
X167472165Y-121062788D01*
X167467594Y-121060895D01*
X167387391Y-121041640D01*
X167241524Y-121006620D01*
X167241518Y-121006619D01*
X167236711Y-121005465D01*
X167000000Y-120986835D01*
X166763289Y-121005465D01*
X166758482Y-121006619D01*
X166758476Y-121006620D01*
X166612609Y-121041640D01*
X166532406Y-121060895D01*
X166527835Y-121062788D01*
X166527833Y-121062789D01*
X166317611Y-121149865D01*
X166317607Y-121149867D01*
X166313037Y-121151760D01*
X166308817Y-121154346D01*
X166114798Y-121273241D01*
X166114792Y-121273245D01*
X166110584Y-121275824D01*
X165930031Y-121430031D01*
X165775824Y-121610584D01*
X165773245Y-121614792D01*
X165773241Y-121614798D01*
X165654346Y-121808817D01*
X165651760Y-121813037D01*
X165649867Y-121817607D01*
X165649865Y-121817611D01*
X165616409Y-121898382D01*
X165571861Y-121953663D01*
X165504497Y-121976084D01*
X165435706Y-121958526D01*
X165387328Y-121906564D01*
X165383591Y-121898382D01*
X165350135Y-121817611D01*
X165350133Y-121817607D01*
X165348240Y-121813037D01*
X165345654Y-121808817D01*
X165226759Y-121614798D01*
X165226755Y-121614792D01*
X165224176Y-121610584D01*
X165069969Y-121430031D01*
X164889416Y-121275824D01*
X164885208Y-121273245D01*
X164885202Y-121273241D01*
X164691183Y-121154346D01*
X164686963Y-121151760D01*
X164682393Y-121149867D01*
X164682389Y-121149865D01*
X164472167Y-121062789D01*
X164472165Y-121062788D01*
X164467594Y-121060895D01*
X164387391Y-121041640D01*
X164241524Y-121006620D01*
X164241518Y-121006619D01*
X164236711Y-121005465D01*
X164000000Y-120986835D01*
X163763289Y-121005465D01*
X163758482Y-121006619D01*
X163758476Y-121006620D01*
X163612609Y-121041640D01*
X163532406Y-121060895D01*
X163527835Y-121062788D01*
X163527833Y-121062789D01*
X163317611Y-121149865D01*
X163317607Y-121149867D01*
X163313037Y-121151760D01*
X163308817Y-121154346D01*
X163114798Y-121273241D01*
X163114792Y-121273245D01*
X163110584Y-121275824D01*
X162930031Y-121430031D01*
X162775824Y-121610584D01*
X162773245Y-121614792D01*
X162773241Y-121614798D01*
X162654346Y-121808817D01*
X162651760Y-121813037D01*
X162649867Y-121817607D01*
X162649865Y-121817611D01*
X162643376Y-121833278D01*
X162560895Y-122032406D01*
X162559740Y-122037218D01*
X162523182Y-122189494D01*
X162505465Y-122263289D01*
X162486835Y-122500000D01*
X160246552Y-122500000D01*
X160217077Y-122476722D01*
X160176014Y-122418805D01*
X160172782Y-122347882D01*
X160208407Y-122286470D01*
X160222001Y-122275261D01*
X160225872Y-122272500D01*
X160342243Y-122189494D01*
X160506303Y-122026005D01*
X160641458Y-121837917D01*
X160653755Y-121813037D01*
X160741784Y-121634922D01*
X160741785Y-121634920D01*
X160744078Y-121630280D01*
X160811408Y-121408671D01*
X160841640Y-121179041D01*
X160841722Y-121175691D01*
X160843245Y-121113365D01*
X160843245Y-121113361D01*
X160843327Y-121110000D01*
X160834828Y-121006620D01*
X160824773Y-120884318D01*
X160824772Y-120884312D01*
X160824349Y-120879167D01*
X160767925Y-120654533D01*
X160765866Y-120649797D01*
X160677630Y-120446868D01*
X160677628Y-120446865D01*
X160675570Y-120442131D01*
X160549764Y-120247665D01*
X160393887Y-120076358D01*
X160389836Y-120073159D01*
X160389832Y-120073155D01*
X160216177Y-119936011D01*
X160216172Y-119936008D01*
X160212123Y-119932810D01*
X160207607Y-119930317D01*
X160207604Y-119930315D01*
X160013879Y-119823373D01*
X160013875Y-119823371D01*
X160009355Y-119820876D01*
X160004486Y-119819152D01*
X160004482Y-119819150D01*
X159795903Y-119745288D01*
X159795899Y-119745287D01*
X159791028Y-119743562D01*
X159785935Y-119742655D01*
X159785932Y-119742654D01*
X159568095Y-119703851D01*
X159568089Y-119703850D01*
X159563006Y-119702945D01*
X159490096Y-119702054D01*
X159336581Y-119700179D01*
X159336579Y-119700179D01*
X159331411Y-119700116D01*
X159102464Y-119735150D01*
X158882314Y-119807106D01*
X158877726Y-119809494D01*
X158877722Y-119809496D01*
X158851065Y-119823373D01*
X158676872Y-119914052D01*
X158672739Y-119917155D01*
X158672736Y-119917157D01*
X158647625Y-119936011D01*
X158491655Y-120053117D01*
X158331639Y-120220564D01*
X158328725Y-120224836D01*
X158328724Y-120224837D01*
X158313152Y-120247665D01*
X158201119Y-120411899D01*
X158103602Y-120621981D01*
X158041707Y-120845169D01*
X158017095Y-121075469D01*
X158017392Y-121080622D01*
X158017392Y-121080625D01*
X158027716Y-121259680D01*
X158030427Y-121306697D01*
X158031564Y-121311743D01*
X158031565Y-121311749D01*
X158059068Y-121433787D01*
X158081346Y-121532642D01*
X158083288Y-121537424D01*
X158083289Y-121537428D01*
X158124501Y-121638920D01*
X158168484Y-121747237D01*
X158289501Y-121944719D01*
X158441147Y-122119784D01*
X158619349Y-122267730D01*
X158623819Y-122270342D01*
X158627511Y-122272500D01*
X158676232Y-122324140D01*
X158689301Y-122393924D01*
X158662566Y-122459694D01*
X158639589Y-122482045D01*
X158491655Y-122593117D01*
X158488083Y-122596855D01*
X158349909Y-122741446D01*
X158331639Y-122760564D01*
X158328725Y-122764836D01*
X158328724Y-122764837D01*
X158313152Y-122787665D01*
X158201119Y-122951899D01*
X158103602Y-123161981D01*
X158041707Y-123385169D01*
X158017095Y-123615469D01*
X158017392Y-123620622D01*
X158017392Y-123620625D01*
X158024423Y-123742568D01*
X158030427Y-123846697D01*
X158031564Y-123851743D01*
X158031565Y-123851749D01*
X158063720Y-123994428D01*
X158081346Y-124072642D01*
X158083288Y-124077424D01*
X158083289Y-124077428D01*
X158166540Y-124282450D01*
X158168484Y-124287237D01*
X158289501Y-124484719D01*
X158441147Y-124659784D01*
X158619349Y-124807730D01*
X158623819Y-124810342D01*
X158627511Y-124812500D01*
X158676232Y-124864140D01*
X158689301Y-124933924D01*
X158662566Y-124999694D01*
X158639589Y-125022045D01*
X158491655Y-125133117D01*
X158331639Y-125300564D01*
X158328725Y-125304836D01*
X158328724Y-125304837D01*
X158313152Y-125327665D01*
X158201119Y-125491899D01*
X158103602Y-125701981D01*
X158041707Y-125925169D01*
X158017095Y-126155469D01*
X158017392Y-126160622D01*
X158017392Y-126160625D01*
X158023067Y-126259041D01*
X158030427Y-126386697D01*
X158031564Y-126391743D01*
X158031565Y-126391749D01*
X158063028Y-126531358D01*
X158081346Y-126612642D01*
X158083288Y-126617424D01*
X158083289Y-126617428D01*
X158150231Y-126782285D01*
X158168484Y-126827237D01*
X158289501Y-127024719D01*
X158441147Y-127199784D01*
X158619349Y-127347730D01*
X158623819Y-127350342D01*
X158627511Y-127352500D01*
X158676232Y-127404140D01*
X158689301Y-127473924D01*
X158662566Y-127539694D01*
X158639589Y-127562045D01*
X158491655Y-127673117D01*
X158331639Y-127840564D01*
X158328725Y-127844836D01*
X158328724Y-127844837D01*
X158313152Y-127867665D01*
X158201119Y-128031899D01*
X158103602Y-128241981D01*
X158041707Y-128465169D01*
X158017095Y-128695469D01*
X158017392Y-128700622D01*
X158017392Y-128700625D01*
X158023067Y-128799041D01*
X158030427Y-128926697D01*
X158031564Y-128931743D01*
X158031565Y-128931749D01*
X158063741Y-129074523D01*
X158081346Y-129152642D01*
X158083288Y-129157424D01*
X158083289Y-129157428D01*
X158160147Y-129346705D01*
X158168484Y-129367237D01*
X158171183Y-129371641D01*
X158277558Y-129545229D01*
X158289501Y-129564719D01*
X158441147Y-129739784D01*
X158619349Y-129887730D01*
X158623819Y-129890342D01*
X158627511Y-129892500D01*
X158676232Y-129944140D01*
X158689301Y-130013924D01*
X158662566Y-130079694D01*
X158639589Y-130102045D01*
X158491655Y-130213117D01*
X158331639Y-130380564D01*
X158328725Y-130384836D01*
X158328724Y-130384837D01*
X158313152Y-130407665D01*
X158201119Y-130571899D01*
X158103602Y-130781981D01*
X158041707Y-131005169D01*
X158017095Y-131235469D01*
X158017392Y-131240622D01*
X158017392Y-131240625D01*
X158023067Y-131339041D01*
X158030427Y-131466697D01*
X158031564Y-131471743D01*
X158031565Y-131471749D01*
X158061370Y-131604000D01*
X158081346Y-131692642D01*
X158083288Y-131697424D01*
X158083289Y-131697428D01*
X158163543Y-131895070D01*
X158168484Y-131907237D01*
X158289501Y-132104719D01*
X158441147Y-132279784D01*
X158619349Y-132427730D01*
X158623819Y-132430342D01*
X158627511Y-132432500D01*
X158676232Y-132484140D01*
X158689301Y-132553924D01*
X158662566Y-132619694D01*
X158639589Y-132642045D01*
X158491655Y-132753117D01*
X158331639Y-132920564D01*
X158328725Y-132924836D01*
X158328724Y-132924837D01*
X158313152Y-132947665D01*
X158201119Y-133111899D01*
X158103602Y-133321981D01*
X158041707Y-133545169D01*
X158017095Y-133775469D01*
X137980488Y-133775469D01*
X137977032Y-133733434D01*
X137964773Y-133584318D01*
X137964772Y-133584312D01*
X137964349Y-133579167D01*
X137907925Y-133354533D01*
X137900375Y-133337169D01*
X137817630Y-133146868D01*
X137817628Y-133146865D01*
X137815570Y-133142131D01*
X137689764Y-132947665D01*
X137533887Y-132776358D01*
X137529836Y-132773159D01*
X137529832Y-132773155D01*
X137357077Y-132636722D01*
X137316014Y-132578805D01*
X137312782Y-132507882D01*
X137348407Y-132446470D01*
X137362001Y-132435261D01*
X137365872Y-132432500D01*
X137482243Y-132349494D01*
X137646303Y-132186005D01*
X137781458Y-131997917D01*
X137828641Y-131902450D01*
X137881784Y-131794922D01*
X137881785Y-131794920D01*
X137884078Y-131790280D01*
X137951408Y-131568671D01*
X137981640Y-131339041D01*
X137981906Y-131328172D01*
X137983245Y-131273365D01*
X137983245Y-131273361D01*
X137983327Y-131270000D01*
X137974572Y-131163506D01*
X137964773Y-131044318D01*
X137964772Y-131044312D01*
X137964349Y-131039167D01*
X137907925Y-130814533D01*
X137905866Y-130809797D01*
X137817630Y-130606868D01*
X137817628Y-130606865D01*
X137815570Y-130602131D01*
X137689764Y-130407665D01*
X137533887Y-130236358D01*
X137529836Y-130233159D01*
X137529832Y-130233155D01*
X137357077Y-130096722D01*
X137316014Y-130038805D01*
X137312782Y-129967882D01*
X137348407Y-129906470D01*
X137362001Y-129895261D01*
X137365872Y-129892500D01*
X137482243Y-129809494D01*
X137646303Y-129646005D01*
X137781458Y-129457917D01*
X137828641Y-129362450D01*
X137881784Y-129254922D01*
X137881785Y-129254920D01*
X137884078Y-129250280D01*
X137951408Y-129028671D01*
X137981640Y-128799041D01*
X137983327Y-128730000D01*
X137977032Y-128653434D01*
X137964773Y-128504318D01*
X137964772Y-128504312D01*
X137964349Y-128499167D01*
X137907925Y-128274533D01*
X137905866Y-128269797D01*
X137817630Y-128066868D01*
X137817628Y-128066865D01*
X137815570Y-128062131D01*
X137689764Y-127867665D01*
X137533887Y-127696358D01*
X137529836Y-127693159D01*
X137529832Y-127693155D01*
X137357077Y-127556722D01*
X137316014Y-127498805D01*
X137312782Y-127427882D01*
X137348407Y-127366470D01*
X137362001Y-127355261D01*
X137365872Y-127352500D01*
X137482243Y-127269494D01*
X137646303Y-127106005D01*
X137781458Y-126917917D01*
X137812414Y-126855283D01*
X137881784Y-126714922D01*
X137881785Y-126714920D01*
X137884078Y-126710280D01*
X137951408Y-126488671D01*
X137981640Y-126259041D01*
X137983327Y-126190000D01*
X137977032Y-126113434D01*
X137964773Y-125964318D01*
X137964772Y-125964312D01*
X137964349Y-125959167D01*
X137907925Y-125734533D01*
X137905866Y-125729797D01*
X137817630Y-125526868D01*
X137817628Y-125526865D01*
X137815570Y-125522131D01*
X137689764Y-125327665D01*
X137533887Y-125156358D01*
X137529836Y-125153159D01*
X137529832Y-125153155D01*
X137357077Y-125016722D01*
X137316014Y-124958805D01*
X137312782Y-124887882D01*
X137348407Y-124826470D01*
X137362001Y-124815261D01*
X137365872Y-124812500D01*
X137482243Y-124729494D01*
X137646303Y-124566005D01*
X137781458Y-124377917D01*
X137828641Y-124282450D01*
X137881784Y-124174922D01*
X137881785Y-124174920D01*
X137884078Y-124170280D01*
X137951408Y-123948671D01*
X137981640Y-123719041D01*
X137983327Y-123650000D01*
X137976438Y-123566213D01*
X137964773Y-123424318D01*
X137964772Y-123424312D01*
X137964349Y-123419167D01*
X137907925Y-123194533D01*
X137905866Y-123189797D01*
X137817630Y-122986868D01*
X137817628Y-122986865D01*
X137815570Y-122982131D01*
X137689764Y-122787665D01*
X137533887Y-122616358D01*
X137529836Y-122613159D01*
X137529832Y-122613155D01*
X137357077Y-122476722D01*
X137316014Y-122418805D01*
X137312782Y-122347882D01*
X137348407Y-122286470D01*
X137362001Y-122275261D01*
X137365872Y-122272500D01*
X137482243Y-122189494D01*
X137646303Y-122026005D01*
X137781458Y-121837917D01*
X137793755Y-121813037D01*
X137881784Y-121634922D01*
X137881785Y-121634920D01*
X137884078Y-121630280D01*
X137951408Y-121408671D01*
X137981640Y-121179041D01*
X137981722Y-121175691D01*
X137983245Y-121113365D01*
X137983245Y-121113361D01*
X137983327Y-121110000D01*
X137974828Y-121006620D01*
X137964773Y-120884318D01*
X137964772Y-120884312D01*
X137964349Y-120879167D01*
X137907925Y-120654533D01*
X137905866Y-120649797D01*
X137817630Y-120446868D01*
X137817628Y-120446865D01*
X137815570Y-120442131D01*
X137689764Y-120247665D01*
X137533887Y-120076358D01*
X137529836Y-120073159D01*
X137529832Y-120073155D01*
X137356177Y-119936011D01*
X137356172Y-119936008D01*
X137352123Y-119932810D01*
X137347607Y-119930317D01*
X137347604Y-119930315D01*
X137153879Y-119823373D01*
X137153875Y-119823371D01*
X137149355Y-119820876D01*
X137144486Y-119819152D01*
X137144482Y-119819150D01*
X136935903Y-119745288D01*
X136935899Y-119745287D01*
X136931028Y-119743562D01*
X136925935Y-119742655D01*
X136925932Y-119742654D01*
X136708095Y-119703851D01*
X136708089Y-119703850D01*
X136703006Y-119702945D01*
X136630096Y-119702054D01*
X136476581Y-119700179D01*
X136476579Y-119700179D01*
X136471411Y-119700116D01*
X136242464Y-119735150D01*
X136022314Y-119807106D01*
X136017726Y-119809494D01*
X136017722Y-119809496D01*
X135991065Y-119823373D01*
X135816872Y-119914052D01*
X135812739Y-119917155D01*
X135812736Y-119917157D01*
X135787625Y-119936011D01*
X135631655Y-120053117D01*
X135471639Y-120220564D01*
X135468725Y-120224836D01*
X135468724Y-120224837D01*
X135453152Y-120247665D01*
X135341119Y-120411899D01*
X135243602Y-120621981D01*
X135181707Y-120845169D01*
X135157095Y-121075469D01*
X135157392Y-121080622D01*
X135157392Y-121080625D01*
X135167716Y-121259680D01*
X135170427Y-121306697D01*
X135171564Y-121311743D01*
X135171565Y-121311749D01*
X135199068Y-121433787D01*
X135221346Y-121532642D01*
X135223288Y-121537424D01*
X135223289Y-121537428D01*
X135264501Y-121638920D01*
X135308484Y-121747237D01*
X135429501Y-121944719D01*
X135581147Y-122119784D01*
X135759349Y-122267730D01*
X135763819Y-122270342D01*
X135767511Y-122272500D01*
X135816232Y-122324140D01*
X135829301Y-122393924D01*
X135802566Y-122459694D01*
X135779589Y-122482045D01*
X135631655Y-122593117D01*
X135628083Y-122596855D01*
X135489909Y-122741446D01*
X135471639Y-122760564D01*
X135468725Y-122764836D01*
X135468724Y-122764837D01*
X135453152Y-122787665D01*
X135341119Y-122951899D01*
X135243602Y-123161981D01*
X135181707Y-123385169D01*
X135157095Y-123615469D01*
X135157392Y-123620622D01*
X135157392Y-123620625D01*
X135164423Y-123742568D01*
X135170427Y-123846697D01*
X135171564Y-123851743D01*
X135171565Y-123851749D01*
X135203720Y-123994428D01*
X135221346Y-124072642D01*
X135223288Y-124077424D01*
X135223289Y-124077428D01*
X135306540Y-124282450D01*
X135308484Y-124287237D01*
X135429501Y-124484719D01*
X135581147Y-124659784D01*
X135759349Y-124807730D01*
X135763819Y-124810342D01*
X135767511Y-124812500D01*
X135816232Y-124864140D01*
X135829301Y-124933924D01*
X135802566Y-124999694D01*
X135779589Y-125022045D01*
X135631655Y-125133117D01*
X135471639Y-125300564D01*
X135468725Y-125304836D01*
X135468724Y-125304837D01*
X135453152Y-125327665D01*
X135341119Y-125491899D01*
X135243602Y-125701981D01*
X135181707Y-125925169D01*
X135157095Y-126155469D01*
X135157392Y-126160622D01*
X135157392Y-126160625D01*
X135163067Y-126259041D01*
X135170427Y-126386697D01*
X135171564Y-126391743D01*
X135171565Y-126391749D01*
X135203028Y-126531358D01*
X135221346Y-126612642D01*
X135223288Y-126617424D01*
X135223289Y-126617428D01*
X135290231Y-126782285D01*
X135308484Y-126827237D01*
X135429501Y-127024719D01*
X135581147Y-127199784D01*
X135759349Y-127347730D01*
X135763819Y-127350342D01*
X135767511Y-127352500D01*
X135816232Y-127404140D01*
X135829301Y-127473924D01*
X135802566Y-127539694D01*
X135779589Y-127562045D01*
X135631655Y-127673117D01*
X135471639Y-127840564D01*
X135468725Y-127844836D01*
X135468724Y-127844837D01*
X135453152Y-127867665D01*
X135341119Y-128031899D01*
X135243602Y-128241981D01*
X135181707Y-128465169D01*
X135157095Y-128695469D01*
X135157392Y-128700622D01*
X135157392Y-128700625D01*
X135163067Y-128799041D01*
X135170427Y-128926697D01*
X135171564Y-128931743D01*
X135171565Y-128931749D01*
X135203741Y-129074523D01*
X135221346Y-129152642D01*
X135223288Y-129157424D01*
X135223289Y-129157428D01*
X135300147Y-129346705D01*
X135308484Y-129367237D01*
X135311183Y-129371641D01*
X135417558Y-129545229D01*
X135429501Y-129564719D01*
X135581147Y-129739784D01*
X135759349Y-129887730D01*
X135763819Y-129890342D01*
X135767511Y-129892500D01*
X135816232Y-129944140D01*
X135829301Y-130013924D01*
X135802566Y-130079694D01*
X135779589Y-130102045D01*
X135631655Y-130213117D01*
X135471639Y-130380564D01*
X135468725Y-130384836D01*
X135468724Y-130384837D01*
X135453152Y-130407665D01*
X135341119Y-130571899D01*
X135243602Y-130781981D01*
X135181707Y-131005169D01*
X135157095Y-131235469D01*
X135157392Y-131240622D01*
X135157392Y-131240625D01*
X135163067Y-131339041D01*
X135170427Y-131466697D01*
X135171564Y-131471743D01*
X135171565Y-131471749D01*
X135201370Y-131604000D01*
X135221346Y-131692642D01*
X135223288Y-131697424D01*
X135223289Y-131697428D01*
X135303543Y-131895070D01*
X135308484Y-131907237D01*
X135429501Y-132104719D01*
X135581147Y-132279784D01*
X135759349Y-132427730D01*
X135763819Y-132430342D01*
X135767511Y-132432500D01*
X135816232Y-132484140D01*
X135829301Y-132553924D01*
X135802566Y-132619694D01*
X135779589Y-132642045D01*
X135631655Y-132753117D01*
X135471639Y-132920564D01*
X135468725Y-132924836D01*
X135468724Y-132924837D01*
X135453152Y-132947665D01*
X135341119Y-133111899D01*
X135243602Y-133321981D01*
X135181707Y-133545169D01*
X135157095Y-133775469D01*
X135157392Y-133780622D01*
X135157392Y-133780625D01*
X135163067Y-133879041D01*
X135170427Y-134006697D01*
X135171564Y-134011743D01*
X135171565Y-134011749D01*
X135203741Y-134154523D01*
X135221346Y-134232642D01*
X135223288Y-134237424D01*
X135223289Y-134237428D01*
X135306540Y-134442450D01*
X135308484Y-134447237D01*
X135429501Y-134644719D01*
X135581147Y-134819784D01*
X135759349Y-134967730D01*
X135763819Y-134970342D01*
X135767511Y-134972500D01*
X135816232Y-135024140D01*
X135829301Y-135093924D01*
X135802566Y-135159694D01*
X135779589Y-135182045D01*
X135631655Y-135293117D01*
X135471639Y-135460564D01*
X135468725Y-135464836D01*
X135468724Y-135464837D01*
X135453152Y-135487665D01*
X135341119Y-135651899D01*
X135243602Y-135861981D01*
X135181707Y-136085169D01*
X135157095Y-136315469D01*
X135157392Y-136320622D01*
X135157392Y-136320625D01*
X135170129Y-136541529D01*
X135170427Y-136546697D01*
X135171564Y-136551743D01*
X135171565Y-136551749D01*
X135203741Y-136694523D01*
X135221346Y-136772642D01*
X135223288Y-136777424D01*
X135223289Y-136777428D01*
X135306447Y-136982220D01*
X135308484Y-136987237D01*
X135429501Y-137184719D01*
X135581147Y-137359784D01*
X135759349Y-137507730D01*
X135763819Y-137510342D01*
X135767511Y-137512500D01*
X135816232Y-137564140D01*
X135829301Y-137633924D01*
X135802566Y-137699694D01*
X135779589Y-137722045D01*
X135631655Y-137833117D01*
X135471639Y-138000564D01*
X135468725Y-138004836D01*
X135468724Y-138004837D01*
X135453279Y-138027479D01*
X135341119Y-138191899D01*
X135243602Y-138401981D01*
X135181707Y-138625169D01*
X135157095Y-138855469D01*
X134508000Y-138855469D01*
X134508000Y-117840000D01*
X182386526Y-117840000D01*
X182406391Y-118092403D01*
X182465495Y-118338591D01*
X182562384Y-118572502D01*
X182694672Y-118788376D01*
X182859102Y-118980898D01*
X183051624Y-119145328D01*
X183267498Y-119277616D01*
X183272068Y-119279509D01*
X183272072Y-119279511D01*
X183496836Y-119372611D01*
X183501409Y-119374505D01*
X183586032Y-119394821D01*
X183742784Y-119432454D01*
X183742790Y-119432455D01*
X183747597Y-119433609D01*
X184000000Y-119453474D01*
X184252403Y-119433609D01*
X184257210Y-119432455D01*
X184257216Y-119432454D01*
X184413968Y-119394821D01*
X184498591Y-119374505D01*
X184503164Y-119372611D01*
X184727928Y-119279511D01*
X184727932Y-119279509D01*
X184732502Y-119277616D01*
X184948376Y-119145328D01*
X185140898Y-118980898D01*
X185305328Y-118788376D01*
X185437616Y-118572502D01*
X185534505Y-118338591D01*
X185593609Y-118092403D01*
X185613474Y-117840000D01*
X185593609Y-117587597D01*
X185575647Y-117512777D01*
X185535660Y-117346221D01*
X185534505Y-117341409D01*
X185532611Y-117336836D01*
X185439511Y-117112072D01*
X185439509Y-117112068D01*
X185437616Y-117107498D01*
X185305328Y-116891624D01*
X185140898Y-116699102D01*
X184948376Y-116534672D01*
X184732502Y-116402384D01*
X184727932Y-116400491D01*
X184727928Y-116400489D01*
X184503164Y-116307389D01*
X184503162Y-116307388D01*
X184498591Y-116305495D01*
X184413968Y-116285179D01*
X184257216Y-116247546D01*
X184257210Y-116247545D01*
X184252403Y-116246391D01*
X184000000Y-116226526D01*
X183747597Y-116246391D01*
X183742790Y-116247545D01*
X183742784Y-116247546D01*
X183586032Y-116285179D01*
X183501409Y-116305495D01*
X183496838Y-116307388D01*
X183496836Y-116307389D01*
X183272072Y-116400489D01*
X183272068Y-116400491D01*
X183267498Y-116402384D01*
X183051624Y-116534672D01*
X182859102Y-116699102D01*
X182694672Y-116891624D01*
X182562384Y-117107498D01*
X182560491Y-117112068D01*
X182560489Y-117112072D01*
X182467389Y-117336836D01*
X182465495Y-117341409D01*
X182464340Y-117346221D01*
X182424354Y-117512777D01*
X182406391Y-117587597D01*
X182386526Y-117840000D01*
X134508000Y-117840000D01*
X134508000Y-116000000D01*
X167486835Y-116000000D01*
X167505465Y-116236711D01*
X167506619Y-116241518D01*
X167506620Y-116241524D01*
X167522433Y-116307389D01*
X167560895Y-116467594D01*
X167651760Y-116686963D01*
X167654346Y-116691183D01*
X167773241Y-116885202D01*
X167773245Y-116885208D01*
X167775824Y-116889416D01*
X167930031Y-117069969D01*
X168110584Y-117224176D01*
X168114792Y-117226755D01*
X168114798Y-117226759D01*
X168294427Y-117336836D01*
X168313037Y-117348240D01*
X168317607Y-117350133D01*
X168317611Y-117350135D01*
X168527833Y-117437211D01*
X168532406Y-117439105D01*
X168612609Y-117458360D01*
X168758476Y-117493380D01*
X168758482Y-117493381D01*
X168763289Y-117494535D01*
X169000000Y-117513165D01*
X169236711Y-117494535D01*
X169241518Y-117493381D01*
X169241524Y-117493380D01*
X169387391Y-117458360D01*
X169467594Y-117439105D01*
X169472167Y-117437211D01*
X169682389Y-117350135D01*
X169682393Y-117350133D01*
X169686963Y-117348240D01*
X169705573Y-117336836D01*
X169885202Y-117226759D01*
X169885208Y-117226755D01*
X169889416Y-117224176D01*
X170069969Y-117069969D01*
X170224176Y-116889416D01*
X170226755Y-116885208D01*
X170226759Y-116885202D01*
X170345654Y-116691183D01*
X170348240Y-116686963D01*
X170439105Y-116467594D01*
X170477567Y-116307389D01*
X170493380Y-116241524D01*
X170493381Y-116241518D01*
X170494535Y-116236711D01*
X170513165Y-116000000D01*
X171486835Y-116000000D01*
X171505465Y-116236711D01*
X171506619Y-116241518D01*
X171506620Y-116241524D01*
X171522433Y-116307389D01*
X171560895Y-116467594D01*
X171651760Y-116686963D01*
X171654346Y-116691183D01*
X171773241Y-116885202D01*
X171773245Y-116885208D01*
X171775824Y-116889416D01*
X171930031Y-117069969D01*
X172110584Y-117224176D01*
X172114792Y-117226755D01*
X172114798Y-117226759D01*
X172294427Y-117336836D01*
X172313037Y-117348240D01*
X172317607Y-117350133D01*
X172317611Y-117350135D01*
X172527833Y-117437211D01*
X172532406Y-117439105D01*
X172612609Y-117458360D01*
X172758476Y-117493380D01*
X172758482Y-117493381D01*
X172763289Y-117494535D01*
X173000000Y-117513165D01*
X173236711Y-117494535D01*
X173241518Y-117493381D01*
X173241524Y-117493380D01*
X173387391Y-117458360D01*
X173467594Y-117439105D01*
X173472167Y-117437211D01*
X173682389Y-117350135D01*
X173682393Y-117350133D01*
X173686963Y-117348240D01*
X173705573Y-117336836D01*
X173885202Y-117226759D01*
X173885208Y-117226755D01*
X173889416Y-117224176D01*
X174069969Y-117069969D01*
X174224176Y-116889416D01*
X174226755Y-116885208D01*
X174226759Y-116885202D01*
X174345654Y-116691183D01*
X174348240Y-116686963D01*
X174439105Y-116467594D01*
X174477567Y-116307389D01*
X174493380Y-116241524D01*
X174493381Y-116241518D01*
X174494535Y-116236711D01*
X174513165Y-116000000D01*
X174494535Y-115763289D01*
X174439105Y-115532406D01*
X174437211Y-115527833D01*
X174350135Y-115317611D01*
X174350133Y-115317607D01*
X174348240Y-115313037D01*
X174345654Y-115308817D01*
X174247187Y-115148134D01*
X182391500Y-115148134D01*
X182398255Y-115210316D01*
X182449385Y-115346705D01*
X182536739Y-115463261D01*
X182653295Y-115550615D01*
X182789684Y-115601745D01*
X182851866Y-115608500D01*
X185148134Y-115608500D01*
X185210316Y-115601745D01*
X185346705Y-115550615D01*
X185463261Y-115463261D01*
X185550615Y-115346705D01*
X185601745Y-115210316D01*
X185608500Y-115148134D01*
X185608500Y-112851866D01*
X185601745Y-112789684D01*
X185550615Y-112653295D01*
X185463261Y-112536739D01*
X185346705Y-112449385D01*
X185210316Y-112398255D01*
X185148134Y-112391500D01*
X182851866Y-112391500D01*
X182789684Y-112398255D01*
X182653295Y-112449385D01*
X182536739Y-112536739D01*
X182449385Y-112653295D01*
X182398255Y-112789684D01*
X182391500Y-112851866D01*
X182391500Y-115148134D01*
X174247187Y-115148134D01*
X174226759Y-115114798D01*
X174226755Y-115114792D01*
X174224176Y-115110584D01*
X174069969Y-114930031D01*
X173889416Y-114775824D01*
X173885208Y-114773245D01*
X173885202Y-114773241D01*
X173691183Y-114654346D01*
X173686963Y-114651760D01*
X173682393Y-114649867D01*
X173682389Y-114649865D01*
X173472167Y-114562789D01*
X173472165Y-114562788D01*
X173467594Y-114560895D01*
X173387391Y-114541640D01*
X173241524Y-114506620D01*
X173241518Y-114506619D01*
X173236711Y-114505465D01*
X173000000Y-114486835D01*
X172763289Y-114505465D01*
X172758482Y-114506619D01*
X172758476Y-114506620D01*
X172612609Y-114541640D01*
X172532406Y-114560895D01*
X172527835Y-114562788D01*
X172527833Y-114562789D01*
X172317611Y-114649865D01*
X172317607Y-114649867D01*
X172313037Y-114651760D01*
X172308817Y-114654346D01*
X172114798Y-114773241D01*
X172114792Y-114773245D01*
X172110584Y-114775824D01*
X171930031Y-114930031D01*
X171775824Y-115110584D01*
X171773245Y-115114792D01*
X171773241Y-115114798D01*
X171654346Y-115308817D01*
X171651760Y-115313037D01*
X171649867Y-115317607D01*
X171649865Y-115317611D01*
X171562789Y-115527833D01*
X171560895Y-115532406D01*
X171505465Y-115763289D01*
X171486835Y-116000000D01*
X170513165Y-116000000D01*
X170494535Y-115763289D01*
X170439105Y-115532406D01*
X170437211Y-115527833D01*
X170350135Y-115317611D01*
X170350133Y-115317607D01*
X170348240Y-115313037D01*
X170345654Y-115308817D01*
X170226759Y-115114798D01*
X170226755Y-115114792D01*
X170224176Y-115110584D01*
X170069969Y-114930031D01*
X169889416Y-114775824D01*
X169885208Y-114773245D01*
X169885202Y-114773241D01*
X169691183Y-114654346D01*
X169686963Y-114651760D01*
X169682393Y-114649867D01*
X169682389Y-114649865D01*
X169472167Y-114562789D01*
X169472165Y-114562788D01*
X169467594Y-114560895D01*
X169387391Y-114541640D01*
X169241524Y-114506620D01*
X169241518Y-114506619D01*
X169236711Y-114505465D01*
X169000000Y-114486835D01*
X168763289Y-114505465D01*
X168758482Y-114506619D01*
X168758476Y-114506620D01*
X168612609Y-114541640D01*
X168532406Y-114560895D01*
X168527835Y-114562788D01*
X168527833Y-114562789D01*
X168317611Y-114649865D01*
X168317607Y-114649867D01*
X168313037Y-114651760D01*
X168308817Y-114654346D01*
X168114798Y-114773241D01*
X168114792Y-114773245D01*
X168110584Y-114775824D01*
X167930031Y-114930031D01*
X167775824Y-115110584D01*
X167773245Y-115114792D01*
X167773241Y-115114798D01*
X167654346Y-115308817D01*
X167651760Y-115313037D01*
X167649867Y-115317607D01*
X167649865Y-115317611D01*
X167562789Y-115527833D01*
X167560895Y-115532406D01*
X167505465Y-115763289D01*
X167486835Y-116000000D01*
X134508000Y-116000000D01*
X134508000Y-109500000D01*
X135486835Y-109500000D01*
X135505465Y-109736711D01*
X135506619Y-109741518D01*
X135506620Y-109741524D01*
X135513030Y-109768223D01*
X135560895Y-109967594D01*
X135651760Y-110186963D01*
X135654346Y-110191183D01*
X135773241Y-110385202D01*
X135773245Y-110385208D01*
X135775824Y-110389416D01*
X135930031Y-110569969D01*
X136110584Y-110724176D01*
X136114792Y-110726755D01*
X136114798Y-110726759D01*
X136308817Y-110845654D01*
X136313037Y-110848240D01*
X136317607Y-110850133D01*
X136317611Y-110850135D01*
X136412445Y-110889416D01*
X136532406Y-110939105D01*
X136612609Y-110958360D01*
X136758476Y-110993380D01*
X136758482Y-110993381D01*
X136763289Y-110994535D01*
X137000000Y-111013165D01*
X137236711Y-110994535D01*
X137241518Y-110993381D01*
X137241524Y-110993380D01*
X137387391Y-110958360D01*
X137467594Y-110939105D01*
X137587555Y-110889416D01*
X137682389Y-110850135D01*
X137682393Y-110850133D01*
X137686963Y-110848240D01*
X137691183Y-110845654D01*
X137885202Y-110726759D01*
X137885208Y-110726755D01*
X137889416Y-110724176D01*
X138069969Y-110569969D01*
X138224176Y-110389416D01*
X138226755Y-110385208D01*
X138226759Y-110385202D01*
X138345654Y-110191183D01*
X138348240Y-110186963D01*
X138425682Y-110000000D01*
X139986835Y-110000000D01*
X140005465Y-110236711D01*
X140060895Y-110467594D01*
X140062788Y-110472165D01*
X140062789Y-110472167D01*
X140149772Y-110682163D01*
X140151760Y-110686963D01*
X140154346Y-110691183D01*
X140273241Y-110885202D01*
X140273245Y-110885208D01*
X140275824Y-110889416D01*
X140430031Y-111069969D01*
X140610584Y-111224176D01*
X140614792Y-111226755D01*
X140614798Y-111226759D01*
X140808084Y-111345205D01*
X140813037Y-111348240D01*
X140817607Y-111350133D01*
X140817611Y-111350135D01*
X141027833Y-111437211D01*
X141032406Y-111439105D01*
X141112609Y-111458360D01*
X141258476Y-111493380D01*
X141258482Y-111493381D01*
X141263289Y-111494535D01*
X141500000Y-111513165D01*
X141736711Y-111494535D01*
X141741518Y-111493381D01*
X141741524Y-111493380D01*
X141887391Y-111458360D01*
X141967594Y-111439105D01*
X141972167Y-111437211D01*
X142182389Y-111350135D01*
X142182393Y-111350133D01*
X142186963Y-111348240D01*
X142191916Y-111345205D01*
X142375556Y-111232670D01*
X143632160Y-111232670D01*
X143637887Y-111240320D01*
X143809042Y-111345205D01*
X143817837Y-111349687D01*
X144027988Y-111436734D01*
X144037373Y-111439783D01*
X144258554Y-111492885D01*
X144268301Y-111494428D01*
X144495070Y-111512275D01*
X144504930Y-111512275D01*
X144731699Y-111494428D01*
X144741446Y-111492885D01*
X144962627Y-111439783D01*
X144972012Y-111436734D01*
X145182163Y-111349687D01*
X145190958Y-111345205D01*
X145358445Y-111242568D01*
X145367907Y-111232110D01*
X145364124Y-111223334D01*
X144512812Y-110372022D01*
X144498868Y-110364408D01*
X144497035Y-110364539D01*
X144490420Y-110368790D01*
X143638920Y-111220290D01*
X143632160Y-111232670D01*
X142375556Y-111232670D01*
X142385202Y-111226759D01*
X142385208Y-111226755D01*
X142389416Y-111224176D01*
X142569969Y-111069969D01*
X142724176Y-110889416D01*
X142726755Y-110885208D01*
X142726759Y-110885202D01*
X142845654Y-110691183D01*
X142848240Y-110686963D01*
X142850229Y-110682163D01*
X142883862Y-110600964D01*
X142928410Y-110545683D01*
X142995774Y-110523262D01*
X143064565Y-110540820D01*
X143112943Y-110592782D01*
X143116680Y-110600964D01*
X143150313Y-110682163D01*
X143154795Y-110690958D01*
X143257432Y-110858445D01*
X143267890Y-110867907D01*
X143276666Y-110864124D01*
X144127978Y-110012812D01*
X144134356Y-110001132D01*
X144864408Y-110001132D01*
X144864539Y-110002965D01*
X144868790Y-110009580D01*
X145720290Y-110861080D01*
X145732670Y-110867840D01*
X145740320Y-110862113D01*
X145845205Y-110690958D01*
X145849687Y-110682163D01*
X145883320Y-110600964D01*
X145927868Y-110545683D01*
X145995231Y-110523262D01*
X146064022Y-110540820D01*
X146112401Y-110592782D01*
X146116138Y-110600964D01*
X146149772Y-110682163D01*
X146151760Y-110686963D01*
X146154346Y-110691183D01*
X146273241Y-110885202D01*
X146273245Y-110885208D01*
X146275824Y-110889416D01*
X146430031Y-111069969D01*
X146610584Y-111224176D01*
X146614792Y-111226755D01*
X146614798Y-111226759D01*
X146808084Y-111345205D01*
X146813037Y-111348240D01*
X146817607Y-111350133D01*
X146817611Y-111350135D01*
X147027833Y-111437211D01*
X147032406Y-111439105D01*
X147112609Y-111458360D01*
X147258476Y-111493380D01*
X147258482Y-111493381D01*
X147263289Y-111494535D01*
X147500000Y-111513165D01*
X147736711Y-111494535D01*
X147741518Y-111493381D01*
X147741524Y-111493380D01*
X147887391Y-111458360D01*
X147967594Y-111439105D01*
X147972167Y-111437211D01*
X148182389Y-111350135D01*
X148182393Y-111350133D01*
X148186963Y-111348240D01*
X148191916Y-111345205D01*
X148385202Y-111226759D01*
X148385208Y-111226755D01*
X148389416Y-111224176D01*
X148569969Y-111069969D01*
X148724176Y-110889416D01*
X148726755Y-110885208D01*
X148726759Y-110885202D01*
X148845654Y-110691183D01*
X148848240Y-110686963D01*
X148850229Y-110682163D01*
X148883591Y-110601618D01*
X148928139Y-110546337D01*
X148995503Y-110523916D01*
X149064294Y-110541474D01*
X149112672Y-110593436D01*
X149116409Y-110601618D01*
X149149772Y-110682163D01*
X149151760Y-110686963D01*
X149154346Y-110691183D01*
X149273241Y-110885202D01*
X149273245Y-110885208D01*
X149275824Y-110889416D01*
X149430031Y-111069969D01*
X149610584Y-111224176D01*
X149614792Y-111226755D01*
X149614798Y-111226759D01*
X149808084Y-111345205D01*
X149813037Y-111348240D01*
X149817607Y-111350133D01*
X149817611Y-111350135D01*
X150027833Y-111437211D01*
X150032406Y-111439105D01*
X150112609Y-111458360D01*
X150258476Y-111493380D01*
X150258482Y-111493381D01*
X150263289Y-111494535D01*
X150500000Y-111513165D01*
X150736711Y-111494535D01*
X150741518Y-111493381D01*
X150741524Y-111493380D01*
X150887391Y-111458360D01*
X150967594Y-111439105D01*
X150972167Y-111437211D01*
X151182389Y-111350135D01*
X151182393Y-111350133D01*
X151186963Y-111348240D01*
X151191916Y-111345205D01*
X151375556Y-111232670D01*
X152632160Y-111232670D01*
X152637887Y-111240320D01*
X152809042Y-111345205D01*
X152817837Y-111349687D01*
X153027988Y-111436734D01*
X153037373Y-111439783D01*
X153258554Y-111492885D01*
X153268301Y-111494428D01*
X153495070Y-111512275D01*
X153504930Y-111512275D01*
X153731699Y-111494428D01*
X153741446Y-111492885D01*
X153962627Y-111439783D01*
X153972012Y-111436734D01*
X154182163Y-111349687D01*
X154190958Y-111345205D01*
X154358445Y-111242568D01*
X154367907Y-111232110D01*
X154364124Y-111223334D01*
X153512812Y-110372022D01*
X153498868Y-110364408D01*
X153497035Y-110364539D01*
X153490420Y-110368790D01*
X152638920Y-111220290D01*
X152632160Y-111232670D01*
X151375556Y-111232670D01*
X151385202Y-111226759D01*
X151385208Y-111226755D01*
X151389416Y-111224176D01*
X151569969Y-111069969D01*
X151724176Y-110889416D01*
X151726755Y-110885208D01*
X151726759Y-110885202D01*
X151845654Y-110691183D01*
X151848240Y-110686963D01*
X151850229Y-110682163D01*
X151883862Y-110600964D01*
X151928410Y-110545683D01*
X151995774Y-110523262D01*
X152064565Y-110540820D01*
X152112943Y-110592782D01*
X152116680Y-110600964D01*
X152150313Y-110682163D01*
X152154795Y-110690958D01*
X152257432Y-110858445D01*
X152267890Y-110867907D01*
X152276666Y-110864124D01*
X153127978Y-110012812D01*
X153134356Y-110001132D01*
X153864408Y-110001132D01*
X153864539Y-110002965D01*
X153868790Y-110009580D01*
X154720290Y-110861080D01*
X154732670Y-110867840D01*
X154740320Y-110862113D01*
X154845205Y-110690958D01*
X154849687Y-110682163D01*
X154883320Y-110600964D01*
X154927868Y-110545683D01*
X154995231Y-110523262D01*
X155064022Y-110540820D01*
X155112401Y-110592782D01*
X155116138Y-110600964D01*
X155149772Y-110682163D01*
X155151760Y-110686963D01*
X155154346Y-110691183D01*
X155273241Y-110885202D01*
X155273245Y-110885208D01*
X155275824Y-110889416D01*
X155430031Y-111069969D01*
X155610584Y-111224176D01*
X155614792Y-111226755D01*
X155614798Y-111226759D01*
X155808084Y-111345205D01*
X155813037Y-111348240D01*
X155817607Y-111350133D01*
X155817611Y-111350135D01*
X156027833Y-111437211D01*
X156032406Y-111439105D01*
X156112609Y-111458360D01*
X156258476Y-111493380D01*
X156258482Y-111493381D01*
X156263289Y-111494535D01*
X156500000Y-111513165D01*
X156736711Y-111494535D01*
X156741518Y-111493381D01*
X156741524Y-111493380D01*
X156887391Y-111458360D01*
X156967594Y-111439105D01*
X156972167Y-111437211D01*
X157182389Y-111350135D01*
X157182393Y-111350133D01*
X157186963Y-111348240D01*
X157191916Y-111345205D01*
X157385202Y-111226759D01*
X157385208Y-111226755D01*
X157389416Y-111224176D01*
X157569969Y-111069969D01*
X157724176Y-110889416D01*
X157726755Y-110885208D01*
X157726759Y-110885202D01*
X157845654Y-110691183D01*
X157848240Y-110686963D01*
X157850229Y-110682163D01*
X157937211Y-110472167D01*
X157937212Y-110472165D01*
X157939105Y-110467594D01*
X157994535Y-110236711D01*
X158013165Y-110000000D01*
X157994535Y-109763289D01*
X157988155Y-109736711D01*
X157940260Y-109537218D01*
X157939105Y-109532406D01*
X157883591Y-109398382D01*
X157850135Y-109317611D01*
X157850133Y-109317607D01*
X157848240Y-109313037D01*
X157814805Y-109258476D01*
X157726759Y-109114798D01*
X157726755Y-109114792D01*
X157724176Y-109110584D01*
X157569969Y-108930031D01*
X157389416Y-108775824D01*
X157385208Y-108773245D01*
X157385202Y-108773241D01*
X157191183Y-108654346D01*
X157186963Y-108651760D01*
X157182393Y-108649867D01*
X157182389Y-108649865D01*
X156972167Y-108562789D01*
X156972165Y-108562788D01*
X156967594Y-108560895D01*
X156887391Y-108541640D01*
X156741524Y-108506620D01*
X156741518Y-108506619D01*
X156736711Y-108505465D01*
X156500000Y-108486835D01*
X156263289Y-108505465D01*
X156258482Y-108506619D01*
X156258476Y-108506620D01*
X156112609Y-108541640D01*
X156032406Y-108560895D01*
X156027835Y-108562788D01*
X156027833Y-108562789D01*
X155817611Y-108649865D01*
X155817607Y-108649867D01*
X155813037Y-108651760D01*
X155808817Y-108654346D01*
X155614798Y-108773241D01*
X155614792Y-108773245D01*
X155610584Y-108775824D01*
X155430031Y-108930031D01*
X155275824Y-109110584D01*
X155273245Y-109114792D01*
X155273241Y-109114798D01*
X155185195Y-109258476D01*
X155151760Y-109313037D01*
X155149867Y-109317607D01*
X155149865Y-109317611D01*
X155116138Y-109399036D01*
X155071590Y-109454317D01*
X155004226Y-109476738D01*
X154935435Y-109459180D01*
X154887057Y-109407218D01*
X154883320Y-109399036D01*
X154849687Y-109317837D01*
X154845205Y-109309042D01*
X154742568Y-109141555D01*
X154732110Y-109132093D01*
X154723334Y-109135876D01*
X153872022Y-109987188D01*
X153864408Y-110001132D01*
X153134356Y-110001132D01*
X153135592Y-109998868D01*
X153135461Y-109997035D01*
X153131210Y-109990420D01*
X152279710Y-109138920D01*
X152267330Y-109132160D01*
X152259680Y-109137887D01*
X152154795Y-109309042D01*
X152150313Y-109317837D01*
X152116680Y-109399036D01*
X152072132Y-109454317D01*
X152004769Y-109476738D01*
X151935978Y-109459180D01*
X151887599Y-109407218D01*
X151883862Y-109399036D01*
X151850135Y-109317611D01*
X151850133Y-109317607D01*
X151848240Y-109313037D01*
X151814805Y-109258476D01*
X151726759Y-109114798D01*
X151726755Y-109114792D01*
X151724176Y-109110584D01*
X151569969Y-108930031D01*
X151389416Y-108775824D01*
X151385208Y-108773245D01*
X151385202Y-108773241D01*
X151376470Y-108767890D01*
X152632093Y-108767890D01*
X152635876Y-108776666D01*
X153487188Y-109627978D01*
X153501132Y-109635592D01*
X153502965Y-109635461D01*
X153509580Y-109631210D01*
X154361080Y-108779710D01*
X154367840Y-108767330D01*
X154362113Y-108759680D01*
X154190958Y-108654795D01*
X154182163Y-108650313D01*
X153972012Y-108563266D01*
X153962627Y-108560217D01*
X153741446Y-108507115D01*
X153731699Y-108505572D01*
X153504930Y-108487725D01*
X153495070Y-108487725D01*
X153268301Y-108505572D01*
X153258554Y-108507115D01*
X153037373Y-108560217D01*
X153027988Y-108563266D01*
X152817837Y-108650313D01*
X152809042Y-108654795D01*
X152641555Y-108757432D01*
X152632093Y-108767890D01*
X151376470Y-108767890D01*
X151191183Y-108654346D01*
X151186963Y-108651760D01*
X151182393Y-108649867D01*
X151182389Y-108649865D01*
X150972167Y-108562789D01*
X150972165Y-108562788D01*
X150967594Y-108560895D01*
X150887391Y-108541640D01*
X150741524Y-108506620D01*
X150741518Y-108506619D01*
X150736711Y-108505465D01*
X150500000Y-108486835D01*
X150263289Y-108505465D01*
X150258482Y-108506619D01*
X150258476Y-108506620D01*
X150112609Y-108541640D01*
X150032406Y-108560895D01*
X150027835Y-108562788D01*
X150027833Y-108562789D01*
X149817611Y-108649865D01*
X149817607Y-108649867D01*
X149813037Y-108651760D01*
X149808817Y-108654346D01*
X149614798Y-108773241D01*
X149614792Y-108773245D01*
X149610584Y-108775824D01*
X149430031Y-108930031D01*
X149275824Y-109110584D01*
X149273245Y-109114792D01*
X149273241Y-109114798D01*
X149185195Y-109258476D01*
X149151760Y-109313037D01*
X149149867Y-109317607D01*
X149149865Y-109317611D01*
X149116409Y-109398382D01*
X149071861Y-109453663D01*
X149004497Y-109476084D01*
X148935706Y-109458526D01*
X148887328Y-109406564D01*
X148883591Y-109398382D01*
X148850135Y-109317611D01*
X148850133Y-109317607D01*
X148848240Y-109313037D01*
X148814805Y-109258476D01*
X148726759Y-109114798D01*
X148726755Y-109114792D01*
X148724176Y-109110584D01*
X148569969Y-108930031D01*
X148389416Y-108775824D01*
X148385208Y-108773245D01*
X148385202Y-108773241D01*
X148191183Y-108654346D01*
X148186963Y-108651760D01*
X148182393Y-108649867D01*
X148182389Y-108649865D01*
X147972167Y-108562789D01*
X147972165Y-108562788D01*
X147967594Y-108560895D01*
X147887391Y-108541640D01*
X147741524Y-108506620D01*
X147741518Y-108506619D01*
X147736711Y-108505465D01*
X147500000Y-108486835D01*
X147263289Y-108505465D01*
X147258482Y-108506619D01*
X147258476Y-108506620D01*
X147112609Y-108541640D01*
X147032406Y-108560895D01*
X147027835Y-108562788D01*
X147027833Y-108562789D01*
X146817611Y-108649865D01*
X146817607Y-108649867D01*
X146813037Y-108651760D01*
X146808817Y-108654346D01*
X146614798Y-108773241D01*
X146614792Y-108773245D01*
X146610584Y-108775824D01*
X146430031Y-108930031D01*
X146275824Y-109110584D01*
X146273245Y-109114792D01*
X146273241Y-109114798D01*
X146185195Y-109258476D01*
X146151760Y-109313037D01*
X146149867Y-109317607D01*
X146149865Y-109317611D01*
X146116138Y-109399036D01*
X146071590Y-109454317D01*
X146004226Y-109476738D01*
X145935435Y-109459180D01*
X145887057Y-109407218D01*
X145883320Y-109399036D01*
X145849687Y-109317837D01*
X145845205Y-109309042D01*
X145742568Y-109141555D01*
X145732110Y-109132093D01*
X145723334Y-109135876D01*
X144872022Y-109987188D01*
X144864408Y-110001132D01*
X144134356Y-110001132D01*
X144135592Y-109998868D01*
X144135461Y-109997035D01*
X144131210Y-109990420D01*
X143279710Y-109138920D01*
X143267330Y-109132160D01*
X143259680Y-109137887D01*
X143154795Y-109309042D01*
X143150313Y-109317837D01*
X143116680Y-109399036D01*
X143072132Y-109454317D01*
X143004769Y-109476738D01*
X142935978Y-109459180D01*
X142887599Y-109407218D01*
X142883862Y-109399036D01*
X142850135Y-109317611D01*
X142850133Y-109317607D01*
X142848240Y-109313037D01*
X142814805Y-109258476D01*
X142726759Y-109114798D01*
X142726755Y-109114792D01*
X142724176Y-109110584D01*
X142569969Y-108930031D01*
X142389416Y-108775824D01*
X142385208Y-108773245D01*
X142385202Y-108773241D01*
X142376470Y-108767890D01*
X143632093Y-108767890D01*
X143635876Y-108776666D01*
X144487188Y-109627978D01*
X144501132Y-109635592D01*
X144502965Y-109635461D01*
X144509580Y-109631210D01*
X145361080Y-108779710D01*
X145367840Y-108767330D01*
X145362113Y-108759680D01*
X145190958Y-108654795D01*
X145182163Y-108650313D01*
X144972012Y-108563266D01*
X144962627Y-108560217D01*
X144741446Y-108507115D01*
X144731699Y-108505572D01*
X144504930Y-108487725D01*
X144495070Y-108487725D01*
X144268301Y-108505572D01*
X144258554Y-108507115D01*
X144037373Y-108560217D01*
X144027988Y-108563266D01*
X143817837Y-108650313D01*
X143809042Y-108654795D01*
X143641555Y-108757432D01*
X143632093Y-108767890D01*
X142376470Y-108767890D01*
X142191183Y-108654346D01*
X142186963Y-108651760D01*
X142182393Y-108649867D01*
X142182389Y-108649865D01*
X141972167Y-108562789D01*
X141972165Y-108562788D01*
X141967594Y-108560895D01*
X141887391Y-108541640D01*
X141741524Y-108506620D01*
X141741518Y-108506619D01*
X141736711Y-108505465D01*
X141500000Y-108486835D01*
X141263289Y-108505465D01*
X141258482Y-108506619D01*
X141258476Y-108506620D01*
X141112609Y-108541640D01*
X141032406Y-108560895D01*
X141027835Y-108562788D01*
X141027833Y-108562789D01*
X140817611Y-108649865D01*
X140817607Y-108649867D01*
X140813037Y-108651760D01*
X140808817Y-108654346D01*
X140614798Y-108773241D01*
X140614792Y-108773245D01*
X140610584Y-108775824D01*
X140430031Y-108930031D01*
X140275824Y-109110584D01*
X140273245Y-109114792D01*
X140273241Y-109114798D01*
X140185195Y-109258476D01*
X140151760Y-109313037D01*
X140149867Y-109317607D01*
X140149865Y-109317611D01*
X140116409Y-109398382D01*
X140060895Y-109532406D01*
X140059740Y-109537218D01*
X140011846Y-109736711D01*
X140005465Y-109763289D01*
X139986835Y-110000000D01*
X138425682Y-110000000D01*
X138439105Y-109967594D01*
X138486970Y-109768223D01*
X138493380Y-109741524D01*
X138493381Y-109741518D01*
X138494535Y-109736711D01*
X138513165Y-109500000D01*
X138494535Y-109263289D01*
X138439105Y-109032406D01*
X138396700Y-108930031D01*
X138350135Y-108817611D01*
X138350133Y-108817607D01*
X138348240Y-108813037D01*
X138327817Y-108779710D01*
X138226759Y-108614798D01*
X138226755Y-108614792D01*
X138224176Y-108610584D01*
X138069969Y-108430031D01*
X137889416Y-108275824D01*
X137885208Y-108273245D01*
X137885202Y-108273241D01*
X137691183Y-108154346D01*
X137686963Y-108151760D01*
X137682393Y-108149867D01*
X137682389Y-108149865D01*
X137472167Y-108062789D01*
X137472165Y-108062788D01*
X137467594Y-108060895D01*
X137387391Y-108041640D01*
X137241524Y-108006620D01*
X137241518Y-108006619D01*
X137236711Y-108005465D01*
X137000000Y-107986835D01*
X136763289Y-108005465D01*
X136758482Y-108006619D01*
X136758476Y-108006620D01*
X136612609Y-108041640D01*
X136532406Y-108060895D01*
X136527835Y-108062788D01*
X136527833Y-108062789D01*
X136317611Y-108149865D01*
X136317607Y-108149867D01*
X136313037Y-108151760D01*
X136308817Y-108154346D01*
X136114798Y-108273241D01*
X136114792Y-108273245D01*
X136110584Y-108275824D01*
X135930031Y-108430031D01*
X135775824Y-108610584D01*
X135773245Y-108614792D01*
X135773241Y-108614798D01*
X135672183Y-108779710D01*
X135651760Y-108813037D01*
X135649867Y-108817607D01*
X135649865Y-108817611D01*
X135603300Y-108930031D01*
X135560895Y-109032406D01*
X135505465Y-109263289D01*
X135486835Y-109500000D01*
X134508000Y-109500000D01*
X134508000Y-102500000D01*
X135486835Y-102500000D01*
X135505465Y-102736711D01*
X135560895Y-102967594D01*
X135562788Y-102972165D01*
X135562789Y-102972167D01*
X135618845Y-103107498D01*
X135651760Y-103186963D01*
X135654346Y-103191183D01*
X135773241Y-103385202D01*
X135773245Y-103385208D01*
X135775824Y-103389416D01*
X135930031Y-103569969D01*
X136110584Y-103724176D01*
X136114792Y-103726755D01*
X136114798Y-103726759D01*
X136299591Y-103840000D01*
X136313037Y-103848240D01*
X136317607Y-103850133D01*
X136317611Y-103850135D01*
X136527833Y-103937211D01*
X136532406Y-103939105D01*
X136612609Y-103958360D01*
X136758476Y-103993380D01*
X136758482Y-103993381D01*
X136763289Y-103994535D01*
X137000000Y-104013165D01*
X137236711Y-103994535D01*
X137241518Y-103993381D01*
X137241524Y-103993380D01*
X137387391Y-103958360D01*
X137467594Y-103939105D01*
X137472167Y-103937211D01*
X137682389Y-103850135D01*
X137682393Y-103850133D01*
X137686963Y-103848240D01*
X137700409Y-103840000D01*
X182386526Y-103840000D01*
X182406391Y-104092403D01*
X182465495Y-104338591D01*
X182562384Y-104572502D01*
X182694672Y-104788376D01*
X182859102Y-104980898D01*
X183051624Y-105145328D01*
X183267498Y-105277616D01*
X183272068Y-105279509D01*
X183272072Y-105279511D01*
X183496836Y-105372611D01*
X183501409Y-105374505D01*
X183586032Y-105394821D01*
X183742784Y-105432454D01*
X183742790Y-105432455D01*
X183747597Y-105433609D01*
X184000000Y-105453474D01*
X184252403Y-105433609D01*
X184257210Y-105432455D01*
X184257216Y-105432454D01*
X184413968Y-105394821D01*
X184498591Y-105374505D01*
X184503164Y-105372611D01*
X184727928Y-105279511D01*
X184727932Y-105279509D01*
X184732502Y-105277616D01*
X184948376Y-105145328D01*
X185140898Y-104980898D01*
X185305328Y-104788376D01*
X185437616Y-104572502D01*
X185534505Y-104338591D01*
X185593609Y-104092403D01*
X185613474Y-103840000D01*
X185593609Y-103587597D01*
X185590148Y-103573177D01*
X185535660Y-103346221D01*
X185534505Y-103341409D01*
X185489232Y-103232110D01*
X185439511Y-103112072D01*
X185439509Y-103112068D01*
X185437616Y-103107498D01*
X185305328Y-102891624D01*
X185140898Y-102699102D01*
X184948376Y-102534672D01*
X184732502Y-102402384D01*
X184727932Y-102400491D01*
X184727928Y-102400489D01*
X184503164Y-102307389D01*
X184503162Y-102307388D01*
X184498591Y-102305495D01*
X184413968Y-102285179D01*
X184257216Y-102247546D01*
X184257210Y-102247545D01*
X184252403Y-102246391D01*
X184000000Y-102226526D01*
X183747597Y-102246391D01*
X183742790Y-102247545D01*
X183742784Y-102247546D01*
X183586032Y-102285179D01*
X183501409Y-102305495D01*
X183496838Y-102307388D01*
X183496836Y-102307389D01*
X183272072Y-102400489D01*
X183272068Y-102400491D01*
X183267498Y-102402384D01*
X183051624Y-102534672D01*
X182859102Y-102699102D01*
X182694672Y-102891624D01*
X182562384Y-103107498D01*
X182560491Y-103112068D01*
X182560489Y-103112072D01*
X182510768Y-103232110D01*
X182465495Y-103341409D01*
X182464340Y-103346221D01*
X182409853Y-103573177D01*
X182406391Y-103587597D01*
X182386526Y-103840000D01*
X137700409Y-103840000D01*
X137885202Y-103726759D01*
X137885208Y-103726755D01*
X137889416Y-103724176D01*
X138069969Y-103569969D01*
X138224176Y-103389416D01*
X138226755Y-103385208D01*
X138226759Y-103385202D01*
X138345654Y-103191183D01*
X138348240Y-103186963D01*
X138381156Y-103107498D01*
X138437211Y-102972167D01*
X138437212Y-102972165D01*
X138439105Y-102967594D01*
X138494535Y-102736711D01*
X138513165Y-102500000D01*
X138494535Y-102263289D01*
X138490756Y-102247546D01*
X138440260Y-102037218D01*
X138439105Y-102032406D01*
X138425682Y-102000000D01*
X139986835Y-102000000D01*
X140005465Y-102236711D01*
X140006619Y-102241518D01*
X140006620Y-102241524D01*
X140022433Y-102307389D01*
X140060895Y-102467594D01*
X140062788Y-102472165D01*
X140062789Y-102472167D01*
X140149772Y-102682163D01*
X140151760Y-102686963D01*
X140154346Y-102691183D01*
X140273241Y-102885202D01*
X140273245Y-102885208D01*
X140275824Y-102889416D01*
X140430031Y-103069969D01*
X140610584Y-103224176D01*
X140614792Y-103226755D01*
X140614798Y-103226759D01*
X140794427Y-103336836D01*
X140813037Y-103348240D01*
X140817607Y-103350133D01*
X140817611Y-103350135D01*
X141027833Y-103437211D01*
X141032406Y-103439105D01*
X141112609Y-103458360D01*
X141258476Y-103493380D01*
X141258482Y-103493381D01*
X141263289Y-103494535D01*
X141500000Y-103513165D01*
X141736711Y-103494535D01*
X141741518Y-103493381D01*
X141741524Y-103493380D01*
X141887391Y-103458360D01*
X141967594Y-103439105D01*
X141972167Y-103437211D01*
X142182389Y-103350135D01*
X142182393Y-103350133D01*
X142186963Y-103348240D01*
X142205573Y-103336836D01*
X142385202Y-103226759D01*
X142385208Y-103226755D01*
X142389416Y-103224176D01*
X142569969Y-103069969D01*
X142724176Y-102889416D01*
X142726755Y-102885208D01*
X142726759Y-102885202D01*
X142845654Y-102691183D01*
X142848240Y-102686963D01*
X142850229Y-102682163D01*
X142883591Y-102601618D01*
X142928139Y-102546337D01*
X142995503Y-102523916D01*
X143064294Y-102541474D01*
X143112672Y-102593436D01*
X143116409Y-102601618D01*
X143149772Y-102682163D01*
X143151760Y-102686963D01*
X143154346Y-102691183D01*
X143273241Y-102885202D01*
X143273245Y-102885208D01*
X143275824Y-102889416D01*
X143430031Y-103069969D01*
X143610584Y-103224176D01*
X143614792Y-103226755D01*
X143614798Y-103226759D01*
X143794427Y-103336836D01*
X143813037Y-103348240D01*
X143817607Y-103350133D01*
X143817611Y-103350135D01*
X144027833Y-103437211D01*
X144032406Y-103439105D01*
X144112609Y-103458360D01*
X144258476Y-103493380D01*
X144258482Y-103493381D01*
X144263289Y-103494535D01*
X144500000Y-103513165D01*
X144736711Y-103494535D01*
X144741518Y-103493381D01*
X144741524Y-103493380D01*
X144887391Y-103458360D01*
X144967594Y-103439105D01*
X144972167Y-103437211D01*
X145182389Y-103350135D01*
X145182393Y-103350133D01*
X145186963Y-103348240D01*
X145205573Y-103336836D01*
X145385202Y-103226759D01*
X145385208Y-103226755D01*
X145389416Y-103224176D01*
X145569969Y-103069969D01*
X145724176Y-102889416D01*
X145726755Y-102885208D01*
X145726759Y-102885202D01*
X145845654Y-102691183D01*
X145848240Y-102686963D01*
X145850229Y-102682163D01*
X145883591Y-102601618D01*
X145928139Y-102546337D01*
X145995503Y-102523916D01*
X146064294Y-102541474D01*
X146112672Y-102593436D01*
X146116409Y-102601618D01*
X146149772Y-102682163D01*
X146151760Y-102686963D01*
X146154346Y-102691183D01*
X146273241Y-102885202D01*
X146273245Y-102885208D01*
X146275824Y-102889416D01*
X146430031Y-103069969D01*
X146610584Y-103224176D01*
X146614792Y-103226755D01*
X146614798Y-103226759D01*
X146794427Y-103336836D01*
X146813037Y-103348240D01*
X146817607Y-103350133D01*
X146817611Y-103350135D01*
X147027833Y-103437211D01*
X147032406Y-103439105D01*
X147112609Y-103458360D01*
X147258476Y-103493380D01*
X147258482Y-103493381D01*
X147263289Y-103494535D01*
X147500000Y-103513165D01*
X147736711Y-103494535D01*
X147741518Y-103493381D01*
X147741524Y-103493380D01*
X147887391Y-103458360D01*
X147967594Y-103439105D01*
X147972167Y-103437211D01*
X148182389Y-103350135D01*
X148182393Y-103350133D01*
X148186963Y-103348240D01*
X148205573Y-103336836D01*
X148385202Y-103226759D01*
X148385208Y-103226755D01*
X148389416Y-103224176D01*
X148569969Y-103069969D01*
X148724176Y-102889416D01*
X148726755Y-102885208D01*
X148726759Y-102885202D01*
X148845654Y-102691183D01*
X148848240Y-102686963D01*
X148850229Y-102682163D01*
X148883591Y-102601618D01*
X148928139Y-102546337D01*
X148995503Y-102523916D01*
X149064294Y-102541474D01*
X149112672Y-102593436D01*
X149116409Y-102601618D01*
X149149772Y-102682163D01*
X149151760Y-102686963D01*
X149154346Y-102691183D01*
X149273241Y-102885202D01*
X149273245Y-102885208D01*
X149275824Y-102889416D01*
X149430031Y-103069969D01*
X149610584Y-103224176D01*
X149614792Y-103226755D01*
X149614798Y-103226759D01*
X149794427Y-103336836D01*
X149813037Y-103348240D01*
X149817607Y-103350133D01*
X149817611Y-103350135D01*
X150027833Y-103437211D01*
X150032406Y-103439105D01*
X150112609Y-103458360D01*
X150258476Y-103493380D01*
X150258482Y-103493381D01*
X150263289Y-103494535D01*
X150500000Y-103513165D01*
X150736711Y-103494535D01*
X150741518Y-103493381D01*
X150741524Y-103493380D01*
X150887391Y-103458360D01*
X150967594Y-103439105D01*
X150972167Y-103437211D01*
X151182389Y-103350135D01*
X151182393Y-103350133D01*
X151186963Y-103348240D01*
X151205573Y-103336836D01*
X151375556Y-103232670D01*
X152632160Y-103232670D01*
X152637887Y-103240320D01*
X152809042Y-103345205D01*
X152817837Y-103349687D01*
X153027988Y-103436734D01*
X153037373Y-103439783D01*
X153258554Y-103492885D01*
X153268301Y-103494428D01*
X153495070Y-103512275D01*
X153504930Y-103512275D01*
X153731699Y-103494428D01*
X153741446Y-103492885D01*
X153962627Y-103439783D01*
X153972012Y-103436734D01*
X154182163Y-103349687D01*
X154190958Y-103345205D01*
X154358445Y-103242568D01*
X154367907Y-103232110D01*
X154364124Y-103223334D01*
X153512812Y-102372022D01*
X153498868Y-102364408D01*
X153497035Y-102364539D01*
X153490420Y-102368790D01*
X152638920Y-103220290D01*
X152632160Y-103232670D01*
X151375556Y-103232670D01*
X151385202Y-103226759D01*
X151385208Y-103226755D01*
X151389416Y-103224176D01*
X151569969Y-103069969D01*
X151724176Y-102889416D01*
X151726755Y-102885208D01*
X151726759Y-102885202D01*
X151845654Y-102691183D01*
X151848240Y-102686963D01*
X151850229Y-102682163D01*
X151883862Y-102600964D01*
X151928410Y-102545683D01*
X151995774Y-102523262D01*
X152064565Y-102540820D01*
X152112943Y-102592782D01*
X152116680Y-102600964D01*
X152150313Y-102682163D01*
X152154795Y-102690958D01*
X152257432Y-102858445D01*
X152267890Y-102867907D01*
X152276666Y-102864124D01*
X153127978Y-102012812D01*
X153134356Y-102001132D01*
X153864408Y-102001132D01*
X153864539Y-102002965D01*
X153868790Y-102009580D01*
X154720290Y-102861080D01*
X154732670Y-102867840D01*
X154740320Y-102862113D01*
X154845205Y-102690958D01*
X154849687Y-102682163D01*
X154883320Y-102600964D01*
X154927868Y-102545683D01*
X154995231Y-102523262D01*
X155064022Y-102540820D01*
X155112401Y-102592782D01*
X155116138Y-102600964D01*
X155149772Y-102682163D01*
X155151760Y-102686963D01*
X155154346Y-102691183D01*
X155273241Y-102885202D01*
X155273245Y-102885208D01*
X155275824Y-102889416D01*
X155430031Y-103069969D01*
X155610584Y-103224176D01*
X155614792Y-103226755D01*
X155614798Y-103226759D01*
X155794427Y-103336836D01*
X155813037Y-103348240D01*
X155817607Y-103350133D01*
X155817611Y-103350135D01*
X156027833Y-103437211D01*
X156032406Y-103439105D01*
X156112609Y-103458360D01*
X156258476Y-103493380D01*
X156258482Y-103493381D01*
X156263289Y-103494535D01*
X156500000Y-103513165D01*
X156736711Y-103494535D01*
X156741518Y-103493381D01*
X156741524Y-103493380D01*
X156887391Y-103458360D01*
X156967594Y-103439105D01*
X156972167Y-103437211D01*
X157182389Y-103350135D01*
X157182393Y-103350133D01*
X157186963Y-103348240D01*
X157205573Y-103336836D01*
X157385202Y-103226759D01*
X157385208Y-103226755D01*
X157389416Y-103224176D01*
X157569969Y-103069969D01*
X157724176Y-102889416D01*
X157726755Y-102885208D01*
X157726759Y-102885202D01*
X157845654Y-102691183D01*
X157848240Y-102686963D01*
X157850229Y-102682163D01*
X157937211Y-102472167D01*
X157937212Y-102472165D01*
X157939105Y-102467594D01*
X157977567Y-102307389D01*
X157993380Y-102241524D01*
X157993381Y-102241518D01*
X157994535Y-102236711D01*
X158013165Y-102000000D01*
X157994535Y-101763289D01*
X157939105Y-101532406D01*
X157896700Y-101430031D01*
X157850135Y-101317611D01*
X157850133Y-101317607D01*
X157848240Y-101313037D01*
X157845654Y-101308817D01*
X157726759Y-101114798D01*
X157726755Y-101114792D01*
X157724176Y-101110584D01*
X157569969Y-100930031D01*
X157389416Y-100775824D01*
X157385208Y-100773245D01*
X157385202Y-100773241D01*
X157191183Y-100654346D01*
X157186963Y-100651760D01*
X157182393Y-100649867D01*
X157182389Y-100649865D01*
X156972167Y-100562789D01*
X156972165Y-100562788D01*
X156967594Y-100560895D01*
X156887391Y-100541640D01*
X156741524Y-100506620D01*
X156741518Y-100506619D01*
X156736711Y-100505465D01*
X156500000Y-100486835D01*
X156263289Y-100505465D01*
X156258482Y-100506619D01*
X156258476Y-100506620D01*
X156112609Y-100541640D01*
X156032406Y-100560895D01*
X156027835Y-100562788D01*
X156027833Y-100562789D01*
X155817611Y-100649865D01*
X155817607Y-100649867D01*
X155813037Y-100651760D01*
X155808817Y-100654346D01*
X155614798Y-100773241D01*
X155614792Y-100773245D01*
X155610584Y-100775824D01*
X155430031Y-100930031D01*
X155275824Y-101110584D01*
X155273245Y-101114792D01*
X155273241Y-101114798D01*
X155154346Y-101308817D01*
X155151760Y-101313037D01*
X155149867Y-101317607D01*
X155149865Y-101317611D01*
X155116138Y-101399036D01*
X155071590Y-101454317D01*
X155004226Y-101476738D01*
X154935435Y-101459180D01*
X154887057Y-101407218D01*
X154883320Y-101399036D01*
X154849687Y-101317837D01*
X154845205Y-101309042D01*
X154742568Y-101141555D01*
X154732110Y-101132093D01*
X154723334Y-101135876D01*
X153872022Y-101987188D01*
X153864408Y-102001132D01*
X153134356Y-102001132D01*
X153135592Y-101998868D01*
X153135461Y-101997035D01*
X153131210Y-101990420D01*
X152279710Y-101138920D01*
X152267330Y-101132160D01*
X152259680Y-101137887D01*
X152154795Y-101309042D01*
X152150313Y-101317837D01*
X152116680Y-101399036D01*
X152072132Y-101454317D01*
X152004769Y-101476738D01*
X151935978Y-101459180D01*
X151887599Y-101407218D01*
X151883862Y-101399036D01*
X151850135Y-101317611D01*
X151850133Y-101317607D01*
X151848240Y-101313037D01*
X151845654Y-101308817D01*
X151726759Y-101114798D01*
X151726755Y-101114792D01*
X151724176Y-101110584D01*
X151569969Y-100930031D01*
X151389416Y-100775824D01*
X151385208Y-100773245D01*
X151385202Y-100773241D01*
X151376470Y-100767890D01*
X152632093Y-100767890D01*
X152635876Y-100776666D01*
X153487188Y-101627978D01*
X153501132Y-101635592D01*
X153502965Y-101635461D01*
X153509580Y-101631210D01*
X154361080Y-100779710D01*
X154367840Y-100767330D01*
X154362113Y-100759680D01*
X154190958Y-100654795D01*
X154182163Y-100650313D01*
X153972012Y-100563266D01*
X153962627Y-100560217D01*
X153741446Y-100507115D01*
X153731699Y-100505572D01*
X153504930Y-100487725D01*
X153495070Y-100487725D01*
X153268301Y-100505572D01*
X153258554Y-100507115D01*
X153037373Y-100560217D01*
X153027988Y-100563266D01*
X152817837Y-100650313D01*
X152809042Y-100654795D01*
X152641555Y-100757432D01*
X152632093Y-100767890D01*
X151376470Y-100767890D01*
X151191183Y-100654346D01*
X151186963Y-100651760D01*
X151182393Y-100649867D01*
X151182389Y-100649865D01*
X150972167Y-100562789D01*
X150972165Y-100562788D01*
X150967594Y-100560895D01*
X150887391Y-100541640D01*
X150741524Y-100506620D01*
X150741518Y-100506619D01*
X150736711Y-100505465D01*
X150500000Y-100486835D01*
X150263289Y-100505465D01*
X150258482Y-100506619D01*
X150258476Y-100506620D01*
X150112609Y-100541640D01*
X150032406Y-100560895D01*
X150027835Y-100562788D01*
X150027833Y-100562789D01*
X149817611Y-100649865D01*
X149817607Y-100649867D01*
X149813037Y-100651760D01*
X149808817Y-100654346D01*
X149614798Y-100773241D01*
X149614792Y-100773245D01*
X149610584Y-100775824D01*
X149430031Y-100930031D01*
X149275824Y-101110584D01*
X149273245Y-101114792D01*
X149273241Y-101114798D01*
X149154346Y-101308817D01*
X149151760Y-101313037D01*
X149149867Y-101317607D01*
X149149865Y-101317611D01*
X149116409Y-101398382D01*
X149071861Y-101453663D01*
X149004497Y-101476084D01*
X148935706Y-101458526D01*
X148887328Y-101406564D01*
X148883591Y-101398382D01*
X148850135Y-101317611D01*
X148850133Y-101317607D01*
X148848240Y-101313037D01*
X148845654Y-101308817D01*
X148726759Y-101114798D01*
X148726755Y-101114792D01*
X148724176Y-101110584D01*
X148569969Y-100930031D01*
X148389416Y-100775824D01*
X148385208Y-100773245D01*
X148385202Y-100773241D01*
X148191183Y-100654346D01*
X148186963Y-100651760D01*
X148182393Y-100649867D01*
X148182389Y-100649865D01*
X147972167Y-100562789D01*
X147972165Y-100562788D01*
X147967594Y-100560895D01*
X147887391Y-100541640D01*
X147741524Y-100506620D01*
X147741518Y-100506619D01*
X147736711Y-100505465D01*
X147500000Y-100486835D01*
X147263289Y-100505465D01*
X147258482Y-100506619D01*
X147258476Y-100506620D01*
X147112609Y-100541640D01*
X147032406Y-100560895D01*
X147027835Y-100562788D01*
X147027833Y-100562789D01*
X146817611Y-100649865D01*
X146817607Y-100649867D01*
X146813037Y-100651760D01*
X146808817Y-100654346D01*
X146614798Y-100773241D01*
X146614792Y-100773245D01*
X146610584Y-100775824D01*
X146430031Y-100930031D01*
X146275824Y-101110584D01*
X146273245Y-101114792D01*
X146273241Y-101114798D01*
X146154346Y-101308817D01*
X146151760Y-101313037D01*
X146149867Y-101317607D01*
X146149865Y-101317611D01*
X146116409Y-101398382D01*
X146071861Y-101453663D01*
X146004497Y-101476084D01*
X145935706Y-101458526D01*
X145887328Y-101406564D01*
X145883591Y-101398382D01*
X145850135Y-101317611D01*
X145850133Y-101317607D01*
X145848240Y-101313037D01*
X145845654Y-101308817D01*
X145726759Y-101114798D01*
X145726755Y-101114792D01*
X145724176Y-101110584D01*
X145569969Y-100930031D01*
X145389416Y-100775824D01*
X145385208Y-100773245D01*
X145385202Y-100773241D01*
X145191183Y-100654346D01*
X145186963Y-100651760D01*
X145182393Y-100649867D01*
X145182389Y-100649865D01*
X144972167Y-100562789D01*
X144972165Y-100562788D01*
X144967594Y-100560895D01*
X144887391Y-100541640D01*
X144741524Y-100506620D01*
X144741518Y-100506619D01*
X144736711Y-100505465D01*
X144500000Y-100486835D01*
X144263289Y-100505465D01*
X144258482Y-100506619D01*
X144258476Y-100506620D01*
X144112609Y-100541640D01*
X144032406Y-100560895D01*
X144027835Y-100562788D01*
X144027833Y-100562789D01*
X143817611Y-100649865D01*
X143817607Y-100649867D01*
X143813037Y-100651760D01*
X143808817Y-100654346D01*
X143614798Y-100773241D01*
X143614792Y-100773245D01*
X143610584Y-100775824D01*
X143430031Y-100930031D01*
X143275824Y-101110584D01*
X143273245Y-101114792D01*
X143273241Y-101114798D01*
X143154346Y-101308817D01*
X143151760Y-101313037D01*
X143149867Y-101317607D01*
X143149865Y-101317611D01*
X143116409Y-101398382D01*
X143071861Y-101453663D01*
X143004497Y-101476084D01*
X142935706Y-101458526D01*
X142887328Y-101406564D01*
X142883591Y-101398382D01*
X142850135Y-101317611D01*
X142850133Y-101317607D01*
X142848240Y-101313037D01*
X142845654Y-101308817D01*
X142726759Y-101114798D01*
X142726755Y-101114792D01*
X142724176Y-101110584D01*
X142569969Y-100930031D01*
X142389416Y-100775824D01*
X142385208Y-100773245D01*
X142385202Y-100773241D01*
X142191183Y-100654346D01*
X142186963Y-100651760D01*
X142182393Y-100649867D01*
X142182389Y-100649865D01*
X141972167Y-100562789D01*
X141972165Y-100562788D01*
X141967594Y-100560895D01*
X141887391Y-100541640D01*
X141741524Y-100506620D01*
X141741518Y-100506619D01*
X141736711Y-100505465D01*
X141500000Y-100486835D01*
X141263289Y-100505465D01*
X141258482Y-100506619D01*
X141258476Y-100506620D01*
X141112609Y-100541640D01*
X141032406Y-100560895D01*
X141027835Y-100562788D01*
X141027833Y-100562789D01*
X140817611Y-100649865D01*
X140817607Y-100649867D01*
X140813037Y-100651760D01*
X140808817Y-100654346D01*
X140614798Y-100773241D01*
X140614792Y-100773245D01*
X140610584Y-100775824D01*
X140430031Y-100930031D01*
X140275824Y-101110584D01*
X140273245Y-101114792D01*
X140273241Y-101114798D01*
X140154346Y-101308817D01*
X140151760Y-101313037D01*
X140149867Y-101317607D01*
X140149865Y-101317611D01*
X140103300Y-101430031D01*
X140060895Y-101532406D01*
X140005465Y-101763289D01*
X139986835Y-102000000D01*
X138425682Y-102000000D01*
X138348240Y-101813037D01*
X138314805Y-101758476D01*
X138226759Y-101614798D01*
X138226755Y-101614792D01*
X138224176Y-101610584D01*
X138069969Y-101430031D01*
X137889416Y-101275824D01*
X137885208Y-101273245D01*
X137885202Y-101273241D01*
X137691183Y-101154346D01*
X137686963Y-101151760D01*
X137682393Y-101149867D01*
X137682389Y-101149865D01*
X137472167Y-101062789D01*
X137472165Y-101062788D01*
X137467594Y-101060895D01*
X137387391Y-101041640D01*
X137241524Y-101006620D01*
X137241518Y-101006619D01*
X137236711Y-101005465D01*
X137000000Y-100986835D01*
X136763289Y-101005465D01*
X136758482Y-101006619D01*
X136758476Y-101006620D01*
X136612609Y-101041640D01*
X136532406Y-101060895D01*
X136527835Y-101062788D01*
X136527833Y-101062789D01*
X136317611Y-101149865D01*
X136317607Y-101149867D01*
X136313037Y-101151760D01*
X136308817Y-101154346D01*
X136114798Y-101273241D01*
X136114792Y-101273245D01*
X136110584Y-101275824D01*
X135930031Y-101430031D01*
X135775824Y-101610584D01*
X135773245Y-101614792D01*
X135773241Y-101614798D01*
X135685195Y-101758476D01*
X135651760Y-101813037D01*
X135560895Y-102032406D01*
X135559740Y-102037218D01*
X135509245Y-102247546D01*
X135505465Y-102263289D01*
X135486835Y-102500000D01*
X134508000Y-102500000D01*
X134508000Y-98000000D01*
X135387028Y-98000000D01*
X135406886Y-98252324D01*
X135408040Y-98257131D01*
X135408041Y-98257137D01*
X135445543Y-98413345D01*
X135465972Y-98498436D01*
X135467865Y-98503007D01*
X135467866Y-98503009D01*
X135504728Y-98592000D01*
X135562831Y-98732274D01*
X135695078Y-98948081D01*
X135859457Y-99140543D01*
X136051919Y-99304922D01*
X136267726Y-99437169D01*
X136272296Y-99439062D01*
X136272300Y-99439064D01*
X136496991Y-99532134D01*
X136501564Y-99534028D01*
X136586655Y-99554457D01*
X136742863Y-99591959D01*
X136742869Y-99591960D01*
X136747676Y-99593114D01*
X137000000Y-99612972D01*
X137252324Y-99593114D01*
X137257131Y-99591960D01*
X137257137Y-99591959D01*
X137413345Y-99554457D01*
X137498436Y-99534028D01*
X137503009Y-99532134D01*
X137727700Y-99439064D01*
X137727704Y-99439062D01*
X137732274Y-99437169D01*
X137948081Y-99304922D01*
X138140543Y-99140543D01*
X138304922Y-98948081D01*
X138437169Y-98732274D01*
X138495273Y-98592000D01*
X138532134Y-98503009D01*
X138532135Y-98503007D01*
X138534028Y-98498436D01*
X138554457Y-98413345D01*
X138591959Y-98257137D01*
X138591960Y-98257131D01*
X138593114Y-98252324D01*
X138612972Y-98000000D01*
X183387028Y-98000000D01*
X183406886Y-98252324D01*
X183408040Y-98257131D01*
X183408041Y-98257137D01*
X183445543Y-98413345D01*
X183465972Y-98498436D01*
X183467865Y-98503007D01*
X183467866Y-98503009D01*
X183504728Y-98592000D01*
X183562831Y-98732274D01*
X183695078Y-98948081D01*
X183859457Y-99140543D01*
X184051919Y-99304922D01*
X184267726Y-99437169D01*
X184272296Y-99439062D01*
X184272300Y-99439064D01*
X184496991Y-99532134D01*
X184501564Y-99534028D01*
X184586655Y-99554457D01*
X184742863Y-99591959D01*
X184742869Y-99591960D01*
X184747676Y-99593114D01*
X185000000Y-99612972D01*
X185252324Y-99593114D01*
X185257131Y-99591960D01*
X185257137Y-99591959D01*
X185413345Y-99554457D01*
X185498436Y-99534028D01*
X185503009Y-99532134D01*
X185727700Y-99439064D01*
X185727704Y-99439062D01*
X185732274Y-99437169D01*
X185948081Y-99304922D01*
X186140543Y-99140543D01*
X186304922Y-98948081D01*
X186437169Y-98732274D01*
X186495273Y-98592000D01*
X186532134Y-98503009D01*
X186532135Y-98503007D01*
X186534028Y-98498436D01*
X186554457Y-98413345D01*
X186591959Y-98257137D01*
X186591960Y-98257131D01*
X186593114Y-98252324D01*
X186612972Y-98000000D01*
X186593114Y-97747676D01*
X186582629Y-97704000D01*
X186535183Y-97506376D01*
X186534028Y-97501564D01*
X186503628Y-97428172D01*
X186439064Y-97272300D01*
X186439062Y-97272296D01*
X186437169Y-97267726D01*
X186304922Y-97051919D01*
X186140543Y-96859457D01*
X185948081Y-96695078D01*
X185732274Y-96562831D01*
X185727704Y-96560938D01*
X185727700Y-96560936D01*
X185503009Y-96467866D01*
X185503007Y-96467865D01*
X185498436Y-96465972D01*
X185413345Y-96445543D01*
X185257137Y-96408041D01*
X185257131Y-96408040D01*
X185252324Y-96406886D01*
X185000000Y-96387028D01*
X184747676Y-96406886D01*
X184742869Y-96408040D01*
X184742863Y-96408041D01*
X184586655Y-96445543D01*
X184501564Y-96465972D01*
X184496993Y-96467865D01*
X184496991Y-96467866D01*
X184272300Y-96560936D01*
X184272296Y-96560938D01*
X184267726Y-96562831D01*
X184051919Y-96695078D01*
X183859457Y-96859457D01*
X183695078Y-97051919D01*
X183562831Y-97267726D01*
X183560938Y-97272296D01*
X183560936Y-97272300D01*
X183496372Y-97428172D01*
X183465972Y-97501564D01*
X183464817Y-97506376D01*
X183417372Y-97704000D01*
X183406886Y-97747676D01*
X183387028Y-98000000D01*
X138612972Y-98000000D01*
X138593114Y-97747676D01*
X138582629Y-97704000D01*
X138535183Y-97506376D01*
X138534028Y-97501564D01*
X138503628Y-97428172D01*
X138439064Y-97272300D01*
X138439062Y-97272296D01*
X138437169Y-97267726D01*
X138304922Y-97051919D01*
X138140543Y-96859457D01*
X137948081Y-96695078D01*
X137732274Y-96562831D01*
X137727704Y-96560938D01*
X137727700Y-96560936D01*
X137503009Y-96467866D01*
X137503007Y-96467865D01*
X137498436Y-96465972D01*
X137413345Y-96445543D01*
X137257137Y-96408041D01*
X137257131Y-96408040D01*
X137252324Y-96406886D01*
X137000000Y-96387028D01*
X136747676Y-96406886D01*
X136742869Y-96408040D01*
X136742863Y-96408041D01*
X136586655Y-96445543D01*
X136501564Y-96465972D01*
X136496993Y-96467865D01*
X136496991Y-96467866D01*
X136272300Y-96560936D01*
X136272296Y-96560938D01*
X136267726Y-96562831D01*
X136051919Y-96695078D01*
X135859457Y-96859457D01*
X135695078Y-97051919D01*
X135562831Y-97267726D01*
X135560938Y-97272296D01*
X135560936Y-97272300D01*
X135496372Y-97428172D01*
X135465972Y-97501564D01*
X135464817Y-97506376D01*
X135417372Y-97704000D01*
X135406886Y-97747676D01*
X135387028Y-98000000D01*
X134508000Y-98000000D01*
X134508000Y-95634000D01*
X134528002Y-95565879D01*
X134581658Y-95519386D01*
X134634000Y-95508000D01*
X187366000Y-95508000D01*
X187434121Y-95528002D01*
G37*
G04 #@! TD.AperFunction*
M02*
